<svg width="155" height="24" viewBox="0 0 155 24" fill="none" xmlns="http://www.w3.org/2000/svg">
<path d="M43.8003 0.882812L53.6198 23.4472H51.0357L43.8003 6.30331L36.4356 23.4472H33.8516L43.8003 0.882812Z" fill="#8D8DF9"/>
<path d="M60.08 12.8583L58.6588 10.7153L63.1809 4.03427H65.8942L60.08 12.8583ZM59.5632 13.6147V23.4472H57.1083V13.6147L49.0977 0.882812H51.9401L59.5632 13.6147Z" fill="#8D8DF9"/>
<path d="M73.0002 0.882812L82.8197 23.4472H80.3649L73.0002 6.30331L65.6356 23.4472H63.0515L73.0002 0.882812Z" fill="#8D8DF9"/>
<path d="M64.9896 0.882812L63.5684 3.15186H66.4108L67.8321 0.882812H64.9896Z" fill="#8D8DF9"/>
<path d="M33.2054 11.7244C33.0762 10.842 32.8178 9.95963 32.5594 9.07722C31.7842 6.93423 30.6214 5.04336 28.8125 3.53066C27.7789 2.5222 26.4868 1.76585 25.1948 1.13556C25.0656 1.0095 24.9364 1.0095 24.8072 1.13556L23.3859 1.76585C22.4815 2.27008 21.4479 2.77431 20.5434 3.27855C19.5098 3.90884 18.6054 4.66519 17.5718 5.42154L16.7965 6.05183C16.6673 6.17788 16.5381 6.17788 16.4089 6.05183C16.0213 5.79971 15.6337 5.54759 15.3753 5.29548C13.5664 3.90884 11.6284 2.77431 9.6903 1.76585C9.30269 1.51373 8.78588 1.38768 8.39826 1.26162C8.26906 1.13556 8.01065 1.13556 7.88145 1.26162H7.75224C7.23543 1.51373 6.71861 1.76585 6.20179 2.14402C5.29737 2.77431 4.52214 3.4046 3.74692 4.16095C2.84249 5.04336 2.06726 6.17788 1.55045 7.31241C0.516816 9.20328 0 11.3463 0 13.4893C0 14.1195 0 14.8759 0.129204 15.5062C0.258408 16.1365 0.258408 16.7668 0.387612 17.271C0.64602 18.4055 1.03363 19.6661 1.67965 20.6746C2.19647 21.683 2.84249 22.5654 3.35931 23.4478H7.62304L7.36463 22.6915C6.84781 21.3049 6.331 19.9182 6.07259 18.5316C5.81418 17.7752 5.68498 16.8928 5.55577 16.1365C5.42657 15.6322 5.42657 15.128 5.42657 14.6238C5.42657 14.3717 5.42657 14.1195 5.42657 13.7414C5.42657 13.2371 5.55577 12.7329 5.55577 12.2287C5.55577 11.7244 5.68498 11.2202 5.81418 10.716C6.331 8.95116 7.88145 7.69058 9.6903 7.43846C10.4655 7.31241 11.2408 7.56452 11.7576 7.9427C12.1452 8.32087 12.5328 8.69905 12.7912 9.20328C13.1788 9.95963 13.4372 10.5899 13.5664 11.3463C13.8248 12.3547 13.954 13.3632 13.954 14.4977C13.954 15.2541 13.954 16.0104 13.954 16.7668C13.954 17.5231 13.954 18.2795 13.954 19.0358C13.954 19.7922 13.954 22.4394 13.8248 23.1957C13.8248 23.3218 13.8248 23.3218 13.954 23.3218H19.639H19.7682C19.7682 23.3218 19.7682 23.3218 19.7682 23.1957C19.7682 22.6915 19.639 20.4224 19.639 19.9182C19.639 19.1619 19.5098 18.2795 19.5098 17.5231C19.5098 16.5146 19.5098 15.5062 19.5098 14.4977C19.5098 13.4893 19.639 12.6068 19.7682 11.5984C19.8974 10.9681 20.0266 10.2117 20.285 9.58145C20.5434 8.95116 20.9311 8.44693 21.4479 7.9427C21.9647 7.43846 22.7399 7.18635 23.3859 7.18635C23.7735 7.18635 24.1612 7.18635 24.5488 7.31241C25.4532 7.56452 26.2284 8.06876 26.8744 8.8251C27.3913 9.58145 27.7789 10.4639 27.9081 11.3463C28.0373 12.1026 28.0373 12.7329 28.1665 13.3632C28.1665 13.6153 28.1665 13.9935 28.1665 14.2456C28.0373 14.8759 28.0373 15.5062 27.7789 16.2625C27.5205 17.5231 27.2621 18.6576 26.8744 19.9182C26.4868 21.0527 26.0992 22.1873 25.7116 23.3218H29.9753L31.5258 20.8006C32.301 19.6661 32.6886 18.4055 32.947 17.1449C33.2054 16.1365 33.3346 15.128 33.3346 14.1195C33.3346 13.4893 33.3346 12.6068 33.2054 11.7244Z" fill="#8D8DF9"/>
<path d="M86.4376 1.00781H92.7686C93.1562 1.00781 93.673 1.00781 94.319 1.13387C94.8358 1.13387 95.4818 1.25993 95.9987 1.38599C97.1615 1.6381 98.3243 2.01628 99.4872 2.64657C100.521 3.27686 101.554 4.03321 102.33 4.91561C103.234 5.92408 103.88 6.93254 104.268 8.19312C104.785 9.45371 105.043 10.8403 104.914 12.227C104.914 13.4876 104.655 14.7481 104.268 16.0087C103.88 17.1433 103.234 18.1517 102.459 19.1602C101.684 20.0426 100.908 20.925 99.8748 21.5553C98.8411 22.1856 97.6783 22.6898 96.5155 22.9419C95.9986 23.068 95.3526 23.194 94.8358 23.194C94.1898 23.194 93.5438 23.194 92.7686 23.194H86.3083L86.4376 1.00781ZM92.7686 21.1771C93.4146 21.1771 94.0606 21.1771 94.5774 21.1771C95.0942 21.1771 95.611 21.0511 96.1279 20.925C97.0323 20.6729 97.9367 20.2947 98.7119 19.7905C100.262 18.6559 101.554 17.0172 102.071 15.2524C102.459 14.2439 102.588 13.2354 102.588 12.227C102.588 11.0925 102.459 10.084 102.071 8.94947C101.813 8.06707 101.425 7.18466 100.779 6.30225C100.133 5.5459 99.4872 4.91561 98.5827 4.41138C97.6783 3.90715 96.7739 3.52897 95.8694 3.27686C95.3526 3.1508 94.8358 3.1508 94.319 3.02474C93.8022 3.02474 93.2854 3.02474 92.7686 3.02474H88.7632V21.1771H92.7686Z" fill="#FEFEFE"/>
<path d="M114.733 0L124.811 23.1947H122.227L114.733 5.54656L107.11 23.0686H104.526L114.733 0Z" fill="#FEFEFE"/>
<path d="M127.912 3.02474H121.969V1.00781H136.44V3.02474H130.367V23.194H127.912V3.02474Z" fill="#FEFEFE"/>
<path d="M143.933 0L154.011 23.1947H151.427L143.933 5.67262L136.31 23.1947H133.726L143.933 0Z" fill="#FEFEFE"/>
</svg>
