<svg width="1810" height="350" viewBox="0 0 1810 350" fill="none" xmlns="http://www.w3.org/2000/svg">
<g clip-path="url(#clip0)">
<path d="M1172.12 169.358C1178.22 170.858 1183.42 173.358 1187.62 177.958C1191.02 181.558 1193.02 186.458 1193.02 191.458C1193.12 201.558 1193.12 211.558 1193.02 221.658C1192.92 234.158 1185.32 242.758 1171.92 245.458C1168.22 246.158 1164.42 246.558 1160.72 246.558C1125.12 246.658 1089.52 246.558 1053.92 246.658C1051.52 246.658 1050.82 246.058 1050.82 243.558C1050.92 197.758 1050.92 152.058 1050.82 106.258C1050.82 103.858 1051.42 103.158 1053.92 103.158C1088.32 103.258 1122.82 103.158 1157.22 103.258C1163.42 103.258 1169.42 104.058 1175.12 106.558C1183.82 110.358 1189.02 116.958 1189.42 126.458C1189.82 135.658 1189.72 144.958 1189.12 154.158C1188.42 163.158 1184.82 167.158 1174.02 169.058C1173.32 169.058 1172.72 169.258 1172.12 169.358ZM1115.62 229.258C1128.82 229.258 1141.92 229.358 1155.12 229.158C1158.72 229.058 1162.32 228.558 1165.72 227.558C1170.02 226.258 1172.62 222.958 1172.72 218.358C1172.92 209.958 1173.12 201.558 1172.82 193.158C1172.62 186.658 1169.52 183.358 1163.12 181.858C1161.12 181.358 1159.02 181.058 1156.92 181.058C1128.82 180.958 1100.82 181.058 1072.82 180.958C1070.62 180.958 1070.12 181.758 1070.12 183.758C1070.22 197.958 1070.22 212.158 1070.12 226.358C1070.12 228.858 1071.02 229.358 1073.32 229.358C1087.32 229.258 1101.42 229.258 1115.62 229.258ZM1114.22 163.858V163.658C1127.92 163.658 1141.72 163.758 1155.52 163.558C1164.42 163.458 1169.52 158.558 1169.52 150.758C1169.62 145.158 1169.62 139.458 1169.52 133.858C1169.42 127.658 1166.42 123.558 1160.42 121.758C1157.82 120.958 1155.02 120.558 1152.32 120.458C1125.92 120.358 1099.42 120.458 1073.02 120.358C1070.62 120.358 1070.02 121.158 1070.02 123.358C1070.12 135.658 1070.02 148.058 1070.02 160.358C1070.02 163.658 1070.02 163.758 1073.32 163.758L1114.22 163.858Z" fill="white"/>
<path d="M925.316 181.458V184.458C925.316 193.258 925.316 202.058 925.316 210.958C925.416 222.058 932.316 229.058 943.416 229.058C975.116 229.058 1006.72 229.058 1038.42 229.058C1043.42 229.058 1042.82 228.558 1042.82 233.458C1042.82 236.858 1042.72 240.358 1042.92 243.758C1043.02 246.058 1042.22 246.558 1040.02 246.558C1029.62 246.458 1019.22 246.558 1008.72 246.558C985.516 246.558 962.316 246.158 939.216 246.658C922.616 247.058 907.916 234.358 906.216 218.858C906.016 217.358 906.016 215.858 906.016 214.358C906.016 188.158 906.016 161.958 906.016 135.758C906.016 117.258 920.016 103.258 938.516 103.258C972.316 103.258 1006.02 103.258 1039.82 103.158C1042.22 103.158 1043.12 103.658 1042.92 106.158C1042.72 110.358 1042.82 114.558 1042.92 118.758C1042.92 120.258 1042.42 120.958 1040.92 120.858C1040.12 120.858 1039.42 120.858 1038.62 120.858C1006.82 120.858 974.916 120.858 943.116 120.858C933.916 120.858 927.616 125.758 925.616 134.458C925.316 135.958 925.216 137.458 925.316 138.958C925.316 146.158 925.416 153.358 925.216 160.658C925.116 163.158 926.016 163.758 928.316 163.758C958.816 163.658 989.316 163.658 1019.82 163.758C1023.12 163.758 1023.12 163.758 1023.12 167.058C1023.12 170.958 1023.02 174.758 1023.22 178.658C1023.32 180.958 1022.62 181.658 1020.32 181.658C991.616 181.558 962.816 181.558 934.116 181.558L925.316 181.458Z" fill="white"/>
<path d="M1202.92 229.158H1206.52C1238.32 229.158 1270.02 229.158 1301.82 229.158C1312.62 229.158 1319.62 222.658 1320.12 211.958C1320.32 206.958 1320.32 201.858 1319.92 196.858C1319.42 188.158 1312.12 181.358 1303.42 181.458C1279.32 181.458 1255.22 181.458 1231.12 181.458C1225.62 181.458 1220.22 180.458 1215.32 177.758C1205.72 172.458 1199.22 164.558 1198.42 153.358C1197.82 145.158 1197.62 136.858 1198.82 128.758C1200.92 114.358 1214.32 103.358 1229.22 103.258C1261.82 103.058 1294.42 103.258 1327.02 103.158C1328.92 103.158 1329.52 103.758 1329.52 105.658C1329.42 109.658 1329.42 113.758 1329.52 117.758C1329.62 119.958 1328.82 120.558 1326.62 120.558C1296.12 120.458 1265.62 120.458 1235.12 120.558C1228.72 120.558 1223.52 122.958 1219.92 128.358C1215.92 134.258 1216.02 149.958 1220.22 155.658C1223.92 160.758 1228.92 163.058 1235.12 163.058C1258.92 163.058 1282.62 163.058 1306.42 163.058C1312.22 163.058 1317.82 164.058 1322.82 167.058C1333.42 173.358 1339.12 182.558 1339.32 194.958C1339.42 201.558 1339.42 208.258 1339.32 214.858C1339.22 232.158 1325.32 246.458 1308.02 246.458C1273.82 246.558 1239.62 246.458 1205.42 246.558C1203.62 246.558 1202.82 246.158 1202.92 244.158C1203.02 239.358 1202.92 234.558 1202.92 229.158Z" fill="white"/>
<path d="M578.716 287.358C572.816 287.358 567.216 287.358 561.616 287.258C561.116 287.258 560.516 286.458 560.316 285.958C560.116 285.258 560.216 284.458 560.216 283.658C560.216 237.258 560.216 190.958 560.216 144.658C560.216 140.958 560.216 140.958 563.916 140.958C588.116 140.958 612.316 140.958 636.416 140.958C645.616 140.958 653.516 143.958 660.016 150.458C665.216 155.658 667.716 161.958 667.816 169.258C667.916 185.558 667.916 201.858 667.816 218.158C667.716 233.358 655.016 246.058 639.116 246.458C624.116 246.858 609.016 246.558 594.016 246.558C589.816 246.558 585.616 246.658 581.416 246.558C579.316 246.458 578.716 247.258 578.716 249.358C578.816 260.958 578.716 272.558 578.716 284.158V287.358ZM578.716 193.458C578.716 204.658 578.716 215.958 578.716 227.158C578.716 228.858 578.916 230.058 581.116 230.058C598.916 230.058 616.716 230.158 634.516 230.058C642.316 229.958 649.016 223.258 649.116 215.458C649.316 200.958 649.216 186.458 649.116 171.858C649.016 169.558 648.316 167.458 647.216 165.458C643.816 159.458 638.016 157.458 631.416 157.358C614.916 157.258 598.316 157.358 581.816 157.258C579.516 157.258 578.816 158.058 578.816 160.358C578.716 171.458 578.716 182.458 578.716 193.458Z" fill="white"/>
<path d="M737.516 203.358C723.616 203.358 709.816 203.458 695.916 203.358C693.416 203.358 692.516 204.058 692.616 206.658C692.816 211.458 692.616 216.258 692.716 221.058C692.716 227.158 696.116 230.658 702.416 230.758C713.116 230.858 723.916 230.758 734.616 230.758C746.316 230.758 757.916 230.858 769.616 230.758C771.716 230.758 772.416 231.358 772.316 233.458C772.216 237.158 772.216 240.858 772.316 244.558C772.316 246.158 771.716 246.758 770.116 246.758C745.916 246.758 721.716 246.858 697.516 246.658C686.816 246.558 677.516 239.558 675.016 230.358C674.516 228.258 674.216 226.058 674.216 223.958C674.116 206.158 674.216 188.358 674.216 170.558C674.216 155.558 685.616 142.958 700.616 141.658C705.016 141.258 709.516 141.258 713.916 141.258C727.616 141.358 741.516 141.058 755.216 141.658C767.816 142.258 778.816 152.158 781.316 163.958C781.616 165.858 781.816 167.758 781.716 169.658C781.716 179.858 781.616 190.158 781.816 200.358C781.816 203.058 780.916 203.558 778.516 203.558C764.916 203.358 751.216 203.358 737.516 203.358ZM728.016 186.858C738.816 186.858 749.716 186.758 760.516 186.858C762.716 186.858 763.516 186.358 763.416 184.058C763.216 180.558 763.416 177.058 763.416 173.458C763.316 165.058 757.116 158.058 748.716 157.858C735.016 157.558 721.316 157.558 707.616 157.858C699.216 158.058 692.916 164.958 692.716 173.358C692.616 176.958 692.816 180.558 692.616 184.158C692.516 186.258 693.416 186.858 695.416 186.858C706.316 186.758 717.116 186.858 728.016 186.858Z" fill="white"/>
<path d="M897.716 205.058C897.716 217.958 897.616 230.758 897.716 243.658C897.716 245.958 897.116 246.758 894.816 246.658C890.516 246.458 886.216 246.458 881.916 246.658C879.616 246.758 879.116 245.958 879.116 243.758C879.216 220.858 879.216 197.858 879.116 174.958C879.116 164.858 873.816 158.158 863.716 157.758C849.816 157.158 835.816 157.258 821.916 157.858C812.516 158.258 807.116 164.858 807.116 174.258C807.016 193.558 807.116 212.858 807.116 232.258C807.116 236.258 807.016 240.158 807.116 244.058C807.116 245.858 806.716 246.658 804.716 246.558C800.016 246.458 795.316 246.458 790.616 246.558C788.916 246.558 788.516 245.958 788.516 244.358C788.516 219.058 788.416 193.758 788.616 168.558C788.716 155.258 799.616 143.558 813.316 141.558C815.216 141.258 817.116 141.058 819.116 141.058C835.216 141.058 851.416 140.958 867.516 141.058C878.516 141.158 887.216 145.858 893.616 154.758C896.216 158.458 897.616 162.758 897.616 167.258C897.716 179.858 897.716 192.458 897.716 205.058Z" fill="white"/>
<path d="M549.316 174.258C549.316 187.458 549.416 200.558 549.316 213.758C549.216 228.658 538.716 241.458 524.216 244.558C522.016 245.058 519.816 245.258 517.516 245.258C515.916 245.258 514.416 245.258 512.816 245.258C493.316 245.758 473.716 245.358 454.216 245.458C448.516 245.458 442.916 245.458 437.216 245.558C433.316 245.658 429.416 245.458 425.716 244.358C414.116 240.858 406.516 233.458 403.216 221.758C402.516 219.158 402.116 216.458 402.116 213.758C402.116 210.658 402.116 207.458 402.116 204.358C402.116 183.558 402.016 162.758 402.016 141.958C402.016 138.558 401.916 135.158 402.216 131.758C402.616 125.858 404.616 120.258 408.116 115.458C413.016 108.558 420.516 103.858 428.916 102.658C432.016 102.158 435.216 102.358 438.316 102.258C448.916 101.758 459.616 102.158 470.216 102.058C480.816 101.958 491.516 102.058 502.216 102.058C507.516 102.058 512.816 101.958 518.116 102.058C525.916 102.158 533.316 105.258 539.016 110.558C544.216 115.158 547.616 121.458 548.816 128.258C549.216 130.358 549.416 132.458 549.416 134.558C549.316 147.858 549.316 161.058 549.316 174.258ZM476.316 228.258C487.416 228.258 498.516 228.258 509.616 228.258C511.916 228.258 514.216 228.158 516.416 227.858C520.916 227.358 525.016 224.958 527.816 221.358C529.716 219.058 530.816 216.158 531.116 213.158C531.216 211.558 531.116 209.958 531.116 208.258C531.116 204.458 531.016 200.558 531.016 196.758C531.016 193.958 530.916 191.158 530.916 188.358L530.816 178.458L530.716 169.658L530.616 160.158C530.616 157.158 530.516 154.158 530.516 151.158C530.416 146.958 530.416 142.758 530.316 138.558C530.316 136.858 530.116 135.158 529.916 133.458C529.416 129.858 527.616 126.458 524.916 123.958C521.616 120.858 517.716 119.558 513.216 119.258C512.616 119.258 512.016 119.458 511.316 119.458C510.316 119.458 509.216 119.358 508.116 119.358C503.916 119.358 499.616 119.258 495.416 119.258C477.216 119.258 459.116 119.258 440.916 119.258C439.016 119.258 437.016 119.358 435.116 119.658C431.116 120.058 427.316 121.958 424.616 124.958C421.916 127.858 420.216 131.358 420.216 135.358C420.216 138.658 420.316 141.958 420.316 145.358L420.416 154.558L420.516 164.358L420.616 173.458L420.716 183.058L420.816 191.958C420.816 195.158 420.916 198.358 420.916 201.558C420.916 204.158 420.916 206.858 421.016 209.458C421.016 211.558 421.316 213.558 421.716 215.658C423.916 224.358 430.916 228.358 438.616 228.558C438.916 228.558 439.216 228.258 439.516 228.258C441.316 228.258 443.016 228.358 444.816 228.358L476.316 228.258Z" fill="white"/>
<path d="M1398.32 247.058V107.858H1436.72C1485.82 107.858 1510.32 130.458 1510.32 175.658C1510.32 197.158 1503.52 214.458 1489.92 227.458C1476.32 240.458 1458.02 247.058 1435.22 247.058H1398.32ZM1414.62 122.558V232.258H1435.42C1453.62 232.258 1467.82 227.358 1478.02 217.558C1488.22 207.758 1493.22 193.958 1493.22 176.058C1493.22 140.358 1474.22 122.558 1436.32 122.558H1414.62V122.558Z" fill="#F0584D"/>
<path d="M1577.02 249.358C1562.32 249.358 1550.62 244.758 1541.82 235.458C1533.02 226.158 1528.72 213.858 1528.72 198.558C1528.72 181.858 1533.32 168.858 1542.42 159.458C1551.52 150.058 1563.92 145.358 1579.42 145.358C1594.22 145.358 1605.82 149.958 1614.12 159.058C1622.42 168.158 1626.62 180.858 1626.62 197.058C1626.62 212.958 1622.12 225.658 1613.22 235.158C1604.12 244.658 1592.12 249.358 1577.02 249.358ZM1578.22 158.758C1568.02 158.758 1559.92 162.258 1553.92 169.158C1547.92 176.058 1545.02 185.758 1545.02 197.958C1545.02 209.758 1548.02 219.058 1554.02 225.858C1560.02 232.658 1568.12 236.058 1578.22 236.058C1588.52 236.058 1596.42 232.758 1601.92 226.058C1607.42 219.358 1610.22 209.958 1610.22 197.658C1610.22 185.258 1607.42 175.658 1601.92 168.958C1596.42 162.058 1588.52 158.758 1578.22 158.758Z" fill="#F0584D"/>
<path d="M1719.72 242.458C1712.12 247.058 1703.02 249.358 1692.52 249.358C1678.32 249.358 1666.92 244.758 1658.22 235.558C1649.52 226.358 1645.22 214.358 1645.22 199.658C1645.22 183.258 1649.92 170.158 1659.32 160.158C1668.72 150.258 1681.22 145.258 1696.92 145.258C1705.62 145.258 1713.32 146.858 1720.02 150.058V166.358C1712.62 161.158 1704.72 158.558 1696.32 158.558C1686.12 158.558 1677.82 162.158 1671.32 169.458C1664.82 176.758 1661.52 186.258 1661.52 198.158C1661.52 209.758 1664.62 218.958 1670.72 225.758C1676.82 232.458 1685.02 235.858 1695.32 235.858C1704.02 235.858 1712.12 232.958 1719.82 227.258V242.458H1719.72Z" fill="#F0584D"/>
<path d="M1737.82 243.458V226.358C1746.52 232.758 1756.02 235.958 1766.42 235.958C1780.42 235.958 1787.42 231.258 1787.42 221.958C1787.42 219.258 1786.82 217.058 1785.62 215.258C1784.42 213.458 1782.82 211.758 1780.72 210.358C1778.72 208.958 1776.32 207.658 1773.52 206.558C1770.82 205.458 1767.82 204.258 1764.62 203.058C1760.22 201.358 1756.32 199.558 1753.02 197.758C1749.72 195.958 1746.92 193.958 1744.72 191.758C1742.52 189.558 1740.82 186.958 1739.72 184.158C1738.62 181.358 1738.02 177.958 1738.02 174.158C1738.02 169.458 1739.12 165.358 1741.22 161.758C1743.32 158.158 1746.22 155.158 1749.72 152.758C1753.32 150.358 1757.32 148.458 1761.92 147.258C1766.52 146.058 1771.22 145.458 1776.02 145.458C1784.62 145.458 1792.32 146.958 1799.12 149.958V166.058C1791.82 161.258 1783.42 158.858 1773.92 158.858C1770.92 158.858 1768.22 159.158 1765.82 159.858C1763.42 160.558 1761.42 161.458 1759.62 162.758C1757.92 163.958 1756.62 165.458 1755.62 167.158C1754.72 168.858 1754.22 170.758 1754.22 172.858C1754.22 175.458 1754.72 177.658 1755.62 179.358C1756.52 181.058 1757.92 182.658 1759.72 184.058C1761.52 185.458 1763.72 186.658 1766.32 187.758C1768.92 188.858 1771.82 190.058 1775.12 191.358C1779.52 193.058 1783.42 194.758 1786.92 196.558C1790.42 198.358 1793.42 200.358 1795.82 202.558C1798.32 204.758 1800.22 207.358 1801.52 210.258C1802.82 213.158 1803.52 216.658 1803.52 220.658C1803.52 225.558 1802.42 229.858 1800.32 233.458C1798.12 237.058 1795.22 240.058 1791.62 242.458C1788.02 244.858 1783.82 246.658 1779.12 247.758C1774.42 248.958 1769.42 249.458 1764.32 249.458C1754.22 249.358 1745.32 247.358 1737.82 243.458Z" fill="#F0584D"/>
</g>
<path d="M174.615 325.027C257.761 325.027 325.165 257.602 325.165 174.428C325.165 91.2545 257.761 23.829 174.615 23.829C91.4684 23.829 24.0648 91.2545 24.0648 174.428C24.0648 257.602 91.4684 325.027 174.615 325.027Z" fill="white"/>
<path opacity="0.37" d="M175 350C271.65 350 350 271.65 350 175C350 78.3502 271.65 0 175 0C78.3502 0 0 78.3502 0 175C0 271.65 78.3502 350 175 350Z" fill="white"/>
<path d="M131.106 63.4804H134.379C134.379 63.671 134.571 63.4804 134.764 63.671C136.111 63.8617 137.651 64.2429 138.999 64.6242C142.272 65.9586 144.775 68.4368 146.892 71.1057C150.165 75.6808 152.475 80.6373 154.016 85.7843C155.556 90.3595 156.518 95.1253 157.481 99.8911C158.443 104.657 159.214 109.613 159.791 114.57C160.176 118.573 160.561 122.767 160.754 126.961C159.791 128.676 159.214 130.583 158.443 132.489C157.673 134.586 157.096 136.874 156.903 138.971C155.363 134.205 155.171 129.058 155.363 123.911C154.401 126.008 153.631 127.914 153.053 130.011C153.053 129.439 153.053 128.867 153.053 128.295C153.053 125.054 153.053 121.623 152.86 118.382C152.475 112.854 151.898 107.135 150.935 101.607C149.78 95.3159 147.855 89.2157 144.967 83.4967C143.62 80.8279 142.079 78.1591 139.577 76.2527C137.459 74.3464 134.956 72.8214 131.876 72.6307C127.64 72.4401 123.983 73.9652 120.902 76.634C118.785 78.3497 117.629 80.8279 116.667 83.3061C115.127 87.5 115.127 91.8846 115.512 96.2691C116.282 101.797 117.437 107.326 119.17 112.663C123.02 125.245 128.796 136.683 136.304 147.549C138.614 150.98 141.309 154.031 144.39 156.89C145.93 158.224 146.892 158.224 147.855 156.318C149.01 154.031 149.973 151.743 150.743 149.074C151.128 147.358 151.513 145.643 151.898 143.927C152.283 145.452 152.475 146.787 153.053 148.121C154.016 150.218 154.593 152.505 156.903 153.649C157.096 153.649 157.096 154.031 157.096 154.221C156.518 156.318 156.903 158.224 157.288 160.131C157.673 162.228 158.443 164.325 159.214 166.231C159.599 167.565 160.176 168.709 160.946 169.853C160.561 167.947 160.561 165.85 161.139 163.943C161.716 162.037 162.294 160.131 163.449 158.415C162.679 165.85 163.834 172.903 166.529 179.956C166.529 179.766 166.529 179.766 166.529 179.575C166.529 175.763 166.529 172.141 167.107 168.328C167.299 166.04 167.684 163.753 168.647 161.656C169.225 160.512 169.802 159.368 170.957 158.987C171.342 158.796 171.535 158.796 171.727 159.178C172.882 161.846 173.845 164.515 174.423 167.375C174.808 169.281 175 171.187 174.615 173.094C174.615 173.284 174.615 173.284 174.615 173.475C174.808 173.475 174.808 173.284 175 173.284C177.695 169.662 179.813 165.659 180.583 161.275C180.968 160.512 180.968 159.368 180.968 158.224C180.968 157.081 180.583 155.937 180.583 154.984C181.931 156.127 183.086 157.271 184.049 158.606C185.974 161.084 187.706 163.943 188.476 166.993C188.862 168.519 189.054 170.234 188.862 171.95C188.862 172.903 188.476 173.856 188.476 174.809C188.476 174.809 188.476 174.809 188.476 175V174.809C188.669 174.619 188.669 174.428 188.862 174.237C190.209 171.569 191.172 168.709 192.134 165.85C192.904 163.371 193.289 160.703 193.289 158.034C193.289 157.653 193.289 157.462 193.289 157.081C193.675 157.462 194.252 157.843 194.445 158.224C195.6 159.749 195.985 161.465 196.37 163.181C196.562 164.325 196.755 165.659 196.947 166.803C197.14 166.231 197.525 165.659 197.525 165.087C198.487 161.846 199.065 158.415 198.68 154.984C198.487 153.459 197.91 151.934 197.14 150.599C196.947 150.218 196.947 150.027 197.14 149.837C197.717 149.074 198.102 148.121 198.295 147.358V147.549C199.065 150.599 200.028 153.649 201.568 156.509C202.723 158.606 203.493 158.606 205.226 157.081C207.151 155.365 209.076 153.268 210.616 151.171C215.622 144.69 219.857 137.446 223.322 130.202C227.75 121.242 230.831 111.71 232.756 101.988C233.526 97.4129 234.296 93.0283 233.719 88.4532C233.141 84.8312 231.986 81.3998 229.676 78.3497C227.558 75.4902 224.478 74.1558 221.012 73.3933C217.354 72.4401 214.082 73.2026 211.001 75.4902C209.269 76.8246 207.728 78.3497 206.573 80.0654C203.878 83.878 202.145 88.2626 200.605 92.6471C199.065 97.0316 198.295 101.607 197.525 106.373C196.947 109.804 196.562 113.235 196.37 116.857C196.37 118.573 196.177 120.098 196.177 121.623C196.177 124.292 196.177 126.961 196.177 129.63C196.177 131.536 196.562 133.442 196.37 135.349C195.985 134.395 195.6 133.442 195.215 132.298C195.022 131.727 194.637 130.964 194.445 130.392C194.445 132.108 194.445 133.824 194.445 135.539C194.445 137.255 194.252 138.78 193.482 140.305C192.904 141.639 192.134 142.974 190.594 143.355C190.594 143.355 190.402 143.355 190.209 142.974C189.824 141.83 189.824 140.496 190.017 139.161C190.402 137.255 191.172 135.73 192.134 134.014C192.134 133.824 192.327 133.824 192.327 133.633C192.327 133.442 191.942 133.442 191.749 133.442C190.402 133.442 189.247 133.824 188.091 134.395C188.476 129.63 188.862 124.673 189.247 119.907C189.632 114.951 190.209 109.995 191.172 105.229C192.327 97.7941 194.252 90.3595 196.755 83.3061C198.68 78.1591 200.99 73.3933 204.841 69.1994C208.884 64.8148 214.082 63.2898 219.857 64.0523C224.67 64.8148 228.906 66.9118 232.371 70.1525C237.954 75.2996 240.264 81.9717 240.842 89.4063C240.842 91.3127 240.842 93.219 240.842 94.9347C240.842 96.6503 240.649 98.5567 240.457 100.272C239.687 105.61 238.532 110.948 236.991 116.285C232.948 129.248 227.365 141.449 221.012 153.459C220.05 155.365 219.087 157.081 217.932 158.796C217.162 160.131 217.354 160.703 218.509 161.656C218.702 161.656 218.702 161.846 218.895 162.037C220.627 163.371 222.167 164.897 223.515 166.612C226.403 170.234 228.135 174.237 229.098 178.622C229.868 181.863 230.253 185.294 230.061 188.726C229.868 191.394 229.676 193.873 229.291 196.351C228.906 199.21 228.52 202.07 228.328 204.929C227.943 208.551 227.365 211.983 226.788 215.605C226.21 220.18 225.44 224.755 224.67 229.33C223.9 233.715 223.322 237.909 222.552 242.293C221.975 245.343 221.59 248.393 221.012 251.443C219.665 257.353 217.547 263.072 215.237 268.6C215.044 268.41 215.044 268.219 215.044 268.028C214.659 267.266 214.467 266.313 214.082 265.55C211.386 260.022 207.728 254.875 203.686 250.49C200.22 246.868 196.177 243.437 191.749 240.768C187.129 237.909 181.931 235.812 176.348 235.24C172.497 234.858 168.647 235.43 164.989 236.955C160.754 238.671 157.288 241.149 154.016 244.199C149.78 248.203 145.93 252.587 142.657 257.544C139.962 261.547 138.036 265.741 136.689 270.316C136.111 272.222 135.726 274.319 135.341 276.416C135.149 276.797 135.149 277.369 134.956 277.751C134.956 277.56 134.764 277.369 134.764 277.369C132.838 273.175 131.106 268.791 129.373 264.406C128.025 260.784 126.485 257.162 125.715 253.35C124.753 248.965 124.56 244.581 124.175 240.005C123.983 237.146 123.79 234.477 123.597 231.618C123.405 229.33 123.02 227.043 122.827 224.564C122.442 221.514 122.442 218.464 122.25 215.223C122.057 211.601 121.672 207.979 121.287 204.357C120.902 201.117 120.71 197.876 120.517 194.635C120.325 191.013 120.325 187.582 121.095 184.15C122.442 177.86 125.523 172.331 129.566 167.375C130.721 166.04 131.876 164.706 133.223 163.562C133.994 162.8 134.186 162.228 133.609 161.275C133.609 161.084 133.416 160.893 133.416 160.703C128.988 152.887 124.753 145.071 121.287 136.874C116.859 126.77 113.009 116.667 110.891 105.991C110.121 101.988 109.544 98.1754 109.544 94.1721C109.544 93.9815 109.544 93.7909 109.351 93.7909V92.0752C109.544 92.0752 109.544 91.8846 109.544 91.6939C109.544 90.5501 109.544 89.2157 109.736 88.0719C110.121 84.2593 111.084 80.4466 112.816 77.0153C116.089 70.3432 121.865 66.5305 128.796 64.4336C128.988 63.8617 130.143 63.671 131.106 63.4804ZM192.712 222.086C193.289 222.086 193.867 222.086 194.445 222.086C195.022 222.086 195.6 221.895 196.177 221.895C203.493 220.752 209.846 217.702 215.044 212.364C218.509 208.742 219.665 204.739 218.124 199.973C216.199 193.873 212.541 189.297 207.151 186.057C204.071 184.15 200.605 183.96 197.14 184.913C194.445 185.675 192.327 187.2 190.209 189.107C185.589 193.682 182.701 199.21 181.353 205.501C180.391 210.076 180.968 214.651 183.278 218.845C184.241 220.752 185.974 222.086 188.284 222.277C189.632 222.277 191.172 222.086 192.712 222.086ZM158.058 222.277C158.443 222.277 158.829 222.277 159.021 222.277C161.524 222.277 163.642 221.514 164.989 219.227C166.529 216.939 167.299 214.27 167.492 211.411C167.684 208.361 167.107 205.31 166.337 202.26C164.219 194.826 159.984 189.107 153.053 185.485C150.743 184.15 148.24 183.578 145.545 184.341C141.887 185.104 139.192 187.2 136.496 189.679C133.801 192.348 131.876 195.588 130.528 199.21C128.988 203.404 129.566 207.217 132.261 210.839C133.801 212.936 135.919 214.651 138.036 216.176C144.197 220.37 151.128 222.086 158.058 222.277Z" fill="#563B39"/>
<path d="M214.659 268.219C214.851 269.172 215.044 270.125 215.236 271.078C216.392 276.988 215.044 282.326 211.386 287.092C206.958 293.001 200.99 297.004 193.867 299.292C190.209 300.436 186.551 300.817 182.893 301.008C182.701 301.008 182.508 300.817 182.316 301.198H173.845C173.845 301.008 173.652 301.008 173.46 301.008C168.647 300.817 163.641 300.436 158.828 299.673C154.785 298.911 150.743 297.958 146.892 296.242C138.806 292.429 134.763 285.948 134.763 276.988C134.763 276.607 134.956 276.416 134.763 276.035C135.341 274.129 135.533 272.032 136.111 269.935C137.459 265.36 139.384 260.975 142.079 257.162C145.352 252.206 149.202 247.821 153.438 243.818C156.711 240.768 160.368 238.29 164.411 236.574C168.069 235.049 171.92 234.477 175.77 234.858C181.353 235.43 186.359 237.527 191.172 240.387C195.6 243.056 199.45 246.296 203.108 250.109C207.343 254.684 210.809 259.641 213.504 265.169C213.889 265.931 214.081 266.694 214.466 267.647C214.466 267.838 214.466 268.028 214.659 268.219ZM202.145 280.038C201.953 280.038 201.76 280.229 201.568 280.419C197.91 283.088 194.252 285.567 190.016 287.473C183.663 290.332 177.118 290.904 170.379 289.76C164.796 288.807 159.598 286.52 154.593 284.041C152.475 282.898 150.357 281.754 148.047 280.61C148.047 280.991 148.24 281.182 148.432 281.373C153.245 287.282 159.213 291.476 166.529 293.954C172.305 295.861 178.08 296.242 183.856 294.717C190.594 292.811 195.985 288.998 200.027 283.47C200.798 282.135 201.568 281.182 202.145 280.038C202.145 279.848 202.145 279.848 202.145 280.038ZM204.07 262.119C204.263 261.166 203.878 260.403 203.3 259.831C202.338 258.497 201.183 257.544 199.835 256.59C196.947 254.684 193.097 254.875 190.787 257.353C189.246 258.878 188.861 260.594 188.861 262.5C188.669 265.931 187.514 269.172 185.781 272.222C184.818 273.938 183.663 275.463 182.508 276.988C181.738 277.941 182.123 278.704 183.086 279.276C183.856 279.657 184.433 279.466 185.203 279.276C190.209 277.179 195.022 274.701 199.257 271.269C202.145 268.982 203.878 265.931 204.07 262.119ZM148.432 263.453C148.432 264.788 148.817 265.931 149.395 267.075C150.935 269.553 153.053 271.46 155.556 273.175C158.636 275.463 162.294 276.988 165.759 278.704C166.529 279.085 167.107 279.276 167.877 279.466C168.647 279.657 169.224 279.466 169.802 278.894C170.187 278.704 170.379 278.132 170.187 277.56C169.994 276.988 169.609 276.416 169.224 276.035C169.032 275.844 168.839 275.654 168.839 275.272C168.839 274.891 168.647 274.51 168.454 274.319C168.262 274.129 168.069 273.747 167.684 273.557C164.989 270.125 163.834 266.313 163.641 262.119C163.449 257.734 159.791 254.684 155.748 255.447C151.513 256.019 148.432 259.641 148.432 263.453Z" fill="#AE8070"/>
<path d="M240.649 89.2157L240.842 94.744C240.649 92.8377 240.649 90.9314 240.649 89.2157Z" fill="#AE8070"/>
<path d="M151.898 144.118C151.513 145.833 151.128 147.549 150.743 149.265C150.165 151.743 149.203 154.221 147.855 156.509C146.892 158.415 145.93 158.606 144.39 157.081C141.309 154.412 138.614 151.171 136.304 147.74C128.988 136.874 123.02 125.436 119.17 112.854C117.437 107.516 116.282 101.988 115.512 96.4597C114.934 92.0752 115.127 87.6907 116.667 83.4968C117.629 81.0185 118.785 78.5403 120.902 76.8246C123.983 74.1558 127.64 72.8214 131.876 72.8214C134.956 72.8214 137.459 74.3464 139.577 76.4434C141.887 78.5403 143.427 81.0185 144.967 83.6874C147.855 89.4063 149.78 95.5066 150.935 101.797C151.898 107.326 152.668 112.854 152.86 118.573C153.053 121.814 153.053 125.245 153.053 128.486C153.053 129.058 153.053 129.63 153.053 130.202C153.053 130.392 153.053 130.583 152.86 130.773C151.898 133.824 151.513 137.064 151.705 140.305C151.513 141.639 151.705 142.974 151.898 144.118Z" fill="#358EBF"/>
<path d="M196.755 135.158C196.755 133.252 196.562 131.345 196.562 129.439C196.562 126.77 196.562 124.101 196.562 121.432C196.562 119.717 196.755 118.192 196.755 116.667C196.947 113.235 197.332 109.804 197.91 106.182C198.68 101.607 199.45 97.0316 200.99 92.4564C202.53 88.0719 204.263 83.878 206.958 79.8747C208.114 78.1591 209.654 76.634 211.386 75.2996C214.467 73.012 217.74 72.4401 221.397 73.2026C224.863 73.9652 227.943 75.4902 230.061 78.1591C232.371 81.0185 233.526 84.4499 234.104 88.2625C234.681 92.8377 234.104 97.4129 233.141 101.797C231.216 111.52 228.136 121.051 223.708 130.011C220.05 137.446 216.007 144.499 211.001 150.98C209.461 153.077 207.536 154.984 205.611 156.89C203.878 158.415 202.916 158.224 201.953 156.318C200.413 153.459 199.45 150.409 198.68 147.358V147.168C199.258 145.071 199.065 142.783 198.68 140.686C197.91 138.78 197.332 136.874 196.755 135.158Z" fill="#358EBF"/>
<path d="M196.755 135.158C197.332 137.064 197.91 138.78 198.295 140.686C198.68 142.783 198.873 145.071 198.295 147.168C198.102 148.121 197.717 148.883 197.14 149.646C196.947 150.027 196.947 150.218 197.14 150.409C198.102 151.743 198.487 153.268 198.68 154.793C199.065 158.224 198.487 161.656 197.525 164.897C197.332 165.468 197.14 166.04 196.947 166.612C196.755 165.468 196.562 164.134 196.37 162.99C195.985 161.275 195.6 159.559 194.445 158.034C194.06 157.653 193.675 157.271 193.289 156.89C193.289 157.271 193.289 157.653 193.289 157.843C193.289 160.512 192.904 163.181 192.134 165.659C191.364 168.519 190.209 171.378 188.862 174.047C188.862 174.237 188.669 174.428 188.476 174.619C188.476 173.666 188.862 172.712 188.862 171.759C189.054 170.044 188.862 168.519 188.476 166.803C187.706 163.562 185.974 160.893 184.049 158.415C183.086 157.081 181.738 155.746 180.583 154.793C180.583 155.937 180.968 156.89 180.968 158.034C180.968 159.178 180.968 160.321 180.776 161.465C180.006 166.04 177.888 169.853 175.193 173.475C175.193 173.666 175 173.856 174.808 173.666C174.615 173.666 174.808 173.475 174.808 173.284C175.193 171.378 175 169.472 174.615 167.565C174.038 164.706 173.075 162.037 171.92 159.368C171.727 158.987 171.535 158.987 171.15 159.178C169.995 159.749 169.225 160.893 168.84 161.846C167.877 163.943 167.492 166.231 167.299 168.519C166.914 172.331 166.722 175.953 166.722 179.766C166.722 179.956 166.722 179.956 166.722 180.147C164.219 173.094 162.871 166.04 163.642 158.606C162.486 160.321 161.716 162.228 161.331 164.134C160.754 166.04 160.754 168.137 161.139 170.044C160.561 168.9 159.984 167.565 159.406 166.422C158.636 164.515 158.058 162.418 157.481 160.321C157.096 158.415 156.711 156.318 157.288 154.412C157.288 154.221 157.288 154.031 157.096 153.84C154.978 152.696 154.208 150.409 153.245 148.312C152.668 146.977 152.283 145.452 152.09 144.118C151.898 142.783 151.705 141.449 151.705 140.114C151.705 136.874 152.09 133.633 152.86 130.583C152.86 130.392 152.86 130.202 153.053 130.011C153.823 127.914 154.401 126.008 155.363 123.911C155.171 129.058 155.363 134.014 156.903 138.971C157.096 136.683 157.866 134.586 158.443 132.489C159.021 130.583 159.791 128.676 160.754 126.961C160.754 127.151 160.754 127.342 160.754 127.533C160.754 127.533 160.754 127.723 160.561 127.723C160.369 129.058 160.369 130.583 160.561 131.917C160.754 132.68 160.754 133.442 161.139 134.014C161.524 135.73 162.101 137.064 163.064 138.78C164.219 135.73 165.182 132.87 164.219 129.82C165.182 130.583 165.759 131.536 166.529 132.298C167.492 133.633 168.454 134.967 169.225 136.302C169.802 137.636 170.38 138.78 170.957 140.114C171.535 136.683 172.69 133.442 174.423 130.583C175 134.395 175.77 137.827 177.503 141.068C177.888 140.496 178.273 139.924 178.658 139.352C180.006 136.874 180.776 134.014 180.198 131.155C180.198 130.583 179.813 130.011 179.813 129.439H180.006C181.738 132.298 183.086 135.158 184.049 138.399C184.434 137.636 184.819 137.255 185.204 136.683C186.166 135.73 187.129 134.967 188.284 134.395C189.439 134.014 190.594 133.633 191.942 133.442C192.134 133.442 192.327 133.442 192.519 133.633C192.519 133.824 192.519 134.014 192.327 134.014C191.364 135.539 190.402 137.255 190.209 139.161C190.017 140.496 190.017 141.639 190.402 142.974C190.402 143.355 190.594 143.355 191.172 143.355C192.712 142.783 193.482 141.639 194.06 140.305C194.637 138.78 195.022 137.064 195.022 135.539C195.022 133.824 195.022 132.108 195.022 130.392C195.215 130.964 195.6 131.727 195.792 132.298C195.985 133.061 196.37 134.014 196.755 135.158Z" fill="#070808"/>
<path d="M192.712 222.086C191.172 222.086 189.632 222.277 188.091 222.086C185.781 221.895 184.241 220.561 183.086 218.655C180.968 214.461 180.198 210.076 181.161 205.31C182.508 199.02 185.396 193.491 190.017 188.916C191.942 187.01 194.252 185.485 196.947 184.722C200.413 183.578 203.878 183.96 206.958 185.866C212.349 189.107 216.007 193.682 217.932 199.782C219.472 204.548 218.317 208.742 214.852 212.173C209.654 217.511 203.3 220.561 195.985 221.705C195.407 221.705 194.83 221.895 194.252 221.895C193.867 222.086 193.289 222.086 192.712 222.086ZM194.83 221.133C195.792 221.133 196.755 221.133 197.717 220.942C201.568 219.989 203.878 217.702 205.418 214.27C205.996 212.936 206.381 211.601 206.381 210.267C206.188 208.551 204.841 207.789 203.3 208.361C202.915 208.551 202.53 208.742 202.145 208.932C201.76 209.123 201.375 209.314 200.798 209.504C199.258 209.886 197.717 209.504 196.755 207.979C195.792 206.645 195.792 205.31 196.947 203.976C197.332 203.595 197.717 203.214 198.102 202.832C199.45 201.307 198.68 199.401 196.755 199.02C194.83 198.638 192.712 198.829 190.979 199.592C187.514 200.926 184.819 203.214 184.049 207.026C183.471 209.886 183.663 212.745 184.819 215.605C185.974 218.273 187.899 220.18 190.787 221.133C191.749 220.942 193.289 221.133 194.83 221.133Z" fill="white"/>
<path d="M158.058 222.277C150.935 222.086 144.197 220.37 138.229 216.176C136.111 214.651 134.186 212.936 132.453 210.839C129.758 207.217 129.181 203.404 130.721 199.21C132.068 195.588 133.994 192.348 136.689 189.679C139.192 187.2 142.079 185.103 145.737 184.341C148.432 183.769 150.935 184.341 153.245 185.485C160.176 189.107 164.412 194.826 166.529 202.26C167.299 205.31 168.069 208.361 167.684 211.411C167.492 214.08 166.529 216.939 165.182 219.227C163.834 221.514 161.716 222.086 159.214 222.277C158.829 222.277 158.636 222.277 158.058 222.277ZM142.464 210.076C142.464 210.458 142.464 211.029 142.657 211.601C142.657 211.983 142.849 212.364 142.849 212.745C144.005 216.748 146.315 219.608 150.358 220.752C151.513 221.133 152.86 220.942 154.016 221.133C156.326 221.324 158.443 220.942 160.176 219.608C163.641 217.32 165.567 214.27 164.989 210.076C164.797 208.361 163.256 207.026 161.524 208.551C161.139 208.742 160.754 208.932 160.561 209.123C159.214 209.695 158.058 209.695 156.903 208.742C154.786 207.026 154.593 204.929 156.711 203.023C156.903 202.832 157.096 202.642 157.288 202.451C158.058 201.688 158.058 200.735 157.481 199.782C157.096 199.02 156.326 198.638 155.363 198.638C154.208 198.448 153.053 198.638 151.898 198.638C146.507 199.592 142.464 204.357 142.464 210.076Z" fill="white"/>
<path d="M204.071 262.119C203.878 265.931 202.145 268.791 199.258 271.269C195.022 274.7 190.209 277.179 185.204 279.276C184.434 279.657 183.856 279.657 183.086 279.276C182.123 278.704 181.931 277.941 182.508 276.988C183.663 275.463 184.819 273.938 185.781 272.222C187.706 269.172 188.669 266.122 188.861 262.5C189.054 260.594 189.439 258.687 190.787 257.353C193.097 255.065 196.947 254.684 199.835 256.59C201.183 257.544 202.338 258.497 203.3 259.831C203.878 260.594 204.263 261.356 204.071 262.119Z" fill="#070808"/>
<path d="M148.432 263.453C148.432 259.641 151.705 256.209 155.556 255.447C159.599 254.684 163.256 257.734 163.449 262.119C163.641 266.313 164.797 270.125 167.492 273.557C167.684 273.938 167.877 274.129 168.262 274.319C168.647 274.51 168.647 274.891 168.647 275.272C168.647 275.654 168.839 275.844 169.032 276.035C169.417 276.416 169.802 276.988 169.995 277.56C170.187 277.941 169.995 278.513 169.61 278.894C169.032 279.276 168.454 279.657 167.684 279.466C166.914 279.276 166.144 279.085 165.567 278.704C162.101 276.988 158.636 275.272 155.363 273.175C153.053 271.46 150.743 269.553 149.202 267.075C148.817 265.931 148.24 264.597 148.432 263.453Z" fill="#070808"/>
<path d="M148.047 280.419C150.165 281.563 152.283 282.898 154.593 283.851C159.598 286.329 164.796 288.426 170.379 289.57C177.118 290.904 183.663 290.142 190.016 287.282C194.252 285.376 197.91 282.898 201.568 280.229C201.76 280.038 201.953 280.038 202.145 279.848C201.76 280.991 200.99 281.944 200.22 282.898C195.985 288.426 190.787 292.429 184.048 294.145C178.273 295.67 172.305 295.289 166.722 293.382C159.406 290.904 153.438 286.71 148.625 280.801C148.24 280.801 148.047 280.61 148.047 280.419Z" fill="white"/>
<path d="M179.621 129.248C179.621 129.82 179.813 130.392 180.006 130.964C180.583 133.824 179.813 136.492 178.465 139.161C178.08 139.733 177.695 140.305 177.31 140.877C175.578 137.636 174.615 134.205 174.23 130.392C172.69 133.442 171.535 136.683 170.765 139.924C170.38 138.589 169.802 137.255 169.032 136.111C168.262 134.777 167.299 133.442 166.337 132.108C168.069 129.63 170.572 128.295 173.46 127.914C173.652 127.914 173.845 127.914 173.845 127.914C174.422 127.914 174.808 127.914 175.385 127.914C176.54 128.105 177.888 128.295 179.043 128.867C179.428 129.058 179.621 129.058 179.621 129.248Z" fill="#358EBF"/>
<path d="M174.037 116.285C171.342 115.714 169.802 113.235 170.187 110.757C170.765 108.088 173.267 106.563 175.77 106.944C176.54 107.135 177.31 107.516 177.888 107.898C179.813 109.423 180.198 112.473 178.658 114.379C177.888 115.332 176.733 116.095 175.385 116.285C175.192 116.285 174.615 116.285 174.037 116.285Z" fill="#358EBF"/>
<path d="M174.037 116.285C174.615 116.285 175 116.476 175.578 116.285C175.578 119.717 175.578 123.148 175.578 126.58C175.578 127.151 175.578 127.533 175.578 128.105C175 128.105 174.615 128.105 174.037 128.105V116.285Z" fill="#070808"/>
<path d="M185.011 136.492C184.626 137.064 184.241 137.446 183.856 138.208C182.893 135.158 181.353 132.108 179.813 129.248C181.161 129.82 181.931 130.583 182.893 131.727C184.048 133.061 184.626 134.586 185.011 136.302C185.011 136.302 185.011 136.492 185.011 136.492Z" fill="#358EBF"/>
<path d="M161.139 134.014C160.754 133.442 160.754 132.68 160.561 131.917C160.369 130.583 160.369 129.058 160.561 127.723C160.561 127.723 160.561 127.533 160.754 127.533C160.754 129.63 160.946 131.917 161.139 134.014Z" fill="#4B3938"/>
<path d="M194.83 221.133C193.289 221.133 191.749 220.942 190.209 220.561C187.321 219.608 185.396 217.892 184.241 215.033C183.086 212.364 182.893 209.314 183.471 206.454C184.241 202.832 186.936 200.354 190.402 199.02C192.327 198.257 194.252 198.066 196.177 198.448C198.102 198.829 198.872 200.735 197.525 202.26C197.14 202.642 196.755 203.023 196.37 203.404C195.215 204.739 195.215 206.073 196.177 207.407C197.14 208.932 198.68 209.504 200.22 208.932C200.605 208.742 201.183 208.551 201.568 208.361C201.953 208.17 202.338 207.979 202.723 207.789C204.263 207.217 205.611 207.979 205.803 209.695C205.996 211.22 205.418 212.364 204.841 213.698C203.3 217.13 200.99 219.608 197.14 220.37C196.755 221.133 195.792 221.133 194.83 221.133Z" fill="#070808"/>
<path d="M142.464 210.076C142.464 204.167 146.507 199.592 152.09 198.638C153.245 198.448 154.4 198.448 155.556 198.638C156.326 198.638 157.096 199.21 157.673 199.782C158.251 200.735 158.251 201.688 157.481 202.451C157.288 202.642 157.096 202.832 156.903 203.023C154.978 204.929 154.978 207.026 157.096 208.742C158.251 209.695 159.406 209.695 160.754 209.123C161.139 208.932 161.524 208.742 161.716 208.551C163.641 207.217 164.989 208.361 165.182 210.076C165.567 214.27 163.641 217.32 160.369 219.608C158.443 220.942 156.326 221.324 154.208 221.133C153.053 221.133 151.705 221.133 150.55 220.752C146.507 219.608 144.004 216.748 143.042 212.745C142.849 212.364 142.849 211.983 142.849 211.601C142.657 211.029 142.464 210.458 142.464 210.076Z" fill="#070808"/>
<defs>
<clipPath id="clip0">
<rect width="1408" height="185.3" fill="white" transform="translate(402 82)"/>
</clipPath>
</defs>
</svg>
