<?xml version="1.0" encoding="utf-8"?>
<!-- Generator: Adobe Illustrator 22.1.0, SVG Export Plug-In . SVG Version: 6.00 Build 0)  -->
<svg version="1.1" id="Layer_1" xmlns="http://www.w3.org/2000/svg" xmlns:xlink="http://www.w3.org/1999/xlink" x="0px" y="0px"
	 viewBox="0 0 332.9 44" style="enable-background:new 0 0 332.9 44;" xml:space="preserve">
<style type="text/css">
	.st0{fill:#FFFFFF;}
	.st1{fill:#F1584D;}
</style>
<g>
	<g>
		<g>
			<path class="st0" d="M183,16c1.4,0.3,2.7,1,3.7,2c0.8,0.9,1.3,2,1.3,3.2c0,2.4,0,4.8,0,7.2c0,3-1.8,5-5,5.6
				c-0.9,0.2-1.8,0.3-2.7,0.3c-8.4,0-16.9,0-25.3,0c-0.6,0-0.7-0.1-0.7-0.7c0-10.9,0-21.7,0-32.6c0-0.6,0.2-0.7,0.7-0.7
				c8.2,0,16.3,0,24.5,0c1.5,0,2.9,0.2,4.3,0.8c2.1,0.9,3.3,2.5,3.4,4.7c0.1,2.2,0.1,4.4-0.1,6.6c-0.2,2.1-1,3.1-3.6,3.5
				C183.3,15.9,183.2,16,183,16z M169.6,30.2c3.1,0,6.2,0,9.4,0c0.9,0,1.7-0.1,2.5-0.4c1-0.3,1.6-1.1,1.7-2.2c0.1-2,0.1-4,0-6
				c0-1.5-0.8-2.3-2.3-2.7c-0.5-0.1-1-0.2-1.5-0.2c-6.7,0-13.3,0-19.9,0c-0.5,0-0.6,0.2-0.6,0.7c0,3.4,0,6.7,0,10.1
				c0,0.6,0.2,0.7,0.8,0.7C163,30.2,166.3,30.2,169.6,30.2L169.6,30.2z M169.3,14.7L169.3,14.7c3.3-0.1,6.5,0,9.8-0.1
				c2.1,0,3.3-1.2,3.3-3c0-1.3,0-2.7,0-4c0-1.5-0.7-2.4-2.1-2.9c-0.6-0.2-1.3-0.3-1.9-0.3c-6.3,0-12.5,0-18.8,0
				c-0.6,0-0.7,0.2-0.7,0.7c0,2.9,0,5.9,0,8.8c0,0.8,0,0.8,0.8,0.8L169.3,14.7z"/>
			<path class="st0" d="M124.5,18.9v0.7c0,2.1,0,4.2,0,6.3c0,2.6,1.7,4.3,4.3,4.3c7.5,0,15,0,22.5,0c1.2,0,1-0.1,1.1,1.1
				c0,0.8,0,1.6,0,2.4c0,0.5-0.2,0.7-0.7,0.7c-2.5,0-4.9,0-7.4,0c-5.5,0-11-0.1-16.5,0c-3.9,0.1-7.4-2.9-7.8-6.6
				c0-0.4-0.1-0.7-0.1-1.1c0-6.2,0-12.4,0-18.6c0-4.4,3.3-7.7,7.7-7.7c8,0,16,0,24,0c0.6,0,0.8,0.1,0.7,0.7c0,1,0,2,0,3
				c0,0.4-0.1,0.5-0.5,0.5c-0.2,0-0.4,0-0.5,0c-7.6,0-15.1,0-22.6,0c-2.2,0-3.7,1.2-4.1,3.2c-0.1,0.4-0.1,0.7-0.1,1.1
				c0,1.7,0,3.4,0,5.1c0,0.6,0.2,0.7,0.7,0.7c7.2,0,14.5,0,21.7,0c0.8,0,0.8,0,0.8,0.8c0,0.9,0,1.8,0,2.7c0,0.5-0.1,0.7-0.7,0.7
				c-6.8,0-13.6,0-20.4,0L124.5,18.9z"/>
			<path class="st0" d="M190.4,30.2h0.8c7.5,0,15.1,0,22.6,0c2.6,0,4.2-1.5,4.3-4.1c0.1-1.2,0-2.4,0-3.6c-0.1-2.1-1.9-3.7-3.9-3.7
				c-5.7,0-11.4,0-17.2,0c-1.3,0-2.6-0.2-3.7-0.9c-2.3-1.3-3.8-3.1-4-5.8c-0.1-1.9-0.2-3.9,0.1-5.8c0.5-3.4,3.7-6,7.2-6
				c7.7,0,15.5,0,23.2,0c0.4,0,0.6,0.1,0.6,0.6c0,1,0,1.9,0,2.9c0,0.5-0.2,0.7-0.7,0.7c-7.2,0-14.5,0-21.7,0c-1.5,0-2.7,0.6-3.6,1.9
				c-0.9,1.4-0.9,5.1,0.1,6.5c0.9,1.2,2.1,1.8,3.5,1.8c5.6,0,11.3,0,16.9,0c1.4,0,2.7,0.2,3.9,1c2.5,1.5,3.9,3.7,3.9,6.6
				c0,1.6,0,3.1,0,4.7c0,4.1-3.3,7.5-7.4,7.5c-8.1,0-16.2,0-24.3,0c-0.4,0-0.6-0.1-0.6-0.6C190.4,32.6,190.4,31.4,190.4,30.2z"/>
			<path class="st0" d="M42.3,44c-1.4,0-2.7,0-4.1,0c-0.1,0-0.3-0.2-0.3-0.3c-0.1-0.2,0-0.4,0-0.5c0-11,0-22,0-33
				c0-0.9,0-0.9,0.9-0.9c5.7,0,11.5,0,17.2,0c2.2,0,4,0.7,5.6,2.3c1.2,1.2,1.8,2.7,1.8,4.5c0,3.9,0,7.7,0,11.6c0,3.6-3,6.6-6.8,6.7
				c-3.6,0.1-7.1,0-10.7,0c-1,0-2,0-3,0c-0.5,0-0.7,0.2-0.6,0.7c0,2.7,0,5.5,0,8.2L42.3,44z M42.3,21.7c0,2.7,0,5.3,0,8
				c0,0.4,0,0.7,0.6,0.7c4.2,0,8.4,0,12.7,0c1.9,0,3.4-1.6,3.5-3.5c0-3.4,0-6.9,0-10.3c0-0.5-0.2-1.1-0.5-1.5
				c-0.8-1.4-2.2-1.9-3.7-1.9c-3.9,0-7.8,0-11.8,0c-0.5,0-0.7,0.2-0.7,0.7C42.3,16.5,42.3,19.1,42.3,21.7L42.3,21.7z"/>
			<path class="st0" d="M80,24.1c-3.3,0-6.6,0-9.9,0c-0.6,0-0.8,0.2-0.8,0.8c0,1.1,0,2.3,0,3.4c0,1.5,0.8,2.3,2.3,2.3
				c2.5,0,5.1,0,7.6,0c2.8,0,5.5,0,8.3,0c0.5,0,0.7,0.1,0.6,0.6c0,0.9,0,1.8,0,2.6c0,0.4-0.1,0.5-0.5,0.5c-5.7,0-11.5,0-17.2,0
				c-2.5,0-4.8-1.7-5.3-3.9c-0.1-0.5-0.2-1-0.2-1.5c0-4.2,0-8.4,0-12.7c0-3.6,2.7-6.5,6.3-6.9c1-0.1,2.1-0.1,3.2-0.1
				c3.3,0,6.5-0.1,9.8,0.1c3,0.1,5.6,2.5,6.2,5.3c0.1,0.4,0.1,0.9,0.1,1.4c0,2.4,0,4.9,0,7.3c0,0.6-0.2,0.8-0.8,0.8
				C86.5,24.1,83.2,24.1,80,24.1z M77.7,20.1c2.6,0,5.1,0,7.7,0c0.5,0,0.7-0.1,0.7-0.7c0-0.8,0-1.7,0-2.5c0-2-1.5-3.7-3.5-3.7
				c-3.2-0.1-6.5-0.1-9.7,0c-2,0-3.5,1.7-3.5,3.7c0,0.9,0,1.7,0,2.6c0,0.5,0.2,0.6,0.7,0.6C72.6,20.1,75.2,20.1,77.7,20.1z"/>
			<path class="st0" d="M118,24.5c0,3,0,6.1,0,9.1c0,0.5-0.1,0.7-0.7,0.7c-1,0-2,0-3,0c-0.5,0-0.7-0.2-0.7-0.7c0-5.4,0-10.9,0-16.3
				c0-2.4-1.3-4-3.7-4.1c-3.3-0.1-6.6-0.1-9.9,0c-2.2,0.1-3.5,1.6-3.5,3.9c0,4.6,0,9.2,0,13.7c0,0.9,0,1.9,0,2.8
				c0,0.4-0.1,0.6-0.6,0.6c-1.1,0-2.2,0-3.3,0c-0.4,0-0.5-0.1-0.5-0.5c0-6,0-12,0-18c0-3.1,2.6-5.9,5.9-6.4c0.5-0.1,0.9-0.1,1.4-0.1
				c3.8,0,7.6,0,11.5,0c2.6,0,4.7,1.1,6.2,3.3c0.6,0.9,1,1.9,1,3C118,18.5,118,21.5,118,24.5L118,24.5z"/>
			<path class="st0" d="M35.4,17.2c0,3.1,0,6.2,0,9.4c0,3.5-2.5,6.6-6,7.3c-0.5,0.1-1.1,0.2-1.6,0.2c-0.4,0-0.7,0-1.1,0
				c-4.6,0.1-9.3,0-13.9,0.1c-1.3,0-2.7,0-4,0c-0.9,0-1.8,0-2.7-0.3c-2.7-0.8-4.5-2.6-5.3-5.4c-0.2-0.6-0.3-1.3-0.3-1.9
				c0-0.7,0-1.5,0-2.2c0-4.9,0-9.9,0-14.8c0-0.8,0-1.6,0-2.4C0.5,5.7,1,4.4,1.9,3.2c1.2-1.6,2.9-2.7,4.9-3C7.5,0.1,8.3,0.1,9,0.1
				c2.5-0.1,5,0,7.6-0.1s5.1,0,7.6,0c1.3,0,2.5,0,3.8,0c1.8,0,3.6,0.7,5,2c1.2,1.1,2,2.6,2.3,4.2c0.1,0.5,0.1,1,0.1,1.5
				C35.4,10.9,35.4,14,35.4,17.2L35.4,17.2z M18,30L18,30c2.6,0,5.3,0,7.9,0c0.5,0,1.1,0,1.6-0.1c1.1-0.1,2-0.7,2.7-1.5
				c0.5-0.6,0.7-1.2,0.8-2c0-0.4,0-0.8,0-1.2c0-0.9,0-1.8,0-2.7c0-0.7,0-1.3,0-2l0-2.3l0-2.1l0-2.2c0-0.7,0-1.4,0-2.1c0-1,0-2,0-3
				c0-0.4,0-0.8-0.1-1.2c-0.1-0.9-0.5-1.7-1.2-2.3c-0.8-0.7-1.7-1.1-2.8-1.1c-0.1,0-0.3,0.1-0.4,0.1c-0.2,0-0.5,0-0.7,0
				c-1,0-2,0-3,0c-4.3,0-8.6,0-12.9,0c-0.5,0-0.9,0-1.4,0.1c-1,0.1-1.8,0.5-2.5,1.3C5.1,6.2,4.7,7,4.7,8c0,0.8,0,1.6,0,2.4l0,2.2
				l0,2.3l0,2.1l0,2.3l0,2.1c0,0.8,0,1.5,0,2.3c0,0.6,0,1.2,0,1.9C5,26,5,26.5,5.1,27c0.5,2.1,2.2,3,4,3.1c0.1,0,0.1-0.1,0.2-0.1
				c0.4,0,0.8,0,1.3,0L18,30z"/>
		</g>
	</g>
	<g>
		<path class="st1" d="M236.7,34.4v-33h9.1c11.6,0,17.4,5.4,17.4,16.1c0,5.1-1.6,9.2-4.8,12.3c-3.2,3.1-7.6,4.6-13,4.6H236.7z
			 M240.5,4.9v26h4.9c4.3,0,7.7-1.2,10.1-3.5c2.4-2.3,3.6-5.6,3.6-9.8c0-8.5-4.5-12.7-13.5-12.7H240.5z"/>
		<path class="st1" d="M279.1,35c-3.5,0-6.3-1.1-8.3-3.3c-2.1-2.2-3.1-5.1-3.1-8.8c0-4,1.1-7.1,3.2-9.3c2.2-2.2,5.1-3.3,8.8-3.3
			c3.5,0,6.3,1.1,8.2,3.2c2,2.2,3,5.2,3,9c0,3.8-1.1,6.8-3.2,9C285.5,33.8,282.7,35,279.1,35z M279.4,13.5c-2.4,0-4.3,0.8-5.8,2.5
			c-1.4,1.7-2.1,3.9-2.1,6.8c0,2.8,0.7,5,2.1,6.6c1.4,1.6,3.3,2.4,5.7,2.4c2.4,0,4.3-0.8,5.6-2.4c1.3-1.6,2-3.8,2-6.7
			c0-2.9-0.7-5.2-2-6.8C283.7,14.3,281.8,13.5,279.4,13.5z"/>
		<path class="st1" d="M312.9,33.3c-1.8,1.1-4,1.6-6.4,1.6c-3.4,0-6.1-1.1-8.1-3.3c-2.1-2.2-3.1-5-3.1-8.5c0-3.9,1.1-7,3.3-9.4
			c2.2-2.4,5.2-3.5,8.9-3.5c2.1,0,3.9,0.4,5.5,1.2v3.9c-1.7-1.2-3.6-1.8-5.6-1.8c-2.4,0-4.4,0.9-5.9,2.6c-1.5,1.7-2.3,4-2.3,6.8
			c0,2.8,0.7,4.9,2.2,6.5c1.5,1.6,3.4,2.4,5.8,2.4c2.1,0,4-0.7,5.8-2V33.3z"/>
		<path class="st1" d="M317.2,33.6v-4.1c2.1,1.5,4.3,2.3,6.8,2.3c3.3,0,5-1.1,5-3.3c0-0.6-0.1-1.2-0.4-1.6c-0.3-0.4-0.7-0.8-1.2-1.2
			c-0.5-0.3-1.1-0.6-1.7-0.9c-0.7-0.3-1.4-0.5-2.1-0.8c-1-0.4-2-0.8-2.7-1.3c-0.8-0.4-1.5-0.9-2-1.4c-0.5-0.5-0.9-1.1-1.2-1.8
			c-0.3-0.7-0.4-1.5-0.4-2.4c0-1.1,0.3-2.1,0.8-2.9c0.5-0.8,1.2-1.6,2-2.1c0.8-0.6,1.8-1,2.9-1.3s2.2-0.4,3.3-0.4
			c2,0,3.9,0.4,5.5,1.1v3.8c-1.7-1.1-3.7-1.7-6-1.7c-0.7,0-1.3,0.1-1.9,0.2c-0.6,0.2-1.1,0.4-1.5,0.7c-0.4,0.3-0.7,0.6-0.9,1
			c-0.2,0.4-0.3,0.9-0.3,1.3c0,0.6,0.1,1.1,0.3,1.5s0.5,0.8,1,1.1c0.4,0.3,0.9,0.6,1.6,0.9c0.6,0.3,1.3,0.5,2.1,0.9
			c1,0.4,2,0.8,2.8,1.2c0.8,0.4,1.5,0.9,2.1,1.4c0.6,0.5,1,1.1,1.3,1.8c0.3,0.7,0.5,1.5,0.5,2.5c0,1.2-0.3,2.2-0.8,3
			c-0.5,0.9-1.2,1.6-2.1,2.1c-0.9,0.6-1.9,1-3,1.3c-1.1,0.3-2.3,0.4-3.5,0.4C321.1,35,319,34.5,317.2,33.6z"/>
	</g>
</g>
</svg>
