<?xml version="1.0" encoding="utf-8"?>
<!-- Generator: Adobe Illustrator 22.1.0, SVG Export Plug-In . SVG Version: 6.00 Build 0)  -->
<svg version="1.1" id="Layer_1" xmlns="http://www.w3.org/2000/svg" xmlns:xlink="http://www.w3.org/1999/xlink" x="0px" y="0px"
	 viewBox="0 0 185.3 185.3" style="enable-background:new 0 0 185.3 185.3;" xml:space="preserve">
<style type="text/css">
	.st0{fill:#FFFFFF;}
	.st1{fill:#F0584D;}
	.st2{opacity:0.37;fill:#FFFFFF;}
	.st3{fill:#563B39;}
	.st4{fill:#AE8070;}
	.st5{fill:#358EBF;}
	.st6{fill:#070808;}
	.st7{fill:#4B3938;}
</style>
<g>
		<ellipse class="st0" cx="90.7" cy="92.3" rx="78.2" ry="79"/>
		<ellipse class="st2" cx="90.9" cy="92.6" rx="90.9" ry="91.8"/>
		<g>
			<path class="st3" d="M68.1,34.1h1.7c0,0.1,0.1,0,0.2,0.1c0.7,0.1,1.5,0.3,2.2,0.5c1.7,0.7,3,2,4.1,3.4c1.7,2.4,2.9,5,3.7,7.7
				c0.8,2.4,1.3,4.9,1.8,7.4c0.5,2.5,0.9,5.1,1.2,7.7c0.2,2.1,0.4,4.3,0.5,6.5c-0.5,0.9-0.8,1.9-1.2,2.9c-0.4,1.1-0.7,2.3-0.8,3.4
				c-0.8-2.5-0.9-5.2-0.8-7.9c-0.5,1.1-0.9,2.1-1.2,3.2c0-0.3,0-0.6,0-0.9c0-1.7,0-3.5-0.1-5.2c-0.2-2.9-0.5-5.9-1-8.8
				c-0.6-3.3-1.6-6.5-3.1-9.5c-0.7-1.4-1.5-2.8-2.8-3.8c-1.1-1-2.4-1.8-4-1.9c-2.2-0.1-4.1,0.7-5.7,2.1c-1.1,0.9-1.7,2.2-2.2,3.5
				c-0.8,2.2-0.8,4.5-0.6,6.8c0.4,2.9,1,5.8,1.9,8.6c2,6.6,5,12.6,8.9,18.3c1.2,1.8,2.6,3.4,4.2,4.9c0.8,0.7,1.3,0.7,1.8-0.3
				c0.6-1.2,1.1-2.4,1.5-3.8c0.2-0.9,0.4-1.8,0.6-2.7c0.2,0.8,0.3,1.5,0.6,2.2c0.5,1.1,0.8,2.3,2,2.9c0.1,0,0.1,0.2,0.1,0.3
				c-0.3,1.1-0.1,2.1,0.1,3.1c0.2,1.1,0.6,2.2,1,3.2c0.2,0.7,0.5,1.3,0.9,1.9c-0.2-1-0.2-2.1,0.1-3.1c0.3-1,0.6-2,1.2-2.9
				c-0.4,3.9,0.2,7.6,1.6,11.3c0-0.1,0-0.1,0-0.2c0-2,0-3.9,0.3-5.9c0.1-1.2,0.3-2.4,0.8-3.5c0.3-0.6,0.6-1.2,1.2-1.4
				c0.2-0.1,0.3-0.1,0.4,0.1c0.6,1.4,1.1,2.8,1.4,4.3c0.2,1,0.3,2,0.1,3c0,0.1,0,0.1,0,0.2c0.1,0,0.1-0.1,0.2-0.1
				c1.4-1.9,2.5-4,2.9-6.3C94,85,94,84.4,94,83.8c0-0.6-0.2-1.2-0.2-1.7l0,0c0.7,0.6,1.3,1.2,1.8,1.9c1,1.3,1.9,2.8,2.3,4.4
				c0.2,0.8,0.3,1.7,0.2,2.6c0,0.5-0.2,1-0.2,1.5c0,0,0,0,0,0.1l0,0l0-0.1c0.1-0.1,0.1-0.2,0.2-0.3c0.7-1.4,1.2-2.9,1.7-4.4
				c0.4-1.3,0.6-2.7,0.6-4.1c0-0.2,0-0.3,0-0.5c0.2,0.2,0.5,0.4,0.6,0.6c0.6,0.8,0.8,1.7,1,2.6c0.1,0.6,0.2,1.3,0.3,1.9
				c0.1-0.3,0.3-0.6,0.3-0.9c0.5-1.7,0.8-3.5,0.6-5.3c-0.1-0.8-0.4-1.6-0.8-2.3c-0.1-0.2-0.1-0.3,0-0.4c0.3-0.4,0.5-0.9,0.6-1.3
				c0,0,0,0.1,0,0.1c0.4,1.6,0.9,3.2,1.7,4.7c0.6,1.1,1,1.1,1.9,0.3c1-0.9,2-2,2.8-3.1c2.6-3.4,4.8-7.2,6.6-11
				c2.3-4.7,3.9-9.7,4.9-14.8c0.4-2.4,0.8-4.7,0.5-7.1c-0.3-1.9-0.9-3.7-2.1-5.3c-1.1-1.5-2.7-2.2-4.5-2.6c-1.9-0.5-3.6-0.1-5.2,1.1
				c-0.9,0.7-1.7,1.5-2.3,2.4c-1.4,2-2.3,4.3-3.1,6.6c-0.8,2.3-1.2,4.7-1.6,7.2c-0.3,1.8-0.5,3.6-0.6,5.5c0,0.9-0.1,1.7-0.1,2.5
				c0,1.4,0,2.8,0,4.2c0,1,0.2,2,0.1,3c-0.2-0.5-0.4-1-0.6-1.6c-0.1-0.3-0.3-0.7-0.4-1c0,0.9,0,1.8,0,2.7c0,0.9-0.1,1.7-0.5,2.5
				c-0.3,0.7-0.7,1.4-1.5,1.6C99,76,98.9,76,98.8,75.8c-0.2-0.6-0.2-1.3-0.1-2c0.2-1,0.6-1.8,1.1-2.7c0-0.1,0.1-0.1,0.1-0.2
				c0-0.1-0.2-0.1-0.3-0.1c-0.7,0-1.3,0.2-1.9,0.5c0.2-2.5,0.4-5.1,0.6-7.6c0.2-2.6,0.5-5.2,1-7.7c0.6-3.9,1.6-7.8,2.9-11.5
				c1-2.7,2.2-5.2,4.2-7.4c2.1-2.3,4.8-3.1,7.8-2.7c2.5,0.4,4.7,1.5,6.5,3.2c2.9,2.7,4.1,6.2,4.4,10.1c0,1,0,2,0,2.9
				c0,0.9-0.1,1.9-0.2,2.8c-0.4,2.8-1,5.6-1.8,8.4c-2.1,6.8-5,13.2-8.3,19.5c-0.5,1-1,1.9-1.6,2.8c-0.4,0.7-0.3,1,0.3,1.5
				c0.1,0,0.1,0.1,0.2,0.2c0.9,0.7,1.7,1.5,2.4,2.4c1.5,1.9,2.4,4,2.9,6.3c0.4,1.7,0.6,3.5,0.5,5.3c-0.1,1.4-0.2,2.7-0.4,4
				c-0.2,1.5-0.4,3-0.5,4.5c-0.2,1.9-0.5,3.7-0.8,5.6c-0.3,2.4-0.7,4.8-1.1,7.2c-0.4,2.3-0.7,4.5-1.1,6.8c-0.3,1.6-0.5,3.2-0.8,4.8
				c-0.7,3.1-1.8,6.1-3,9c-0.1-0.1-0.1-0.2-0.1-0.3c-0.2-0.4-0.3-0.9-0.5-1.3c-1.4-2.9-3.3-5.6-5.4-7.9c-1.8-1.9-3.9-3.7-6.2-5.1
				c-2.4-1.5-5.1-2.6-8-2.9c-2-0.2-4,0.1-5.9,0.9c-2.2,0.9-4,2.2-5.7,3.8c-2.2,2.1-4.2,4.4-5.9,7c-1.4,2.1-2.4,4.3-3.1,6.7
				c-0.3,1-0.5,2.1-0.7,3.2c-0.1,0.2-0.1,0.5-0.2,0.7c0-0.1-0.1-0.2-0.1-0.2c-1-2.2-1.9-4.5-2.8-6.8c-0.7-1.9-1.5-3.8-1.9-5.8
				c-0.5-2.3-0.6-4.6-0.8-7c-0.1-1.5-0.2-2.9-0.3-4.4c-0.1-1.2-0.3-2.4-0.4-3.7c-0.2-1.6-0.2-3.2-0.3-4.9c-0.1-1.9-0.3-3.8-0.5-5.7
				c-0.2-1.7-0.3-3.4-0.4-5.1c-0.1-1.9-0.1-3.7,0.3-5.5c0.7-3.3,2.3-6.2,4.4-8.8c0.6-0.7,1.2-1.4,1.9-2c0.4-0.4,0.5-0.7,0.2-1.2
				c0-0.1-0.1-0.2-0.1-0.3c-2.3-4.1-4.5-8.2-6.3-12.5c-2.3-5.3-4.3-10.6-5.4-16.2c-0.4-2.1-0.7-4.1-0.7-6.2c0-0.1,0-0.2-0.1-0.2
				v-0.9c0.1,0,0.1-0.1,0.1-0.2c0-0.6,0-1.3,0.1-1.9c0.2-2,0.7-4,1.6-5.8c1.7-3.5,4.7-5.5,8.3-6.6C67,34.3,67.6,34.2,68.1,34.1z
				 M100.1,117.3c0.3,0,0.6,0,0.9,0c0.3,0,0.6-0.1,0.9-0.1c3.8-0.6,7.1-2.2,9.8-5c1.8-1.9,2.4-4,1.6-6.5c-1-3.2-2.9-5.6-5.7-7.3
				c-1.6-1-3.4-1.1-5.2-0.6c-1.4,0.4-2.5,1.2-3.6,2.2c-2.4,2.4-3.9,5.3-4.6,8.6c-0.5,2.4-0.2,4.8,1,7c0.5,1,1.4,1.7,2.6,1.8
				C98.5,117.4,99.3,117.3,100.1,117.3z M82.1,117.4c0.2,0,0.4,0,0.5,0c1.3,0,2.4-0.4,3.1-1.6c0.8-1.2,1.2-2.6,1.3-4.1
				c0.1-1.6-0.2-3.2-0.6-4.8c-1.1-3.9-3.3-6.9-6.9-8.8c-1.2-0.7-2.5-1-3.9-0.6c-1.9,0.4-3.3,1.5-4.7,2.8c-1.4,1.4-2.4,3.1-3.1,5
				c-0.8,2.2-0.5,4.2,0.9,6.1c0.8,1.1,1.9,2,3,2.8C74.9,116.4,78.5,117.3,82.1,117.4L82.1,117.4z"/>
			<path class="st4" d="M111.5,141.5c0.1,0.5,0.2,1,0.3,1.5c0.6,3.1-0.1,5.9-2,8.4c-2.3,3.1-5.4,5.2-9.1,6.4
				c-1.9,0.6-3.8,0.8-5.7,0.9c-0.1,0-0.2-0.1-0.3,0.1h-4.4c0-0.1-0.1-0.1-0.2-0.1c-2.5-0.1-5.1-0.3-7.6-0.7
				c-2.1-0.4-4.2-0.9-6.2-1.8c-4.2-2-6.3-5.4-6.3-10.1c0-0.2,0.1-0.3,0-0.5c0.3-1,0.4-2.1,0.7-3.2c0.7-2.4,1.7-4.7,3.1-6.7
				c1.7-2.6,3.7-4.9,5.9-7c1.7-1.6,3.6-2.9,5.7-3.8c1.9-0.8,3.9-1.1,5.9-0.9c2.9,0.3,5.5,1.4,8,2.9c2.3,1.4,4.3,3.1,6.2,5.1
				c2.2,2.4,4,5,5.4,7.9c0.2,0.4,0.3,0.8,0.5,1.3C111.4,141.3,111.4,141.4,111.5,141.5z M105,147.7c-0.1,0-0.2,0.1-0.3,0.2
				c-1.9,1.4-3.8,2.7-6,3.7c-3.3,1.5-6.7,1.8-10.2,1.2c-2.9-0.5-5.6-1.7-8.2-3c-1.1-0.6-2.2-1.2-3.4-1.8l0,0l0,0
				c0,0.2,0.1,0.3,0.2,0.4c2.5,3.1,5.6,5.3,9.4,6.6c3,1,6,1.2,9,0.4c3.5-1,6.3-3,8.4-5.9C104.3,148.8,104.7,148.3,105,147.7
				C105,147.7,105,147.7,105,147.7C105,147.6,105,147.6,105,147.7L105,147.7z M106,138.3c0.1-0.5-0.1-0.9-0.4-1.2
				c-0.5-0.7-1.1-1.2-1.8-1.7c-1.5-1-3.5-0.9-4.7,0.4c-0.8,0.8-1,1.7-1,2.7c-0.1,1.8-0.7,3.5-1.6,5.1c-0.5,0.9-1.1,1.7-1.7,2.5
				c-0.4,0.5-0.2,0.9,0.3,1.2c0.4,0.2,0.7,0.1,1.1,0c2.6-1.1,5.1-2.4,7.3-4.2C105,141.9,105.9,140.3,106,138.3L106,138.3z M77.1,139
				c0,0.7,0.2,1.3,0.5,1.9c0.8,1.3,1.9,2.3,3.2,3.2c1.6,1.2,3.5,2,5.3,2.9c0.4,0.2,0.7,0.3,1.1,0.4c0.4,0.1,0.7,0,1-0.3
				c0.2-0.1,0.3-0.4,0.2-0.7c-0.1-0.3-0.3-0.6-0.5-0.8c-0.1-0.1-0.2-0.2-0.2-0.4c0-0.2-0.1-0.4-0.2-0.5s-0.2-0.3-0.4-0.4
				c-1.4-1.8-2-3.8-2.1-6c-0.1-2.3-2-3.9-4.1-3.5C78.7,135.1,77.1,137,77.1,139L77.1,139z"/>
			<path class="st4" d="M125,47.6L125,47.6l0.1,2.9l0,0h0C125,49.5,125,48.5,125,47.6z"/>
			<path class="st5" d="M78.9,76.4c-0.2,0.9-0.4,1.8-0.6,2.7c-0.3,1.3-0.8,2.6-1.5,3.8c-0.5,1-1,1.1-1.8,0.3c-1.6-1.4-3-3.1-4.2-4.9
				c-3.8-5.7-6.9-11.7-8.9-18.3c-0.9-2.8-1.5-5.7-1.9-8.6c-0.3-2.3-0.2-4.6,0.6-6.8c0.5-1.3,1.1-2.6,2.2-3.5
				c1.6-1.4,3.5-2.1,5.7-2.1c1.6,0,2.9,0.8,4,1.9c1.2,1.1,2,2.4,2.8,3.8c1.5,3,2.5,6.2,3.1,9.5c0.5,2.9,0.9,5.8,1,8.8
				c0.1,1.7,0.1,3.5,0.1,5.2c0,0.3,0,0.6,0,0.9c0,0.1,0,0.2-0.1,0.3c-0.5,1.6-0.7,3.3-0.6,5C78.7,75.1,78.8,75.8,78.9,76.4z"/>
			<path class="st5" d="M102.2,71.7c0-1-0.1-2-0.1-3c0-1.4,0-2.8,0-4.2c0-0.9,0.1-1.7,0.1-2.5c0.1-1.8,0.3-3.6,0.6-5.5
				c0.4-2.4,0.8-4.8,1.6-7.2c0.8-2.3,1.7-4.5,3.1-6.6c0.6-0.9,1.4-1.7,2.3-2.4c1.6-1.2,3.3-1.5,5.2-1.1c1.8,0.4,3.4,1.2,4.5,2.6
				c1.2,1.5,1.8,3.3,2.1,5.3c0.3,2.4,0,4.8-0.5,7.1c-1,5.1-2.6,10.1-4.9,14.8c-1.9,3.9-4,7.6-6.6,11c-0.8,1.1-1.8,2.1-2.8,3.1
				c-0.9,0.8-1.4,0.7-1.9-0.3c-0.8-1.5-1.3-3.1-1.7-4.7c0,0,0-0.1,0-0.1c0.3-1.1,0.2-2.3,0-3.4C102.8,73.6,102.5,72.6,102.2,71.7z"
				/>
			<path class="st6" d="M102.2,71.7c0.3,1,0.6,1.9,0.8,2.9c0.2,1.1,0.3,2.3,0,3.4c-0.1,0.5-0.3,0.9-0.6,1.3c-0.1,0.2-0.1,0.3,0,0.4
				c0.5,0.7,0.7,1.5,0.8,2.3c0.2,1.8-0.1,3.6-0.6,5.3c-0.1,0.3-0.2,0.6-0.3,0.9c-0.1-0.6-0.2-1.3-0.3-1.9c-0.2-0.9-0.4-1.8-1-2.6
				c-0.2-0.2-0.4-0.4-0.6-0.6c0,0.2,0,0.4,0,0.5c0,1.4-0.2,2.8-0.6,4.1c-0.4,1.5-1,3-1.7,4.4c0,0.1-0.1,0.2-0.2,0.3l0,0
				c0-0.5,0.2-1,0.2-1.5c0.1-0.9,0-1.7-0.2-2.6c-0.4-1.7-1.3-3.1-2.3-4.4c-0.5-0.7-1.2-1.4-1.8-1.9l0,0l0,0c0,0.6,0.2,1.1,0.2,1.7
				c0,0.6,0,1.2-0.1,1.8c-0.4,2.4-1.5,4.4-2.9,6.3c0,0.1-0.1,0.2-0.2,0.1c-0.1,0,0-0.1,0-0.2c0.2-1,0.1-2-0.1-3
				c-0.3-1.5-0.8-2.9-1.4-4.3c-0.1-0.2-0.2-0.2-0.4-0.1c-0.6,0.3-1,0.9-1.2,1.4c-0.5,1.1-0.7,2.3-0.8,3.5c-0.2,2-0.3,3.9-0.3,5.9
				c0,0.1,0,0.1,0,0.2c-1.3-3.7-2-7.4-1.6-11.3c-0.6,0.9-1,1.9-1.2,2.9c-0.3,1-0.3,2.1-0.1,3.1c-0.3-0.6-0.6-1.3-0.9-1.9
				c-0.4-1-0.7-2.1-1-3.2c-0.2-1-0.4-2.1-0.1-3.1c0-0.1,0-0.2-0.1-0.3c-1.1-0.6-1.5-1.8-2-2.9c-0.3-0.7-0.5-1.5-0.6-2.2
				c-0.1-0.7-0.2-1.4-0.2-2.1c0-1.7,0.2-3.4,0.6-5c0-0.1,0-0.2,0.1-0.3c0.4-1.1,0.7-2.1,1.2-3.2c-0.1,2.7,0,5.3,0.8,7.9
				c0.1-1.2,0.5-2.3,0.8-3.4c0.3-1,0.7-2,1.2-2.9c0,0.1,0,0.2,0,0.3c0,0,0,0.1-0.1,0.1c-0.1,0.7-0.1,1.5,0,2.2
				c0.1,0.4,0.1,0.8,0.3,1.1c0.2,0.9,0.5,1.6,1,2.5c0.6-1.6,1.1-3.1,0.6-4.7l0,0c0.5,0.4,0.8,0.9,1.2,1.3c0.5,0.7,1,1.4,1.4,2.1
				c0.3,0.7,0.6,1.3,0.9,2c0.3-1.8,0.9-3.5,1.8-5c0.3,2,0.7,3.8,1.6,5.5c0.2-0.3,0.4-0.6,0.6-0.9c0.7-1.3,1.1-2.8,0.8-4.3
				c0-0.3-0.2-0.6-0.2-0.9l0.1,0c0.9,1.5,1.6,3,2.1,4.7c0.2-0.4,0.4-0.6,0.6-0.9c0.5-0.5,1-0.9,1.6-1.2c0.6-0.2,1.2-0.4,1.9-0.5
				c0.1,0,0.2,0,0.3,0.1c0,0.1,0,0.2-0.1,0.2c-0.5,0.8-1,1.7-1.1,2.7c-0.1,0.7-0.1,1.3,0.1,2C98.9,76,99,76,99.3,76
				c0.8-0.3,1.2-0.9,1.5-1.6c0.3-0.8,0.5-1.7,0.5-2.5c0-0.9,0-1.8,0-2.7c0.1,0.3,0.3,0.7,0.4,1C101.8,70.6,102,71.1,102.2,71.7z"/>
			<path class="st0" d="M100.1,117.3c-0.8,0-1.6,0.1-2.4,0c-1.2-0.1-2-0.8-2.6-1.8c-1.1-2.2-1.5-4.5-1-7c0.7-3.3,2.2-6.2,4.6-8.6
				c1-1,2.2-1.8,3.6-2.2c1.8-0.6,3.6-0.4,5.2,0.6c2.8,1.7,4.7,4.1,5.7,7.3c0.8,2.5,0.2,4.7-1.6,6.5c-2.7,2.8-6,4.4-9.8,5
				c-0.3,0-0.6,0.1-0.9,0.1C100.7,117.3,100.4,117.3,100.1,117.3z M101.2,116.8c0.5,0,1,0,1.5-0.1c2-0.5,3.2-1.7,4-3.5
				c0.3-0.7,0.5-1.4,0.5-2.1c-0.1-0.9-0.8-1.3-1.6-1c-0.2,0.1-0.4,0.2-0.6,0.3c-0.2,0.1-0.4,0.2-0.7,0.3c-0.8,0.2-1.6,0-2.1-0.8
				c-0.5-0.7-0.5-1.4,0.1-2.1c0.2-0.2,0.4-0.4,0.6-0.6c0.7-0.8,0.3-1.8-0.7-2c-1-0.2-2.1-0.1-3,0.3c-1.8,0.7-3.2,1.9-3.6,3.9
				c-0.3,1.5-0.2,3,0.4,4.5c0.6,1.4,1.6,2.4,3.1,2.9C99.6,116.7,100.4,116.8,101.2,116.8L101.2,116.8z"/>
			<path class="st0" d="M82.1,117.4c-3.7-0.1-7.2-1-10.3-3.2c-1.1-0.8-2.1-1.7-3-2.8c-1.4-1.9-1.7-3.9-0.9-6.1
				c0.7-1.9,1.7-3.6,3.1-5c1.3-1.3,2.8-2.4,4.7-2.8c1.4-0.3,2.7,0,3.9,0.6c3.6,1.9,5.8,4.9,6.9,8.8c0.4,1.6,0.8,3.2,0.6,4.8
				c-0.1,1.4-0.6,2.9-1.3,4.1c-0.7,1.2-1.8,1.5-3.1,1.6C82.5,117.4,82.4,117.4,82.1,117.4z M74,111c0,0.2,0,0.5,0.1,0.8
				c0,0.2,0.1,0.4,0.1,0.6c0.6,2.1,1.8,3.6,3.9,4.2c0.6,0.2,1.3,0.1,1.9,0.2c1.2,0.1,2.3-0.1,3.2-0.8c1.8-1.2,2.8-2.8,2.5-5
				c-0.1-0.9-0.9-1.6-1.8-0.8c-0.2,0.1-0.4,0.2-0.5,0.3c-0.7,0.3-1.3,0.3-1.9-0.2c-1.1-0.9-1.2-2-0.1-3c0.1-0.1,0.2-0.2,0.3-0.3
				c0.4-0.4,0.4-0.9,0.1-1.4c-0.2-0.4-0.6-0.6-1.1-0.6c-0.6-0.1-1.2,0-1.8,0C76.1,105.5,74,108,74,111L74,111z"/>
			<path class="st6" d="M97.9,92.4L97.9,92.4L97.9,92.4C97.9,92.5,97.9,92.4,97.9,92.4L97.9,92.4z"/>
			<path class="st6" d="M106,138.3c-0.1,2-1,3.5-2.5,4.8c-2.2,1.8-4.7,3.1-7.3,4.2c-0.4,0.2-0.7,0.2-1.1,0c-0.5-0.3-0.6-0.7-0.3-1.2
				c0.6-0.8,1.2-1.6,1.7-2.5c1-1.6,1.5-3.2,1.6-5.1c0.1-1,0.3-2,1-2.7c1.2-1.2,3.2-1.4,4.7-0.4c0.7,0.5,1.3,1,1.8,1.7
				C105.9,137.5,106.1,137.9,106,138.3z"/>
			<path class="st6" d="M77.1,139c0-2,1.7-3.8,3.7-4.2c2.1-0.4,4,1.2,4.1,3.5c0.1,2.2,0.7,4.2,2.1,6c0.1,0.2,0.2,0.3,0.4,0.4
				s0.2,0.3,0.2,0.5c0,0.2,0.1,0.3,0.2,0.4c0.2,0.2,0.4,0.5,0.5,0.8c0.1,0.2,0,0.5-0.2,0.7c-0.3,0.2-0.6,0.4-1,0.3
				c-0.4-0.1-0.8-0.2-1.1-0.4c-1.8-0.9-3.6-1.8-5.3-2.9c-1.2-0.9-2.4-1.9-3.2-3.2C77.3,140.3,77,139.6,77.1,139z"/>
			<path class="st0" d="M76.9,147.9c1.1,0.6,2.2,1.3,3.4,1.8c2.6,1.3,5.3,2.4,8.2,3c3.5,0.7,6.9,0.3,10.2-1.2c2.2-1,4.1-2.3,6-3.7
				c0.1-0.1,0.2-0.1,0.3-0.2l0,0c-0.2,0.6-0.6,1.1-1,1.6c-2.2,2.9-4.9,5-8.4,5.9c-3,0.8-6.1,0.6-9-0.4c-3.8-1.3-6.9-3.5-9.4-6.6
				C77,148.1,76.9,148,76.9,147.9L76.9,147.9z"/>
			<path class="st0" d="M105,147.7L105,147.7C105,147.6,105,147.6,105,147.7C105,147.7,105,147.7,105,147.7L105,147.7z"/>
			<path class="st0" d="M76.9,147.9L76.9,147.9L76.9,147.9L76.9,147.9z"/>
			<path class="st5" d="M93.3,68.6c0,0.3,0.1,0.6,0.2,0.9c0.3,1.5-0.1,2.9-0.8,4.3c-0.2,0.3-0.4,0.6-0.6,0.9
				c-0.9-1.7-1.4-3.5-1.6-5.5c-0.8,1.6-1.4,3.3-1.8,5c-0.2-0.7-0.5-1.4-0.9-2c-0.4-0.7-0.9-1.4-1.4-2.1c0.9-1.3,2.2-2,3.7-2.2
				c0.1,0,0.2,0,0.2,0c0.3,0,0.5,0,0.8,0c0.6,0.1,1.3,0.2,1.9,0.5C93.2,68.5,93.3,68.5,93.3,68.6z"/>
			<path class="st5" d="M90.4,61.8c-1.4-0.3-2.2-1.6-2-2.9c0.3-1.4,1.6-2.2,2.9-2c0.4,0.1,0.8,0.3,1.1,0.5c1,0.8,1.2,2.4,0.4,3.4
				c-0.4,0.5-1,0.9-1.7,1C91,61.8,90.7,61.8,90.4,61.8z"/>
			<path class="st6" d="M90.4,61.8c0.3,0,0.5,0.1,0.8,0c0,1.8,0,3.6,0,5.4c0,0.3,0,0.5,0,0.8c-0.3,0-0.5,0-0.8,0L90.4,61.8z"/>
			<path class="st5" d="M96.1,72.4c-0.2,0.3-0.4,0.5-0.6,0.9c-0.5-1.6-1.3-3.2-2.1-4.7c0.7,0.3,1.1,0.7,1.6,1.3
				c0.6,0.7,0.9,1.5,1.1,2.4C96.1,72.3,96.1,72.4,96.1,72.4z"/>
			<path class="st7" d="M83.7,71.1c-0.2-0.3-0.2-0.7-0.3-1.1c-0.1-0.7-0.1-1.5,0-2.2c0,0,0-0.1,0.1-0.1C83.5,68.8,83.6,70,83.7,71.1
				z"/>
			<path class="st6" d="M85.3,68.9L85.3,68.9L85.3,68.9L85.3,68.9L85.3,68.9z"/>
			<path class="st7" d="M93.8,82L93.8,82L93.8,82L93.8,82z"/>
			<path class="st6" d="M101.2,116.8c-0.8,0-1.6-0.1-2.4-0.3c-1.5-0.5-2.5-1.4-3.1-2.9c-0.6-1.4-0.7-3-0.4-4.5
				c0.4-1.9,1.8-3.2,3.6-3.9c1-0.4,2-0.5,3-0.3c1,0.2,1.4,1.2,0.7,2c-0.2,0.2-0.4,0.4-0.6,0.6c-0.6,0.7-0.6,1.4-0.1,2.1
				c0.5,0.8,1.3,1.1,2.1,0.8c0.2-0.1,0.5-0.2,0.7-0.3c0.2-0.1,0.4-0.2,0.6-0.3c0.8-0.3,1.5,0.1,1.6,1c0.1,0.8-0.2,1.4-0.5,2.1
				c-0.8,1.8-2,3.1-4,3.5C102.2,116.8,101.7,116.8,101.2,116.8z"/>
			<path class="st6" d="M74,111c0-3.1,2.1-5.5,5-6c0.6-0.1,1.2-0.1,1.8,0c0.4,0,0.8,0.3,1.1,0.6c0.3,0.5,0.3,1-0.1,1.4
				c-0.1,0.1-0.2,0.2-0.3,0.3c-1,1-1,2.1,0.1,3c0.6,0.5,1.2,0.5,1.9,0.2c0.2-0.1,0.4-0.2,0.5-0.3c1-0.7,1.7-0.1,1.8,0.8
				c0.2,2.2-0.8,3.8-2.5,5c-1,0.7-2.1,0.9-3.2,0.8c-0.6,0-1.3,0-1.9-0.2c-2.1-0.6-3.4-2.1-3.9-4.2c-0.1-0.2-0.1-0.4-0.1-0.6
				C74.1,111.5,74,111.2,74,111z"/>
		</g>
	</g>
</svg>