<?xml version="1.0" encoding="utf-8"?>
<!-- Generator: Adobe Illustrator 22.0.0, SVG Export Plug-In . SVG Version: 6.00 Build 0)  -->
<svg version="1.1" id="Layer_1" xmlns="http://www.w3.org/2000/svg" xmlns:xlink="http://www.w3.org/1999/xlink" x="0px" y="0px"
	 viewBox="0 0 143.8 50" style="enable-background:new 0 0 143.8 50;" xml:space="preserve">
<style type="text/css">
	.st0{fill:#FFFFFF;stroke:#FFFFFF;stroke-miterlimit:10;}
	.st1{fill:#F0A64F;}
	.st2{fill:#FFFFFF;}
	.st3{fill:#F15A29;}
	.st4{fill:#AF8070;}
</style>
<g>
	<path class="st3" d="M115.9,21.2c0.9,0.2,1.7,0.6,2.3,1.3c0.5,0.5,0.8,1.3,0.8,2c0,1.5,0,3,0,4.5c0,1.9-1.2,3.2-3.2,3.6
		c-0.6,0.1-1.1,0.2-1.7,0.2c-5.4,0-10.7,0-16.1,0c-0.4,0-0.5-0.1-0.5-0.5c0-6.9,0-13.8,0-20.7c0-0.4,0.1-0.5,0.5-0.5
		c5.2,0,10.4,0,15.5,0c0.9,0,1.8,0.1,2.7,0.5c1.3,0.6,2.1,1.6,2.2,3c0.1,1.4,0,2.8,0,4.2c-0.1,1.4-0.6,2-2.3,2.2
		C116.1,21.1,116,21.2,115.9,21.2z M107.4,30.2c2,0,4,0,5.9,0c0.5,0,1.1-0.1,1.6-0.2c0.6-0.2,1-0.7,1.1-1.4c0-1.3,0.1-2.5,0-3.8
		c0-1-0.5-1.5-1.5-1.7c-0.3-0.1-0.6-0.1-0.9-0.1c-4.2,0-8.4,0-12.7,0c-0.3,0-0.4,0.1-0.4,0.4c0,2.1,0,4.3,0,6.4
		c0,0.4,0.1,0.5,0.5,0.5C103.1,30.2,105.2,30.2,107.4,30.2L107.4,30.2z M107.2,20.4L107.2,20.4c2.1,0,4.1,0,6.2,0
		c1.3,0,2.1-0.7,2.1-1.9c0-0.8,0-1.7,0-2.5c0-0.9-0.5-1.6-1.4-1.8c-0.4-0.1-0.8-0.2-1.2-0.2c-4,0-8,0-11.9,0c-0.4,0-0.4,0.1-0.4,0.5
		c0,1.9,0,3.7,0,5.6c0,0.5,0,0.5,0.5,0.5L107.2,20.4z"/>
	<path class="st3" d="M78.8,23v0.5c0,1.3,0,2.7,0,4c0,1.7,1.1,2.7,2.7,2.7c4.8,0,9.5,0,14.3,0c0.8,0,0.7-0.1,0.7,0.7
		c0,0.5,0,1,0,1.6c0,0.3-0.1,0.4-0.4,0.4c-1.6,0-3.1,0-4.7,0c-3.5,0-7-0.1-10.5,0c-2.5,0.1-4.7-1.8-5-4.2c0-0.2,0-0.5,0-0.7
		c0-3.9,0-7.9,0-11.8c0-2.8,2.1-4.9,4.9-4.9c5.1,0,10.2,0,15.2,0c0.4,0,0.5,0.1,0.5,0.5c0,0.6,0,1.3,0,1.9c0,0.2-0.1,0.3-0.3,0.3
		c-0.1,0-0.2,0-0.3,0c-4.8,0-9.6,0-14.4,0c-1.4,0-2.3,0.7-2.6,2c0,0.2-0.1,0.5,0,0.7c0,1.1,0,2.2,0,3.3c0,0.4,0.1,0.5,0.5,0.5
		c4.6,0,9.2,0,13.8,0c0.5,0,0.5,0,0.5,0.5c0,0.6,0,1.2,0,1.7c0,0.3-0.1,0.4-0.4,0.4c-4.3,0-8.6,0-13,0L78.8,23z"/>
	<path class="st3" d="M120.5,30.2h0.5c4.8,0,9.6,0,14.3,0c1.6,0,2.7-1,2.8-2.6c0-0.8,0-1.5,0-2.3c-0.1-1.3-1.2-2.3-2.5-2.3
		c-3.6,0-7.3,0-10.9,0c-0.8,0-1.6-0.1-2.4-0.6c-1.4-0.8-2.4-2-2.5-3.7c-0.1-1.2-0.1-2.5,0.1-3.7c0.3-2.2,2.3-3.8,4.6-3.8
		c4.9,0,9.8,0,14.7,0c0.3,0,0.4,0.1,0.4,0.4c0,0.6,0,1.2,0,1.8c0,0.3-0.1,0.4-0.4,0.4c-4.6,0-9.2,0-13.8,0c-1,0-1.7,0.4-2.3,1.2
		c-0.6,0.9-0.6,3.2,0,4.1c0.5,0.8,1.3,1.1,2.2,1.1c3.6,0,7.2,0,10.7,0c0.9,0,1.7,0.2,2.5,0.6c1.6,0.9,2.4,2.3,2.5,4.2c0,1,0,2,0,3
		c0,2.6-2.1,4.7-4.7,4.8c-5.1,0-10.3,0-15.4,0c-0.3,0-0.4-0.1-0.4-0.4C120.5,31.7,120.5,31,120.5,30.2z"/>
	<path class="st3" d="M26.6,38.9c-0.9,0-1.7,0-2.6,0c-0.1,0-0.2-0.1-0.2-0.2c0-0.1,0-0.2,0-0.3c0-7,0-13.9,0-20.9
		c0-0.6,0-0.6,0.6-0.6c3.6,0,7.3,0,10.9,0c1.4,0,2.6,0.5,3.6,1.4c0.8,0.8,1.2,1.7,1.2,2.8c0,2.5,0,4.9,0,7.4c0,2.3-1.9,4.2-4.3,4.3
		c-2.3,0.1-4.5,0-6.8,0c-0.6,0-1.3,0-1.9,0c-0.3,0-0.4,0.1-0.4,0.4c0,1.7,0,3.5,0,5.2L26.6,38.9z M26.6,24.8c0,1.7,0,3.4,0,5.1
		c0,0.3,0,0.4,0.4,0.4c2.7,0,5.4,0,8,0c1.2,0,2.2-1,2.2-2.2c0-2.2,0-4.4,0-6.6c0-0.3-0.1-0.7-0.3-1c-0.5-0.9-1.4-1.2-2.4-1.2
		c-2.5,0-5,0-7.5,0c-0.3,0-0.5,0.1-0.4,0.5C26.6,21.5,26.6,23.2,26.6,24.8L26.6,24.8z"/>
	<path class="st3" d="M50.5,26.3c-2.1,0-4.2,0-6.3,0c-0.4,0-0.5,0.1-0.5,0.5c0,0.7,0,1.4,0,2.2c0,0.9,0.5,1.4,1.5,1.5
		c1.6,0,3.2,0,4.9,0c1.8,0,3.5,0,5.3,0c0.3,0,0.4,0.1,0.4,0.4c0,0.6,0,1.1,0,1.7c0,0.2-0.1,0.3-0.3,0.3c-3.6,0-7.3,0-10.9,0
		c-1.6,0-3-1.1-3.4-2.4C41,30,41,29.7,41,29.4c0-2.7,0-5.4,0-8c0-2.3,1.7-4.1,4-4.3c0.7-0.1,1.3-0.1,2-0.1c2.1,0,4.1,0,6.2,0.1
		c1.9,0.1,3.6,1.6,3.9,3.4c0.1,0.3,0.1,0.6,0.1,0.9c0,1.5,0,3.1,0,4.6c0,0.4-0.1,0.5-0.5,0.5C54.6,26.3,52.6,26.3,50.5,26.3z
		 M49.1,23.8c1.6,0,3.3,0,4.9,0c0.3,0,0.5-0.1,0.4-0.4c0-0.5,0-1.1,0-1.6c0-1.3-0.9-2.3-2.2-2.3c-2.1,0-4.1,0-6.2,0
		c-1.3,0-2.2,1.1-2.2,2.3c0,0.5,0,1.1,0,1.6c0,0.3,0.1,0.4,0.4,0.4C45.8,23.8,47.4,23.8,49.1,23.8z"/>
	<path class="st3" d="M74.6,26.6c0,1.9,0,3.9,0,5.8c0,0.3-0.1,0.5-0.4,0.4c-0.6,0-1.3,0-1.9,0c-0.3,0-0.4-0.1-0.4-0.4
		c0-3.4,0-6.9,0-10.3c0-1.5-0.8-2.5-2.3-2.6c-2.1-0.1-4.2-0.1-6.3,0c-1.4,0.1-2.2,1-2.2,2.5c0,2.9,0,5.8,0,8.7c0,0.6,0,1.2,0,1.8
		c0,0.3-0.1,0.4-0.4,0.4c-0.7,0-1.4,0-2.1,0c-0.3,0-0.3-0.1-0.3-0.3c0-3.8,0-7.6,0-11.4c0-2,1.7-3.8,3.7-4.1c0.3,0,0.6-0.1,0.9-0.1
		c2.4,0,4.9,0,7.3,0c1.7,0,3,0.7,3.9,2.1c0.4,0.6,0.6,1.2,0.6,1.9C74.6,22.8,74.6,24.7,74.6,26.6L74.6,26.6z"/>
	<path class="st3" d="M22.2,21.9c0,2,0,4,0,5.9c0,2.2-1.6,4.2-3.8,4.6c-0.3,0.1-0.7,0.1-1,0.1c-0.2,0-0.5,0-0.7,0
		c-2.9,0.1-5.9,0-8.8,0c-0.9,0-1.7,0-2.6,0c-0.6,0-1.2,0-1.7-0.2c-1.7-0.5-2.9-1.6-3.4-3.4C0.1,28.7,0,28.3,0,27.9
		c0-0.5,0-0.9,0-1.4c0-3.1,0-6.3,0-9.4c0-0.5,0-1,0-1.5c0.1-0.9,0.4-1.7,0.9-2.4c0.7-1,1.9-1.7,3.1-1.9c0.5-0.1,0.9,0,1.4-0.1
		c1.6-0.1,3.2,0,4.8,0s3.2,0,4.8,0c0.8,0,1.6,0,2.4,0c1.2,0,2.3,0.5,3.1,1.3c0.8,0.7,1.3,1.6,1.5,2.7c0.1,0.3,0.1,0.6,0.1,1
		C22.2,18,22.2,19.9,22.2,21.9L22.2,21.9z M11.2,30.1L11.2,30.1c1.7,0,3.3,0,5,0c0.3,0,0.7,0,1-0.1c0.7-0.1,1.3-0.4,1.7-1
		c0.3-0.4,0.5-0.8,0.5-1.2c0-0.2,0-0.5,0-0.7c0-0.6,0-1.2,0-1.7c0-0.4,0-0.8,0-1.3l0-1.5l0-1.3l0-1.4c0-0.5,0-0.9,0-1.4
		c0-0.6,0-1.3,0-1.9c0-0.3,0-0.5-0.1-0.8c-0.1-0.5-0.3-1-0.7-1.4c-0.5-0.5-1.1-0.7-1.8-0.7c-0.1,0-0.2,0-0.3,0c-0.2,0-0.3,0-0.5,0
		c-0.6,0-1.3,0-1.9,0c-2.7,0-5.5,0-8.2,0c-0.3,0-0.6,0-0.9,0.1c-0.6,0.1-1.2,0.3-1.6,0.8c-0.4,0.4-0.7,1-0.7,1.6c0,0.5,0,1,0,1.5
		l0,1.4l0,1.5l0,1.4l0,1.4l0,1.3c0,0.5,0,1,0,1.4c0,0.4,0,0.8,0,1.2c0,0.3,0,0.6,0.1,0.9c0.3,1.3,1.4,1.9,2.5,1.9c0,0,0.1,0,0.1,0
		c0.3,0,0.5,0,0.8,0L11.2,30.1z"/>
</g>
</svg>
