<?xml version="1.0" encoding="UTF-8"?>
<svg width="28px" height="28px" viewBox="0 0 28 28" version="1.1" xmlns="http://www.w3.org/2000/svg" xmlns:xlink="http://www.w3.org/1999/xlink">
    <!-- Generator: Sketch 52.6 (67491) - http://www.bohemiancoding.com/sketch -->
    <title>OpenEBS-logo</title>
    <desc>Created with Sketch.</desc>
    <g id="Page-1" stroke="none" stroke-width="1" fill="none" fill-rule="evenodd">
        <g id="Desktop-Copy-5" transform="translate(-15.000000, -12.000000)">
            <g id="OpenEBS-logo" transform="translate(15.601008, 12.000000)">
                <ellipse id="Oval" fill="#FFFFFF" cx="13.4385736" cy="13.6756377" rx="11.58651" ry="11.705042"></ellipse>
                <ellipse id="Oval" fill="#FFFFFF" opacity="0.37" cx="13.4682066" cy="13.7200873" rx="13.4682066" ry="13.6015552"></ellipse>
                <g id="Group" transform="translate(8.297245, 5.037613)">
                    <path d="M1.79279758,0.0148165089 L2.04467823,0.0148165089 C2.04467823,0.0296330178 2.05949474,0.0148165089 2.07431125,0.0296330178 C2.17802681,0.0444495268 2.29655888,0.0740825446 2.40027445,0.103715562 C2.6521551,0.207431125 2.84476971,0.400045741 3.00775131,0.607476866 C3.25963196,0.96307308 3.43743007,1.34830231 3.55596214,1.74834805 C3.67449421,2.10394427 3.74857676,2.47435699 3.8226593,2.84476971 C3.89674185,3.21518244 3.95600788,3.60041167 4.00045741,3.9856409 C4.03009043,4.29678759 4.05972344,4.62275078 4.07453995,4.94871398 C4.00045741,5.08206256 3.95600788,5.23022765 3.89674185,5.37839274 C3.83747581,5.54137434 3.79302628,5.71917244 3.77820977,5.88215404 C3.6596777,5.51174132 3.64486119,5.11169558 3.6596777,4.71164984 C3.58559516,4.87463143 3.52632912,5.02279652 3.4818796,5.18577812 C3.4818796,5.1413286 3.4818796,5.09687907 3.4818796,5.05242954 C3.4818796,4.80054889 3.4818796,4.53385173 3.46706309,4.28197108 C3.43743007,3.85229232 3.39298054,3.40779705 3.318898,2.97811829 C3.22999894,2.4891735 3.08183386,2.01504521 2.85958622,1.57054995 C2.75587066,1.36311882 2.63733859,1.1556877 2.44472397,1.00752261 C2.28174237,0.859357517 2.08912776,0.740825446 1.85206362,0.726008937 C1.52610042,0.711192428 1.24458675,0.8297245 1.00752261,1.03715562 C0.844541008,1.1705042 0.755641955,1.36311882 0.68155941,1.55573344 C0.563027339,1.88169663 0.563027339,2.22247634 0.592660357,2.56325604 C0.651926392,2.9929348 0.740825446,3.42261356 0.874174026,3.83747581 C1.1705042,4.8153654 1.61499947,5.70435593 2.19284332,6.54889694 C2.37064143,6.8155941 2.57807255,7.05265825 2.81513669,7.27490588 C2.93366877,7.37862144 3.00775131,7.37862144 3.08183386,7.23045635 C3.17073291,7.05265825 3.24481545,6.87486014 3.30408149,6.66742901 C3.33371451,6.53408043 3.36334752,6.40073185 3.39298054,6.26738327 C3.42261356,6.38591534 3.43743007,6.48963091 3.4818796,6.59334647 C3.55596214,6.75632807 3.60041167,6.93412617 3.77820977,7.02302523 C3.79302628,7.02302523 3.79302628,7.05265825 3.79302628,7.06747475 C3.74857676,7.23045635 3.77820977,7.37862144 3.80784279,7.52678653 C3.83747581,7.68976813 3.89674185,7.85274973 3.95600788,8.00091482 C3.9856409,8.10463038 4.03009043,8.19352943 4.08935646,8.28242849 C4.05972344,8.1342634 4.05972344,7.9712818 4.10417297,7.82311671 C4.1486225,7.67495162 4.19307202,7.52678653 4.28197108,7.39343795 C4.22270504,7.9712818 4.3116041,8.51949263 4.51903522,9.06770346 C4.51903522,9.05288695 4.51903522,9.05288695 4.51903522,9.03807044 C4.51903522,8.74174026 4.51903522,8.46022659 4.56348475,8.16389642 C4.57830126,7.98609831 4.60793427,7.8083002 4.68201682,7.6453186 C4.72646635,7.55641955 4.77091587,7.4675205 4.85981493,7.43788748 C4.88944794,7.42307097 4.90426445,7.42307097 4.91908096,7.45270399 C5.00798002,7.66013511 5.08206256,7.86756624 5.12651209,8.08981387 C5.1561451,8.23797896 5.17096161,8.38614405 5.1413286,8.53430914 C5.1413286,8.54912565 5.1413286,8.54912565 5.1413286,8.56394216 C5.1561451,8.56394216 5.1561451,8.54912565 5.17096161,8.54912565 C5.37839274,8.26761198 5.54137434,7.95646529 5.60064037,7.61568558 C5.63027339,7.55641955 5.63027339,7.4675205 5.63027339,7.37862144 C5.63027339,7.28972239 5.60064037,7.20082334 5.60064037,7.12674079 C5.70435593,7.21563984 5.79325499,7.3045389 5.86733753,7.40825446 C6.01550262,7.60086908 6.1488512,7.82311671 6.20811724,8.06018085 C6.23775026,8.17871292 6.25256676,8.3120615 6.23775026,8.44541008 C6.23775026,8.51949263 6.20811724,8.59357517 6.20811724,8.66765772 C6.20811724,8.66765772 6.20811724,8.66765772 6.20811724,8.68247423 L6.20811724,8.66765772 C6.22293375,8.65284121 6.22293375,8.6380247 6.23775026,8.62320819 C6.34146582,8.41577707 6.41554836,8.19352943 6.48963091,7.9712818 C6.54889694,7.77866718 6.57852996,7.57123606 6.57852996,7.36380493 C6.57852996,7.33417192 6.57852996,7.31935541 6.57852996,7.28972239 C6.60816298,7.31935541 6.65261251,7.34898842 6.66742901,7.37862144 C6.75632807,7.49715351 6.78596109,7.63050209 6.8155941,7.76385067 C6.83041061,7.85274973 6.84522712,7.95646529 6.86004363,8.04536434 C6.87486014,8.00091482 6.90449316,7.95646529 6.90449316,7.91201576 C6.9785757,7.66013511 7.02302523,7.39343795 6.99339221,7.12674079 C6.9785757,7.00820872 6.93412617,6.88967665 6.87486014,6.78596109 C6.86004363,6.75632807 6.86004363,6.74151156 6.87486014,6.72669505 C6.91930967,6.66742901 6.94894268,6.59334647 6.96375919,6.53408043 C6.96375919,6.53408043 6.96375919,6.54889694 6.96375919,6.54889694 C7.02302523,6.78596109 7.09710777,7.02302523 7.21563984,7.24527286 C7.3045389,7.40825446 7.36380493,7.40825446 7.49715351,7.28972239 C7.6453186,7.15637381 7.79348369,6.99339221 7.91201576,6.83041061 C8.297245,6.32664931 8.62320819,5.76362197 8.88990535,5.20059463 C9.23068506,4.50421871 9.4677492,3.76339327 9.61591429,3.00775131 C9.67518032,2.6521551 9.73444636,2.31137539 9.68999683,1.95577918 C9.64554731,1.67426551 9.55664825,1.40756835 9.37885015,1.1705042 C9.21586855,0.948256571 8.97880441,0.844541008 8.71210725,0.785274973 C8.43059358,0.711192428 8.17871292,0.770458464 7.94164878,0.948256571 C7.8083002,1.05197213 7.68976813,1.1705042 7.60086908,1.30385278 C7.39343795,1.60018296 7.26008937,1.94096267 7.1415573,2.28174237 C7.02302523,2.62252208 6.96375919,2.97811829 6.90449316,3.34853102 C6.86004363,3.61522818 6.83041061,3.88192534 6.8155941,4.16343901 C6.8155941,4.29678759 6.80077759,4.41531966 6.80077759,4.53385173 C6.80077759,4.74128285 6.80077759,4.94871398 6.80077759,5.1561451 C6.80077759,5.30431019 6.83041061,5.45247528 6.8155941,5.60064037 C6.78596109,5.52655783 6.75632807,5.45247528 6.72669505,5.36357623 C6.71187854,5.3191267 6.68224552,5.25986067 6.66742901,5.21541114 C6.66742901,5.34875972 6.66742901,5.4821083 6.66742901,5.61545688 C6.66742901,5.74880546 6.65261251,5.86733753 6.59334647,5.9858696 C6.54889694,6.08958517 6.48963091,6.19330073 6.37109884,6.22293375 C6.37109884,6.22293375 6.35628233,6.22293375 6.34146582,6.19330073 C6.3118328,6.10440168 6.3118328,6.00068611 6.32664931,5.89697055 C6.35628233,5.74880546 6.41554836,5.63027339 6.48963091,5.49692481 C6.48963091,5.4821083 6.50444742,5.4821083 6.50444742,5.46729179 C6.50444742,5.45247528 6.4748144,5.45247528 6.45999789,5.45247528 C6.35628233,5.45247528 6.26738327,5.4821083 6.17848422,5.52655783 C6.20811724,5.1561451 6.23775026,4.77091587 6.26738327,4.40050315 C6.29701629,4.01527392 6.34146582,3.63004469 6.41554836,3.25963196 C6.50444742,2.68178811 6.65261251,2.10394427 6.84522712,1.55573344 C6.99339221,1.1556877 7.17119032,0.785274973 7.4675205,0.459311777 C7.77866718,0.118532071 8.17871292,-1.04777298e-15 8.62320819,0.0592660357 C8.99362091,0.118532071 9.31958411,0.281513669 9.58628127,0.533394321 C10.01596,0.933440062 10.1937581,1.45201787 10.2382077,2.02986172 C10.2382077,2.17802681 10.2382077,2.3261919 10.2382077,2.45954048 C10.2382077,2.59288906 10.2233912,2.74105415 10.2085746,2.87440273 C10.1493086,3.28926498 10.0604096,3.70412723 9.94187749,4.11898948 C9.6307308,5.12651209 9.20105204,6.07476866 8.71210725,7.00820872 C8.6380247,7.15637381 8.56394216,7.28972239 8.4750431,7.42307097 C8.41577707,7.52678653 8.43059358,7.57123606 8.51949263,7.6453186 C8.53430914,7.6453186 8.53430914,7.66013511 8.54912565,7.67495162 C8.68247423,7.77866718 8.8010063,7.89719925 8.90472186,8.03054783 C9.12696949,8.3120615 9.26031808,8.62320819 9.33440062,8.9639879 C9.39366666,9.21586855 9.42329967,9.48256571 9.40848316,9.74926287 C9.39366666,9.95669399 9.37885015,10.1493086 9.34921713,10.3419232 C9.31958411,10.5641709 9.28995109,10.7864185 9.27513458,11.0086661 C9.24550157,11.2901798 9.20105204,11.556877 9.15660251,11.8383906 C9.11215299,12.1939868 9.05288695,12.5495831 8.99362091,12.9051793 C8.93435488,13.245959 8.88990535,13.5719222 8.83063932,13.9127019 C8.78618979,14.149766 8.75655677,14.3868302 8.71210725,14.6238943 C8.60839168,15.0832061 8.44541008,15.5277013 8.26761198,15.9573801 C8.25279547,15.9425636 8.25279547,15.9277471 8.25279547,15.9129306 C8.22316245,15.8536645 8.20834594,15.779582 8.17871292,15.720316 C7.9712818,15.2906372 7.68976813,14.8905915 7.37862144,14.5498118 C7.11192428,14.2682981 6.80077759,14.0016009 6.45999789,13.7941698 C6.10440168,13.5719222 5.70435593,13.4089406 5.27467718,13.364491 C4.978347,13.334858 4.68201682,13.3793076 4.40050315,13.4978396 C4.07453995,13.6311882 3.80784279,13.8238028 3.55596214,14.060867 C3.22999894,14.3720137 2.93366877,14.7127934 2.68178811,15.0980226 C2.47435699,15.4091693 2.3261919,15.7351325 2.22247634,16.0907287 C2.17802681,16.2388938 2.14839379,16.4018754 2.11876078,16.564857 C2.10394427,16.59449 2.10394427,16.6389395 2.08912776,16.6685725 C2.08912776,16.653756 2.07431125,16.6389395 2.07431125,16.6389395 C1.92614616,16.3129763 1.79279758,15.9721966 1.659449,15.6314169 C1.55573344,15.3499032 1.43720137,15.0683896 1.37793533,14.7720594 C1.30385278,14.4312797 1.28903628,14.0905 1.25940326,13.7349038 C1.24458675,13.5126561 1.22977024,13.305225 1.21495373,13.0829774 C1.20013722,12.9051793 1.1705042,12.7273812 1.1556877,12.5347665 C1.12605468,12.2977024 1.12605468,12.0606383 1.11123817,11.8087576 C1.09642166,11.5272439 1.06678864,11.2457303 1.03715562,10.9642166 C1.00752261,10.7123359 0.992706098,10.4604553 0.977889589,10.2085746 C0.96307308,9.92706098 0.96307308,9.66036382 1.02233912,9.39366666 C1.12605468,8.90472186 1.36311882,8.4750431 1.67426551,8.08981387 C1.76316456,7.98609831 1.85206362,7.88238275 1.95577918,7.79348369 C2.01504521,7.73421766 2.02986172,7.68976813 1.9854122,7.61568558 C1.9854122,7.60086908 1.97059569,7.58605257 1.97059569,7.57123606 C1.62981598,6.96375919 1.30385278,6.35628233 1.03715562,5.71917244 C0.696375919,4.93389747 0.400045741,4.1486225 0.237064143,3.318898 C0.177798107,3.00775131 0.13334858,2.71142113 0.13334858,2.40027445 C0.13334858,2.38545794 0.13334858,2.37064143 0.118532071,2.37064143 L0.118532071,2.23729285 C0.13334858,2.23729285 0.13334858,2.22247634 0.13334858,2.20765983 C0.13334858,2.11876078 0.13334858,2.01504521 0.148165089,1.92614616 C0.177798107,1.62981598 0.251880652,1.3334858 0.385229232,1.06678864 C0.637109884,0.54821083 1.08160515,0.251880652 1.61499947,0.0888990535 C1.62981598,0.0444495268 1.71871503,0.0296330178 1.79279758,0.0148165089 Z M6.53408043,12.3421519 C6.57852996,12.3421519 6.62297949,12.3421519 6.66742901,12.3421519 C6.71187854,12.3421519 6.75632807,12.3273354 6.80077759,12.3273354 C7.36380493,12.2384364 7.85274973,12.0013722 8.25279547,11.58651 C8.51949263,11.3049963 8.60839168,10.9938496 8.48985961,10.6234369 C8.34169452,10.1493086 8.06018085,9.7937124 7.6453186,9.54183174 C7.40825446,9.39366666 7.1415573,9.37885015 6.87486014,9.45293269 C6.66742901,9.51219873 6.50444742,9.6307308 6.34146582,9.77889589 C5.9858696,10.1344921 5.76362197,10.5641709 5.65990641,11.0531157 C5.58582386,11.4087119 5.63027339,11.7643081 5.8080715,12.0902713 C5.88215404,12.2384364 6.01550262,12.3421519 6.19330073,12.3569684 C6.29701629,12.3569684 6.41554836,12.3421519 6.53408043,12.3421519 Z M3.86710883,12.3569684 C3.89674185,12.3569684 3.92637486,12.3569684 3.94119137,12.3569684 C4.13380599,12.3569684 4.29678759,12.2977024 4.40050315,12.1199043 C4.51903522,11.9421062 4.57830126,11.7346751 4.59311777,11.5124274 C4.60793427,11.2753633 4.56348475,11.0382991 4.50421871,10.801235 C4.34123711,10.2233912 4.01527392,9.77889589 3.4818796,9.49738222 C3.30408149,9.39366666 3.11146687,9.34921713 2.90403575,9.40848316 C2.62252208,9.4677492 2.41509095,9.6307308 2.20765983,9.82334541 C2.0002287,10.0307765 1.85206362,10.2826572 1.74834805,10.5641709 C1.62981598,10.8901341 1.67426551,11.1864642 1.88169663,11.4679779 C2.0002287,11.6309595 2.1632103,11.7643081 2.3261919,11.8828402 C2.80032019,12.2088034 3.33371451,12.3421519 3.86710883,12.3569684 Z" id="Shape" fill="#563B39" fill-rule="nonzero"></path>
                    <path d="M8.22316245,15.9277471 C8.23797896,16.0018296 8.25279547,16.0759122 8.26761198,16.1499947 C8.35651103,16.6093065 8.25279547,17.0241687 7.9712818,17.3945815 C7.63050209,17.8538932 7.17119032,18.1650399 6.62297949,18.342838 C6.34146582,18.4317371 6.05995215,18.4613701 5.77843848,18.4761866 C5.76362197,18.4761866 5.74880546,18.4613701 5.73398895,18.4910031 L5.08206256,18.4910031 C5.08206256,18.4761866 5.06724605,18.4761866 5.05242954,18.4761866 C4.68201682,18.4613701 4.29678759,18.4317371 3.92637486,18.3724711 C3.61522818,18.313205 3.30408149,18.2391225 3.00775131,18.1057739 C2.38545794,17.8094437 2.07431125,17.3056824 2.07431125,16.6093065 C2.07431125,16.5796735 2.08912776,16.564857 2.07431125,16.535224 C2.11876078,16.3870589 2.13357728,16.2240773 2.17802681,16.0610957 C2.28174237,15.7054995 2.42990746,15.3647198 2.63733859,15.0683896 C2.88921924,14.6831603 3.18554942,14.3423806 3.51151261,14.0312339 C3.76339327,13.7941698 4.04490694,13.6015552 4.35605362,13.4682066 C4.63756729,13.3496745 4.93389747,13.305225 5.23022765,13.334858 C5.65990641,13.3793076 6.04513564,13.5422892 6.41554836,13.7645368 C6.75632807,13.9719679 7.05265825,14.2238486 7.33417192,14.5201787 C7.66013511,14.875775 7.92683227,15.2610042 8.1342634,15.6906829 C8.16389642,15.749949 8.17871292,15.809215 8.20834594,15.8832976 C8.20834594,15.8981141 8.20834594,15.9129306 8.22316245,15.9277471 Z M7.26008937,16.8463706 C7.24527286,16.8463706 7.23045635,16.8611872 7.21563984,16.8760037 C6.93412617,17.0834348 6.65261251,17.2760494 6.32664931,17.4242145 C5.83770451,17.6464621 5.33394321,17.6909117 4.8153654,17.6020126 C4.38568664,17.5279301 3.9856409,17.3501319 3.60041167,17.1575173 C3.43743007,17.0686183 3.27444847,16.9797192 3.09665036,16.8908202 C3.09665036,16.9204532 3.11146687,16.9352697 3.12628338,16.9500862 C3.49669611,17.409398 3.95600788,17.7353612 4.51903522,17.9279758 C4.96353049,18.0761409 5.40802576,18.1057739 5.85252102,17.9872418 C6.37109884,17.8390767 6.78596109,17.5427466 7.09710777,17.1130678 C7.15637381,17.0093522 7.21563984,16.9352697 7.26008937,16.8463706 C7.26008937,16.8463706 7.26008937,16.8463706 7.26008937,16.8463706 C7.26008937,16.8315541 7.26008937,16.8315541 7.26008937,16.8463706 Z M7.40825446,15.4536188 C7.42307097,15.3795363 7.39343795,15.3202702 7.34898842,15.2758207 C7.27490588,15.1721051 7.18600683,15.0980226 7.08229126,15.02394 C6.86004363,14.875775 6.56371345,14.8905915 6.38591534,15.0832061 C6.26738327,15.2017382 6.23775026,15.3350867 6.23775026,15.4832518 C6.22293375,15.749949 6.13403469,16.0018296 6.00068611,16.2388938 C5.92660357,16.3722424 5.83770451,16.4907744 5.74880546,16.6093065 C5.68953943,16.683389 5.71917244,16.7426551 5.79325499,16.7871046 C5.85252102,16.8167376 5.89697055,16.8019211 5.95623659,16.7871046 C6.34146582,16.624123 6.71187854,16.4315084 7.03784174,16.1648112 C7.26008937,15.9870131 7.39343795,15.749949 7.40825446,15.4536188 Z M3.12628338,15.5573344 C3.12628338,15.6610499 3.1559164,15.749949 3.20036593,15.838848 C3.318898,16.0314627 3.4818796,16.1796277 3.67449421,16.3129763 C3.91155835,16.4907744 4.19307202,16.6093065 4.45976918,16.7426551 C4.51903522,16.7722881 4.56348475,16.7871046 4.62275078,16.8019211 C4.68201682,16.8167376 4.72646635,16.8019211 4.77091587,16.7574716 C4.80054889,16.7426551 4.8153654,16.6982056 4.80054889,16.653756 C4.78573238,16.6093065 4.75609936,16.564857 4.72646635,16.535224 C4.71164984,16.5204074 4.69683333,16.5055909 4.69683333,16.4759579 C4.69683333,16.4463249 4.68201682,16.4166919 4.66720031,16.4018754 C4.6523838,16.3870589 4.63756729,16.3574258 4.60793427,16.3426093 C4.40050315,16.0759122 4.3116041,15.779582 4.29678759,15.4536188 C4.28197108,15.1128391 4.00045741,14.875775 3.68931072,14.935041 C3.36334752,14.9794905 3.12628338,15.2610042 3.12628338,15.5573344 Z" id="Shape" fill="#AE8070" fill-rule="nonzero"></path>
                    <path d="M10.2233912,2.01504521 L10.2382077,2.44472397 C10.2233912,2.29655888 10.2233912,2.14839379 10.2233912,2.01504521 Z" id="Path" fill="#AE8070"></path>
                    <path d="M3.39298054,6.28219978 C3.36334752,6.41554836 3.33371451,6.54889694 3.30408149,6.68224552 C3.25963196,6.87486014 3.18554942,7.06747475 3.08183386,7.24527286 C3.00775131,7.39343795 2.93366877,7.40825446 2.81513669,7.28972239 C2.57807255,7.08229126 2.37064143,6.83041061 2.19284332,6.56371345 C1.62981598,5.71917244 1.1705042,4.83018191 0.874174026,3.85229232 C0.740825446,3.43743007 0.651926392,3.00775131 0.592660357,2.57807255 C0.54821083,2.23729285 0.563027339,1.89651314 0.68155941,1.57054995 C0.755641955,1.37793533 0.844541008,1.18532071 1.00752261,1.05197213 C1.24458675,0.844541008 1.52610042,0.740825446 1.85206362,0.740825446 C2.08912776,0.740825446 2.28174237,0.859357517 2.44472397,1.02233912 C2.62252208,1.18532071 2.74105415,1.37793533 2.85958622,1.58536645 C3.08183386,2.02986172 3.22999894,2.50399001 3.318898,2.9929348 C3.39298054,3.42261356 3.45224658,3.85229232 3.46706309,4.29678759 C3.4818796,4.54866824 3.4818796,4.8153654 3.4818796,5.06724605 C3.4818796,5.11169558 3.4818796,5.1561451 3.4818796,5.20059463 C3.4818796,5.21541114 3.4818796,5.23022765 3.46706309,5.24504416 C3.39298054,5.4821083 3.36334752,5.73398895 3.37816403,5.9858696 C3.36334752,6.08958517 3.37816403,6.19330073 3.39298054,6.28219978 Z" id="Path" fill="#358EBF"></path>
                    <path d="M6.84522712,5.58582386 C6.84522712,5.43765877 6.83041061,5.28949368 6.83041061,5.1413286 C6.83041061,4.93389747 6.83041061,4.72646635 6.83041061,4.51903522 C6.83041061,4.38568664 6.84522712,4.26715457 6.84522712,4.1486225 C6.86004363,3.88192534 6.88967665,3.61522818 6.93412617,3.33371451 C6.99339221,2.97811829 7.05265825,2.62252208 7.17119032,2.26692586 C7.28972239,1.92614616 7.42307097,1.60018296 7.63050209,1.28903628 C7.71940115,1.1556877 7.83793322,1.03715562 7.9712818,0.933440062 C8.20834594,0.755641955 8.46022659,0.711192428 8.74174026,0.770458464 C9.00843742,0.8297245 9.24550157,0.948256571 9.40848316,1.1556877 C9.58628127,1.37793533 9.67518032,1.64463249 9.71962985,1.94096267 C9.76407938,2.29655888 9.71962985,2.6521551 9.64554731,2.9929348 C9.49738222,3.74857676 9.26031808,4.4894022 8.91953837,5.18577812 C8.6380247,5.76362197 8.32687801,6.3118328 7.94164878,6.8155941 C7.82311671,6.9785757 7.67495162,7.12674079 7.52678653,7.27490588 C7.39343795,7.39343795 7.31935541,7.37862144 7.24527286,7.23045635 C7.12674079,7.00820872 7.05265825,6.77114458 6.99339221,6.53408043 C6.99339221,6.53408043 6.99339221,6.51926392 6.99339221,6.51926392 C7.03784174,6.35628233 7.02302523,6.17848422 6.99339221,6.01550262 C6.93412617,5.86733753 6.88967665,5.71917244 6.84522712,5.58582386 Z" id="Path" fill="#358EBF"></path>
                    <path d="M6.84522712,5.58582386 C6.88967665,5.73398895 6.93412617,5.86733753 6.96375919,6.01550262 C6.99339221,6.17848422 7.00820872,6.35628233 6.96375919,6.51926392 C6.94894268,6.59334647 6.91930967,6.65261251 6.87486014,6.71187854 C6.86004363,6.74151156 6.86004363,6.75632807 6.87486014,6.77114458 C6.94894268,6.87486014 6.9785757,6.99339221 6.99339221,7.11192428 C7.02302523,7.37862144 6.9785757,7.6453186 6.90449316,7.89719925 C6.88967665,7.94164878 6.87486014,7.98609831 6.86004363,8.03054783 C6.84522712,7.94164878 6.83041061,7.83793322 6.8155941,7.74903417 C6.78596109,7.61568558 6.75632807,7.482337 6.66742901,7.36380493 C6.637796,7.33417192 6.60816298,7.3045389 6.57852996,7.27490588 C6.57852996,7.3045389 6.57852996,7.33417192 6.57852996,7.34898842 C6.57852996,7.55641955 6.54889694,7.76385067 6.48963091,7.95646529 C6.43036487,8.17871292 6.34146582,8.40096056 6.23775026,8.60839168 C6.23775026,8.62320819 6.22293375,8.6380247 6.20811724,8.65284121 C6.20811724,8.57875866 6.23775026,8.50467612 6.23775026,8.43059358 C6.25256676,8.297245 6.23775026,8.17871292 6.20811724,8.04536434 C6.1488512,7.79348369 6.01550262,7.58605257 5.86733753,7.39343795 C5.79325499,7.28972239 5.68953943,7.18600683 5.60064037,7.11192428 C5.60064037,7.20082334 5.63027339,7.27490588 5.63027339,7.36380493 C5.63027339,7.45270399 5.63027339,7.54160304 5.61545688,7.63050209 C5.55619085,7.98609831 5.39320925,8.28242849 5.18577812,8.56394216 C5.18577812,8.57875866 5.17096161,8.59357517 5.1561451,8.57875866 C5.1413286,8.57875866 5.1561451,8.56394216 5.1561451,8.54912565 C5.18577812,8.40096056 5.17096161,8.25279547 5.1413286,8.10463038 C5.09687907,7.88238275 5.02279652,7.67495162 4.93389747,7.4675205 C4.91908096,7.43788748 4.90426445,7.43788748 4.87463143,7.45270399 C4.78573238,7.49715351 4.72646635,7.58605257 4.69683333,7.66013511 C4.62275078,7.82311671 4.59311777,8.00091482 4.57830126,8.17871292 C4.54866824,8.4750431 4.53385173,8.75655677 4.53385173,9.05288695 C4.53385173,9.06770346 4.53385173,9.06770346 4.53385173,9.08251997 C4.34123711,8.53430914 4.23752155,7.98609831 4.29678759,7.40825446 C4.20788853,7.54160304 4.1486225,7.68976813 4.11898948,7.83793322 C4.07453995,7.98609831 4.07453995,8.14907991 4.10417297,8.297245 C4.05972344,8.20834594 4.01527392,8.10463038 3.97082439,8.01573133 C3.91155835,7.86756624 3.86710883,7.70458464 3.8226593,7.54160304 C3.79302628,7.39343795 3.76339327,7.23045635 3.80784279,7.08229126 C3.80784279,7.06747475 3.80784279,7.05265825 3.79302628,7.03784174 C3.63004469,6.94894268 3.57077865,6.77114458 3.49669611,6.60816298 C3.45224658,6.50444742 3.42261356,6.38591534 3.40779705,6.28219978 C3.39298054,6.17848422 3.37816403,6.07476866 3.37816403,5.97105309 C3.37816403,5.71917244 3.40779705,5.46729179 3.46706309,5.23022765 C3.46706309,5.21541114 3.46706309,5.20059463 3.4818796,5.18577812 C3.54114563,5.02279652 3.58559516,4.87463143 3.6596777,4.71164984 C3.64486119,5.11169558 3.6596777,5.49692481 3.77820977,5.88215404 C3.79302628,5.70435593 3.85229232,5.54137434 3.89674185,5.37839274 C3.94119137,5.23022765 4.00045741,5.08206256 4.07453995,4.94871398 C4.07453995,4.96353049 4.07453995,4.978347 4.07453995,4.99316351 C4.07453995,4.99316351 4.07453995,5.00798002 4.05972344,5.00798002 C4.04490694,5.11169558 4.04490694,5.23022765 4.05972344,5.33394321 C4.07453995,5.39320925 4.07453995,5.45247528 4.10417297,5.49692481 C4.13380599,5.63027339 4.17825552,5.73398895 4.25233806,5.86733753 C4.34123711,5.63027339 4.41531966,5.40802576 4.34123711,5.17096161 C4.41531966,5.23022765 4.45976918,5.30431019 4.51903522,5.36357623 C4.59311777,5.46729179 4.66720031,5.57100735 4.72646635,5.67472292 C4.77091587,5.77843848 4.8153654,5.86733753 4.85981493,5.97105309 C4.90426445,5.70435593 4.99316351,5.45247528 5.12651209,5.23022765 C5.17096161,5.52655783 5.23022765,5.79325499 5.36357623,6.04513564 C5.39320925,6.00068611 5.42284226,5.95623659 5.45247528,5.91178706 C5.55619085,5.71917244 5.61545688,5.49692481 5.57100735,5.27467718 C5.57100735,5.23022765 5.54137434,5.18577812 5.54137434,5.1413286 L5.55619085,5.1413286 C5.68953943,5.36357623 5.79325499,5.58582386 5.86733753,5.83770451 C5.89697055,5.77843848 5.92660357,5.74880546 5.95623659,5.70435593 C6.03031913,5.63027339 6.10440168,5.57100735 6.19330073,5.52655783 C6.28219978,5.49692481 6.37109884,5.46729179 6.4748144,5.45247528 C6.48963091,5.45247528 6.50444742,5.45247528 6.51926392,5.46729179 C6.51926392,5.4821083 6.51926392,5.49692481 6.50444742,5.49692481 C6.43036487,5.61545688 6.35628233,5.74880546 6.34146582,5.89697055 C6.32664931,6.00068611 6.32664931,6.08958517 6.35628233,6.19330073 C6.35628233,6.22293375 6.37109884,6.22293375 6.41554836,6.22293375 C6.53408043,6.17848422 6.59334647,6.08958517 6.637796,5.9858696 C6.68224552,5.86733753 6.71187854,5.73398895 6.71187854,5.61545688 C6.71187854,5.4821083 6.71187854,5.34875972 6.71187854,5.21541114 C6.72669505,5.25986067 6.75632807,5.3191267 6.77114458,5.36357623 C6.78596109,5.42284226 6.8155941,5.49692481 6.84522712,5.58582386 Z" id="Path" fill="#070808"></path>
                    <path d="M6.53408043,12.3421519 C6.41554836,12.3421519 6.29701629,12.3569684 6.17848422,12.3421519 C6.00068611,12.3273354 5.88215404,12.2236199 5.79325499,12.0754548 C5.63027339,11.7494916 5.57100735,11.4087119 5.6450899,11.0382991 C5.74880546,10.5493544 5.97105309,10.1196756 6.32664931,9.76407938 C6.4748144,9.61591429 6.65261251,9.49738222 6.86004363,9.43811618 C7.12674079,9.34921713 7.39343795,9.37885015 7.63050209,9.52701524 C8.04536434,9.77889589 8.32687801,10.1344921 8.4750431,10.6086204 C8.59357517,10.9790331 8.50467612,11.3049963 8.23797896,11.5716935 C7.83793322,11.9865557 7.34898842,12.2236199 6.78596109,12.3125189 C6.74151156,12.3125189 6.69706203,12.3273354 6.65261251,12.3273354 C6.62297949,12.3421519 6.57852996,12.3421519 6.53408043,12.3421519 Z M6.69706203,12.2680694 C6.77114458,12.2680694 6.84522712,12.2680694 6.91930967,12.2532529 C7.21563984,12.1791703 7.39343795,12.0013722 7.51197002,11.7346751 C7.55641955,11.6309595 7.58605257,11.5272439 7.58605257,11.4235284 C7.57123606,11.2901798 7.4675205,11.2309138 7.34898842,11.2753633 C7.31935541,11.2901798 7.28972239,11.3049963 7.26008937,11.3198128 C7.23045635,11.3346293 7.20082334,11.3494458 7.15637381,11.3642623 C7.03784174,11.3938954 6.91930967,11.3642623 6.84522712,11.2457303 C6.77114458,11.1420147 6.77114458,11.0382991 6.86004363,10.9345836 C6.88967665,10.9049506 6.91930967,10.8753175 6.94894268,10.8456845 C7.05265825,10.7271525 6.99339221,10.5789874 6.84522712,10.5493544 C6.69706203,10.5197213 6.53408043,10.5345378 6.40073185,10.5938039 C6.13403469,10.6975194 5.92660357,10.8753175 5.86733753,11.1716477 C5.82288801,11.3938954 5.83770451,11.616143 5.92660357,11.8383906 C6.01550262,12.0458218 6.16366771,12.1939868 6.38591534,12.2680694 C6.45999789,12.2532529 6.57852996,12.2680694 6.69706203,12.2680694 Z" id="Shape" fill="#FFFFFF" fill-rule="nonzero"></path>
                    <path d="M3.86710883,12.3569684 C3.318898,12.3421519 2.80032019,12.2088034 2.34100841,11.8828402 C2.17802681,11.7643081 2.02986172,11.6309595 1.89651314,11.4679779 C1.68908202,11.1864642 1.64463249,10.8901341 1.76316456,10.5641709 C1.86688012,10.2826572 2.01504521,10.0307765 2.22247634,9.82334541 C2.41509095,9.6307308 2.63733859,9.4677492 2.91885226,9.40848316 C3.12628338,9.36403364 3.318898,9.40848316 3.49669611,9.49738222 C4.03009043,9.77889589 4.35605362,10.2233912 4.51903522,10.801235 C4.57830126,11.0382991 4.63756729,11.2753633 4.60793427,11.5124274 C4.59311777,11.7198586 4.51903522,11.9421062 4.41531966,12.1199043 C4.3116041,12.2977024 4.1486225,12.3421519 3.95600788,12.3569684 C3.92637486,12.3569684 3.91155835,12.3569684 3.86710883,12.3569684 Z M2.66697161,11.4087119 C2.66697161,11.4383449 2.66697161,11.4827944 2.68178811,11.5272439 C2.68178811,11.556877 2.69660462,11.58651 2.69660462,11.616143 C2.78550368,11.9272897 2.96330178,12.1495373 3.27444847,12.2384364 C3.36334752,12.2680694 3.46706309,12.2532529 3.55596214,12.2680694 C3.73376025,12.2828859 3.89674185,12.2532529 4.03009043,12.1495373 C4.29678759,11.9717392 4.44495268,11.7346751 4.40050315,11.4087119 C4.38568664,11.2753633 4.26715457,11.1716477 4.13380599,11.2901798 C4.10417297,11.3049963 4.07453995,11.3198128 4.05972344,11.3346293 C3.95600788,11.3790789 3.86710883,11.3790789 3.77820977,11.3049963 C3.61522818,11.1716477 3.60041167,11.0086661 3.76339327,10.860501 C3.77820977,10.8456845 3.79302628,10.830868 3.80784279,10.8160515 C3.86710883,10.7567855 3.86710883,10.6827029 3.8226593,10.6086204 C3.79302628,10.5493544 3.73376025,10.5197213 3.6596777,10.5197213 C3.57077865,10.5049048 3.4818796,10.5197213 3.39298054,10.5197213 C2.97811829,10.5938039 2.66697161,10.9642166 2.66697161,11.4087119 Z" id="Shape" fill="#FFFFFF" fill-rule="nonzero"></path>
                    <path d="M6.20811724,8.65284121 C6.20811724,8.66765772 6.20811724,8.65284121 6.20811724,8.65284121 Z" id="Path" fill="#070808"></path>
                    <path d="M7.40825446,15.4536188 C7.39343795,15.749949 7.26008937,15.9721966 7.03784174,16.1648112 C6.71187854,16.4315084 6.34146582,16.624123 5.95623659,16.7871046 C5.89697055,16.8167376 5.85252102,16.8167376 5.79325499,16.7871046 C5.71917244,16.7426551 5.70435593,16.683389 5.74880546,16.6093065 C5.83770451,16.4907744 5.92660357,16.3722424 6.00068611,16.2388938 C6.1488512,16.0018296 6.22293375,15.7647655 6.23775026,15.4832518 C6.25256676,15.3350867 6.28219978,15.1869216 6.38591534,15.0832061 C6.56371345,14.905408 6.86004363,14.875775 7.08229126,15.02394 C7.18600683,15.0980226 7.27490588,15.1721051 7.34898842,15.2758207 C7.39343795,15.3350867 7.42307097,15.3943528 7.40825446,15.4536188 Z" id="Path" fill="#070808"></path>
                    <path d="M3.12628338,15.5573344 C3.12628338,15.2610042 3.37816403,14.994307 3.67449421,14.935041 C3.9856409,14.875775 4.26715457,15.1128391 4.28197108,15.4536188 C4.29678759,15.779582 4.38568664,16.0759122 4.59311777,16.3426093 C4.60793427,16.3722424 4.62275078,16.3870589 4.6523838,16.4018754 C4.68201682,16.4166919 4.68201682,16.4463249 4.68201682,16.4759579 C4.68201682,16.5055909 4.69683333,16.5204074 4.71164984,16.535224 C4.74128285,16.564857 4.77091587,16.6093065 4.78573238,16.653756 C4.80054889,16.683389 4.78573238,16.7278386 4.75609936,16.7574716 C4.71164984,16.7871046 4.66720031,16.8167376 4.60793427,16.8019211 C4.54866824,16.7871046 4.4894022,16.7722881 4.44495268,16.7426551 C4.17825552,16.6093065 3.91155835,16.4759579 3.6596777,16.3129763 C3.4818796,16.1796277 3.30408149,16.0314627 3.18554942,15.838848 C3.1559164,15.749949 3.11146687,15.6462334 3.12628338,15.5573344 Z" id="Path" fill="#070808"></path>
                    <path d="M3.09665036,16.8760037 C3.25963196,16.9649027 3.42261356,17.0686183 3.60041167,17.1427008 C3.9856409,17.3353154 4.38568664,17.498297 4.8153654,17.5871961 C5.33394321,17.6909117 5.83770451,17.6316456 6.32664931,17.409398 C6.65261251,17.2612329 6.93412617,17.0686183 7.21563984,16.8611872 C7.23045635,16.8463706 7.24527286,16.8463706 7.26008937,16.8315541 C7.23045635,16.9204532 7.17119032,16.9945357 7.11192428,17.0686183 C6.78596109,17.498297 6.38591534,17.8094437 5.86733753,17.9427923 C5.42284226,18.0613244 4.96353049,18.0316914 4.53385173,17.8835263 C3.97082439,17.6909117 3.51151261,17.3649485 3.14109989,16.9056367 C3.11146687,16.9056367 3.09665036,16.8908202 3.09665036,16.8760037 Z" id="Path" fill="#FFFFFF"></path>
                    <path d="M7.26008937,16.8463706 C7.26008937,16.8315541 7.26008937,16.8315541 7.26008937,16.8463706 C7.26008937,16.8463706 7.26008937,16.8463706 7.26008937,16.8463706 Z" id="Path" fill="#FFFFFF"></path>
                    <path d="M5.52655783,5.12651209 C5.52655783,5.17096161 5.54137434,5.21541114 5.55619085,5.25986067 C5.60064037,5.4821083 5.54137434,5.68953943 5.43765877,5.89697055 C5.40802576,5.94142008 5.37839274,5.9858696 5.34875972,6.03031913 C5.21541114,5.77843848 5.1413286,5.51174132 5.11169558,5.21541114 C4.99316351,5.45247528 4.90426445,5.70435593 4.84499842,5.95623659 C4.8153654,5.85252102 4.77091587,5.74880546 4.71164984,5.65990641 C4.6523838,5.55619085 4.57830126,5.45247528 4.50421871,5.34875972 C4.63756729,5.1561451 4.83018191,5.05242954 5.05242954,5.02279652 C5.06724605,5.02279652 5.08206256,5.02279652 5.08206256,5.02279652 C5.12651209,5.02279652 5.1561451,5.02279652 5.20059463,5.02279652 C5.28949368,5.03761303 5.39320925,5.05242954 5.4821083,5.09687907 C5.51174132,5.11169558 5.52655783,5.11169558 5.52655783,5.12651209 Z" id="Path" fill="#358EBF"></path>
                    <path d="M5.09687907,4.11898948 C4.88944794,4.07453995 4.77091587,3.88192534 4.80054889,3.68931072 C4.84499842,3.4818796 5.03761303,3.36334752 5.23022765,3.39298054 C5.28949368,3.40779705 5.34875972,3.43743007 5.39320925,3.46706309 C5.54137434,3.58559516 5.57100735,3.8226593 5.45247528,3.97082439 C5.39320925,4.04490694 5.30431019,4.10417297 5.20059463,4.11898948 C5.18577812,4.11898948 5.1413286,4.11898948 5.09687907,4.11898948 Z" id="Path" fill="#358EBF"></path>
                    <path d="M5.09687907,4.11898948 C5.1413286,4.11898948 5.17096161,4.13380599 5.21541114,4.11898948 C5.21541114,4.38568664 5.21541114,4.6523838 5.21541114,4.91908096 C5.21541114,4.96353049 5.21541114,4.99316351 5.21541114,5.03761303 C5.17096161,5.03761303 5.1413286,5.03761303 5.09687907,5.03761303 L5.09687907,4.11898948 Z" id="Path" fill="#070808"></path>
                    <path d="M5.94142008,5.68953943 C5.91178706,5.73398895 5.88215404,5.76362197 5.85252102,5.82288801 C5.77843848,5.58582386 5.65990641,5.34875972 5.54137434,5.12651209 C5.6450899,5.17096161 5.70435593,5.23022765 5.77843848,5.3191267 C5.86733753,5.42284226 5.91178706,5.54137434 5.94142008,5.67472292 C5.94142008,5.67472292 5.94142008,5.68953943 5.94142008,5.68953943 Z" id="Path" fill="#358EBF"></path>
                    <path d="M4.10417297,5.49692481 C4.07453995,5.45247528 4.07453995,5.39320925 4.05972344,5.33394321 C4.04490694,5.23022765 4.04490694,5.11169558 4.05972344,5.00798002 C4.05972344,5.00798002 4.05972344,4.99316351 4.07453995,4.99316351 C4.07453995,5.1561451 4.08935646,5.33394321 4.10417297,5.49692481 Z" id="Path" fill="#4B3938"></path>
                    <path d="M6.69706203,12.2680694 C6.57852996,12.2680694 6.45999789,12.2532529 6.34146582,12.2236199 C6.11921818,12.1495373 5.97105309,12.0161887 5.88215404,11.7939411 C5.79325499,11.58651 5.77843848,11.3494458 5.82288801,11.1271982 C5.88215404,10.8456845 6.08958517,10.6530699 6.35628233,10.5493544 C6.50444742,10.4900883 6.65261251,10.4752718 6.80077759,10.5049048 C6.94894268,10.5345378 7.00820872,10.6827029 6.90449316,10.801235 C6.87486014,10.830868 6.84522712,10.860501 6.8155941,10.8901341 C6.72669505,10.9938496 6.72669505,11.0975652 6.80077759,11.2012807 C6.87486014,11.3198128 6.99339221,11.3642623 7.11192428,11.3198128 C7.1415573,11.3049963 7.18600683,11.2901798 7.21563984,11.2753633 C7.24527286,11.2605468 7.27490588,11.2457303 7.3045389,11.2309138 C7.42307097,11.1864642 7.52678653,11.2457303 7.54160304,11.3790789 C7.55641955,11.4976109 7.51197002,11.58651 7.4675205,11.6902255 C7.34898842,11.9569227 7.17119032,12.1495373 6.87486014,12.2088034 C6.84522712,12.2680694 6.77114458,12.2680694 6.69706203,12.2680694 Z" id="Path" fill="#070808"></path>
                    <path d="M2.66697161,11.4087119 C2.66697161,10.9494001 2.97811829,10.5938039 3.40779705,10.5197213 C3.49669611,10.5049048 3.58559516,10.5049048 3.67449421,10.5197213 C3.73376025,10.5197213 3.79302628,10.5641709 3.83747581,10.6086204 C3.88192534,10.6827029 3.88192534,10.7567855 3.8226593,10.8160515 C3.80784279,10.830868 3.79302628,10.8456845 3.77820977,10.860501 C3.63004469,11.0086661 3.63004469,11.1716477 3.79302628,11.3049963 C3.88192534,11.3790789 3.97082439,11.3790789 4.07453995,11.3346293 C4.10417297,11.3198128 4.13380599,11.3049963 4.1486225,11.2901798 C4.29678759,11.1864642 4.40050315,11.2753633 4.41531966,11.4087119 C4.44495268,11.7346751 4.29678759,11.9717392 4.04490694,12.1495373 C3.89674185,12.2532529 3.73376025,12.2828859 3.57077865,12.2680694 C3.4818796,12.2680694 3.37816403,12.2680694 3.28926498,12.2384364 C2.97811829,12.1495373 2.78550368,11.9272897 2.71142113,11.616143 C2.69660462,11.58651 2.69660462,11.556877 2.69660462,11.5272439 C2.68178811,11.4827944 2.66697161,11.4383449 2.66697161,11.4087119 Z" id="Path" fill="#070808"></path>
                </g>
            </g>
        </g>
    </g>
</svg>