<?xml version="1.0" encoding="utf-8"?>
<!-- Generator: Adobe Illustrator 22.1.0, SVG Export Plug-In . SVG Version: 6.00 Build 0)  -->
<svg version="1.1" id="Layer_1" xmlns="http://www.w3.org/2000/svg" xmlns:xlink="http://www.w3.org/1999/xlink" x="0px" y="0px"
	 viewBox="0 0 135.9 25" style="enable-background:new 0 0 135.9 25;" xml:space="preserve">
<style type="text/css">
	.st0{fill:#FFFFFF;}
	.st1{fill:#F0584D;}
	.st2{opacity:0.37;fill:#FFFFFF;}
	.st3{fill:#563B39;}
	.st4{fill:#AE8070;}
	.st5{fill:#358EBF;}
	.st6{fill:#070808;}
	.st7{fill:#4B3938;}
</style>
<g>
	<g>
		<g>
			<g>
				<path class="st0" d="M90.1,11.4c0.4,0.1,0.8,0.3,1.1,0.6c0.2,0.3,0.4,0.6,0.4,1c0,0.7,0,1.5,0,2.2c0,0.9-0.6,1.5-1.5,1.7
					c-0.3,0.1-0.5,0.1-0.8,0.1c-2.6,0-5.1,0-7.7,0c-0.2,0-0.2,0-0.2-0.2c0-3.3,0-6.6,0-9.9c0-0.2,0-0.2,0.2-0.2c2.5,0,5,0,7.4,0
					c0.4,0,0.9,0.1,1.3,0.2c0.6,0.3,1,0.7,1,1.4c0,0.7,0,1.3,0,2c0,0.7-0.3,0.9-1.1,1.1C90.2,11.4,90.2,11.4,90.1,11.4z M86.1,15.7
					c0.9,0,1.9,0,2.8,0c0.3,0,0.5,0,0.8-0.1c0.3-0.1,0.5-0.3,0.5-0.7c0-0.6,0-1.2,0-1.8c0-0.5-0.2-0.7-0.7-0.8
					c-0.1,0-0.3-0.1-0.4-0.1c-2,0-4,0-6.1,0c-0.2,0-0.2,0.1-0.2,0.2c0,1,0,2,0,3.1c0,0.2,0.1,0.2,0.2,0.2C84,15.7,85,15.7,86.1,15.7
					L86.1,15.7z M86,11L86,11c1,0,2,0,3,0c0.6,0,1-0.4,1-0.9c0-0.4,0-0.8,0-1.2c0-0.4-0.2-0.7-0.7-0.9c-0.2-0.1-0.4-0.1-0.6-0.1
					c-1.9,0-3.8,0-5.7,0c-0.2,0-0.2,0.1-0.2,0.2c0,0.9,0,1.8,0,2.7c0,0.2,0,0.2,0.2,0.2L86,11z"/>
				<path class="st0" d="M72.3,12.3v0.2c0,0.6,0,1.3,0,1.9c0,0.8,0.5,1.3,1.3,1.3c2.3,0,4.6,0,6.8,0c0.4,0,0.3,0,0.3,0.3
					c0,0.2,0,0.5,0,0.7c0,0.2-0.1,0.2-0.2,0.2c-0.8,0-1.5,0-2.3,0c-1.7,0-3.3,0-5,0c-1.2,0-2.3-0.9-2.4-2c0-0.1,0-0.2,0-0.3
					c0-1.9,0-3.8,0-5.7c0-1.3,1-2.3,2.3-2.3c2.4,0,4.9,0,7.3,0c0.2,0,0.2,0,0.2,0.2c0,0.3,0,0.6,0,0.9c0,0.1,0,0.2-0.1,0.2
					c-0.1,0-0.1,0-0.2,0c-2.3,0-4.6,0-6.9,0c-0.7,0-1.1,0.4-1.3,1c0,0.1,0,0.2,0,0.3c0,0.5,0,1,0,1.6c0,0.2,0.1,0.2,0.2,0.2
					c2.2,0,4.4,0,6.6,0c0.2,0,0.2,0,0.2,0.2c0,0.3,0,0.6,0,0.8c0,0.2,0,0.2-0.2,0.2c-2.1,0-4.1,0-6.2,0L72.3,12.3z"/>
				<path class="st0" d="M92.4,15.7h0.3c2.3,0,4.6,0,6.9,0c0.8,0,1.3-0.5,1.3-1.2c0-0.4,0-0.7,0-1.1c0-0.6-0.6-1.1-1.2-1.1
					c-1.7,0-3.5,0-5.2,0c-0.4,0-0.8-0.1-1.1-0.3c-0.7-0.4-1.2-0.9-1.2-1.8c0-0.6-0.1-1.2,0-1.8c0.1-1,1.1-1.8,2.2-1.8
					c2.3,0,4.7,0,7,0c0.1,0,0.2,0,0.2,0.2c0,0.3,0,0.6,0,0.9c0,0.2,0,0.2-0.2,0.2c-2.2,0-4.4,0-6.6,0c-0.5,0-0.8,0.2-1.1,0.6
					c-0.3,0.4-0.3,1.6,0,2c0.3,0.4,0.6,0.5,1.1,0.5c1.7,0,3.4,0,5.1,0c0.4,0,0.8,0.1,1.2,0.3c0.8,0.5,1.2,1.1,1.2,2c0,0.5,0,1,0,1.4
					c0,1.2-1,2.3-2.3,2.3c-2.5,0-4.9,0-7.4,0c-0.1,0-0.2,0-0.2-0.2C92.4,16.5,92.4,16.1,92.4,15.7z"/>
				<path class="st0" d="M47.4,19.9c-0.4,0-0.8,0-1.2,0c0,0-0.1-0.1-0.1-0.1c0,0,0-0.1,0-0.2c0-3.3,0-6.7,0-10c0-0.3,0-0.3,0.3-0.3
					c1.7,0,3.5,0,5.2,0c0.7,0,1.2,0.2,1.7,0.7c0.4,0.4,0.6,0.8,0.6,1.4c0,1.2,0,2.3,0,3.5c0,1.1-0.9,2-2.1,2c-1.1,0-2.2,0-3.3,0
					c-0.3,0-0.6,0-0.9,0c-0.2,0-0.2,0.1-0.2,0.2c0,0.8,0,1.7,0,2.5L47.4,19.9z M47.4,13.1c0,0.8,0,1.6,0,2.4c0,0.1,0,0.2,0.2,0.2
					c1.3,0,2.6,0,3.8,0c0.6,0,1-0.5,1-1.1c0-1,0-2.1,0-3.1c0-0.2-0.1-0.3-0.1-0.5c-0.2-0.4-0.7-0.6-1.1-0.6c-1.2,0-2.4,0-3.6,0
					c-0.2,0-0.2,0.1-0.2,0.2C47.4,11.6,47.4,12.4,47.4,13.1L47.4,13.1z"/>
				<path class="st0" d="M58.8,13.9c-1,0-2,0-3,0c-0.2,0-0.2,0-0.2,0.2c0,0.3,0,0.7,0,1c0,0.4,0.2,0.7,0.7,0.7c0.8,0,1.5,0,2.3,0
					c0.8,0,1.7,0,2.5,0c0.2,0,0.2,0,0.2,0.2c0,0.3,0,0.5,0,0.8c0,0.1,0,0.2-0.2,0.2c-1.7,0-3.5,0-5.2,0c-0.8,0-1.4-0.5-1.6-1.2
					c0-0.2-0.1-0.3-0.1-0.5c0-1.3,0-2.6,0-3.9c0-1.1,0.8-2,1.9-2.1c0.3,0,0.6,0,1,0c1,0,2,0,3,0c0.9,0,1.7,0.8,1.9,1.6
					c0,0.1,0,0.3,0,0.4c0,0.7,0,1.5,0,2.2c0,0.2-0.1,0.2-0.2,0.2C60.8,13.9,59.8,13.9,58.8,13.9z M58.1,12.7c0.8,0,1.6,0,2.3,0
					c0.2,0,0.2,0,0.2-0.2c0-0.3,0-0.5,0-0.8c0-0.6-0.5-1.1-1.1-1.1c-1,0-2,0-3,0c-0.6,0-1.1,0.5-1.1,1.1c0,0.3,0,0.5,0,0.8
					c0,0.2,0.1,0.2,0.2,0.2C56.6,12.7,57.3,12.7,58.1,12.7z"/>
				<path class="st0" d="M70.4,14c0,0.9,0,1.9,0,2.8c0,0.2,0,0.2-0.2,0.2c-0.3,0-0.6,0-0.9,0c-0.2,0-0.2,0-0.2-0.2c0-1.7,0-3.3,0-5
					c0-0.7-0.4-1.2-1.1-1.2c-1,0-2,0-3,0c-0.7,0-1.1,0.5-1.1,1.2c0,1.4,0,2.8,0,4.2c0,0.3,0,0.6,0,0.9c0,0.1,0,0.2-0.2,0.2
					c-0.3,0-0.7,0-1,0c-0.1,0-0.2,0-0.2-0.2c0-1.8,0-3.6,0-5.5c0-1,0.8-1.8,1.8-1.9c0.1,0,0.3,0,0.4,0c1.2,0,2.3,0,3.5,0
					c0.8,0,1.4,0.3,1.9,1c0.2,0.3,0.3,0.6,0.3,0.9C70.4,12.2,70.4,13.1,70.4,14L70.4,14z"/>
				<path class="st0" d="M45.2,11.8c0,0.9,0,1.9,0,2.8c0,1.1-0.8,2-1.8,2.2c-0.2,0-0.3,0.1-0.5,0c-0.1,0-0.2,0-0.3,0
					c-1.4,0-2.8,0-4.2,0c-0.4,0-0.8,0-1.2,0c-0.3,0-0.6,0-0.8-0.1c-0.8-0.3-1.4-0.8-1.6-1.6c-0.1-0.2-0.1-0.4-0.1-0.6
					c0-0.2,0-0.5,0-0.7c0-1.5,0-3,0-4.5c0-0.2,0-0.5,0-0.7c0-0.4,0.2-0.8,0.4-1.2c0.4-0.5,0.9-0.8,1.5-0.9c0.2,0,0.5,0,0.7,0
					c0.8,0,1.5,0,2.3,0c0.8,0,1.5,0,2.3,0c0.4,0,0.8,0,1.1,0c0.6,0,1.1,0.2,1.5,0.6c0.4,0.3,0.6,0.8,0.7,1.3c0,0.2,0,0.3,0,0.5
					C45.2,9.9,45.2,10.8,45.2,11.8L45.2,11.8z M40,15.7L40,15.7c0.8,0,1.6,0,2.4,0c0.2,0,0.3,0,0.5,0c0.3,0,0.6-0.2,0.8-0.5
					c0.1-0.2,0.2-0.4,0.2-0.6c0-0.1,0-0.2,0-0.4c0-0.3,0-0.6,0-0.8c0-0.2,0-0.4,0-0.6l0-0.7l0-0.6l0-0.7c0-0.2,0-0.4,0-0.6
					c0-0.3,0-0.6,0-0.9c0-0.1,0-0.2,0-0.4c0-0.3-0.2-0.5-0.4-0.7c-0.2-0.2-0.5-0.3-0.8-0.3c0,0-0.1,0-0.1,0c-0.1,0-0.2,0-0.2,0
					c-0.3,0-0.6,0-0.9,0c-1.3,0-2.6,0-3.9,0c-0.1,0-0.3,0-0.4,0c-0.3,0-0.6,0.2-0.8,0.4C36,8.4,35.9,8.7,35.9,9c0,0.2,0,0.5,0,0.7
					l0,0.7l0,0.7l0,0.7l0,0.7l0,0.6c0,0.2,0,0.5,0,0.7c0,0.2,0,0.4,0,0.6c0,0.1,0,0.3,0.1,0.4c0.2,0.6,0.7,0.9,1.2,0.9
					c0,0,0,0,0.1,0c0.1,0,0.3,0,0.4,0L40,15.7z"/>
			</g>
		</g>
		<g>
			<path class="st1" d="M106.4,17V7h2.8c3.5,0,5.3,1.6,5.3,4.9c0,1.5-0.5,2.8-1.5,3.7c-1,0.9-2.3,1.4-3.9,1.4H106.4z M107.6,8v7.9
				h1.5c1.3,0,2.3-0.4,3.1-1.1c0.7-0.7,1.1-1.7,1.1-3c0-2.6-1.4-3.9-4.1-3.9H107.6z"/>
			<path class="st1" d="M119.3,17.2c-1.1,0-1.9-0.3-2.5-1c-0.6-0.7-0.9-1.6-0.9-2.7c0-1.2,0.3-2.1,1-2.8c0.7-0.7,1.5-1,2.7-1
				c1.1,0,1.9,0.3,2.5,1c0.6,0.7,0.9,1.6,0.9,2.7c0,1.1-0.3,2.1-1,2.7C121.3,16.8,120.4,17.2,119.3,17.2z M119.4,10.6
				c-0.7,0-1.3,0.3-1.7,0.8s-0.6,1.2-0.6,2.1c0,0.8,0.2,1.5,0.7,2c0.4,0.5,1,0.7,1.7,0.7c0.7,0,1.3-0.2,1.7-0.7
				c0.4-0.5,0.6-1.2,0.6-2.1c0-0.9-0.2-1.6-0.6-2.1C120.7,10.9,120.2,10.6,119.4,10.6z"/>
			<path class="st1" d="M129.6,16.7c-0.6,0.3-1.2,0.5-2,0.5c-1,0-1.8-0.3-2.5-1c-0.6-0.7-0.9-1.5-0.9-2.6c0-1.2,0.3-2.1,1-2.8
				c0.7-0.7,1.6-1.1,2.7-1.1c0.6,0,1.2,0.1,1.7,0.3v1.2c-0.5-0.4-1.1-0.6-1.7-0.6c-0.7,0-1.3,0.3-1.8,0.8c-0.5,0.5-0.7,1.2-0.7,2.1
				c0,0.8,0.2,1.5,0.7,2c0.4,0.5,1,0.7,1.8,0.7c0.6,0,1.2-0.2,1.8-0.6V16.7z"/>
			<path class="st1" d="M130.9,16.7v-1.2c0.6,0.5,1.3,0.7,2.1,0.7c1,0,1.5-0.3,1.5-1c0-0.2,0-0.4-0.1-0.5c-0.1-0.1-0.2-0.3-0.4-0.4
				c-0.1-0.1-0.3-0.2-0.5-0.3c-0.2-0.1-0.4-0.2-0.6-0.3c-0.3-0.1-0.6-0.3-0.8-0.4c-0.2-0.1-0.4-0.3-0.6-0.4
				c-0.2-0.2-0.3-0.3-0.4-0.5c-0.1-0.2-0.1-0.4-0.1-0.7c0-0.3,0.1-0.6,0.2-0.9c0.2-0.3,0.4-0.5,0.6-0.7c0.3-0.2,0.5-0.3,0.9-0.4
				c0.3-0.1,0.7-0.1,1-0.1c0.6,0,1.2,0.1,1.7,0.3v1.2c-0.5-0.3-1.1-0.5-1.8-0.5c-0.2,0-0.4,0-0.6,0.1c-0.2,0-0.3,0.1-0.4,0.2
				c-0.1,0.1-0.2,0.2-0.3,0.3c-0.1,0.1-0.1,0.3-0.1,0.4c0,0.2,0,0.3,0.1,0.5c0.1,0.1,0.2,0.2,0.3,0.3c0.1,0.1,0.3,0.2,0.5,0.3
				c0.2,0.1,0.4,0.2,0.6,0.3c0.3,0.1,0.6,0.2,0.9,0.4c0.3,0.1,0.5,0.3,0.6,0.4c0.2,0.2,0.3,0.3,0.4,0.6c0.1,0.2,0.1,0.5,0.1,0.7
				c0,0.4-0.1,0.7-0.2,0.9c-0.2,0.3-0.4,0.5-0.6,0.7c-0.3,0.2-0.6,0.3-0.9,0.4c-0.3,0.1-0.7,0.1-1.1,0.1
				C132.1,17.2,131.5,17,130.9,16.7z"/>
		</g>
	</g>
	<g>
		<ellipse class="st0" cx="12.5" cy="12.5" rx="10.6" ry="10.7"/>
		<ellipse class="st2" cx="12.6" cy="12.5" rx="12.3" ry="12.5"/>
		<g>
			<path class="st3" d="M9.5,4.6h0.2c0,0,0,0,0,0c0.1,0,0.2,0,0.3,0.1c0.2,0.1,0.4,0.3,0.6,0.5c0.2,0.3,0.4,0.7,0.5,1
				c0.1,0.3,0.2,0.7,0.2,1c0.1,0.3,0.1,0.7,0.2,1c0,0.3,0,0.6,0.1,0.9c-0.1,0.1-0.1,0.3-0.2,0.4c-0.1,0.2-0.1,0.3-0.1,0.5
				c-0.1-0.3-0.1-0.7-0.1-1.1C11.1,9,11,9.2,11,9.3c0,0,0-0.1,0-0.1c0-0.2,0-0.5,0-0.7c0-0.4-0.1-0.8-0.1-1.2
				c-0.1-0.4-0.2-0.9-0.4-1.3c-0.1-0.2-0.2-0.4-0.4-0.5C9.9,5.3,9.7,5.2,9.5,5.2C9.2,5.2,9,5.3,8.7,5.5C8.6,5.6,8.5,5.8,8.4,6
				C8.3,6.3,8.3,6.6,8.4,6.9c0.1,0.4,0.1,0.8,0.3,1.2C8.9,9,9.3,9.8,9.8,10.6c0.2,0.2,0.3,0.5,0.6,0.7c0.1,0.1,0.2,0.1,0.2,0
				c0.1-0.2,0.2-0.3,0.2-0.5c0-0.1,0.1-0.2,0.1-0.4c0,0.1,0,0.2,0.1,0.3c0.1,0.1,0.1,0.3,0.3,0.4c0,0,0,0,0,0c0,0.1,0,0.3,0,0.4
				c0,0.1,0.1,0.3,0.1,0.4c0,0.1,0.1,0.2,0.1,0.3c0-0.1,0-0.3,0-0.4c0-0.1,0.1-0.3,0.2-0.4c-0.1,0.5,0,1,0.2,1.5c0,0,0,0,0,0
				c0-0.3,0-0.5,0-0.8c0-0.2,0-0.3,0.1-0.5c0-0.1,0.1-0.2,0.2-0.2c0,0,0,0,0.1,0c0.1,0.2,0.2,0.4,0.2,0.6c0,0.1,0,0.3,0,0.4
				c0,0,0,0,0,0c0,0,0,0,0,0c0.2-0.3,0.3-0.5,0.4-0.9c0-0.1,0-0.2,0-0.2c0-0.1,0-0.2,0-0.2l0,0c0.1,0.1,0.2,0.2,0.3,0.3
				c0.1,0.2,0.3,0.4,0.3,0.6c0,0.1,0,0.2,0,0.3c0,0.1,0,0.1,0,0.2c0,0,0,0,0,0l0,0l0,0c0,0,0,0,0,0c0.1-0.2,0.2-0.4,0.2-0.6
				c0.1-0.2,0.1-0.4,0.1-0.6c0,0,0,0,0-0.1c0,0,0.1,0,0.1,0.1c0.1,0.1,0.1,0.2,0.1,0.4c0,0.1,0,0.2,0,0.3c0,0,0-0.1,0-0.1
				c0.1-0.2,0.1-0.5,0.1-0.7c0-0.1,0-0.2-0.1-0.3c0,0,0,0,0-0.1c0-0.1,0.1-0.1,0.1-0.2c0,0,0,0,0,0c0.1,0.2,0.1,0.4,0.2,0.6
				c0.1,0.1,0.1,0.2,0.3,0c0.1-0.1,0.3-0.3,0.4-0.4c0.4-0.5,0.6-1,0.9-1.5c0.3-0.6,0.5-1.3,0.7-2c0.1-0.3,0.1-0.6,0.1-1
				c0-0.3-0.1-0.5-0.3-0.7c-0.2-0.2-0.4-0.3-0.6-0.4c-0.3-0.1-0.5,0-0.7,0.1c-0.1,0.1-0.2,0.2-0.3,0.3c-0.2,0.3-0.3,0.6-0.4,0.9
				c-0.1,0.3-0.2,0.6-0.2,1c0,0.2-0.1,0.5-0.1,0.7c0,0.1,0,0.2,0,0.3c0,0.2,0,0.4,0,0.6c0,0.1,0,0.3,0,0.4c0-0.1-0.1-0.1-0.1-0.2
				c0,0,0-0.1-0.1-0.1c0,0.1,0,0.2,0,0.4c0,0.1,0,0.2-0.1,0.3c0,0.1-0.1,0.2-0.2,0.2c0,0,0,0-0.1,0c0-0.1,0-0.2,0-0.3
				c0-0.1,0.1-0.2,0.2-0.4c0,0,0,0,0,0c0,0,0,0,0,0c-0.1,0-0.2,0-0.3,0.1c0-0.3,0.1-0.7,0.1-1c0-0.4,0.1-0.7,0.1-1.1
				c0.1-0.5,0.2-1.1,0.4-1.6c0.1-0.4,0.3-0.7,0.6-1c0.3-0.3,0.6-0.4,1.1-0.4c0.3,0,0.6,0.2,0.9,0.4c0.4,0.4,0.6,0.8,0.6,1.4
				c0,0.1,0,0.3,0,0.4c0,0.1,0,0.3,0,0.4c0,0.4-0.1,0.8-0.2,1.1c-0.3,0.9-0.7,1.8-1.1,2.6c-0.1,0.1-0.1,0.3-0.2,0.4
				c-0.1,0.1,0,0.1,0,0.2c0,0,0,0,0,0c0.1,0.1,0.2,0.2,0.3,0.3c0.2,0.3,0.3,0.5,0.4,0.9c0.1,0.2,0.1,0.5,0.1,0.7
				c0,0.2,0,0.4-0.1,0.5c0,0.2,0,0.4-0.1,0.6c0,0.3-0.1,0.5-0.1,0.8c0,0.3-0.1,0.6-0.2,1c-0.1,0.3-0.1,0.6-0.2,0.9
				c0,0.2-0.1,0.4-0.1,0.7c-0.1,0.4-0.2,0.8-0.4,1.2c0,0,0,0,0,0c0-0.1,0-0.1-0.1-0.2c-0.2-0.4-0.4-0.8-0.7-1.1
				c-0.2-0.3-0.5-0.5-0.8-0.7c-0.3-0.2-0.7-0.4-1.1-0.4c-0.3,0-0.5,0-0.8,0.1c-0.3,0.1-0.5,0.3-0.8,0.5c-0.3,0.3-0.6,0.6-0.8,0.9
				c-0.2,0.3-0.3,0.6-0.4,0.9c0,0.1-0.1,0.3-0.1,0.4c0,0,0,0.1,0,0.1c0,0,0,0,0,0c-0.1-0.3-0.3-0.6-0.4-0.9C9.2,18.6,9.1,18.3,9,18
				C9,17.7,9,17.4,8.9,17.1c0-0.2,0-0.4,0-0.6c0-0.2,0-0.3-0.1-0.5c0-0.2,0-0.4,0-0.7c0-0.3,0-0.5-0.1-0.8c0-0.2,0-0.5-0.1-0.7
				c0-0.3,0-0.5,0-0.8c0.1-0.5,0.3-0.8,0.6-1.2c0.1-0.1,0.2-0.2,0.3-0.3c0.1-0.1,0.1-0.1,0-0.2c0,0,0,0,0,0C9.3,10.9,9,10.3,8.7,9.8
				C8.4,9.1,8.1,8.3,8,7.6C7.9,7.3,7.9,7,7.9,6.7c0,0,0,0,0,0V6.6c0,0,0,0,0,0c0-0.1,0-0.2,0-0.3C7.9,6,8,5.7,8.1,5.5
				C8.4,5,8.8,4.8,9.3,4.6C9.3,4.6,9.4,4.6,9.5,4.6z M13.8,15.8c0,0,0.1,0,0.1,0c0,0,0.1,0,0.1,0c0.5-0.1,1-0.3,1.3-0.7
				c0.2-0.3,0.3-0.5,0.2-0.9c-0.1-0.4-0.4-0.8-0.8-1c-0.2-0.1-0.5-0.2-0.7-0.1c-0.2,0.1-0.3,0.2-0.5,0.3c-0.3,0.3-0.5,0.7-0.6,1.2
				c-0.1,0.3,0,0.6,0.1,0.9c0.1,0.1,0.2,0.2,0.3,0.2C13.6,15.9,13.7,15.8,13.8,15.8z M11.4,15.9C11.4,15.9,11.4,15.9,11.4,15.9
				c0.2,0,0.4-0.1,0.5-0.2c0.1-0.2,0.2-0.4,0.2-0.6c0-0.2,0-0.4-0.1-0.7c-0.1-0.5-0.5-0.9-0.9-1.2c-0.2-0.1-0.3-0.1-0.5-0.1
				c-0.3,0.1-0.5,0.2-0.6,0.4c-0.2,0.2-0.3,0.4-0.4,0.7c-0.1,0.3-0.1,0.6,0.1,0.8c0.1,0.1,0.3,0.3,0.4,0.4
				C10.4,15.7,10.9,15.8,11.4,15.9L11.4,15.9z"/>
			<path class="st4" d="M15.4,19.1c0,0.1,0,0.1,0,0.2c0.1,0.4,0,0.8-0.3,1.1c-0.3,0.4-0.7,0.7-1.2,0.9c-0.3,0.1-0.5,0.1-0.8,0.1
				c0,0,0,0,0,0h-0.6c0,0,0,0,0,0c-0.3,0-0.7,0-1-0.1c-0.3-0.1-0.6-0.1-0.8-0.2c-0.6-0.3-0.9-0.7-0.9-1.4c0,0,0,0,0-0.1
				c0-0.1,0.1-0.3,0.1-0.4c0.1-0.3,0.2-0.6,0.4-0.9c0.2-0.4,0.5-0.7,0.8-0.9c0.2-0.2,0.5-0.4,0.8-0.5c0.3-0.1,0.5-0.1,0.8-0.1
				c0.4,0,0.7,0.2,1.1,0.4c0.3,0.2,0.6,0.4,0.8,0.7c0.3,0.3,0.5,0.7,0.7,1.1C15.3,19,15.3,19,15.4,19.1
				C15.3,19.1,15.3,19.1,15.4,19.1z M14.5,20C14.4,20,14.4,20,14.5,20c-0.3,0.2-0.6,0.4-0.8,0.5c-0.4,0.2-0.9,0.2-1.4,0.2
				c-0.4-0.1-0.8-0.2-1.1-0.4c-0.2-0.1-0.3-0.2-0.5-0.3l0,0l0,0c0,0,0,0,0,0.1c0.3,0.4,0.8,0.7,1.3,0.9c0.4,0.1,0.8,0.2,1.2,0
				c0.5-0.1,0.9-0.4,1.1-0.8C14.4,20.1,14.4,20.1,14.5,20C14.5,20,14.5,20,14.5,20C14.5,20,14.5,20,14.5,20L14.5,20z M14.6,18.7
				c0-0.1,0-0.1,0-0.2c-0.1-0.1-0.1-0.2-0.2-0.2c-0.2-0.1-0.5-0.1-0.6,0.1c-0.1,0.1-0.1,0.2-0.1,0.4c0,0.3-0.1,0.5-0.2,0.7
				c-0.1,0.1-0.1,0.2-0.2,0.3c0,0.1,0,0.1,0,0.2c0.1,0,0.1,0,0.2,0c0.4-0.1,0.7-0.3,1-0.6C14.5,19.2,14.6,19,14.6,18.7L14.6,18.7z
				 M10.7,18.8c0,0.1,0,0.2,0.1,0.3c0.1,0.2,0.3,0.3,0.4,0.4c0.2,0.2,0.5,0.3,0.7,0.4c0,0,0.1,0,0.2,0.1c0.1,0,0.1,0,0.1,0
				c0,0,0-0.1,0-0.1c0,0,0-0.1-0.1-0.1c0,0,0,0,0-0.1c0,0,0,0,0-0.1c0,0,0,0,0-0.1c-0.2-0.2-0.3-0.5-0.3-0.8c0-0.3-0.3-0.5-0.6-0.5
				C10.9,18.3,10.7,18.5,10.7,18.8L10.7,18.8z"/>
			<path class="st4" d="M17.2,6.4L17.2,6.4l0,0.4l0,0h0C17.2,6.6,17.2,6.5,17.2,6.4z"/>
			<path class="st5" d="M10.9,10.3c0,0.1-0.1,0.2-0.1,0.4c0,0.2-0.1,0.3-0.2,0.5c-0.1,0.1-0.1,0.1-0.2,0c-0.2-0.2-0.4-0.4-0.6-0.7
				C9.3,9.8,8.9,9,8.6,8.1C8.5,7.7,8.4,7.3,8.4,6.9c0-0.3,0-0.6,0.1-0.9c0.1-0.2,0.1-0.4,0.3-0.5C9,5.3,9.2,5.2,9.5,5.2
				c0.2,0,0.4,0.1,0.5,0.3c0.2,0.1,0.3,0.3,0.4,0.5c0.2,0.4,0.3,0.8,0.4,1.3C10.9,7.7,11,8.1,11,8.5c0,0.2,0,0.5,0,0.7
				c0,0,0,0.1,0,0.1c0,0,0,0,0,0c-0.1,0.2-0.1,0.4-0.1,0.7C10.9,10.1,10.9,10.2,10.9,10.3z"/>
			<path class="st5" d="M14.1,9.7c0-0.1,0-0.3,0-0.4c0-0.2,0-0.4,0-0.6c0-0.1,0-0.2,0-0.3c0-0.2,0-0.5,0.1-0.7c0-0.3,0.1-0.7,0.2-1
				c0.1-0.3,0.2-0.6,0.4-0.9c0.1-0.1,0.2-0.2,0.3-0.3c0.2-0.2,0.4-0.2,0.7-0.1c0.2,0.1,0.5,0.2,0.6,0.4c0.2,0.2,0.2,0.5,0.3,0.7
				c0,0.3,0,0.6-0.1,1c-0.1,0.7-0.4,1.4-0.7,2c-0.3,0.5-0.5,1-0.9,1.5c-0.1,0.2-0.2,0.3-0.4,0.4c-0.1,0.1-0.2,0.1-0.3,0
				c-0.1-0.2-0.2-0.4-0.2-0.6c0,0,0,0,0,0c0-0.2,0-0.3,0-0.5C14.2,9.9,14.1,9.8,14.1,9.7z"/>
			<path class="st6" d="M14.1,9.7c0,0.1,0.1,0.3,0.1,0.4c0,0.2,0,0.3,0,0.5c0,0.1,0,0.1-0.1,0.2c0,0,0,0,0,0.1
				c0.1,0.1,0.1,0.2,0.1,0.3c0,0.2,0,0.5-0.1,0.7c0,0,0,0.1,0,0.1c0-0.1,0-0.2,0-0.3c0-0.1-0.1-0.2-0.1-0.4c0,0-0.1-0.1-0.1-0.1
				c0,0,0,0.1,0,0.1c0,0.2,0,0.4-0.1,0.6c-0.1,0.2-0.1,0.4-0.2,0.6c0,0,0,0,0,0l0,0c0-0.1,0-0.1,0-0.2c0-0.1,0-0.2,0-0.3
				c-0.1-0.2-0.2-0.4-0.3-0.6c-0.1-0.1-0.2-0.2-0.3-0.3l0,0l0,0c0,0.1,0,0.2,0,0.2c0,0.1,0,0.2,0,0.2c-0.1,0.3-0.2,0.6-0.4,0.9
				c0,0,0,0,0,0c0,0,0,0,0,0c0-0.1,0-0.3,0-0.4c0-0.2-0.1-0.4-0.2-0.6c0,0,0,0-0.1,0c-0.1,0-0.1,0.1-0.2,0.2C12,11.7,12,11.9,12,12
				c0,0.3,0,0.5,0,0.8c0,0,0,0,0,0c-0.2-0.5-0.3-1-0.2-1.5c-0.1,0.1-0.1,0.3-0.2,0.4c0,0.1,0,0.3,0,0.4c0-0.1-0.1-0.2-0.1-0.3
				c-0.1-0.1-0.1-0.3-0.1-0.4c0-0.1-0.1-0.3,0-0.4c0,0,0,0,0,0c-0.2-0.1-0.2-0.2-0.3-0.4c0-0.1-0.1-0.2-0.1-0.3c0-0.1,0-0.2,0-0.3
				c0-0.2,0-0.5,0.1-0.7c0,0,0,0,0,0C11,9.2,11.1,9,11.2,8.9c0,0.4,0,0.7,0.1,1.1c0-0.2,0.1-0.3,0.1-0.5c0-0.1,0.1-0.3,0.2-0.4
				c0,0,0,0,0,0c0,0,0,0,0,0c0,0.1,0,0.2,0,0.3c0,0.1,0,0.1,0,0.2c0,0.1,0.1,0.2,0.1,0.3c0.1-0.2,0.1-0.4,0.1-0.6l0,0
				c0.1,0,0.1,0.1,0.2,0.2c0.1,0.1,0.1,0.2,0.2,0.3c0,0.1,0.1,0.2,0.1,0.3c0-0.2,0.1-0.5,0.2-0.7c0,0.3,0.1,0.5,0.2,0.7
				c0,0,0.1-0.1,0.1-0.1c0.1-0.2,0.1-0.4,0.1-0.6c0,0,0-0.1,0-0.1l0,0c0.1,0.2,0.2,0.4,0.3,0.6c0,0,0.1-0.1,0.1-0.1
				c0.1-0.1,0.1-0.1,0.2-0.2c0.1,0,0.2-0.1,0.3-0.1c0,0,0,0,0,0c0,0,0,0,0,0c-0.1,0.1-0.1,0.2-0.2,0.4c0,0.1,0,0.2,0,0.3
				c0,0,0,0,0.1,0c0.1,0,0.2-0.1,0.2-0.2c0-0.1,0.1-0.2,0.1-0.3c0-0.1,0-0.2,0-0.4c0,0,0,0.1,0.1,0.1C14,9.5,14.1,9.6,14.1,9.7z"/>
			<path class="st0" d="M13.8,15.8c-0.1,0-0.2,0-0.3,0c-0.2,0-0.3-0.1-0.3-0.2C13,15.3,12.9,15,13,14.7c0.1-0.4,0.3-0.8,0.6-1.2
				c0.1-0.1,0.3-0.2,0.5-0.3c0.2-0.1,0.5-0.1,0.7,0.1c0.4,0.2,0.6,0.6,0.8,1c0.1,0.3,0,0.6-0.2,0.9c-0.4,0.4-0.8,0.6-1.3,0.7
				c0,0-0.1,0-0.1,0S13.8,15.8,13.8,15.8z M14,15.8c0.1,0,0.1,0,0.2,0c0.3-0.1,0.4-0.2,0.5-0.5c0-0.1,0.1-0.2,0.1-0.3
				c0-0.1-0.1-0.2-0.2-0.1c0,0-0.1,0-0.1,0c0,0-0.1,0-0.1,0c-0.1,0-0.2,0-0.3-0.1c-0.1-0.1-0.1-0.2,0-0.3c0,0,0.1-0.1,0.1-0.1
				c0.1-0.1,0-0.2-0.1-0.3c-0.1,0-0.3,0-0.4,0c-0.2,0.1-0.4,0.3-0.5,0.5c0,0.2,0,0.4,0.1,0.6c0.1,0.2,0.2,0.3,0.4,0.4
				C13.7,15.8,13.8,15.8,14,15.8L14,15.8z"/>
			<path class="st0" d="M11.4,15.9c-0.5,0-1-0.1-1.4-0.4c-0.2-0.1-0.3-0.2-0.4-0.4c-0.2-0.3-0.2-0.5-0.1-0.8
				c0.1-0.3,0.2-0.5,0.4-0.7c0.2-0.2,0.4-0.3,0.6-0.4c0.2,0,0.4,0,0.5,0.1c0.5,0.3,0.8,0.7,0.9,1.2c0.1,0.2,0.1,0.4,0.1,0.7
				c0,0.2-0.1,0.4-0.2,0.6C11.8,15.8,11.6,15.9,11.4,15.9C11.4,15.9,11.4,15.9,11.4,15.9z M10.3,15c0,0,0,0.1,0,0.1c0,0,0,0.1,0,0.1
				c0.1,0.3,0.2,0.5,0.5,0.6c0.1,0,0.2,0,0.3,0c0.2,0,0.3,0,0.4-0.1c0.2-0.2,0.4-0.4,0.3-0.7c0-0.1-0.1-0.2-0.2-0.1c0,0,0,0-0.1,0
				c-0.1,0-0.2,0-0.3,0c-0.2-0.1-0.2-0.3,0-0.4c0,0,0,0,0,0c0.1-0.1,0.1-0.1,0-0.2c0,0-0.1-0.1-0.1-0.1c-0.1,0-0.2,0-0.2,0
				C10.5,14.2,10.3,14.6,10.3,15L10.3,15z"/>
			<path class="st6" d="M13.5,12.5L13.5,12.5L13.5,12.5C13.5,12.5,13.5,12.5,13.5,12.5L13.5,12.5z"/>
			<path class="st6" d="M14.6,18.7c0,0.3-0.1,0.5-0.3,0.7c-0.3,0.2-0.6,0.4-1,0.6c0,0-0.1,0-0.2,0c-0.1,0-0.1-0.1,0-0.2
				c0.1-0.1,0.2-0.2,0.2-0.3c0.1-0.2,0.2-0.4,0.2-0.7c0-0.1,0-0.3,0.1-0.4c0.2-0.2,0.4-0.2,0.6-0.1c0.1,0.1,0.2,0.1,0.2,0.2
				C14.6,18.6,14.6,18.6,14.6,18.7z"/>
			<path class="st6" d="M10.7,18.8c0-0.3,0.2-0.5,0.5-0.6c0.3,0,0.5,0.2,0.6,0.5c0,0.3,0.1,0.6,0.3,0.8c0,0,0,0,0,0.1c0,0,0,0,0,0.1
				c0,0,0,0,0,0.1c0,0,0.1,0.1,0.1,0.1c0,0,0,0.1,0,0.1c0,0-0.1,0.1-0.1,0c-0.1,0-0.1,0-0.2-0.1c-0.2-0.1-0.5-0.2-0.7-0.4
				c-0.2-0.1-0.3-0.3-0.4-0.4C10.7,19,10.7,18.9,10.7,18.8z"/>
			<path class="st0" d="M10.7,20c0.2,0.1,0.3,0.2,0.5,0.3c0.4,0.2,0.7,0.3,1.1,0.4c0.5,0.1,0.9,0,1.4-0.2c0.3-0.1,0.6-0.3,0.8-0.5
				c0,0,0,0,0,0l0,0c0,0.1-0.1,0.1-0.1,0.2c-0.3,0.4-0.7,0.7-1.1,0.8c-0.4,0.1-0.8,0.1-1.2,0C11.4,20.8,11,20.5,10.7,20
				C10.7,20,10.7,20,10.7,20L10.7,20z"/>
			<path class="st0" d="M14.5,20L14.5,20C14.5,20,14.5,20,14.5,20C14.5,20,14.5,20,14.5,20L14.5,20z"/>
			<path class="st0" d="M10.7,20L10.7,20L10.7,20L10.7,20z"/>
			<path class="st5" d="M12.9,9.2c0,0,0,0.1,0,0.1c0,0.2,0,0.4-0.1,0.6c0,0-0.1,0.1-0.1,0.1c-0.1-0.2-0.2-0.5-0.2-0.7
				c-0.1,0.2-0.2,0.4-0.2,0.7c0-0.1-0.1-0.2-0.1-0.3C12.1,9.6,12,9.5,12,9.5c0.1-0.2,0.3-0.3,0.5-0.3c0,0,0,0,0,0c0,0,0.1,0,0.1,0
				C12.7,9.2,12.8,9.2,12.9,9.2C12.9,9.2,12.9,9.2,12.9,9.2z"/>
			<path class="st5" d="M12.5,8.3c-0.2,0-0.3-0.2-0.3-0.4c0-0.2,0.2-0.3,0.4-0.3c0.1,0,0.1,0,0.1,0.1c0.1,0.1,0.2,0.3,0.1,0.5
				c-0.1,0.1-0.1,0.1-0.2,0.1C12.6,8.3,12.5,8.3,12.5,8.3z"/>
			<path class="st6" d="M12.5,8.3c0,0,0.1,0,0.1,0c0,0.2,0,0.5,0,0.7c0,0,0,0.1,0,0.1c0,0-0.1,0-0.1,0L12.5,8.3z"/>
			<path class="st5" d="M13.3,9.8c0,0-0.1,0.1-0.1,0.1c-0.1-0.2-0.2-0.4-0.3-0.6c0.1,0,0.2,0.1,0.2,0.2C13.2,9.5,13.2,9.6,13.3,9.8
				C13.3,9.7,13.3,9.8,13.3,9.8z"/>
			<path class="st7" d="M11.6,9.6c0,0,0-0.1,0-0.2c0-0.1,0-0.2,0-0.3c0,0,0,0,0,0C11.6,9.3,11.6,9.4,11.6,9.6z"/>
			<path class="st6" d="M11.8,9.3L11.8,9.3L11.8,9.3L11.8,9.3L11.8,9.3z"/>
			<path class="st7" d="M12.9,11.1L12.9,11.1L12.9,11.1L12.9,11.1z"/>
			<path class="st6" d="M14,15.8c-0.1,0-0.2,0-0.3,0c-0.2-0.1-0.3-0.2-0.4-0.4c-0.1-0.2-0.1-0.4-0.1-0.6c0.1-0.3,0.2-0.4,0.5-0.5
				c0.1-0.1,0.3-0.1,0.4,0c0.1,0,0.2,0.2,0.1,0.3c0,0-0.1,0.1-0.1,0.1c-0.1,0.1-0.1,0.2,0,0.3c0.1,0.1,0.2,0.1,0.3,0.1
				c0,0,0.1,0,0.1,0c0,0,0.1,0,0.1,0c0.1,0,0.2,0,0.2,0.1c0,0.1,0,0.2-0.1,0.3c-0.1,0.2-0.3,0.4-0.5,0.5C14.1,15.8,14,15.8,14,15.8z
				"/>
			<path class="st6" d="M10.3,15c0-0.4,0.3-0.7,0.7-0.8c0.1,0,0.2,0,0.2,0c0.1,0,0.1,0,0.1,0.1c0,0.1,0,0.1,0,0.2c0,0,0,0,0,0
				c-0.1,0.1-0.1,0.3,0,0.4c0.1,0.1,0.2,0.1,0.3,0c0,0,0.1,0,0.1,0c0.1-0.1,0.2,0,0.2,0.1c0,0.3-0.1,0.5-0.3,0.7
				c-0.1,0.1-0.3,0.1-0.4,0.1c-0.1,0-0.2,0-0.3,0c-0.3-0.1-0.5-0.3-0.5-0.6c0,0,0-0.1,0-0.1C10.3,15.1,10.3,15,10.3,15z"/>
		</g>
	</g>
</g>
</svg>
