<?xml version="1.0" encoding="UTF-8"?>
<svg width="134px" height="18px" viewBox="0 0 134 18" version="1.1" xmlns="http://www.w3.org/2000/svg" xmlns:xlink="http://www.w3.org/1999/xlink">
    <!-- Generator: Sketch 52.6 (67491) - http://www.bohemiancoding.com/sketch -->
    <title>openebs-docs-logo</title>
    <desc>Created with Sketch.</desc>
    <g id="Page-1" stroke="none" stroke-width="1" fill="none" fill-rule="evenodd">
        <g id="Desktop-Copy-5" transform="translate(-49.000000, -17.000000)">
            <g id="openebs-docs-logo" transform="translate(49.719625, 17.000000)">
                <g id="Group" fill="#FFFFFF">
                    <path d="M73.1361225,6.48390078 C73.7152117,6.62629978 74.2088615,6.86363143 74.6075787,7.30032167 C74.9303498,7.64207925 75.1202151,8.1072493 75.1202151,8.5819126 C75.1297083,9.54073249 75.1297083,10.4900591 75.1202151,11.448879 C75.1107218,12.6355373 74.3892336,13.4519581 73.1171359,13.7082763 C72.7658851,13.7747292 72.405141,13.8127023 72.0538901,13.8127023 C68.6742874,13.8221955 65.2946846,13.8127023 61.9150819,13.8221955 C61.6872435,13.8221955 61.6207906,13.7652359 61.6207906,13.5279043 C61.6302839,9.17998837 61.6302839,4.84156574 61.6207906,0.49364984 C61.6207906,0.265811452 61.6777502,0.199358589 61.9150819,0.199358589 C65.1807654,0.208851855 68.4559422,0.199358589 71.7216258,0.208851855 C72.3102083,0.208851855 72.8798043,0.284797985 73.4209204,0.522129638 C74.2468346,0.882873752 74.7404844,1.50942932 74.7784575,2.4112896 C74.8164306,3.28467009 74.8069373,4.16754384 74.7499777,5.04092433 C74.6835248,5.89531828 74.3417673,6.27504893 73.3164945,6.45542099 C73.2500416,6.45542099 73.1930821,6.47440752 73.1361225,6.48390078 Z M67.7724271,12.1703672 C69.0255382,12.1703672 70.2691561,12.1798605 71.5222672,12.1608739 C71.8640248,12.1513807 72.2057824,12.1039143 72.5285534,12.0089817 C72.9367639,11.8855692 73.1835888,11.5722914 73.1930821,11.1356012 C73.2120686,10.3381668 73.2310551,9.54073249 73.2025753,8.74329813 C73.1835888,8.12623583 72.8892975,7.81295805 72.2817285,7.67055905 C72.0918632,7.62309272 71.8925046,7.59461292 71.693146,7.59461292 C69.0255382,7.58511966 66.3674237,7.59461292 63.7093092,7.58511966 C63.5004573,7.58511966 63.452991,7.66106579 63.452991,7.85093111 C63.4624842,9.1989749 63.4624842,10.5470187 63.452991,11.8950625 C63.452991,12.1323941 63.5384304,12.1798605 63.7567755,12.1798605 C65.0858328,12.1703672 66.4243833,12.1703672 67.7724271,12.1703672 Z M67.6395214,5.96177114 L67.6395214,5.94278461 C68.9400988,5.94278461 70.2501695,5.95227788 71.5602403,5.93329135 C72.405141,5.92379808 72.8892975,5.45862804 72.8892975,4.71815328 C72.8987908,4.18653037 72.8987908,3.6454142 72.8892975,3.1137913 C72.8798043,2.5252088 72.5950063,2.13598488 72.0254103,1.96510609 C71.7785854,1.88915996 71.5127739,1.8511869 71.2564558,1.84169363 C68.7502335,1.83220037 66.234518,1.84169363 63.7282957,1.83220037 C63.5004573,1.83220037 63.4434977,1.9081465 63.4434977,2.11699835 C63.452991,3.28467009 63.4434977,4.46183509 63.4434977,5.62950683 C63.4434977,5.94278461 63.4434977,5.95227788 63.7567755,5.95227788 L67.6395214,5.96177114 Z" id="Shape" fill-rule="nonzero"></path>
                    <path d="M49.7067416,7.63258599 L49.7067416,7.91738397 C49.7067416,8.75279139 49.7067416,9.58819882 49.7067416,10.4330995 C49.7162349,11.486852 50.3712702,12.1513807 51.4250228,12.1513807 C54.4343881,12.1513807 57.4342602,12.1513807 60.4436256,12.1513807 C60.9182889,12.1513807 60.8613293,12.1039143 60.8613293,12.5690844 C60.8613293,12.8918554 60.851836,13.2241198 60.8708226,13.5468908 C60.8803158,13.7652359 60.8043697,13.8127023 60.5955179,13.8127023 C59.6082182,13.803209 58.6209185,13.8127023 57.6241256,13.8127023 C55.4216878,13.8127023 53.2192501,13.7747292 51.0263056,13.8221955 C49.4504234,13.8601686 48.0549133,12.6545238 47.8935277,11.1830675 C47.8745412,11.0406685 47.8745412,10.8982695 47.8745412,10.7558706 C47.8745412,8.26863482 47.8745412,5.78139909 47.8745412,3.29416336 C47.8745412,1.53790912 49.2035985,0.208851855 50.9598527,0.208851855 C54.1685767,0.208851855 57.3678074,0.208851855 60.5765313,0.199358589 C60.8043697,0.199358589 60.8898091,0.24682492 60.8708226,0.484156574 C60.851836,0.882873752 60.8613293,1.28159093 60.8708226,1.68030811 C60.8708226,1.8227071 60.8233563,1.88915996 60.6809573,1.8796667 C60.6050111,1.8796667 60.5385583,1.8796667 60.4626121,1.8796667 C57.4437535,1.8796667 54.4154016,1.8796667 51.396543,1.8796667 C50.5231625,1.8796667 49.9250867,2.34483674 49.7352214,3.1707509 C49.7067416,3.31314989 49.6972483,3.45554888 49.7067416,3.59794787 C49.7067416,4.28146304 49.7162349,4.9649782 49.6972483,5.65798663 C49.6877551,5.89531828 49.7731944,5.95227788 49.9915396,5.95227788 C52.8869857,5.94278461 55.7824319,5.94278461 58.6778781,5.95227788 C58.9911559,5.95227788 58.9911559,5.95227788 58.9911559,6.26555566 C58.9911559,6.63579304 58.9816626,6.99653716 59.0006491,7.36677454 C59.0101424,7.58511966 58.9436896,7.65157252 58.7253444,7.65157252 C56.000777,7.64207925 53.2667164,7.64207925 50.542149,7.64207925 L49.7067416,7.63258599 Z" id="Path"></path>
                    <path d="M76.0600484,12.1608739 L76.401806,12.1608739 C79.4206646,12.1608739 82.43003,12.1608739 85.4488887,12.1608739 C86.4741614,12.1608739 87.13869,11.5438116 87.1861564,10.5280322 C87.2051429,10.0533689 87.2051429,9.56921228 87.1671698,9.09454898 C87.1197035,8.26863482 86.4266951,7.62309272 85.6007809,7.63258599 C83.3129038,7.63258599 81.0250266,7.63258599 78.7371495,7.63258599 C78.2150198,7.63258599 77.7023835,7.53765333 77.2372134,7.28133514 C76.3258599,6.77819203 75.7087976,6.02822401 75.6328515,4.9649782 C75.5758919,4.18653037 75.5569053,3.39858928 75.6708245,2.62963472 C75.8701831,1.2626044 77.1422808,0.218345122 78.5567774,0.208851855 C81.6515822,0.189865323 84.746387,0.208851855 87.8411917,0.199358589 C88.0215638,0.199358589 88.0785234,0.256318186 88.0785234,0.436690243 C88.0690301,0.816420889 88.0690301,1.2056448 88.0785234,1.58537545 C88.0880166,1.7942273 88.0120705,1.8511869 87.8032187,1.8511869 C84.9077725,1.84169363 82.0123263,1.84169363 79.1168801,1.8511869 C78.5093111,1.8511869 78.0156613,2.07902529 77.6739037,2.59166166 C77.294173,3.15176436 77.3036663,4.64220715 77.7023835,5.18332332 C78.0536343,5.66747989 78.5282976,5.88582502 79.1168801,5.88582502 C81.3762775,5.88582502 83.6261816,5.88582502 85.8855789,5.88582502 C86.4361883,5.88582502 86.9678112,5.98075768 87.4424745,6.26555566 C88.4487608,6.86363143 88.9898769,7.73701192 89.0088635,8.91417692 C89.0183567,9.54073249 89.0183567,10.1767813 89.0088635,10.8033369 C88.9993702,12.4456719 87.6798062,13.803209 86.0374712,13.803209 C82.7907741,13.8127023 79.5440771,13.803209 76.2973801,13.8127023 C76.1265013,13.8127023 76.0505552,13.7747292 76.0600484,13.5848639 C76.0695417,13.1291871 76.0600484,12.6735103 76.0600484,12.1608739 Z" id="Path"></path>
                    <path d="M16.8030811,17.6859548 C16.2429784,17.6859548 15.7113555,17.6859548 15.1797326,17.6764616 C15.1322663,17.6764616 15.0753067,17.6005155 15.0563201,17.5530491 C15.0373336,17.4865963 15.0468269,17.4106501 15.0468269,17.334704 C15.0468269,12.9298285 15.0468269,8.53444627 15.0468269,4.13906404 C15.0468269,3.7878132 15.0468269,3.7878132 15.3980777,3.7878132 C17.6954481,3.7878132 19.9928185,3.7878132 22.2806957,3.7878132 C23.1540762,3.7878132 23.9040442,4.07261118 24.5211065,4.68967348 C25.0147563,5.18332332 25.252088,5.78139909 25.2615812,6.47440752 C25.2710745,8.0218099 25.2710745,9.56921228 25.2615812,11.1166147 C25.252088,12.5595911 24.0464432,13.7652359 22.5370139,13.803209 C21.1130239,13.8411821 19.6795407,13.8127023 18.2555508,13.8127023 C17.8568336,13.8127023 17.4581165,13.8221955 17.0593993,13.8127023 C16.8600407,13.803209 16.8030811,13.8791551 16.8030811,14.0785137 C16.8125744,15.1797326 16.8030811,16.2809515 16.8030811,17.3821703 L16.8030811,17.6859548 Z M16.8030811,8.77177793 C16.8030811,9.83502374 16.8030811,10.9077628 16.8030811,11.9710086 C16.8030811,12.1323941 16.8220676,12.2463133 17.0309195,12.2463133 C18.7207209,12.2463133 20.4105222,12.2558066 22.1003236,12.2463133 C22.8407984,12.2368201 23.4768472,11.6007712 23.4863405,10.8602965 C23.505327,9.48377289 23.4958337,8.1072493 23.4863405,6.72123244 C23.4768472,6.50288732 23.4103943,6.30352873 23.3059684,6.1136634 C22.9831974,5.54406743 22.4325879,5.35420211 21.8060324,5.34470884 C20.2396434,5.33521558 18.6637613,5.34470884 17.0973723,5.33521558 C16.8790272,5.33521558 16.8125744,5.41116171 16.8125744,5.62950683 C16.8030811,6.68325937 16.8030811,7.72751865 16.8030811,8.77177793 Z" id="Shape" fill-rule="nonzero"></path>
                    <path d="M31.8783877,9.71161128 C30.5588238,9.71161128 29.248753,9.72110454 27.929189,9.71161128 C27.6918574,9.71161128 27.606418,9.77806414 27.6159112,10.0248891 C27.6348978,10.4805658 27.6159112,10.9362426 27.6254045,11.3919194 C27.6254045,11.9710086 27.9481756,12.3032729 28.5462513,12.3127662 C29.5620308,12.3222595 30.5873035,12.3127662 31.603083,12.3127662 C32.7137952,12.3127662 33.815014,12.3222595 34.9257262,12.3127662 C35.1250848,12.3127662 35.1915376,12.3697258 35.1820444,12.5690844 C35.1725511,12.9203352 35.1725511,13.2715861 35.1820444,13.6228369 C35.1820444,13.7747292 35.1250848,13.8316888 34.9731925,13.8316888 C32.6758221,13.8316888 30.3784517,13.8411821 28.0810813,13.8221955 C27.0653018,13.8127023 26.1824281,13.1481736 25.9450964,12.2747931 C25.8976301,12.0754345 25.8691503,11.8665827 25.8691503,11.6672241 C25.859657,9.97742273 25.8691503,8.28762135 25.8691503,6.59781998 C25.8691503,5.17383005 26.9513826,3.97767852 28.3753725,3.85426606 C28.7930762,3.81629299 29.2202732,3.81629299 29.6379769,3.81629299 C30.9385544,3.82578626 32.2581184,3.79730646 33.5586959,3.85426606 C34.7548474,3.91122566 35.7991067,4.851059 36.0364383,5.97126441 C36.0649181,6.15163647 36.0839047,6.33200852 36.0744114,6.51238058 C36.0744114,7.48069373 36.0649181,8.45850014 36.0839047,9.42681329 C36.0839047,9.68313148 35.9984653,9.73059781 35.7706269,9.73059781 C34.4795427,9.71161128 33.1789652,9.71161128 31.8783877,9.71161128 Z M30.9765275,8.14522236 C32.0018002,8.14522236 33.0365662,8.13572909 34.061839,8.14522236 C34.2706908,8.14522236 34.3466369,8.09775603 34.3371437,7.87941091 C34.3181571,7.54714659 34.3371437,7.21488228 34.3371437,6.8731247 C34.3276504,6.07569034 33.7390679,5.41116171 32.9416336,5.39217518 C31.6410561,5.36369538 30.3404786,5.36369538 29.0399012,5.39217518 C28.2424668,5.41116171 27.644391,6.06619707 27.6254045,6.86363143 C27.6159112,7.20538901 27.6348978,7.54714659 27.6159112,7.88890417 C27.606418,8.08826276 27.6918574,8.14522236 27.8817227,8.14522236 C28.9164887,8.13572909 29.9417615,8.14522236 30.9765275,8.14522236 Z" id="Shape" fill-rule="nonzero"></path>
                    <path d="M47.0866001,9.8729968 C47.0866001,11.0976281 47.0771069,12.3127662 47.0866001,13.5373975 C47.0866001,13.7557427 47.0296405,13.8316888 46.8112954,13.8221955 C46.403085,13.803209 45.9948745,13.803209 45.5866641,13.8221955 C45.368319,13.8316888 45.3208526,13.7557427 45.3208526,13.5468908 C45.3303459,11.3729329 45.3303459,9.18948164 45.3208526,7.01552369 C45.3208526,6.05670381 44.8177095,5.42065497 43.8588896,5.38268191 C42.5393256,5.32572231 41.2102684,5.33521558 39.8907044,5.39217518 C38.9983374,5.43014824 38.485701,6.05670381 38.485701,6.94907083 C38.4762077,8.78127119 38.485701,10.6134716 38.485701,12.4551652 C38.485701,12.8348958 38.4762077,13.2051332 38.485701,13.5753706 C38.485701,13.7462494 38.4477279,13.8221955 38.2578626,13.8127023 C37.8116791,13.803209 37.3654956,13.803209 36.9193121,13.8127023 C36.7579265,13.8127023 36.7199535,13.7557427 36.7199535,13.6038504 C36.7199535,11.2020541 36.7104602,8.80025773 36.7294468,6.40795465 C36.73894,5.14535026 37.773706,4.03463812 39.0742835,3.84477279 C39.2546555,3.81629299 39.4350276,3.79730646 39.6248929,3.79730646 C41.1533088,3.79730646 42.6912179,3.7878132 44.2196337,3.79730646 C45.263893,3.80679973 46.0898072,4.25298324 46.6973762,5.09788392 C46.9442011,5.44913477 47.0771069,5.85734522 47.0771069,6.28454219 C47.0866001,7.48069373 47.0866001,8.67684527 47.0866001,9.8729968 Z" id="Path"></path>
                    <path d="M14.0120608,6.94907083 C14.0120608,8.20218196 14.0215541,9.44579982 14.0120608,10.698911 C14.0025676,12.1134076 13.0057746,13.3285457 11.629251,13.6228369 C11.4203992,13.6703033 11.2115473,13.6892898 10.9932022,13.6892898 C10.8413099,13.6892898 10.698911,13.6892898 10.5470187,13.6892898 C8.6958318,13.7367561 6.83515163,13.6987831 4.98396473,13.7082763 C4.44284856,13.7082763 3.91122566,13.7082763 3.37010948,13.7177696 C2.9998721,13.7272629 2.62963472,13.7082763 2.27838388,13.6038504 C1.177165,13.2715861 0.455676775,12.5690844 0.142398992,11.4583722 C0.0759461292,11.2115473 0.0379730646,10.9552291 0.0379730646,10.698911 C0.0379730646,10.4046197 0.0379730646,10.1008352 0.0379730646,9.80654394 C0.0379730646,7.83194458 0.0284797985,5.85734522 0.0284797985,3.88274586 C0.0284797985,3.55997481 0.0189865323,3.23720376 0.0474663308,2.91443271 C0.0854393954,2.35433001 0.275304718,1.8227071 0.607569034,1.36703033 C1.07273908,0.711994962 1.78473404,0.265811452 2.58216839,0.151892258 C2.87645964,0.104425928 3.18024416,0.12341246 3.47453541,0.113919194 C4.48082162,0.0664528631 5.4966011,0.104425928 6.50288732,0.0949326615 C7.50917353,0.0854393954 8.52495301,0.0949326615 9.54073249,0.0949326615 C10.0438756,0.0949326615 10.5470187,0.0854393954 11.0501618,0.0949326615 C11.7906366,0.104425928 12.4931383,0.398717178 13.0342544,0.901860285 C13.5279043,1.33855053 13.8506753,1.9366263 13.9645945,2.58216839 C14.0025676,2.78152698 14.0215541,2.98088557 14.0215541,3.18024416 C14.0120608,4.44284856 14.0120608,5.69595969 14.0120608,6.94907083 Z M7.08197655,12.0754345 C8.13572909,12.0754345 9.18948164,12.0754345 10.2432342,12.0754345 C10.4615793,12.0754345 10.6799244,12.0659413 10.8887763,12.0374615 C11.3159733,11.9899952 11.7051972,11.7621568 11.9710086,11.4203992 C12.1513807,11.2020541 12.2558066,10.9267493 12.2842864,10.6419514 C12.2937797,10.4900591 12.2842864,10.3381668 12.2842864,10.1767813 C12.2842864,9.8160372 12.2747931,9.44579982 12.2747931,9.08505571 C12.2747931,8.81924426 12.2652999,8.55343281 12.2652999,8.28762135 L12.2558066,7.347788 L12.2463133,6.51238058 L12.2368201,5.6105203 C12.2368201,5.32572231 12.2273268,5.04092433 12.2273268,4.75612634 C12.2178335,4.35740916 12.2178335,3.95869199 12.2083403,3.55997481 C12.2083403,3.39858928 12.1893537,3.23720376 12.1703672,3.07581823 C12.1229009,2.73406065 11.9520221,2.4112896 11.6957039,2.17395795 C11.3824261,1.8796667 11.0121887,1.75625424 10.5849918,1.72777444 C10.5280322,1.72777444 10.4710726,1.74676097 10.4046197,1.74676097 C10.309687,1.74676097 10.2052611,1.73726771 10.1008352,1.73726771 C9.70211801,1.73726771 9.29390757,1.72777444 8.89519039,1.72777444 C7.16741595,1.72777444 5.44913477,1.72777444 3.72136033,1.72777444 C3.54098828,1.72777444 3.35112295,1.73726771 3.1707509,1.7657475 C2.79102025,1.80372057 2.43027614,1.98409263 2.17395795,2.26889061 C1.91763976,2.54419533 1.75625424,2.87645964 1.75625424,3.25619029 C1.75625424,3.56946807 1.7657475,3.88274586 1.7657475,4.20551691 L1.77524077,5.07889739 L1.78473404,6.00923748 L1.7942273,6.8731247 L1.80372057,7.78447825 L1.81321384,8.62937893 C1.81321384,8.93316345 1.8227071,9.23694797 1.8227071,9.54073249 C1.8227071,9.78755741 1.8227071,10.0438756 1.83220037,10.2907005 C1.83220037,10.4900591 1.86068017,10.6799244 1.89865323,10.879283 C2.10750509,11.7051972 2.77203372,12.0849278 3.50301521,12.1039143 C3.53149501,12.1039143 3.55997481,12.0754345 3.58845461,12.0754345 C3.7593334,12.0754345 3.92071892,12.0849278 4.09159771,12.0849278 L7.08197655,12.0754345 Z" id="Shape" fill-rule="nonzero"></path>
                </g>
                <g id="Group" transform="translate(94.552931, 0.569596)" fill="#F0584D">
                    <path d="M0.0569595969,13.2905726 L0.0569595969,0.0759461292 L3.7023738,0.0759461292 C8.36356748,0.0759461292 10.6894177,2.22142428 10.6894177,6.51238058 C10.6894177,8.55343281 10.0438756,10.1957678 8.75279139,11.4298924 C7.4617072,12.664017 5.72443949,13.2905726 3.55997481,13.2905726 L0.0569595969,13.2905726 Z M1.60436198,1.47145625 L1.60436198,11.8855692 L3.57896134,11.8855692 C5.30673578,11.8855692 6.65477957,11.4203992 7.62309272,10.4900591 C8.59140587,9.55971902 9.06606918,8.24964829 9.06606918,6.55035365 C9.06606918,3.16125763 7.26234861,1.47145625 3.66440074,1.47145625 L1.60436198,1.47145625 Z" id="Shape" fill-rule="nonzero"></path>
                    <path d="M17.0214262,13.5089177 C15.6259161,13.5089177 14.515204,13.0722275 13.6797965,12.1893537 C12.8443891,11.30648 12.4361787,10.1388083 12.4361787,8.68633853 C12.4361787,7.10096308 12.8728689,5.86683848 13.7367561,4.97447146 C14.6006433,4.08210445 15.7778083,3.63592094 17.2492646,3.63592094 C18.654268,3.63592094 19.7554869,4.07261118 20.543428,4.9364984 C21.331369,5.80038562 21.7300862,7.00603042 21.7300862,8.54393954 C21.7300862,10.0533689 21.3028893,11.2590137 20.4579886,12.1608739 C19.5941013,13.0627342 18.4549094,13.5089177 17.0214262,13.5089177 Z M17.1353454,4.9080186 C16.1670323,4.9080186 15.3980777,5.24028292 14.8284817,5.89531828 C14.2588858,6.55035365 13.983581,7.47120046 13.983581,8.62937893 C13.983581,9.74958434 14.268379,10.6324581 14.837975,11.2780002 C15.407571,11.9235423 16.1765255,12.2463133 17.1353454,12.2463133 C18.1131518,12.2463133 18.8631198,11.9330356 19.3852495,11.2969867 C19.9073791,10.6609379 20.1731906,9.76857087 20.1731906,8.60089914 C20.1731906,7.42373413 19.9073791,6.51238058 19.3852495,5.87633175 C18.8631198,5.22129638 18.1131518,4.9080186 17.1353454,4.9080186 Z" id="Shape" fill-rule="nonzero"></path>
                    <path d="M30.568317,12.8538824 C29.8468288,13.2905726 28.9829416,13.5089177 27.9861486,13.5089177 C26.6381048,13.5089177 25.5558725,13.0722275 24.7299583,12.198847 C23.9040442,11.3254665 23.4958337,10.1862746 23.4958337,8.79076446 C23.4958337,7.23386881 23.9420172,5.99025094 24.8343843,5.04092433 C25.7267513,4.10109098 26.9134095,3.62642767 28.4038523,3.62642767 C29.2297665,3.62642767 29.960748,3.77831993 30.5967968,4.08210445 L30.5967968,5.62950683 C29.8942951,5.13585699 29.1443271,4.88903207 28.3468927,4.88903207 C27.3785796,4.88903207 26.5906385,5.23078965 25.9735762,5.92379808 C25.3565139,6.61680651 25.0432361,7.51866679 25.0432361,8.64836547 C25.0432361,9.74958434 25.3375274,10.6229648 25.9166166,11.2685069 C26.4957058,11.9045558 27.2741537,12.2273268 28.2519601,12.2273268 C29.0778742,12.2273268 29.8468288,11.9520221 30.5778103,11.4109059 L30.5778103,12.8538824 L30.568317,12.8538824 Z" id="Path"></path>
                    <path d="M32.2865982,12.948815 L32.2865982,11.3254665 C33.1125123,11.9330356 34.0143726,12.2368201 35.0016723,12.2368201 C36.3307296,12.2368201 36.9952582,11.7906366 36.9952582,10.9077628 C36.9952582,10.6514446 36.9382986,10.4425928 36.8243794,10.271714 C36.7104602,10.1008352 36.558568,9.93944966 36.3592094,9.80654394 C36.169344,9.67363821 35.9415057,9.55022575 35.6756942,9.44579982 C35.419376,9.3413739 35.134578,9.2274547 34.8307935,9.11353551 C34.4130898,8.95214998 34.0428524,8.78127119 33.7295746,8.6103924 C33.4162969,8.43951361 33.1504854,8.24964829 32.9416336,8.04079643 C32.7327817,7.83194458 32.5713962,7.58511966 32.4669702,7.31930821 C32.3625443,7.05349675 32.3055847,6.7307257 32.3055847,6.36998159 C32.3055847,5.92379808 32.4100107,5.53457417 32.6093692,5.19281659 C32.8087278,4.851059 33.0840325,4.56626102 33.4162969,4.33842263 C33.7580544,4.11058424 34.1377851,3.93021219 34.5744753,3.81629299 C35.0111656,3.7023738 35.4573491,3.6454142 35.9130259,3.6454142 C36.7294468,3.6454142 37.4604282,3.7878132 38.1059703,4.07261118 L38.1059703,5.60102703 C37.4129619,5.14535026 36.6155276,4.91751187 35.7136673,4.91751187 C35.4288693,4.91751187 35.1725511,4.94599167 34.9447127,5.01244453 C34.7168743,5.07889739 34.527009,5.16433679 34.3561302,5.28774925 C34.1947447,5.40166844 34.0713322,5.54406743 33.9763996,5.70545296 C33.8909602,5.86683848 33.8434938,6.04721054 33.8434938,6.24656913 C33.8434938,6.49339405 33.8909602,6.70224591 33.9763996,6.86363143 C34.061839,7.02501695 34.1947447,7.17690921 34.3656235,7.30981494 C34.5365023,7.44272067 34.7453541,7.55663986 34.992179,7.66106579 C35.239004,7.76549171 35.5143087,7.87941091 35.8275865,8.00282337 C36.2452902,8.16420889 36.6155276,8.32559442 36.9477919,8.49647321 C37.2800562,8.667352 37.5648542,8.85721732 37.7926926,9.06606918 C38.0300242,9.27492103 38.2103963,9.52174595 38.3338087,9.79705067 C38.4572212,10.0723554 38.5236741,10.4046197 38.5236741,10.7843504 C38.5236741,11.2495204 38.4192481,11.6577308 38.2198895,11.9994884 C38.0110377,12.341246 37.735733,12.626044 37.3939754,12.8538824 C37.0522178,13.0817208 36.6535006,13.2525996 36.2073171,13.3570255 C35.7611336,13.4709447 35.2864703,13.518411 34.8023137,13.518411 C33.8434938,13.5089177 32.9985932,13.3190524 32.2865982,12.948815 Z" id="Path"></path>
                </g>
            </g>
        </g>
    </g>
</svg>