<?xml version="1.0" encoding="utf-8"?>
<!-- Generator: Adobe Illustrator 22.1.0, SVG Export Plug-In . SVG Version: 6.00 Build 0)  -->
<svg version="1.1" id="Layer_1" xmlns="http://www.w3.org/2000/svg" xmlns:xlink="http://www.w3.org/1999/xlink" x="0px" y="0px"
	 viewBox="270 0 1408 185.3" style="enable-background:new 270 0 1408 185.3;" xml:space="preserve">
<style type="text/css">
	.st0{fill:#FFFFFF;}
	.st1{fill:#F0584D;}
	.st2{opacity:0.37;fill:#FFFFFF;}
	.st3{fill:#563B39;}
	.st4{fill:#AE8070;}
	.st5{fill:#358EBF;}
	.st6{fill:#070808;}
	.st7{fill:#4B3938;}
</style>
<g>
	<g>
		<g>
			<g>
				<path class="st0" d="M1046.4,67.3c6.1,1.5,11.3,4,15.5,8.6c3.4,3.6,5.4,8.5,5.4,13.5c0.1,10.1,0.1,20.1,0,30.2
					c-0.1,12.5-7.7,21.1-21.1,23.8c-3.7,0.7-7.5,1.1-11.2,1.1c-35.6,0.1-71.2,0-106.8,0.1c-2.4,0-3.1-0.6-3.1-3.1
					c0.1-45.8,0.1-91.5,0-137.3c0-2.4,0.6-3.1,3.1-3.1c34.4,0.1,68.9,0,103.3,0.1c6.2,0,12.2,0.8,17.9,3.3
					c8.7,3.8,13.9,10.4,14.3,19.9c0.4,9.2,0.3,18.5-0.3,27.7c-0.7,9-4.3,13-15.1,14.9C1047.6,67,1047,67.2,1046.4,67.3z
					 M989.9,127.2c13.2,0,26.3,0.1,39.5-0.1c3.6-0.1,7.2-0.6,10.6-1.6c4.3-1.3,6.9-4.6,7-9.2c0.2-8.4,0.4-16.8,0.1-25.2
					c-0.2-6.5-3.3-9.8-9.7-11.3c-2-0.5-4.1-0.8-6.2-0.8c-28.1-0.1-56.1,0-84.1-0.1c-2.2,0-2.7,0.8-2.7,2.8c0.1,14.2,0.1,28.4,0,42.6
					c0,2.5,0.9,3,3.2,3C961.6,127.2,975.7,127.2,989.9,127.2L989.9,127.2z M988.5,61.8v-0.2c13.7,0,27.5,0.1,41.3-0.1
					c8.9-0.1,14-5,14-12.8c0.1-5.6,0.1-11.3,0-16.9c-0.1-6.2-3.1-10.3-9.1-12.1c-2.6-0.8-5.4-1.2-8.1-1.3c-26.4-0.1-52.9,0-79.3-0.1
					c-2.4,0-3,0.8-3,3c0.1,12.3,0,24.7,0,37c0,3.3,0,3.4,3.3,3.4L988.5,61.8z"/>
				<path class="st0" d="M799.6,79.4v3c0,8.8,0,17.6,0,26.5c0.1,11.1,7,18.1,18.1,18.1c31.7,0,63.3,0,95,0c5,0,4.4-0.5,4.4,4.4
					c0,3.4-0.1,6.9,0.1,10.3c0.1,2.3-0.7,2.8-2.9,2.8c-10.4-0.1-20.8,0-31.3,0c-23.2,0-46.4-0.4-69.5,0.1
					c-16.6,0.4-31.3-12.3-33-27.8c-0.2-1.5-0.2-3-0.2-4.5c0-26.2,0-52.4,0-78.6c0-18.5,14-32.5,32.5-32.5c33.8,0,67.5,0,101.3-0.1
					c2.4,0,3.3,0.5,3.1,3c-0.2,4.2-0.1,8.4,0,12.6c0,1.5-0.5,2.2-2,2.1c-0.8,0-1.5,0-2.3,0c-31.8,0-63.7,0-95.5,0
					c-9.2,0-15.5,4.9-17.5,13.6c-0.3,1.5-0.4,3-0.3,4.5c0,7.2,0.1,14.4-0.1,21.7c-0.1,2.5,0.8,3.1,3.1,3.1c30.5-0.1,61-0.1,91.5,0
					c3.3,0,3.3,0,3.3,3.3c0,3.9-0.1,7.7,0.1,11.6c0.1,2.3-0.6,3-2.9,3c-28.7-0.1-57.5-0.1-86.2-0.1L799.6,79.4z"/>
				<path class="st0" d="M1077.2,127.1h3.6c31.8,0,63.5,0,95.3,0c10.8,0,17.8-6.5,18.3-17.2c0.2-5,0.2-10.1-0.2-15.1
					c-0.5-8.7-7.8-15.5-16.5-15.4c-24.1,0-48.2,0-72.3,0c-5.5,0-10.9-1-15.8-3.7c-9.6-5.3-16.1-13.2-16.9-24.4
					c-0.6-8.2-0.8-16.5,0.4-24.6c2.1-14.4,15.5-25.4,30.4-25.5c32.6-0.2,65.2,0,97.8-0.1c1.9,0,2.5,0.6,2.5,2.5
					c-0.1,4-0.1,8.1,0,12.1c0.1,2.2-0.7,2.8-2.9,2.8c-30.5-0.1-61-0.1-91.5,0c-6.4,0-11.6,2.4-15.2,7.8c-4,5.9-3.9,21.6,0.3,27.3
					c3.7,5.1,8.7,7.4,14.9,7.4c23.8,0,47.5,0,71.3,0c5.8,0,11.4,1,16.4,4c10.6,6.3,16.3,15.5,16.5,27.9c0.1,6.6,0.1,13.3,0,19.9
					c-0.1,17.3-14,31.6-31.3,31.6c-34.2,0.1-68.4,0-102.6,0.1c-1.8,0-2.6-0.4-2.5-2.4C1077.3,137.3,1077.2,132.5,1077.2,127.1z"/>
				<path class="st0" d="M453,185.3c-5.9,0-11.5,0-17.1-0.1c-0.5,0-1.1-0.8-1.3-1.3c-0.2-0.7-0.1-1.5-0.1-2.3c0-46.4,0-92.7,0-139
					c0-3.7,0-3.7,3.7-3.7c24.2,0,48.4,0,72.5,0c9.2,0,17.1,3,23.6,9.5c5.2,5.2,7.7,11.5,7.8,18.8c0.1,16.3,0.1,32.6,0,48.9
					c-0.1,15.2-12.8,27.9-28.7,28.3c-15,0.4-30.1,0.1-45.1,0.1c-4.2,0-8.4,0.1-12.6,0c-2.1-0.1-2.7,0.7-2.7,2.8
					c0.1,11.6,0,23.2,0,34.8L453,185.3z M453,91.4c0,11.2,0,22.5,0,33.7c0,1.7,0.2,2.9,2.4,2.9c17.8,0,35.6,0.1,53.4,0
					c7.8-0.1,14.5-6.8,14.6-14.6c0.2-14.5,0.1-29,0-43.6c-0.1-2.3-0.8-4.4-1.9-6.4c-3.4-6-9.2-8-15.8-8.1c-16.5-0.1-33.1,0-49.6-0.1
					c-2.3,0-3,0.8-3,3.1C453,69.4,453,80.4,453,91.4L453,91.4z"/>
				<path class="st0" d="M611.8,101.3c-13.9,0-27.7,0.1-41.6,0c-2.5,0-3.4,0.7-3.3,3.3c0.2,4.8,0,9.6,0.1,14.4
					c0,6.1,3.4,9.6,9.7,9.7c10.7,0.1,21.5,0,32.2,0c11.7,0,23.3,0.1,35,0c2.1,0,2.8,0.6,2.7,2.7c-0.1,3.7-0.1,7.4,0,11.1
					c0,1.6-0.6,2.2-2.2,2.2c-24.2,0-48.4,0.1-72.6-0.1c-10.7-0.1-20-7.1-22.5-16.3c-0.5-2.1-0.8-4.3-0.8-6.4
					c-0.1-17.8,0-35.6,0-53.4c0-15,11.4-27.6,26.4-28.9c4.4-0.4,8.9-0.4,13.3-0.4c13.7,0.1,27.6-0.2,41.3,0.4
					c12.6,0.6,23.6,10.5,26.1,22.3c0.3,1.9,0.5,3.8,0.4,5.7c0,10.2-0.1,20.5,0.1,30.7c0,2.7-0.9,3.2-3.3,3.2
					C639.2,101.3,625.5,101.3,611.8,101.3z M602.3,84.8c10.8,0,21.7-0.1,32.5,0c2.2,0,3-0.5,2.9-2.8c-0.2-3.5,0-7,0-10.6
					C637.6,63,631.4,56,623,55.8c-13.7-0.3-27.4-0.3-41.1,0c-8.4,0.2-14.7,7.1-14.9,15.5c-0.1,3.6,0.1,7.2-0.1,10.8
					c-0.1,2.1,0.8,2.7,2.8,2.7C580.6,84.7,591.4,84.8,602.3,84.8z"/>
				<path class="st0" d="M772,103c0,12.9-0.1,25.7,0,38.6c0,2.3-0.6,3.1-2.9,3c-4.3-0.2-8.6-0.2-12.9,0c-2.3,0.1-2.8-0.7-2.8-2.9
					c0.1-22.9,0.1-45.9,0-68.8c0-10.1-5.3-16.8-15.4-17.2c-13.9-0.6-27.9-0.5-41.8,0.1c-9.4,0.4-14.8,7-14.8,16.4
					c-0.1,19.3,0,38.6,0,58c0,4-0.1,7.9,0,11.8c0,1.8-0.4,2.6-2.4,2.5c-4.7-0.1-9.4-0.1-14.1,0c-1.7,0-2.1-0.6-2.1-2.2
					c0-25.3-0.1-50.6,0.1-75.8c0.1-13.3,11-25,24.7-27c1.9-0.3,3.8-0.5,5.8-0.5c16.1,0,32.3-0.1,48.4,0c11,0.1,19.7,4.8,26.1,13.7
					c2.6,3.7,4,8,4,12.5C772,77.8,772,90.4,772,103L772,103z"/>
				<path class="st0" d="M423.6,72.2c0,13.2,0.1,26.3,0,39.5c-0.1,14.9-10.6,27.7-25.1,30.8c-2.2,0.5-4.4,0.7-6.7,0.7
					c-1.6,0-3.1,0-4.7,0c-19.5,0.5-39.1,0.1-58.6,0.2c-5.7,0-11.3,0-17,0.1c-3.9,0.1-7.8-0.1-11.5-1.2
					c-11.6-3.5-19.2-10.9-22.5-22.6c-0.7-2.6-1.1-5.3-1.1-8c0-3.1,0-6.3,0-9.4c0-20.8-0.1-41.6-0.1-62.4c0-3.4-0.1-6.8,0.2-10.2
					c0.4-5.9,2.4-11.5,5.9-16.3c4.9-6.9,12.4-11.6,20.8-12.8c3.1-0.5,6.3-0.3,9.4-0.4c10.6-0.5,21.3-0.1,31.9-0.2s21.3,0,32,0
					c5.3,0,10.6-0.1,15.9,0c7.8,0.1,15.2,3.2,20.9,8.5c5.2,4.6,8.6,10.9,9.8,17.7c0.4,2.1,0.6,4.2,0.6,6.3
					C423.6,45.8,423.6,59,423.6,72.2L423.6,72.2z M350.6,126.2L350.6,126.2c11.1,0,22.2,0,33.3,0c2.3,0,4.6-0.1,6.8-0.4
					c4.5-0.5,8.6-2.9,11.4-6.5c1.9-2.3,3-5.2,3.3-8.2c0.1-1.6,0-3.2,0-4.9c0-3.8-0.1-7.7-0.1-11.5c0-2.8-0.1-5.6-0.1-8.4l-0.1-9.9
					l-0.1-8.8l-0.1-9.5c0-3-0.1-6-0.1-9c-0.1-4.2-0.1-8.4-0.2-12.6c0-1.7-0.2-3.4-0.4-5.1c-0.5-3.6-2.3-7-5-9.5
					c-3.3-3.1-7.2-4.4-11.7-4.7c-0.6,0-1.2,0.2-1.9,0.2c-1,0-2.1-0.1-3.2-0.1c-4.2,0-8.5-0.1-12.7-0.1c-18.2,0-36.3,0-54.5,0
					c-1.9,0-3.9,0.1-5.8,0.4c-4,0.4-7.8,2.3-10.5,5.3c-2.7,2.9-4.4,6.4-4.4,10.4c0,3.3,0.1,6.6,0.1,10l0.1,9.2l0.1,9.8l0.1,9.1
					L295,81l0.1,8.9c0,3.2,0.1,6.4,0.1,9.6c0,2.6,0,5.3,0.1,7.9c0,2.1,0.3,4.1,0.7,6.2c2.2,8.7,9.2,12.7,16.9,12.9
					c0.3,0,0.6-0.3,0.9-0.3c1.8,0,3.5,0.1,5.3,0.1L350.6,126.2z"/>
			</g>
		</g>
		<g>
			<path class="st1" d="M1272.6,145V5.8h38.4c49.1,0,73.6,22.6,73.6,67.8c0,21.5-6.8,38.8-20.4,51.8c-13.6,13-31.9,19.6-54.7,19.6
				H1272.6z M1288.9,20.5v109.7h20.8c18.2,0,32.4-4.9,42.6-14.7c10.2-9.8,15.2-23.6,15.2-41.5c0-35.7-19-53.5-56.9-53.5H1288.9z"/>
			<path class="st1" d="M1451.3,147.3c-14.7,0-26.4-4.6-35.2-13.9c-8.8-9.3-13.1-21.6-13.1-36.9c0-16.7,4.6-29.7,13.7-39.1
				c9.1-9.4,21.5-14.1,37-14.1c14.8,0,26.4,4.6,34.7,13.7s12.5,21.8,12.5,38c0,15.9-4.5,28.6-13.4,38.1
				C1478.4,142.6,1466.4,147.3,1451.3,147.3z M1452.5,56.7c-10.2,0-18.3,3.5-24.3,10.4s-8.9,16.6-8.9,28.8c0,11.8,3,21.1,9,27.9
				c6,6.8,14.1,10.2,24.2,10.2c10.3,0,18.2-3.3,23.7-10c5.5-6.7,8.3-16.1,8.3-28.4c0-12.4-2.8-22-8.3-28.7
				C1470.7,60,1462.8,56.7,1452.5,56.7z"/>
			<path class="st1" d="M1594,140.4c-7.6,4.6-16.7,6.9-27.2,6.9c-14.2,0-25.6-4.6-34.3-13.8c-8.7-9.2-13-21.2-13-35.9
				c0-16.4,4.7-29.5,14.1-39.5c9.4-9.9,21.9-14.9,37.6-14.9c8.7,0,16.4,1.6,23.1,4.8v16.3c-7.4-5.2-15.3-7.8-23.7-7.8
				c-10.2,0-18.5,3.6-25,10.9c-6.5,7.3-9.8,16.8-9.8,28.7c0,11.6,3.1,20.8,9.2,27.6c6.1,6.7,14.3,10.1,24.6,10.1
				c8.7,0,16.8-2.9,24.5-8.6V140.4z"/>
			<path class="st1" d="M1612.1,141.4v-17.1c8.7,6.4,18.2,9.6,28.6,9.6c14,0,21-4.7,21-14c0-2.7-0.6-4.9-1.8-6.7
				c-1.2-1.8-2.8-3.5-4.9-4.9c-2-1.4-4.4-2.7-7.2-3.8c-2.7-1.1-5.7-2.3-8.9-3.5c-4.4-1.7-8.3-3.5-11.6-5.3c-3.3-1.8-6.1-3.8-8.3-6
				c-2.2-2.2-3.9-4.8-5-7.6c-1.1-2.8-1.7-6.2-1.7-10c0-4.7,1.1-8.8,3.2-12.4c2.1-3.6,5-6.6,8.5-9c3.6-2.4,7.6-4.3,12.2-5.5
				c4.6-1.2,9.3-1.8,14.1-1.8c8.6,0,16.3,1.5,23.1,4.5v16.1c-7.3-4.8-15.7-7.2-25.2-7.2c-3,0-5.7,0.3-8.1,1
				c-2.4,0.7-4.4,1.6-6.2,2.9c-1.7,1.2-3,2.7-4,4.4c-0.9,1.7-1.4,3.6-1.4,5.7c0,2.6,0.5,4.8,1.4,6.5c0.9,1.7,2.3,3.3,4.1,4.7
				c1.8,1.4,4,2.6,6.6,3.7c2.6,1.1,5.5,2.3,8.8,3.6c4.4,1.7,8.3,3.4,11.8,5.2c3.5,1.8,6.5,3.8,8.9,6c2.5,2.2,4.4,4.8,5.7,7.7
				c1.3,2.9,2,6.4,2,10.4c0,4.9-1.1,9.2-3.2,12.8c-2.2,3.6-5.1,6.6-8.7,9c-3.6,2.4-7.8,4.2-12.5,5.3c-4.7,1.2-9.7,1.7-14.8,1.7
				C1628.5,147.3,1619.6,145.3,1612.1,141.4z"/>
		</g>
	</g>
</g>
</svg>
