<?xml version="1.0" encoding="utf-8"?>
<!-- Generator: Adobe Illustrator 22.0.0, SVG Export Plug-In . SVG Version: 6.00 Build 0)  -->
<svg version="1.1" id="Layer_1" xmlns="http://www.w3.org/2000/svg" xmlns:xlink="http://www.w3.org/1999/xlink" x="0px" y="0px"
	 viewBox="0 0 165.3 40" style="enable-background:new 0 0 165.3 40;" xml:space="preserve">
<style type="text/css">
	.st0{fill:#F15A29;}
	.st1{fill:#563A39;}
	.st2{fill:#AF8070;}
	.st3{fill:#348FC0;}
	.st4{fill:#060707;}
	.st5{fill:#FFFFFF;}
	.st6{fill:#4B3938;}
</style>
<g>
	<g>
		<path class="st0" d="M138.7,18.1c0.8,0.2,1.5,0.5,2,1.1c0.4,0.5,0.7,1.1,0.7,1.8c0,1.3,0,2.6,0,3.9c0,1.6-1,2.8-2.7,3.1
			c-0.5,0.1-1,0.1-1.5,0.1c-4.6,0-9.3,0-13.9,0c-0.3,0-0.4-0.1-0.4-0.4c0-6,0-11.9,0-17.9c0-0.3,0.1-0.4,0.4-0.4c4.5,0,9,0,13.5,0
			c0.8,0,1.6,0.1,2.3,0.4c1.1,0.5,1.8,1.3,1.9,2.6c0.1,1.2,0,2.4,0,3.6c-0.1,1.2-0.6,1.7-2,1.9C138.9,18.1,138.8,18.1,138.7,18.1z
			 M131.3,25.9c1.7,0,3.4,0,5.2,0c0.5,0,0.9-0.1,1.4-0.2c0.6-0.2,0.9-0.6,0.9-1.2c0-1.1,0-2.2,0-3.3c0-0.8-0.4-1.3-1.3-1.5
			c-0.3-0.1-0.5-0.1-0.8-0.1c-3.7,0-7.3,0-11,0c-0.3,0-0.3,0.1-0.3,0.4c0,1.9,0,3.7,0,5.5c0,0.3,0.1,0.4,0.4,0.4
			C127.7,25.9,129.5,25.9,131.3,25.9L131.3,25.9z M131.2,17.4L131.2,17.4c1.8,0,3.6,0,5.4,0c1.2,0,1.8-0.6,1.8-1.7
			c0-0.7,0-1.5,0-2.2c0-0.8-0.4-1.3-1.2-1.6c-0.3-0.1-0.7-0.2-1.1-0.2c-3.4,0-6.9,0-10.3,0c-0.3,0-0.4,0.1-0.4,0.4
			c0,1.6,0,3.2,0,4.8c0,0.4,0,0.4,0.4,0.4L131.2,17.4z"/>
		<path class="st0" d="M106.5,19.7v0.4c0,1.1,0,2.3,0,3.4c0,1.4,0.9,2.4,2.4,2.4c4.1,0,8.3,0,12.4,0c0.7,0,0.6-0.1,0.6,0.6
			c0,0.4,0,0.9,0,1.3c0,0.3-0.1,0.4-0.4,0.4c-1.4,0-2.7,0-4.1,0c-3,0-6-0.1-9.1,0c-2.2,0-4.1-1.6-4.3-3.6c0-0.2,0-0.4,0-0.6
			c0-3.4,0-6.8,0-10.3c0-2.4,1.8-4.2,4.2-4.2c4.4,0,8.8,0,13.2,0c0.3,0,0.4,0.1,0.4,0.4c0,0.5,0,1.1,0,1.6c0,0.2-0.1,0.3-0.3,0.3
			c-0.1,0-0.2,0-0.3,0c-4.2,0-8.3,0-12.5,0c-1.2,0-2,0.6-2.3,1.8c0,0.2,0,0.4,0,0.6c0,0.9,0,1.9,0,2.8c0,0.3,0.1,0.4,0.4,0.4
			c4,0,8,0,11.9,0c0.4,0,0.4,0,0.4,0.4c0,0.5,0,1,0,1.5c0,0.3-0.1,0.4-0.4,0.4c-3.7,0-7.5,0-11.2,0L106.5,19.7z"/>
		<path class="st0" d="M142.7,25.9h0.5c4.1,0,8.3,0,12.4,0c1.4,0,2.3-0.8,2.4-2.2c0-0.7,0-1.3,0-2c-0.1-1.1-1-2-2.2-2
			c-3.1,0-6.3,0-9.4,0c-0.7,0-1.4-0.1-2.1-0.5c-1.3-0.7-2.1-1.7-2.2-3.2c-0.1-1.1-0.1-2.2,0-3.2c0.3-1.9,2-3.3,4-3.3
			c4.2,0,8.5,0,12.7,0c0.2,0,0.3,0.1,0.3,0.3c0,0.5,0,1.1,0,1.6c0,0.3-0.1,0.4-0.4,0.4c-4,0-8,0-11.9,0c-0.8,0-1.5,0.3-2,1
			c-0.5,0.8-0.5,2.8,0,3.6c0.5,0.7,1.1,1,1.9,1c3.1,0,6.2,0,9.3,0c0.8,0,1.5,0.1,2.1,0.5c1.4,0.8,2.1,2,2.1,3.6c0,0.9,0,1.7,0,2.6
			c0,2.3-1.8,4.1-4.1,4.1c-4.5,0-8.9,0-13.4,0c-0.2,0-0.3,0-0.3-0.3C142.7,27.2,142.7,26.6,142.7,25.9z"/>
		<path class="st0" d="M61.3,33.5c-0.8,0-1.5,0-2.2,0c-0.1,0-0.1-0.1-0.2-0.2c0-0.1,0-0.2,0-0.3c0-6,0-12.1,0-18.1
			c0-0.5,0-0.5,0.5-0.5c3.2,0,6.3,0,9.5,0c1.2,0,2.2,0.4,3.1,1.2c0.7,0.7,1,1.5,1,2.4c0,2.1,0,4.2,0,6.4c0,2-1.7,3.6-3.7,3.7
			c-2,0-3.9,0-5.9,0c-0.5,0-1.1,0-1.6,0c-0.3,0-0.4,0.1-0.4,0.4c0,1.5,0,3,0,4.5L61.3,33.5z M61.3,21.2c0,1.5,0,2.9,0,4.4
			c0,0.2,0,0.4,0.3,0.4c2.3,0,4.6,0,7,0c1,0,1.9-0.9,1.9-1.9c0-1.9,0-3.8,0-5.7c0-0.3-0.1-0.6-0.3-0.8c-0.4-0.8-1.2-1-2.1-1.1
			c-2.2,0-4.3,0-6.5,0c-0.3,0-0.4,0.1-0.4,0.4C61.3,18.4,61.3,19.8,61.3,21.2L61.3,21.2z"/>
		<path class="st0" d="M82.1,22.5c-1.8,0-3.6,0-5.4,0c-0.3,0-0.4,0.1-0.4,0.4c0,0.6,0,1.2,0,1.9c0,0.8,0.4,1.3,1.3,1.3
			c1.4,0,2.8,0,4.2,0c1.5,0,3,0,4.6,0c0.3,0,0.4,0.1,0.4,0.4c0,0.5,0,1,0,1.4c0,0.2-0.1,0.3-0.3,0.3c-3.2,0-6.3,0-9.5,0
			c-1.4,0-2.6-0.9-2.9-2.1c-0.1-0.3-0.1-0.6-0.1-0.8c0-2.3,0-4.6,0-7c0-2,1.5-3.6,3.4-3.8c0.6-0.1,1.2-0.1,1.7,0
			c1.8,0,3.6,0,5.4,0.1c1.6,0.1,3.1,1.4,3.4,2.9c0,0.2,0.1,0.5,0.1,0.7c0,1.3,0,2.7,0,4c0,0.3-0.1,0.4-0.4,0.4
			C85.6,22.5,83.8,22.5,82.1,22.5z M80.8,20.4c1.4,0,2.8,0,4.2,0c0.3,0,0.4-0.1,0.4-0.4c0-0.5,0-0.9,0-1.4c0-1.1-0.8-2-1.9-2
			c-1.8,0-3.6,0-5.4,0c-1.1,0-1.9,0.9-1.9,2c0,0.5,0,0.9,0,1.4c0,0.3,0.1,0.4,0.4,0.3C78,20.4,79.4,20.4,80.8,20.4z"/>
		<path class="st0" d="M102.9,22.8c0,1.7,0,3.4,0,5c0,0.3-0.1,0.4-0.4,0.4c-0.6,0-1.1,0-1.7,0c-0.3,0-0.4-0.1-0.4-0.4c0-3,0-6,0-9
			c0-1.3-0.7-2.2-2-2.2c-1.8-0.1-3.6-0.1-5.5,0c-1.2,0.1-1.9,0.9-1.9,2.1c0,2.5,0,5,0,7.6c0,0.5,0,1,0,1.5c0,0.2-0.1,0.3-0.3,0.3
			c-0.6,0-1.2,0-1.8,0c-0.2,0-0.3-0.1-0.3-0.3c0-3.3,0-6.6,0-9.9c0-1.7,1.4-3.3,3.2-3.5c0.2,0,0.5-0.1,0.8-0.1c2.1,0,4.2,0,6.3,0
			c1.4,0,2.6,0.6,3.4,1.8c0.3,0.5,0.5,1,0.5,1.6C102.9,19.5,102.9,21.1,102.9,22.8L102.9,22.8z"/>
		<path class="st0" d="M57.5,18.7c0,1.7,0,3.4,0,5.2c0,1.9-1.4,3.6-3.3,4C53.9,28,53.7,28,53.4,28c-0.2,0-0.4,0-0.6,0
			c-2.5,0.1-5.1,0-7.6,0c-0.7,0-1.5,0-2.2,0c-0.5,0-1,0-1.5-0.2c-1.5-0.5-2.5-1.4-2.9-2.9c-0.1-0.3-0.1-0.7-0.1-1c0-0.4,0-0.8,0-1.2
			c0-2.7,0-5.4,0-8.1c0-0.4,0-0.9,0-1.3c0.1-0.8,0.3-1.5,0.8-2.1c0.6-0.9,1.6-1.5,2.7-1.7c0.4-0.1,0.8,0,1.2-0.1
			c1.4-0.1,2.8,0,4.2,0c1.4,0,2.8,0,4.2,0c0.7,0,1.4,0,2.1,0c1,0,2,0.4,2.7,1.1c0.7,0.6,1.1,1.4,1.3,2.3c0,0.3,0.1,0.5,0.1,0.8
			C57.5,15.3,57.5,17,57.5,18.7L57.5,18.7z M48,25.8L48,25.8c1.4,0,2.9,0,4.3,0c0.3,0,0.6,0,0.9-0.1c0.6-0.1,1.1-0.4,1.5-0.8
			c0.2-0.3,0.4-0.7,0.4-1.1c0-0.2,0-0.4,0-0.6c0-0.5,0-1,0-1.5c0-0.4,0-0.7,0-1.1l0-1.3l0-1.1l0-1.2c0-0.4,0-0.8,0-1.2
			c0-0.5,0-1.1,0-1.6c0-0.2,0-0.4-0.1-0.7c-0.1-0.5-0.3-0.9-0.6-1.2c-0.4-0.4-0.9-0.6-1.5-0.6c-0.1,0-0.2,0-0.2,0
			c-0.1,0-0.3,0-0.4,0c-0.6,0-1.1,0-1.7,0c-2.4,0-4.7,0-7.1,0c-0.3,0-0.5,0-0.8,0.1c-0.5,0.1-1,0.3-1.4,0.7
			c-0.4,0.4-0.6,0.8-0.6,1.4c0,0.4,0,0.9,0,1.3l0,1.2l0,1.3l0,1.2l0,1.2l0,1.2c0,0.4,0,0.8,0,1.3c0,0.3,0,0.7,0,1
			c0,0.3,0,0.5,0.1,0.8c0.3,1.1,1.2,1.6,2.2,1.7c0,0,0.1,0,0.1,0c0.2,0,0.5,0,0.7,0L48,25.8z"/>
	</g>
	<g>
		<path class="st1" d="M6.4,0.3H7c0,0,0,0,0.1,0c0.2,0,0.5,0.1,0.7,0.2c0.5,0.2,1,0.6,1.3,1.1C9.6,2.3,9.9,3.2,10.2,4
			c0.2,0.8,0.4,1.6,0.6,2.3C10.9,7.2,11,8,11.1,8.8c0.1,0.7,0.1,1.4,0.2,2c-0.2,0.3-0.3,0.6-0.4,0.9c-0.1,0.4-0.2,0.7-0.3,1.1
			c-0.3-0.8-0.3-1.6-0.3-2.5c-0.2,0.3-0.3,0.7-0.4,1c0-0.1,0-0.2,0-0.3c0-0.6,0-1.1,0-1.7C10,8.5,9.8,7.6,9.7,6.7c-0.2-1-0.5-2-1-3
			C8.5,3.2,8.2,2.8,7.8,2.5C7.5,2.1,7.1,1.9,6.6,1.9c-0.7,0-1.3,0.2-1.8,0.7C4.4,2.8,4.2,3.2,4.1,3.7C3.8,4.3,3.8,5.1,3.9,5.8
			C4,6.7,4.2,7.6,4.5,8.5c0.6,2.1,1.6,4,2.8,5.8c0.4,0.6,0.8,1.1,1.3,1.5C8.9,16.1,9,16,9.2,15.7c0.2-0.4,0.4-0.8,0.5-1.2
			c0.1-0.3,0.1-0.6,0.2-0.9c0.1,0.2,0.1,0.5,0.2,0.7c0.2,0.3,0.3,0.7,0.6,0.9c0,0,0,0.1,0,0.1c-0.1,0.3,0,0.7,0,1
			c0.1,0.3,0.2,0.7,0.3,1c0.1,0.2,0.2,0.4,0.3,0.6c-0.1-0.3,0-0.7,0-1c0.1-0.3,0.2-0.6,0.4-0.9c-0.1,1.2,0.1,2.4,0.5,3.6
			c0,0,0,0,0-0.1c0-0.6,0-1.2,0.1-1.9c0-0.4,0.1-0.7,0.3-1.1c0.1-0.2,0.2-0.4,0.4-0.5c0.1,0,0.1,0,0.1,0c0.2,0.4,0.4,0.9,0.5,1.4
			c0.1,0.3,0.1,0.6,0,0.9c0,0,0,0,0,0.1c0,0,0,0,0.1,0c0.4-0.6,0.8-1.3,0.9-2c0-0.2,0-0.4,0-0.6c0-0.2-0.1-0.4-0.1-0.5l0,0
			c0.2,0.2,0.4,0.4,0.6,0.6c0.3,0.4,0.6,0.9,0.7,1.4c0.1,0.3,0.1,0.5,0.1,0.8c0,0.2-0.1,0.3-0.1,0.5c0,0,0,0,0,0l0,0l0,0
			c0,0,0-0.1,0.1-0.1c0.2-0.4,0.4-0.9,0.5-1.4c0.1-0.4,0.2-0.9,0.2-1.3c0-0.1,0-0.1,0-0.2c0.1,0,0.1,0.1,0.2,0.2
			c0.2,0.2,0.2,0.5,0.3,0.8c0,0.2,0.1,0.4,0.1,0.6c0-0.1,0.1-0.2,0.1-0.3c0.2-0.5,0.3-1.1,0.2-1.7c0-0.3-0.1-0.5-0.3-0.7
			c0-0.1,0-0.1,0-0.1c0.1-0.1,0.1-0.3,0.2-0.4c0,0,0,0,0,0c0.1,0.5,0.3,1,0.5,1.5c0.2,0.3,0.3,0.4,0.6,0.1c0.3-0.3,0.6-0.6,0.9-1
			c0.8-1.1,1.5-2.3,2.1-3.5c0.7-1.5,1.2-3.1,1.6-4.7c0.1-0.7,0.2-1.5,0.1-2.2c-0.1-0.6-0.3-1.2-0.7-1.7c-0.4-0.5-0.9-0.7-1.4-0.8
			c-0.6-0.1-1.1,0-1.6,0.3c-0.3,0.2-0.5,0.5-0.7,0.8c-0.4,0.6-0.7,1.3-1,2.1c-0.2,0.7-0.4,1.5-0.5,2.3c-0.1,0.6-0.2,1.1-0.2,1.7
			c0,0.3,0,0.5,0,0.8c0,0.4,0,0.9,0,1.3c0,0.3,0.1,0.6,0,1c-0.1-0.2-0.1-0.3-0.2-0.5c0-0.1-0.1-0.2-0.1-0.3c0,0.3,0,0.6,0,0.9
			c0,0.3,0,0.5-0.1,0.8c-0.1,0.2-0.2,0.4-0.5,0.5c-0.1,0-0.1,0-0.1-0.1c-0.1-0.2-0.1-0.4,0-0.6c0.1-0.3,0.2-0.6,0.4-0.8
			c0,0,0,0,0-0.1c0,0-0.1,0-0.1,0c-0.2,0-0.4,0.1-0.6,0.1c0.1-0.8,0.1-1.6,0.2-2.4c0.1-0.8,0.2-1.6,0.3-2.4c0.2-1.2,0.5-2.5,0.9-3.6
			c0.3-0.9,0.7-1.7,1.3-2.3c0.7-0.7,1.5-1,2.5-0.8c0.8,0.1,1.5,0.5,2.1,1c0.9,0.9,1.3,1.9,1.4,3.2c0,0.3,0,0.6,0,0.9
			c0,0.3,0,0.6-0.1,0.9c-0.1,0.9-0.3,1.8-0.6,2.6c-0.7,2.1-1.6,4.2-2.6,6.2c-0.2,0.3-0.3,0.6-0.5,0.9c-0.1,0.2-0.1,0.3,0.1,0.5
			c0,0,0,0,0.1,0c0.3,0.2,0.5,0.5,0.7,0.7c0.5,0.6,0.7,1.3,0.9,2c0.1,0.5,0.2,1.1,0.1,1.7c0,0.4-0.1,0.9-0.1,1.3
			c-0.1,0.5-0.1,1-0.2,1.4c-0.1,0.6-0.2,1.2-0.2,1.8c-0.1,0.8-0.2,1.5-0.4,2.3c-0.1,0.7-0.2,1.4-0.4,2.1c-0.1,0.5-0.1,1-0.3,1.5
			c-0.2,1-0.6,1.9-0.9,2.8c0,0,0-0.1,0-0.1C20.1,34,20,33.9,20,33.8c-0.4-0.9-1-1.8-1.7-2.5c-0.6-0.6-1.2-1.2-1.9-1.6
			c-0.8-0.5-1.6-0.8-2.5-0.9c-0.6-0.1-1.3,0-1.9,0.3c-0.7,0.3-1.3,0.7-1.8,1.2c-0.7,0.7-1.3,1.4-1.9,2.2c-0.4,0.7-0.8,1.4-1,2.1
			c-0.1,0.3-0.1,0.7-0.2,1c0,0.1,0,0.1-0.1,0.2c0,0,0-0.1,0-0.1c-0.3-0.7-0.6-1.4-0.9-2.1c-0.2-0.6-0.5-1.2-0.6-1.8
			c-0.2-0.7-0.2-1.5-0.2-2.2c0-0.5-0.1-0.9-0.1-1.4c0-0.4-0.1-0.8-0.1-1.2c-0.1-0.5-0.1-1-0.1-1.5c0-0.6-0.1-1.2-0.1-1.8
			c0-0.5-0.1-1.1-0.1-1.6c0-0.6,0-1.2,0.1-1.7c0.2-1,0.7-2,1.4-2.8c0.2-0.2,0.4-0.4,0.6-0.6c0.1-0.1,0.1-0.2,0.1-0.4
			c0,0,0-0.1,0-0.1c-0.7-1.3-1.4-2.6-2-3.9C4,10.8,3.3,9.1,3,7.3C2.9,6.7,2.8,6,2.8,5.3c0,0,0,0,0-0.1V5c0,0,0,0,0,0
			c0-0.2,0-0.4,0-0.6C2.9,3.7,3,3.1,3.3,2.5C3.9,1.4,4.8,0.8,6,0.4C6.1,0.4,6.3,0.4,6.4,0.3z M16.6,26.6c0.1,0,0.2,0,0.3,0
			s0.2,0,0.3,0c1.2-0.2,2.2-0.7,3.1-1.6c0.6-0.6,0.8-1.3,0.5-2.1c-0.3-1-0.9-1.8-1.8-2.3c-0.5-0.3-1.1-0.4-1.6-0.2
			c-0.4,0.1-0.8,0.4-1.1,0.7c-0.8,0.8-1.2,1.7-1.5,2.7c-0.2,0.8,0,1.5,0.3,2.2c0.2,0.3,0.4,0.5,0.8,0.6C16,26.6,16.3,26.6,16.6,26.6
			z M10.9,26.6c0.1,0,0.1,0,0.2,0c0.4,0,0.8-0.1,1-0.5c0.2-0.4,0.4-0.8,0.4-1.3c0-0.5-0.1-1-0.2-1.5c-0.3-1.2-1.1-2.2-2.2-2.8
			c-0.4-0.2-0.8-0.3-1.2-0.2c-0.6,0.1-1.1,0.5-1.5,0.9c-0.4,0.4-0.8,1-1,1.6c-0.3,0.7-0.2,1.3,0.3,1.9c0.3,0.3,0.6,0.6,0.9,0.9
			C8.6,26.3,9.7,26.6,10.9,26.6L10.9,26.6z"/>
		<path class="st2" d="M20.2,34.2c0,0.2,0.1,0.3,0.1,0.5c0.2,1,0,1.9-0.6,2.7c-0.7,1-1.7,1.6-2.9,2c-0.6,0.2-1.2,0.3-1.8,0.3
			c0,0-0.1,0-0.1,0h-1.4c0,0,0,0-0.1,0c-0.8,0-1.6-0.1-2.4-0.2c-0.7-0.1-1.3-0.3-2-0.6c-1.3-0.6-2-1.7-2-3.2c0,0,0-0.1,0-0.2
			c0.1-0.3,0.1-0.7,0.2-1c0.2-0.8,0.5-1.5,1-2.1c0.5-0.8,1.2-1.5,1.9-2.2c0.5-0.5,1.1-0.9,1.8-1.2c0.6-0.2,1.2-0.3,1.9-0.3
			c0.9,0.1,1.7,0.4,2.5,0.9c0.7,0.4,1.4,1,1.9,1.6c0.7,0.7,1.3,1.6,1.7,2.5C20,33.9,20.1,34,20.2,34.2
			C20.1,34.2,20.1,34.2,20.2,34.2z M18.1,36.2C18.1,36.2,18,36.2,18.1,36.2c-0.7,0.5-1.3,0.9-2,1.2c-1,0.5-2.1,0.6-3.2,0.4
			c-0.9-0.2-1.8-0.5-2.6-0.9c-0.4-0.2-0.7-0.4-1.1-0.6l0,0l0,0c0,0.1,0,0.1,0.1,0.1c0.8,1,1.8,1.7,3,2.1c0.9,0.3,1.9,0.4,2.8,0.1
			c1.1-0.3,2-1,2.7-1.9C17.9,36.5,18,36.4,18.1,36.2C18.1,36.2,18.1,36.2,18.1,36.2C18.1,36.2,18.1,36.2,18.1,36.2L18.1,36.2z
			 M18.4,33.2c0-0.1,0-0.3-0.1-0.4c-0.2-0.2-0.3-0.4-0.6-0.5c-0.5-0.3-1.1-0.3-1.5,0.1C16,32.7,16,33,15.9,33.3
			c0,0.6-0.2,1.1-0.5,1.6c-0.2,0.3-0.3,0.5-0.5,0.8c-0.1,0.2-0.1,0.3,0.1,0.4c0.1,0.1,0.2,0,0.3,0c0.8-0.3,1.6-0.8,2.3-1.3
			C18.1,34.4,18.4,33.9,18.4,33.2L18.4,33.2z M9.3,33.4c0,0.2,0.1,0.4,0.2,0.6c0.2,0.4,0.6,0.7,1,1c0.5,0.4,1.1,0.6,1.7,0.9
			c0.1,0.1,0.2,0.1,0.3,0.1c0.1,0,0.2,0,0.3-0.1c0.1,0,0.1-0.1,0.1-0.2c0-0.1-0.1-0.2-0.2-0.2c0,0-0.1-0.1-0.1-0.1
			c0-0.1,0-0.1-0.1-0.2c0,0-0.1-0.1-0.1-0.1c-0.4-0.6-0.6-1.2-0.7-1.9c0-0.7-0.6-1.2-1.3-1.1C9.8,32.2,9.3,32.8,9.3,33.4L9.3,33.4z"
			/>
		<path class="st2" d="M24.4,4.6L24.4,4.6l0,0.9l0,0h0C24.4,5.2,24.4,4.9,24.4,4.6z"/>
		<path class="st3" d="M9.9,13.7c-0.1,0.3-0.1,0.6-0.2,0.9c-0.1,0.4-0.3,0.8-0.5,1.2C9,16,8.9,16.1,8.6,15.8c-0.5-0.4-0.9-1-1.3-1.5
			c-1.2-1.8-2.2-3.7-2.8-5.8C4.2,7.6,4,6.7,3.9,5.8C3.8,5.1,3.8,4.3,4.1,3.6c0.2-0.4,0.3-0.8,0.7-1.1c0.5-0.4,1.1-0.7,1.8-0.7
			c0.5,0,0.9,0.3,1.3,0.6c0.4,0.3,0.6,0.8,0.9,1.2c0.5,0.9,0.8,2,1,3C9.8,7.6,9.9,8.5,10,9.4c0,0.6,0,1.1,0,1.7c0,0.1,0,0.2,0,0.3
			c0,0,0,0.1,0,0.1c-0.1,0.5-0.2,1-0.2,1.6C9.8,13.3,9.8,13.5,9.9,13.7z"/>
		<path class="st3" d="M17.2,12.2c0-0.3,0-0.6,0-1c0-0.4,0-0.9,0-1.3c0-0.3,0-0.5,0-0.8c0-0.6,0.1-1.2,0.2-1.7
			c0.1-0.8,0.3-1.5,0.5-2.3c0.2-0.7,0.5-1.4,1-2.1c0.2-0.3,0.4-0.6,0.7-0.8c0.5-0.4,1-0.5,1.6-0.3c0.6,0.1,1.1,0.4,1.4,0.8
			c0.4,0.5,0.6,1,0.7,1.7c0.1,0.8,0,1.5-0.1,2.2c-0.3,1.6-0.8,3.2-1.6,4.7c-0.6,1.2-1.3,2.4-2.1,3.5c-0.3,0.3-0.6,0.7-0.9,1
			c-0.3,0.3-0.4,0.2-0.6-0.1c-0.3-0.5-0.4-1-0.5-1.5c0,0,0,0,0,0c0.1-0.4,0.1-0.7,0-1.1C17.4,12.8,17.3,12.5,17.2,12.2z"/>
		<path class="st4" d="M17.2,12.2c0.1,0.3,0.2,0.6,0.2,0.9c0.1,0.4,0.1,0.7,0,1.1c0,0.1-0.1,0.3-0.2,0.4c0,0,0,0.1,0,0.1
			c0.1,0.2,0.2,0.5,0.3,0.7c0.1,0.6,0,1.1-0.2,1.7c0,0.1-0.1,0.2-0.1,0.3c0-0.2-0.1-0.4-0.1-0.6c-0.1-0.3-0.1-0.6-0.3-0.8
			c-0.1-0.1-0.1-0.1-0.2-0.2c0,0.1,0,0.1,0,0.2c0,0.4-0.1,0.9-0.2,1.3c-0.1,0.5-0.3,0.9-0.5,1.4c0,0,0,0.1-0.1,0.1l0,0
			c0-0.2,0-0.3,0.1-0.5c0-0.3,0-0.5-0.1-0.8c-0.1-0.5-0.4-1-0.7-1.4c-0.2-0.2-0.4-0.4-0.6-0.6l0,0l0,0c0,0.2,0.1,0.4,0.1,0.5
			c0,0.2,0,0.4,0,0.6c-0.1,0.7-0.5,1.4-0.9,2c0,0,0,0.1-0.1,0c0,0,0,0,0-0.1c0.1-0.3,0-0.6,0-0.9c-0.1-0.5-0.3-0.9-0.5-1.4
			c0-0.1-0.1-0.1-0.1,0c-0.2,0.1-0.3,0.3-0.4,0.5c-0.2,0.3-0.2,0.7-0.3,1.1c-0.1,0.6-0.1,1.2-0.1,1.9c0,0,0,0,0,0.1
			c-0.4-1.2-0.6-2.3-0.5-3.6c-0.2,0.3-0.3,0.6-0.4,0.9c-0.1,0.3-0.1,0.7,0,1c-0.1-0.2-0.2-0.4-0.3-0.6c-0.1-0.3-0.2-0.7-0.3-1
			c-0.1-0.3-0.1-0.7,0-1c0,0,0-0.1,0-0.1c-0.4-0.2-0.5-0.6-0.6-0.9c-0.1-0.2-0.1-0.5-0.2-0.7c0-0.2-0.1-0.4-0.1-0.6
			c0-0.5,0.1-1.1,0.2-1.6c0,0,0-0.1,0-0.1c0.1-0.3,0.2-0.7,0.4-1c0,0.9,0,1.7,0.3,2.5c0-0.4,0.1-0.7,0.3-1.1
			c0.1-0.3,0.2-0.6,0.4-0.9c0,0,0,0.1,0,0.1c0,0,0,0,0,0c0,0.2,0,0.5,0,0.7c0,0.1,0,0.2,0.1,0.4c0.1,0.3,0.2,0.5,0.3,0.8
			c0.2-0.5,0.3-1,0.2-1.5l0,0c0.2,0.1,0.3,0.3,0.4,0.4c0.1,0.2,0.3,0.4,0.4,0.7c0.1,0.2,0.2,0.4,0.3,0.6c0.1-0.6,0.3-1.1,0.6-1.6
			c0.1,0.6,0.2,1.2,0.5,1.7c0.1-0.1,0.1-0.2,0.2-0.3c0.2-0.4,0.3-0.9,0.3-1.4c0-0.1-0.1-0.2-0.1-0.3l0,0c0.3,0.5,0.5,1,0.7,1.5
			c0.1-0.1,0.1-0.2,0.2-0.3c0.1-0.2,0.3-0.3,0.5-0.4c0.2-0.1,0.4-0.1,0.6-0.1c0,0,0.1,0,0.1,0c0,0,0,0,0,0.1
			c-0.2,0.3-0.3,0.5-0.4,0.8c0,0.2,0,0.4,0,0.6c0,0.1,0.1,0.1,0.1,0.1c0.3-0.1,0.4-0.3,0.5-0.5c0.1-0.3,0.1-0.5,0.1-0.8
			c0-0.3,0-0.6,0-0.9c0,0.1,0.1,0.2,0.1,0.3C17.1,11.8,17.2,12,17.2,12.2z"/>
		<path class="st5" d="M16.6,26.6c-0.3,0-0.5,0-0.8,0c-0.4,0-0.6-0.2-0.8-0.6c-0.3-0.7-0.5-1.4-0.3-2.2c0.2-1,0.7-1.9,1.5-2.7
			c0.3-0.3,0.7-0.6,1.1-0.7c0.6-0.2,1.1-0.1,1.6,0.2c0.9,0.5,1.5,1.3,1.8,2.3c0.2,0.8,0,1.5-0.5,2.1c-0.8,0.9-1.9,1.4-3.1,1.6
			c-0.1,0-0.2,0-0.3,0C16.7,26.6,16.6,26.6,16.6,26.6z M16.9,26.4c0.2,0,0.3,0,0.5,0c0.6-0.1,1-0.5,1.3-1.1c0.1-0.2,0.2-0.4,0.1-0.7
			c0-0.3-0.3-0.4-0.5-0.3c-0.1,0-0.1,0.1-0.2,0.1c-0.1,0-0.1,0.1-0.2,0.1c-0.3,0.1-0.5,0-0.7-0.3c-0.2-0.2-0.2-0.5,0-0.7
			c0.1-0.1,0.1-0.1,0.2-0.2c0.2-0.2,0.1-0.6-0.2-0.6c-0.3-0.1-0.7,0-1,0.1c-0.6,0.2-1,0.6-1.1,1.2c-0.1,0.5-0.1,1,0.1,1.4
			c0.2,0.5,0.5,0.8,1,0.9C16.4,26.4,16.6,26.4,16.9,26.4L16.9,26.4z"/>
		<path class="st5" d="M10.9,26.6c-1.2,0-2.3-0.3-3.3-1c-0.4-0.3-0.7-0.5-0.9-0.9c-0.4-0.6-0.5-1.2-0.3-1.9c0.2-0.6,0.5-1.1,1-1.6
			c0.4-0.4,0.9-0.7,1.5-0.9c0.4-0.1,0.8,0,1.2,0.2c1.1,0.6,1.8,1.6,2.2,2.8c0.1,0.5,0.2,1,0.2,1.5c0,0.5-0.2,0.9-0.4,1.3
			c-0.2,0.4-0.6,0.5-1,0.5C11,26.6,11,26.6,10.9,26.6z M8.3,24.6c0,0.1,0,0.1,0,0.2c0,0.1,0,0.1,0,0.2c0.2,0.7,0.6,1.1,1.2,1.3
			c0.2,0.1,0.4,0,0.6,0.1c0.4,0,0.7,0,1-0.3c0.6-0.4,0.9-0.9,0.8-1.6c0-0.3-0.3-0.5-0.6-0.3c-0.1,0-0.1,0.1-0.2,0.1
			c-0.2,0.1-0.4,0.1-0.6-0.1c-0.4-0.3-0.4-0.6,0-1c0,0,0.1-0.1,0.1-0.1c0.1-0.1,0.1-0.3,0-0.4c-0.1-0.1-0.2-0.2-0.3-0.2
			c-0.2,0-0.4,0-0.6,0C9,22.9,8.3,23.6,8.3,24.6L8.3,24.6z"/>
		<path class="st4" d="M15.9,18.7L15.9,18.7L15.9,18.7C15.9,18.8,15.9,18.7,15.9,18.7L15.9,18.7z"/>
		<path class="st4" d="M18.4,33.2c0,0.6-0.3,1.1-0.8,1.5c-0.7,0.6-1.5,1-2.3,1.3c-0.1,0-0.2,0.1-0.3,0c-0.2-0.1-0.2-0.2-0.1-0.4
			c0.2-0.3,0.4-0.5,0.5-0.8c0.3-0.5,0.5-1,0.5-1.6c0-0.3,0.1-0.6,0.3-0.9c0.4-0.4,1-0.4,1.5-0.1c0.2,0.1,0.4,0.3,0.6,0.5
			C18.4,33,18.4,33.1,18.4,33.2z"/>
		<path class="st4" d="M9.3,33.4c0-0.6,0.5-1.2,1.2-1.3c0.7-0.1,1.3,0.4,1.3,1.1c0,0.7,0.2,1.3,0.7,1.9c0,0,0.1,0.1,0.1,0.1
			c0,0,0.1,0.1,0.1,0.2c0,0,0,0.1,0.1,0.1c0.1,0.1,0.1,0.2,0.2,0.2c0,0.1,0,0.2-0.1,0.2c-0.1,0.1-0.2,0.1-0.3,0.1
			c-0.1,0-0.2-0.1-0.3-0.1c-0.6-0.3-1.1-0.6-1.7-0.9c-0.4-0.3-0.8-0.6-1-1C9.3,33.9,9.3,33.7,9.3,33.4z"/>
		<path class="st5" d="M9.2,36.2c0.4,0.2,0.7,0.4,1.1,0.6c0.8,0.4,1.7,0.8,2.6,0.9c1.1,0.2,2.2,0.1,3.2-0.4c0.7-0.3,1.3-0.7,1.9-1.2
			c0,0,0,0,0.1-0.1l0,0c-0.1,0.2-0.2,0.3-0.3,0.5c-0.7,0.9-1.6,1.6-2.7,1.9c-1,0.3-1.9,0.2-2.8-0.1c-1.2-0.4-2.2-1.1-3-2.1
			C9.3,36.3,9.2,36.3,9.2,36.2L9.2,36.2z"/>
		<path class="st5" d="M18.1,36.2L18.1,36.2C18.1,36.2,18.1,36.2,18.1,36.2C18.1,36.2,18.1,36.2,18.1,36.2L18.1,36.2z"/>
		<path class="st5" d="M9.2,36.2L9.2,36.2L9.2,36.2L9.2,36.2z"/>
		<path class="st3" d="M14.4,11.2c0,0.1,0,0.2,0.1,0.3c0.1,0.5,0,0.9-0.3,1.4c-0.1,0.1-0.1,0.2-0.2,0.3c-0.3-0.5-0.4-1.1-0.5-1.7
			c-0.3,0.5-0.4,1-0.6,1.6c-0.1-0.2-0.2-0.4-0.3-0.6c-0.1-0.2-0.3-0.4-0.4-0.7c0.3-0.4,0.7-0.6,1.2-0.7c0,0,0.1,0,0.1,0
			c0.1,0,0.2,0,0.3,0C14,11,14.2,11.1,14.4,11.2C14.4,11.2,14.4,11.2,14.4,11.2z"/>
		<path class="st3" d="M13.5,9c-0.4-0.1-0.7-0.5-0.6-0.9s0.5-0.7,0.9-0.6c0.1,0,0.2,0.1,0.3,0.2c0.3,0.3,0.4,0.8,0.1,1.1
			C14.2,8.9,14,9,13.8,9.1C13.7,9.1,13.6,9.1,13.5,9z"/>
		<path class="st4" d="M13.5,9c0.1,0,0.2,0,0.2,0c0,0.6,0,1.1,0,1.7c0,0.1,0,0.2,0,0.2c-0.1,0-0.2,0-0.3,0L13.5,9z"/>
		<path class="st3" d="M15.3,12.4c-0.1,0.1-0.1,0.2-0.2,0.3c-0.2-0.5-0.4-1-0.7-1.5c0.2,0.1,0.4,0.2,0.5,0.4
			C15.1,11.8,15.2,12.1,15.3,12.4C15.3,12.4,15.3,12.4,15.3,12.4z"/>
		<path class="st6" d="M11.4,12c-0.1-0.1-0.1-0.2-0.1-0.4c0-0.2,0-0.5,0-0.7c0,0,0,0,0,0C11.3,11.3,11.4,11.6,11.4,12z"/>
		<path class="st4" d="M11.9,11.3L11.9,11.3L11.9,11.3L11.9,11.3L11.9,11.3z"/>
		<path class="st6" d="M14.6,15.4L14.6,15.4L14.6,15.4L14.6,15.4z"/>
		<path class="st4" d="M16.9,26.4c-0.3,0-0.5,0-0.8-0.1c-0.5-0.1-0.8-0.4-1-0.9C15,25,15,24.5,15.1,24c0.1-0.6,0.6-1,1.1-1.2
			c0.3-0.1,0.6-0.1,1-0.1c0.3,0.1,0.4,0.4,0.2,0.6c-0.1,0.1-0.1,0.1-0.2,0.2c-0.2,0.2-0.2,0.4,0,0.7c0.2,0.3,0.4,0.3,0.7,0.3
			c0.1,0,0.1-0.1,0.2-0.1c0.1,0,0.1-0.1,0.2-0.1c0.3-0.1,0.5,0,0.5,0.3c0,0.2-0.1,0.5-0.1,0.7c-0.2,0.6-0.6,1-1.3,1.1
			C17.2,26.4,17.1,26.4,16.9,26.4z"/>
		<path class="st4" d="M8.3,24.6c0-1,0.7-1.7,1.6-1.9c0.2,0,0.4,0,0.6,0c0.1,0,0.3,0.1,0.3,0.2c0.1,0.2,0.1,0.3,0,0.4
			c0,0-0.1,0.1-0.1,0.1c-0.3,0.3-0.3,0.7,0,1c0.2,0.1,0.4,0.2,0.6,0.1c0.1,0,0.1-0.1,0.2-0.1c0.3-0.2,0.5,0,0.6,0.3
			c0.1,0.7-0.2,1.2-0.8,1.6c-0.3,0.2-0.6,0.3-1,0.3c-0.2,0-0.4,0-0.6-0.1c-0.7-0.2-1.1-0.7-1.2-1.3c0-0.1,0-0.1,0-0.2
			C8.3,24.8,8.3,24.7,8.3,24.6z"/>
	</g>
</g>
</svg>
