<?xml version="1.0" encoding="utf-8"?>
<!-- Generator: Adobe Illustrator 22.0.0, SVG Export Plug-In . SVG Version: 6.00 Build 0)  -->
<svg version="1.1" id="Layer_1" xmlns="http://www.w3.org/2000/svg" xmlns:xlink="http://www.w3.org/1999/xlink" x="0px" y="0px"
	 viewBox="0 0 918.5 143.5" style="enable-background:new 0 0 918.5 143.5;" xml:space="preserve">
<style type="text/css">
	.st0{fill:#FFFFFF;}
	.st1{clip-path:url(#SVGID_2_);fill:#FFFFFF;stroke:#232323;stroke-width:0.5;stroke-miterlimit:10;}
	.st2{clip-path:url(#SVGID_2_);fill:#232323;}
	.st3{clip-path:url(#SVGID_2_);}
	.st4{clip-path:url(#SVGID_2_);fill:#474747;}
	.st5{fill:#474747;}
	.st6{stroke:#000000;stroke-miterlimit:10;}
	.st7{fill:#232323;stroke:#000000;stroke-miterlimit:10;}
	.st8{fill:#E0E0E0;}
	.st9{fill:#F2A74E;}
	.st10{fill:#F9FBFD;}
	.st11{fill:none;stroke:#AFAFAF;stroke-width:4;stroke-miterlimit:10;}
	.st12{fill:#AFAFAF;}
	.st13{clip-path:url(#SVGID_4_);}
	.st14{clip-path:url(#SVGID_6_);fill:#FFFFFF;stroke:#232323;stroke-width:0.5;stroke-miterlimit:10;}
	.st15{clip-path:url(#SVGID_6_);fill:#232323;}
	.st16{clip-path:url(#SVGID_6_);}
	.st17{clip-path:url(#SVGID_6_);fill:#474747;}
	.st18{fill:#EB592A;}
	.st19{fill:#563B39;}
	.st20{fill:#AE8070;}
	.st21{fill:#358EBF;}
	.st22{fill:#070808;}
	.st23{fill:#4B3938;}
	.st24{fill:#F05A2B;}
	.st25{fill:#107BA4;}
	.st26{fill:#1F3568;}
	.st27{fill:#F0A64F;}
	.st28{fill:#F15A29;}
</style>
<g>
	<path class="st27" d="M261.3,5.3l58.8,138h-15L261.3,38.6L217,143.3h-15L261.3,5.3z"/>
	<path class="st27" d="M358.4,78.4l-8.8-13.2L376.4,24l15.9,0.2L358.4,78.4z M355.2,83.3v60.1h-14.4V83.3L292.5,5.4h16.6L355.2,83.3
		z"/>
	<path class="st27" d="M435.3,5.3l58.8,138h-15L435.3,38.6L391,143.4h-15L435.3,5.3z"/>
	<polygon class="st27" points="387,5.3 378.6,19.2 395.6,19.2 404,5.3 	"/>
	<path class="st27" d="M198.1,71.8c-0.7-5.5-2-10.9-3.8-16.2c-4.4-13.2-11.7-24.5-22-33.9c-6.4-5.8-13.5-10.6-21.2-14.6
		c-0.8-0.4-1.6-0.4-2.5,0c-2.9,1.3-5.9,2.7-8.8,4.1c-5.8,2.8-11.4,5.9-16.8,9.5c-6,4.1-11.8,8.5-17.7,12.9c-1.6,1.2-3.2,2.5-4.8,3.7
		c-1.1,0.8-1.8,0.8-2.8,0c-2-1.7-4.2-3.3-6.3-4.9c-10.6-8.3-21.9-15.7-34-21.7c-2.5-1.2-5-2.4-7.6-3.5c-1-0.4-1.9-0.4-2.8,0.2
		C46.9,7.5,46.4,7.7,46,8c-3,1.7-6.1,3.3-8.9,5.3c-5.2,3.6-10,7.6-14.4,12.1c-5.5,5.7-10.2,12.1-13.8,19.2C2.9,56.4,0.3,69,0,82.1
		c-0.1,4.1,0.2,8.2,0.6,12.2c0.4,3.7,0.7,7.4,1.5,11.1c1.4,7.4,3.9,14.3,7.8,20.8c3.4,5.8,6.9,11.5,10.4,17.3h25.1
		c-0.5-1.5-1-3-1.6-4.5c-3-8.5-5.9-17-8.1-25.7c-1.2-4.9-2.3-9.9-3-15c-0.4-3-0.8-6.1-1-9.2c-0.1-1.7-0.3-3.4-0.2-5.1
		c0.2-3.1,0.5-6.3,0.8-9.4c0.3-3.2,0.8-6.3,1.8-9.4c1.6-5,4.1-9.4,8-12.9c4.5-4,9.8-6.3,15.7-7c4.6-0.5,8.8,0.6,12.4,3.4
		c2.7,2.1,4.6,4.8,6.1,7.9c2.1,4.2,3.4,8.8,4.4,13.4c1.4,6.2,1.9,12.6,2.1,18.9c0.1,4.5,0.1,9.1,0,13.6c-0.1,4.7-0.3,9.4-0.4,14
		c-0.1,4.6-0.3,21.1-1,25.7c-0.2,1.1-0.1,1.1,1,1.1c11.2,0,22.3,0,33.5,0c0.2,0,0.4,0,0.6,0c0.3,0,0.5-0.1,0.5-0.5
		c0-0.1,0-0.3,0-0.4c-0.3-2.7-0.5-17.2-0.6-19.9c-0.3-4.9-0.6-9.8-0.7-14.7c-0.2-6.2-0.2-12.3,0-18.5c0.2-5.9,0.8-11.8,1.9-17.6
		c0.8-4.2,1.8-8.3,3.4-12.3c1.6-3.8,3.6-7.3,6.6-10.1c3.3-3.1,7.2-4.8,11.8-4.8c2.4,0,4.7,0.4,6.9,1.1c5.5,1.8,10.2,4.8,13.8,9.4
		c3.4,4.5,5.2,9.7,6.1,15.2c0.7,4.2,0.9,8.4,1.2,12.6c0.2,1.7,0,3.5-0.1,5.2c-0.2,4-0.7,8-1.4,11.9c-1.2,7.5-3.1,14.9-5.4,22.2
		c-2.2,7.1-4.7,14.2-7.2,21.2h25.2c3.1-5,6.1-10,9.2-15c4.2-7,7.2-14.6,8.8-22.6c1.2-6.1,1.9-12.2,2.3-18.4
		C199,82.2,198.8,77,198.1,71.8z"/>
	<path class="st0" d="M515.3,6.3h38.1c2.5,0,5.5,0.1,9,0.4c3.5,0.2,6.9,0.7,10.1,1.3c7.4,1.4,14.3,3.9,20.8,7.4
		c6.5,3.6,12.1,8.2,16.9,13.9c4.8,5.7,8.6,12.2,11.4,19.7c2.8,7.5,4.2,15.7,4.2,24.7c0,8.4-1.3,16.2-3.8,23.3
		c-2.5,7.1-6,13.5-10.4,19.2c-4.4,5.7-9.7,10.5-15.8,14.4c-6.1,3.9-12.7,6.8-19.7,8.6c-3.2,0.9-6.6,1.5-10.2,1.7
		c-3.6,0.2-7.6,0.4-12,0.4h-38.5V6.3z M553,129.3c3.9,0,7.4-0.1,10.7-0.4c3.3-0.2,6.4-0.8,9.2-1.5c5.7-1.4,10.9-3.8,15.7-7.2
		c4.7-3.3,8.8-7.3,12.2-11.9c3.4-4.6,6.1-9.8,7.9-15.6c1.9-5.8,2.8-12,2.8-18.6c0-7.3-1-14-2.9-20c-2-6.1-4.7-11.4-8.3-16
		c-3.6-4.6-7.9-8.5-12.9-11.6c-5-3.1-10.5-5.3-16.5-6.7c-2.6-0.6-5.6-1-8.9-1.2c-3.3-0.2-6.4-0.3-9.1-0.3h-23.7v111H553z"/>
	<path class="st0" d="M684,0l60.2,141.3h-15.4L684,34l-45.3,107.3h-15.4L684,0z"/>
	<path class="st0" d="M762.8,18.3h-36v-12h86v12h-35.9v123h-14.1V18.3z"/>
	<path class="st0" d="M858.2,0l60.2,141.3h-15.4L858.2,34l-45.3,107.3h-15.4L858.2,0z"/>
</g>
</svg>
