<?xml version="1.0" encoding="utf-8"?>
<!-- Generator: Adobe Illustrator 22.0.0, SVG Export Plug-In . SVG Version: 6.00 Build 0)  -->
<svg version="1.1" id="Layer_1" xmlns="http://www.w3.org/2000/svg" xmlns:xlink="http://www.w3.org/1999/xlink" x="0px" y="0px"
	 viewBox="0 0 889.4 175.8" style="enable-background:new 0 0 889.4 175.8;" xml:space="preserve">
<style type="text/css">
	.st0{fill:#FFFFFF;}
	.st1{clip-path:url(#SVGID_2_);fill:#FFFFFF;stroke:#232323;stroke-width:0.5;stroke-miterlimit:10;}
	.st2{clip-path:url(#SVGID_2_);fill:#232323;}
	.st3{clip-path:url(#SVGID_2_);}
	.st4{clip-path:url(#SVGID_2_);fill:#474747;}
	.st5{fill:#474747;}
	.st6{stroke:#000000;stroke-miterlimit:10;}
	.st7{fill:#232323;stroke:#000000;stroke-miterlimit:10;}
	.st8{fill:#E0E0E0;}
	.st9{fill:#F2A74E;}
	.st10{fill:#F9FBFD;}
	.st11{fill:none;stroke:#AFAFAF;stroke-width:4;stroke-miterlimit:10;}
	.st12{fill:#AFAFAF;}
	.st13{clip-path:url(#SVGID_4_);}
	.st14{clip-path:url(#SVGID_6_);fill:#FFFFFF;stroke:#232323;stroke-width:0.5;stroke-miterlimit:10;}
	.st15{clip-path:url(#SVGID_6_);fill:#232323;}
	.st16{clip-path:url(#SVGID_6_);}
	.st17{clip-path:url(#SVGID_6_);fill:#474747;}
	.st18{fill:#EB592A;}
	.st19{fill:#563B39;}
	.st20{fill:#AE8070;}
	.st21{fill:#358EBF;}
	.st22{fill:#070808;}
	.st23{fill:#4B3938;}
	.st24{fill:#F05A2B;}
	.st25{fill:#107BA4;}
	.st26{fill:#1F3568;}
	.st27{fill:#F0A64F;}
	.st28{fill:#F15A29;}
</style>
<g>
	<path class="st28" d="M730.8,63.9c5.8,1.4,10.7,3.8,14.7,8.2c3.3,3.5,5.1,8,5.1,12.8c0.1,9.6,0.1,19.1,0,28.7
		c-0.1,11.8-7.3,20-20,22.6c-3.5,0.7-7.1,1-10.7,1c-33.8,0.1-67.6,0-101.3,0.1c-2.3,0-3-0.6-3-2.9c0.1-43.4,0.1-86.8,0-130.3
		c0-2.3,0.6-2.9,2.9-2.9c32.7,0.1,65.3,0,98,0.1c5.8,0,11.6,0.7,17,3.1c8.3,3.6,13.2,9.8,13.6,18.9c0.4,8.8,0.3,17.5-0.3,26.3
		c-0.7,8.6-4.1,12.4-14.3,14.1C731.9,63.6,731.4,63.7,730.8,63.9z M677.1,120.7c12.5,0,25,0.1,37.5-0.1c3.4-0.1,6.8-0.6,10.1-1.6
		c4.1-1.2,6.5-4.4,6.6-8.7c0.2-8,0.3-15.9,0.1-23.9c-0.2-6.2-3.1-9.3-9.2-10.8c-1.9-0.5-3.9-0.7-5.9-0.8c-26.6,0-53.2,0-79.8-0.1
		c-2,0-2.5,0.7-2.5,2.6c0.1,13.5,0.1,26.9,0,40.4c0,2.4,0.8,2.9,3,2.9C650.4,120.6,663.7,120.7,677.1,120.7L677.1,120.7z
		 M675.9,58.7v-0.2c13,0,26.1,0.1,39.2-0.1c8.4-0.1,13.2-4.7,13.3-12.1c0.1-5.3,0.1-10.7,0-16c-0.1-5.9-3-9.8-8.6-11.5
		c-2.5-0.8-5.1-1.2-7.7-1.2c-25.1-0.1-50.2,0-75.3-0.1c-2.2,0-2.8,0.7-2.8,2.9c0.1,11.7,0,23.4,0,35.1c0,3.2,0,3.2,3.2,3.2
		L675.9,58.7z"/>
	<path class="st28" d="M496.6,75.3v2.9c0,8.4,0,16.7,0,25.1c0,10.5,6.7,17.2,17.2,17.2c30,0,60.1,0,90.1,0c4.8,0,4.2-0.5,4.2,4.2
		c0,3.3-0.1,6.5,0,9.8c0.1,2.2-0.7,2.7-2.7,2.6c-9.9-0.1-19.8,0-29.7,0c-22,0-44-0.4-66,0.1c-15.8,0.4-29.7-11.7-31.3-26.4
		c-0.2-1.4-0.2-2.9-0.2-4.3c0-24.9,0-49.7,0-74.6c0-17.6,13.3-30.8,30.9-30.8c32.1,0,64.1,0,96.1-0.1c2.2,0,3.1,0.5,3,2.9
		c-0.2,4-0.1,8,0,12c0,1.4-0.5,2.1-1.9,2c-0.7,0-1.4,0-2.2,0c-30.2,0-60.4,0-90.6,0c-8.7,0-14.7,4.7-16.6,12.9
		c-0.3,1.4-0.4,2.8-0.3,4.3c0,6.9,0.1,13.7-0.1,20.6c0,2.3,0.7,2.9,3,2.9c28.9-0.1,57.9-0.1,86.8,0c3.1,0,3.1,0,3.1,3.1
		c0,3.7-0.1,7.3,0,11c0.1,2.2-0.5,2.8-2.8,2.8c-27.3-0.1-54.5-0.1-81.8,0L496.6,75.3z"/>
	<path class="st28" d="M760,120.6h3.4c30.1,0,60.3,0,90.4,0c10.2,0,16.8-6.1,17.4-16.3c0.2-4.8,0.2-9.6-0.2-14.3
		c-0.5-8.3-7.4-14.7-15.7-14.6c-22.9,0-45.8,0-68.6,0c-5.2,0-10.3-0.9-15-3.5c-9.1-5.1-15.3-12.5-16-23.1
		c-0.5-7.7-0.7-15.7,0.3-23.4c2-13.7,14.7-24.1,28.9-24.2c30.9-0.2,61.8,0,92.8-0.1c1.8,0,2.4,0.6,2.3,2.3c-0.1,3.8-0.1,7.7,0,11.5
		c0.1,2.1-0.6,2.7-2.7,2.7c-28.9-0.1-57.9-0.1-86.8,0c-6,0-11,2.3-14.4,7.4c-3.8,5.6-3.7,20.5,0.3,25.9c3.5,4.8,8.2,7,14.2,7
		c22.6,0,45.1,0,67.7,0c5.5,0,10.8,1,15.6,3.8c10,6,15.4,14.7,15.6,26.5c0.1,6.3,0,12.6,0,18.9c-0.1,16.4-13.3,30-29.7,30
		c-32.4,0.1-64.9,0-97.3,0.1c-1.7,0-2.4-0.3-2.4-2.2C760.1,130.3,760,125.7,760,120.6z"/>
	<path class="st28" d="M167.7,175.8c-5.6,0-10.9,0-16.3-0.1c-0.4,0-1.1-0.7-1.3-1.3c-0.2-0.6-0.1-1.4-0.1-2.1c0-44,0-88,0-131.9
		c0-3.5,0-3.5,3.5-3.5c22.9,0,45.9,0,68.8,0c8.7,0,16.2,2.8,22.4,9c5,4.9,7.3,10.9,7.4,17.8c0.1,15.5,0.1,30.9,0,46.4
		c-0.1,14.4-12.1,26.5-27.2,26.9c-14.3,0.3-28.5,0.1-42.8,0.1c-4,0-8,0.1-12,0c-2-0.1-2.6,0.7-2.6,2.6c0.1,11,0,22,0,33L167.7,175.8
		z M167.7,86.7c0,10.7,0,21.3,0,32c0,1.6,0.1,2.7,2.2,2.7c16.9,0,33.8,0.1,50.7,0c7.4-0.1,13.7-6.5,13.8-13.8
		c0.1-13.8,0.1-27.5,0-41.3c-0.1-2.1-0.7-4.2-1.8-6c-3.3-5.7-8.7-7.6-15-7.7c-15.7-0.1-31.4,0-47.1-0.1c-2.2,0-2.9,0.7-2.8,2.9
		C167.8,65.9,167.7,76.3,167.7,86.7L167.7,86.7z"/>
	<path class="st28" d="M318.5,96.2c-13.1,0-26.3,0-39.4,0c-2.4,0-3.2,0.6-3.1,3.1c0.2,4.5,0,9.1,0.1,13.6c0,5.8,3.3,9.1,9.2,9.2
		c10.2,0.1,20.4,0,30.6,0c11.1,0,22.2,0,33.2,0c2,0,2.6,0.6,2.6,2.6c-0.1,3.5-0.1,7,0,10.5c0,1.6-0.6,2.1-2.1,2
		c-22.9,0-45.9,0.1-68.8-0.1c-10.1-0.1-19-6.7-21.3-15.4c-0.5-2-0.7-4.1-0.7-6.1c-0.1-16.9,0-33.8,0-50.7c0-14.3,10.8-26.2,25-27.4
		c4.2-0.4,8.4-0.4,12.6-0.4c13,0,26.1-0.2,39.2,0.4c12,0.5,22.4,9.9,24.8,21.1c0.3,1.8,0.5,3.6,0.4,5.4c0,9.7-0.1,19.4,0.1,29.2
		c0,2.5-0.9,3.1-3.2,3C344.4,96.1,331.4,96.2,318.5,96.2z M309.4,80.4c10.3,0,20.6,0,30.8,0c2,0,2.9-0.5,2.8-2.7
		c-0.2-3.3,0-6.7,0-10c-0.1-8-5.9-14.6-13.9-14.8c-13-0.3-26-0.3-39,0c-8,0.2-13.9,6.7-14.1,14.7c-0.1,3.4,0.1,6.9,0,10.3
		c-0.1,2,0.7,2.5,2.7,2.5C288.8,80.4,299.1,80.4,309.4,80.4z"/>
	<path class="st28" d="M470.5,97.7c0,12.2,0,24.4,0,36.6c0,2.1-0.5,2.9-2.8,2.8c-4.1-0.2-8.2-0.2-12.2,0c-2.1,0.1-2.7-0.6-2.7-2.7
		c0.1-21.8,0.1-43.5,0-65.3c0-9.6-5.1-15.9-14.6-16.3c-13.2-0.5-26.5-0.5-39.7,0.1c-8.9,0.4-14,6.6-14.1,15.6c-0.1,18.3,0,36.7,0,55
		c0,3.7,0,7.5,0,11.2c0,1.7-0.4,2.5-2.3,2.4c-4.5-0.1-8.9-0.1-13.4,0c-1.6,0-2-0.6-2-2.1c0-24-0.1-48,0.1-72
		c0.1-12.6,10.5-23.7,23.5-25.7c1.8-0.3,3.6-0.5,5.5-0.5c15.3,0,30.6-0.1,45.9,0c10.4,0.1,18.7,4.5,24.8,13
		c2.5,3.5,3.8,7.6,3.8,11.9C470.5,73.8,470.4,85.8,470.5,97.7L470.5,97.7z"/>
	<path class="st28" d="M139.8,68.5c0,12.5,0.1,25,0,37.5c-0.1,14.1-10,26.3-23.8,29.2c-2.1,0.4-4.2,0.7-6.3,0.7c-1.5,0-3,0-4.4,0
		c-18.5,0.5-37.1,0.1-55.6,0.2c-5.4,0-10.7,0-16.1,0.1c-3.7,0.1-7.4-0.1-10.9-1.1c-11-3.3-18.2-10.4-21.4-21.4c-0.7-2.5-1-5-1-7.6
		c0-3,0-6,0-8.9C0.1,77.4,0,57.6,0,37.9c0-3.2-0.1-6.4,0.2-9.6c0.4-5.6,2.3-10.9,5.6-15.4c4.7-6.6,11.8-11,19.8-12.2
		c3-0.5,6-0.2,9-0.4c10.1-0.5,20.2-0.1,30.2-0.2s20.2,0,30.3,0c5,0,10.1-0.1,15.1,0c7.4,0.1,14.4,3,19.8,8
		c4.9,4.4,8.2,10.3,9.3,16.8c0.3,2,0.5,4,0.5,6C139.9,43.4,139.8,56,139.8,68.5L139.8,68.5z M70.6,119.7L70.6,119.7
		c10.5,0,21.1,0,31.6,0c2.2,0,4.3-0.1,6.5-0.4c4.3-0.5,8.2-2.7,10.8-6.2c1.8-2.2,2.9-4.9,3.1-7.8c0.1-1.5,0-3.1,0-4.6
		c0-3.7-0.1-7.3-0.1-10.9c0-2.7-0.1-5.3-0.1-8l-0.1-9.4l-0.1-8.4l-0.1-9c0-2.8-0.1-5.7-0.1-8.5c0-4-0.1-8-0.2-12
		c0-1.6-0.2-3.3-0.4-4.9c-0.5-3.4-2.2-6.6-4.7-9c-3.1-2.9-6.9-4.2-11.1-4.4c-0.6,0-1.2,0.2-1.8,0.2c-1,0-2-0.1-3-0.1
		c-4,0-8,0-12.1,0c-17.2,0-34.5,0-51.7,0c-1.8,0-3.7,0.1-5.5,0.4c-3.8,0.4-7.4,2.2-10,5c-2.6,2.8-4.2,6-4.2,9.9
		c0,3.2,0.1,6.3,0.1,9.4l0.1,8.7l0.1,9.3l0.1,8.6l0.1,9.1l0.1,8.4c0,3,0.1,6.1,0.1,9.1c0,2.5,0,5,0.1,7.5c0,2,0.3,3.9,0.7,5.9
		c2,8.3,8.7,12,16.1,12.3c0.3,0,0.5-0.3,0.8-0.3c1.7,0,3.3,0.1,5,0.1L70.6,119.7z"/>
</g>
</svg>
