<?xml version="1.0" encoding="utf-8"?>
<!-- Generator: Adobe Illustrator 22.0.0, SVG Export Plug-In . SVG Version: 6.00 Build 0)  -->
<svg version="1.1" id="Layer_1" xmlns="http://www.w3.org/2000/svg" xmlns:xlink="http://www.w3.org/1999/xlink" x="0px" y="0px"
	 viewBox="0 0 1140.5 145.4" style="enable-background:new 0 0 1140.5 145.4;" xml:space="preserve">
<style type="text/css">
	.st0{fill:#FFFFFF;}
	.st1{clip-path:url(#SVGID_2_);fill:#FFFFFF;stroke:#232323;stroke-width:0.5;stroke-miterlimit:10;}
	.st2{clip-path:url(#SVGID_2_);fill:#232323;}
	.st3{clip-path:url(#SVGID_2_);}
	.st4{clip-path:url(#SVGID_2_);fill:#474747;}
	.st5{fill:#474747;}
	.st6{stroke:#000000;stroke-miterlimit:10;}
	.st7{fill:#232323;stroke:#000000;stroke-miterlimit:10;}
	.st8{fill:#E0E0E0;}
	.st9{fill:#F2A74E;}
	.st10{fill:#F9FBFD;}
	.st11{fill:none;stroke:#AFAFAF;stroke-width:4;stroke-miterlimit:10;}
	.st12{fill:#AFAFAF;}
	.st13{clip-path:url(#SVGID_4_);}
	.st14{clip-path:url(#SVGID_6_);fill:#FFFFFF;stroke:#232323;stroke-width:0.5;stroke-miterlimit:10;}
	.st15{clip-path:url(#SVGID_6_);fill:#232323;}
	.st16{clip-path:url(#SVGID_6_);}
	.st17{clip-path:url(#SVGID_6_);fill:#474747;}
	.st18{fill:#EB592A;}
	.st19{fill:#563B39;}
	.st20{fill:#AE8070;}
	.st21{fill:#358EBF;}
	.st22{fill:#070808;}
	.st23{fill:#4B3938;}
	.st24{fill:#F05A2B;}
	.st25{fill:#107BA4;}
	.st26{fill:#1F3568;}
	.st27{fill:#F0A64F;}
	.st28{fill:#F15A29;}
</style>
<g>
	<path class="st27" d="M259,3.8l58.3,136.8h-14.9L259,36.7l-43.9,103.8h-14.9L259,3.8z"/>
	<path class="st27" d="M355.3,76.2l-8.7-13.1l26.5-40.8l15.8,0.2L355.3,76.2z M352.1,81v59.5h-14.3V81L289.9,3.8h16.5L352.1,81z"/>
	<path class="st27" d="M431.4,3.8l58.3,136.8h-14.9L431.4,36.7l-43.9,103.8h-14.9L431.4,3.8z"/>
	<polygon class="st27" points="383.6,3.8 375.3,17.5 392.1,17.5 400.4,3.8 	"/>
	<path class="st27" d="M196.4,69.7c-0.7-5.5-2-10.8-3.8-16.1C188.2,40.5,181,29.3,170.9,20c-6.3-5.8-13.4-10.5-21-14.4
		c-0.8-0.4-1.6-0.4-2.4,0c-2.9,1.3-5.8,2.6-8.7,4c-5.7,2.8-11.3,5.8-16.6,9.4c-6,4-11.7,8.4-17.5,12.8c-1.6,1.2-3.2,2.4-4.8,3.6
		c-1.1,0.8-1.8,0.8-2.8,0c-2-1.7-4.2-3.3-6.2-4.9C80.3,22.1,69.2,14.8,57.1,8.9c-2.5-1.2-5-2.3-7.5-3.5c-1-0.4-1.9-0.4-2.7,0.2
		c-0.4,0.3-0.9,0.5-1.3,0.8c-3,1.7-6,3.3-8.9,5.3c-5.1,3.5-9.9,7.5-14.2,12c-5.5,5.7-10.1,12-13.7,19C2.9,54.4,0.3,66.9,0,79.9
		C-0.1,83.9,0.2,88,0.6,92c0.4,3.7,0.7,7.4,1.4,11c1.4,7.3,3.9,14.2,7.7,20.6c3.4,5.7,6.8,11.4,10.3,17.1h24.8c-0.5-1.5-1-3-1.6-4.4
		c-2.9-8.4-5.9-16.8-8.1-25.5c-1.2-4.9-2.3-9.8-3-14.8c-0.4-3-0.8-6.1-1-9.1c-0.1-1.7-0.3-3.4-0.2-5.1c0.2-3.1,0.5-6.2,0.8-9.3
		c0.3-3.2,0.8-6.3,1.8-9.3c1.5-4.9,4-9.3,7.9-12.8c4.5-3.9,9.7-6.3,15.6-6.9c4.5-0.5,8.7,0.6,12.3,3.4c2.7,2.1,4.5,4.8,6,7.8
		c2.1,4.2,3.4,8.7,4.4,13.2c1.4,6.2,1.9,12.5,2.1,18.8c0.1,4.5,0.1,9,0,13.5c-0.1,4.6-0.3,9.3-0.4,13.9c-0.1,4.6-0.3,20.9-1,25.5
		c-0.2,1.1-0.1,1.1,1,1.1c11.1,0,22.1,0,33.2,0c0.2,0,0.4,0,0.6,0c0.3,0,0.5-0.1,0.5-0.5c0-0.1,0-0.3,0-0.4
		c-0.3-2.7-0.5-17-0.6-19.7c-0.3-4.9-0.6-9.7-0.7-14.6c-0.2-6.1-0.2-12.2,0-18.3c0.2-5.9,0.8-11.7,1.8-17.5
		c0.8-4.2,1.7-8.3,3.4-12.2c1.6-3.7,3.6-7.2,6.5-10c3.3-3.1,7.2-4.7,11.7-4.8c2.4,0,4.6,0.4,6.8,1.1c5.5,1.8,10.1,4.8,13.7,9.4
		c3.4,4.4,5.2,9.6,6,15c0.6,4.2,0.9,8.3,1.2,12.5c0.1,1.7,0,3.5-0.1,5.2c-0.2,4-0.7,7.9-1.3,11.8c-1.2,7.5-3.1,14.8-5.3,22.1
		c-2.2,7.1-4.7,14-7.1,21h25c3-5,6.1-9.9,9.1-14.9c4.2-7,7.1-14.5,8.8-22.4c1.2-6,1.9-12.1,2.2-18.2C197.2,80,197,74.8,196.4,69.7z"
		/>
	<path class="st0" d="M567.4,12.8c-6.2,0.5-12,2.1-17.3,4.5c-6.9,3.1-12.8,7.4-17.7,12.6c-4.9,5.3-8.7,11.4-11.5,18.4
		c-2.8,7-4.2,14.4-4.2,22.1c0,7.8,1.4,15.2,4.2,22.1s6.6,13,11.5,18.2s10.8,9.4,17.6,12.4c5.4,2.4,11.2,3.9,17.4,4.4v12.1
		c-7.8-0.5-15.2-2.2-22.2-5.1c-8.5-3.5-16-8.4-22.3-14.7c-6.3-6.3-11.3-13.6-15-22.1c-3.7-8.4-5.5-17.6-5.5-27.5
		c0-9.7,1.9-18.8,5.6-27.3s8.7-15.9,15.1-22.2c6.3-6.3,13.8-11.3,22.3-15c7-3,14.3-4.7,22-5.3V12.8z M574.5,127.8
		c7.6-0.2,14.6-1.7,20.9-4.5c6.8-3,12.7-7,17.6-12.3c4.9-5.2,8.7-11.3,11.3-18.2c2.7-6.9,4-14.4,4-22.3c0-8.2-1.3-15.9-4-22.9
		c-2.7-7.1-6.4-13.2-11.3-18.4c-4.8-5.2-10.7-9.3-17.5-12.3c-6.4-2.7-13.4-4.2-21.1-4.4V0.4c9.2,0.2,17.8,2,25.8,5.3
		c8.5,3.6,15.9,8.5,22.2,14.8c6.3,6.3,11.2,13.7,14.7,22.2c3.5,8.5,5.3,17.7,5.3,27.6c0,10-1.8,19.3-5.4,27.8
		c-3.6,8.5-8.5,15.9-14.8,22.2c-6.3,6.3-13.6,11.1-22.1,14.6c-8,3.2-16.6,4.9-25.7,5.2V127.8z"/>
	<path class="st0" d="M657.3,0l100,108.9V4.4h14.2V145l-100-109.1v104.3h-14.2V0z"/>
	<path class="st0" d="M792,4.7h14.2v123.7h61v12.1H792V4.7z"/>
	<path class="st0" d="M887.6,4.8h14.2v135.7h-14.2V4.8z"/>
	<path class="st0" d="M922.2,0.4l100.1,108.9V4.9h14.2v140.5l-100-109.1v104.3h-14.2V0.4z"/>
	<path class="st0" d="M1056.9,128.4h83.6v12.1H1057L1056.9,128.4z M1057,4.7h83.5v12.1H1057V4.7z M1057,64.7h80.2v12.2H1057V64.7z"
		/>
</g>
</svg>
