<svg id="Layer_1" data-name="Layer 1" xmlns="http://www.w3.org/2000/svg" viewBox="0 0 2058.8 453.4">
  <defs>
    <style>
      .cls-1 {
        fill: #e6e6e6;
        opacity: 0.45;
      }

      .cls-1, .cls-10, .cls-12, .cls-15, .cls-4, .cls-5, .cls-7, .cls-8 {
        isolation: isolate;
      }

      .cls-13, .cls-16, .cls-17, .cls-2 {
        fill: none;
      }

      .cls-2 {
        stroke: #f26724;
        stroke-dasharray: 6 6;
      }

      .cls-13, .cls-16, .cls-17, .cls-2, .cls-3 {
        stroke-miterlimit: 10;
      }

      .cls-13, .cls-2 {
        stroke-width: 2px;
      }

      .cls-10, .cls-11, .cls-3, .cls-8 {
        fill: #fff;
      }

      .cls-3 {
        stroke: #f15a24;
      }

      .cls-4, .cls-5 {
        font-size: 36px;
      }

      .cls-12, .cls-14, .cls-4, .cls-5 {
        fill: #6e6f72;
      }

      .cls-4 {
        font-family: Helvetica-Bold, Helvetica;
        font-weight: 700;
      }

      .cls-10, .cls-12, .cls-5, .cls-8 {
        font-family: Helvetica;
      }

      .cls-6 {
        fill: #606060;
      }

      .cls-10, .cls-12, .cls-8 {
        font-size: 24px;
      }

      .cls-8 {
        letter-spacing: -0.05em;
      }

      .cls-9 {
        letter-spacing: 0em;
      }

      .cls-13 {
        stroke: #6e6f72;
      }

      .cls-15 {
        fill: #f15a24;
        opacity: 0.1;
      }

      .cls-16 {
        stroke: #cce4ea;
        stroke-linecap: round;
      }

      .cls-16, .cls-17 {
        stroke-width: 10px;
      }

      .cls-17 {
        stroke: lime;
      }
    </style>
  </defs>
  <title>doc</title>
  <path class="cls-1" d="M1623.78,354.41H77.83c-10.61,0-19.22-4.6-19.22-10.2V152c0-5.6,8.61-10.2,19.22-10.2h1546c10.61,0,19.22,4.6,19.22,10.2v192.2c0,5.6-8.47,10.2-19.22,10.2Z"/>
  <path class="cls-2" d="M1998.69,428.5H63.4c-12.66,0-23-3.8-23-8.6V77.9c0-4.7,10.35-8.6,23-8.6H1998.69c12.65,0,23,3.8,23,8.6v342c0,4.7-10.24,8.5-22.89,8.6Z"/>
  <path class="cls-3" d="M1488.6,101H595.7c-6.8,0-12.3-5.1-12.3-11.5h0V49.1c0-6.4,5.5-11.5,12.3-11.5h892.8c6.8,0,12.3,5.1,12.3,11.5V89.5c.1,6.3-5.3,11.4-12.2,11.5Z"/>
  <text class="cls-4" transform="translate(768.55 83.76) scale(0.94 1)">OpenEBS configuration sequence</text>
  <text class="cls-5" transform="translate(694.8 402.67) scale(0.94 1)">As administrator</text>
  <path class="cls-6" d="M273.81,334.7H121.11a19.8,19.8,0,0,1-19.7-19.7V178.4a19.8,19.8,0,0,1,19.7-19.7h152.7a19.8,19.8,0,0,1,19.7,19.7V315A19.8,19.8,0,0,1,273.81,334.7Z"/>
  <g class="cls-7">
    <text class="cls-8" transform="translate(166.43 222.8) scale(0.94 1)">V<tspan class="cls-9" x="14.7" y="0">erify</tspan></text>
    <text class="cls-10" transform="translate(141.71 251.6) scale(0.94 1)">iSCSI client<tspan x="-34.66" y="28.8">(For cStor &amp; Jiva) </tspan></text>
  </g>
  <path class="cls-6" d="M535.91,334.7H383.21a19.8,19.8,0,0,1-19.7-19.7V178.4a19.8,19.8,0,0,1,19.7-19.7h152.7a19.8,19.8,0,0,1,19.7,19.7V315A19.8,19.8,0,0,1,535.91,334.7Z"/>
  <g class="cls-7">
    <text class="cls-10" transform="translate(424.77 236.83) scale(0.94 1)">Install </text>
    <text class="cls-10" transform="translate(407.19 265.63) scale(0.94 1)">OpenEBS</text>
  </g>
  <path class="cls-11" d="M806.11,334.7H653.31a19.8,19.8,0,0,1-19.7-19.7V178.4a19.8,19.8,0,0,1,19.7-19.7H806a19.8,19.8,0,0,1,19.7,19.7V315A19.65,19.65,0,0,1,806.11,334.7Z"/>
  <g class="cls-7">
    <text class="cls-12" transform="translate(688.29 236.83) scale(0.94 1)">Choose <tspan x="-38.03" y="28.8">Storage Engine</tspan></text>
  </g>
  <g>
    <path class="cls-11" d="M1609.13,334.7h-152.7a19.8,19.8,0,0,1-19.7-19.7V178.4a19.8,19.8,0,0,1,19.7-19.7h152.7a19.8,19.8,0,0,1,19.7,19.7V315A19.74,19.74,0,0,1,1609.13,334.7Z"/>
    <g class="cls-7">
      <text class="cls-12" transform="translate(1498.81 214.24) scale(0.94 1)">Create</text>
      <text class="cls-12" transform="translate(1452.37 243.04) scale(0.94 1)">Storage Class / </text>
      <text class="cls-12" transform="translate(1472.49 271.84) scale(0.94 1)">Use default </text>
      <text class="cls-12" transform="translate(1464.97 300.64) scale(0.94 1)">StorageClass</text>
    </g>
  </g>
  <g>
    <line class="cls-13" x1="300.61" y1="246.7" x2="344.71" y2="246.7"/>
    <path class="cls-14" d="M356.81,246.7c-5.7,2.1-12.7,5.7-17.1,9.5l3.4-9.5-3.4-9.5C344.11,241,351.11,244.6,356.81,246.7Z"/>
  </g>
  <g>
    <line class="cls-13" x1="565.61" y1="246.7" x2="609.81" y2="246.7"/>
    <path class="cls-14" d="M621.81,246.7c-5.7,2.1-12.7,5.7-17.1,9.5l3.4-9.5-3.4-9.5C609.11,241,616.21,244.6,621.81,246.7Z"/>
  </g>
  <g>
    <line class="cls-13" x1="854.11" y1="246.49" x2="898.31" y2="246.49"/>
    <path class="cls-14" d="M910.31,246.49c-5.7,2.1-12.7,5.7-17.1,9.5l3.4-9.5-3.4-9.5C897.61,240.79,904.61,244.39,910.31,246.49Z"/>
  </g>
  <line class="cls-13" x1="831.01" y1="246.49" x2="856.04" y2="246.49"/>
  <line class="cls-13" x1="1172.36" y1="246.38" x2="1371.32" y2="246.38"/>
  <g>
    <line class="cls-13" x1="854.47" y1="308.97" x2="898.67" y2="308.97"/>
    <path class="cls-14" d="M910.67,309c-5.7,2.1-12.7,5.7-17.1,9.5L897,309l-3.4-9.5C898,303.27,905,306.87,910.67,309Z"/>
  </g>
  <g>
    <line class="cls-13" x1="854.11" y1="184" x2="898.31" y2="184"/>
    <path class="cls-14" d="M910.31,184c-5.7,2.1-12.7,5.7-17.1,9.5l3.4-9.5-3.4-9.5C897.61,178.3,904.61,181.9,910.31,184Z"/>
  </g>
  <g>
    <line class="cls-13" x1="1009.38" y1="184" x2="1053.58" y2="184"/>
    <path class="cls-14" d="M1065.58,184c-5.7,2.1-12.7,5.7-17.1,9.5l3.4-9.5-3.4-9.5C1052.88,178.3,1059.88,181.9,1065.58,184Z"/>
  </g>
  <g>
    <line class="cls-13" x1="1176.36" y1="184" x2="1220.56" y2="184"/>
    <path class="cls-14" d="M1232.56,184c-5.7,2.1-12.7,5.7-17.1,9.5l3.4-9.5-3.4-9.5C1219.86,178.3,1226.86,181.9,1232.56,184Z"/>
  </g>
  <g>
    <line class="cls-13" x1="1371.32" y1="184" x2="1415.52" y2="184"/>
    <path class="cls-14" d="M1427.52,184c-5.7,2.1-12.7,5.7-17.1,9.5l3.4-9.5-3.4-9.5C1414.82,178.3,1421.82,181.9,1427.52,184Z"/>
  </g>
  <g>
    <line class="cls-13" x1="1009.38" y1="246.38" x2="1053.58" y2="246.38"/>
    <path class="cls-14" d="M1065.58,246.38c-5.7,2.1-12.7,5.7-17.1,9.5l3.4-9.5-3.4-9.5C1052.88,240.68,1059.88,244.28,1065.58,246.38Z"/>
  </g>
  <g>
    <line class="cls-13" x1="1371.32" y1="246.38" x2="1415.52" y2="246.38"/>
    <path class="cls-14" d="M1427.52,246.38c-5.7,2.1-12.7,5.7-17.1,9.5l3.4-9.5-3.4-9.5C1414.82,240.68,1421.82,244.28,1427.52,246.38Z"/>
  </g>
  <line class="cls-13" x1="1009.38" y1="310.14" x2="1369.72" y2="310.14"/>
  <g>
    <line class="cls-13" x1="1369.72" y1="310.14" x2="1413.92" y2="310.14"/>
    <path class="cls-14" d="M1425.92,310.14c-5.7,2.1-12.7,5.7-17.1,9.5l3.4-9.5-3.4-9.5C1413.22,304.44,1420.22,308,1425.92,310.14Z"/>
  </g>
  <path class="cls-15" d="M1996.49,353H1658.94c-2.34,0-4.22-4.6-4.22-10.2V150.6c0-5.6,1.88-10.2,4.22-10.2h337.55c2.34,0,4.22,4.6,4.22,10.2V342.8c0,5.6-1.88,10.2-4.22,10.2Z"/>
  <text class="cls-5" transform="translate(1738.66 402.67) scale(0.94 1)">As any user</text>
  <g>
    <path class="cls-11" d="M1959.91,334.7H1754.1c-9,0-16.44-8.9-16.44-19.7V178.4c0-10.8,7.43-19.7,16.44-19.7h205.81c9,0,16.45,8.9,16.45,19.7V315C1976.36,325.8,1968.93,334.7,1959.91,334.7Z"/>
    <g class="cls-7">
      <text class="cls-12" transform="translate(1756.51 223.06) scale(0.94 1)">Provision OpenEBS </text>
      <text class="cls-12" transform="translate(1817.33 251.86) scale(0.94 1)">volumes</text>
      <text class="cls-12" transform="translate(1761.49 280.66) scale(0.94 1)">using StorageClass</text>
    </g>
  </g>
  <g>
    <line class="cls-13" x1="1667.46" y1="246.7" x2="1711.66" y2="246.7"/>
    <path class="cls-14" d="M1723.66,246.7c-5.7,2.1-12.7,5.7-17.1,9.5l3.4-9.5-3.4-9.5C1711,241,1718.06,244.6,1723.66,246.7Z"/>
  </g>
  <rect class="cls-11" x="915.06" y="158.7" width="89.45" height="50.6" rx="12"/>
  <rect class="cls-11" x="1241.7" y="158.7" width="122.92" height="68" rx="12"/>
  <rect class="cls-11" x="1069.68" y="158.7" width="100.75" height="113.14" rx="12"/>
  <rect class="cls-11" x="915.06" y="221.4" width="89.45" height="50.6" rx="12"/>
  <rect class="cls-11" x="915.06" y="284.1" width="89.45" height="50.6" rx="12"/>
  <line class="cls-13" x1="854.11" y1="183.02" x2="854.11" y2="309.99"/>
  <g class="cls-7">
    <text class="cls-12" transform="translate(937.43 192.55) scale(0.94 1)">cStor</text>
  </g>
  <g class="cls-7">
    <text class="cls-12" transform="translate(1092.66 223.06) scale(0.94 1)">NDM</text>
  </g>
  <g class="cls-7">
    <text class="cls-12" transform="translate(1269.14 184.62) scale(0.94 1)">Create<tspan x="-19.34" y="28.8">cStor Pool</tspan></text>
  </g>
  <g class="cls-7">
    <text class="cls-12" transform="translate(937.43 316.36) scale(0.94 1)">Jiva</text>
  </g>
  <g class="cls-7">
    <text class="cls-12" transform="translate(917.25 253.8) scale(0.94 1)">LocalPV</text>
  </g>
  <line class="cls-16" x1="453.01" y1="311.22" x2="536.71" y2="311.22"/>
  <line class="cls-17" x1="377.21" y1="311.22" x2="485.81" y2="311.22"/>
  <g>
    <line class="cls-17" x1="191.65" y1="324.15" x2="177.48" y2="308.31"/>
    <line class="cls-17" x1="185.74" y1="323.73" x2="217.61" y2="292.71"/>
  </g>
</svg>
