<svg id="Layer_1" data-name="Layer 1" xmlns="http://www.w3.org/2000/svg" xmlns:xlink="http://www.w3.org/1999/xlink" viewBox="0 0 630 460"><defs><style>.cls-1,.cls-2,.cls-3,.cls-4,.cls-5,.cls-8{fill:none;}.cls-1,.cls-2,.cls-3,.cls-4{stroke-miterlimit:10;stroke-width:5px;}.cls-1{stroke:url(#linear-gradient);}.cls-2{stroke:url(#linear-gradient-2);}.cls-3{stroke:url(#linear-gradient-3);}.cls-4{stroke:url(#linear-gradient-4);}.cls-5,.cls-8{stroke:#fff;}.cls-5{stroke-width:15px;}.cls-6{fill:#6976f4;stroke:#6976f4;}.cls-7{fill:#fff;}.cls-8{stroke-width:2px;}</style><linearGradient id="linear-gradient" x1="104.82" y1="232.39" x2="525.18" y2="232.39" gradientTransform="matrix(1, 0, 0, -1, 0, 462.39)" gradientUnits="userSpaceOnUse"><stop offset="0" stop-color="#00abff"/><stop offset="0.27" stop-color="#00a9fc"/><stop offset="0.47" stop-color="#00a2f2"/><stop offset="0.66" stop-color="#0096e2"/><stop offset="0.83" stop-color="#0085cb"/><stop offset="0.99" stop-color="#006fad"/><stop offset="1" stop-color="#006eac"/></linearGradient><linearGradient id="linear-gradient-2" x1="155.63" y1="207.39" x2="301.98" y2="207.39" xlink:href="#linear-gradient"/><linearGradient id="linear-gradient-3" x1="327.63" y1="207.39" x2="473.98" y2="207.39" xlink:href="#linear-gradient"/><linearGradient id="linear-gradient-4" x1="241.63" y1="300.39" x2="387.98" y2="300.39" xlink:href="#linear-gradient"/></defs><title>Free cross cloud visibility</title><circle class="cls-1" cx="315" cy="230" r="207.68"/><path class="cls-2" d="M270.5,239.6a29,29,0,0,0-8.48,1.26,33.57,33.57,0,0,0-66.38,0,29,29,0,1,0-16.93,55.53,28.73,28.73,0,0,0,8.45,1.26h83.3a29,29,0,0,0,.76-58h-.72Z"/><path class="cls-3" d="M442.5,239.6a29,29,0,0,0-8.48,1.26,33.57,33.57,0,0,0-66.38,0,29,29,0,1,0-16.93,55.53,28.73,28.73,0,0,0,8.45,1.26h83.3a29,29,0,0,0,.76-58h-.72Z"/><path class="cls-4" d="M356.5,146.6a29,29,0,0,0-8.48,1.26,33.57,33.57,0,0,0-66.38,0,29,29,0,1,0-16.93,55.53,28.73,28.73,0,0,0,8.45,1.26h83.3a29,29,0,0,0,.76-58.05h-.72Z"/><ellipse id="Oval-4" class="cls-5" cx="315" cy="230" rx="39.94" ry="40.12"/><ellipse id="Oval-4-2" data-name="Oval-4" class="cls-6" cx="315" cy="230" rx="39.94" ry="40.12"/><path class="cls-7" d="M332.46,263.65c1.57-.9.47-3.61.67-5.41a10.37,10.37,0,0,0-3.54-9.56.83.83,0,0,1-.21-1.18c1.42-2.88,2.92-5.75,4.16-8.73,2-4.8,3.48-9.72,3.23-15.06-.18-3.72-2.63-7.15-6-8.05a5.24,5.24,0,0,0-6.06,2.07,12.14,12.14,0,0,0-1.48,2.53,42.71,42.71,0,0,0-2.5,8.84,58.39,58.39,0,0,0-1.14,13.58c0,1,0,2,0,2.93-1.51-.11-3-.3-4.56-.3s-3.1.21-4.67.32a4.51,4.51,0,0,1,0-.52A62.84,62.84,0,0,0,307.83,223a14.65,14.65,0,0,0-2.63-5.39,5.09,5.09,0,0,0-3.62-2.12c-4.28-.34-8.12,3.33-8.35,8a28.75,28.75,0,0,0,1.06,9.27,71.61,71.61,0,0,0,6.22,14.68c.24.45.45.84-.07,1.27-2.94,2.45-3.86,5.75-3.64,9.47.11,1.94.38,3.88.68,5.82C297.5,263.92,314.63,273.78,332.46,263.65Z"/><path class="cls-8" d="M315,268.34A38.34,38.34,0,1,0,276.83,230,38.25,38.25,0,0,0,315,268.34Z"/></svg>