<svg id="Layer_1" data-name="Layer 1" xmlns="http://www.w3.org/2000/svg" xmlns:xlink="http://www.w3.org/1999/xlink" viewBox="0 0 630 460"><defs><style>.cls-1,.cls-2,.cls-3,.cls-4,.cls-5,.cls-6,.cls-7,.cls-8,.cls-9{fill:none;stroke-miterlimit:10;}.cls-1,.cls-2,.cls-3,.cls-4,.cls-5,.cls-7,.cls-8,.cls-9{stroke-width:5px;}.cls-1{stroke:url(#linear-gradient);}.cls-2{stroke:url(#linear-gradient-2);}.cls-3{stroke:url(#linear-gradient-3);}.cls-4{stroke:url(#linear-gradient-4);}.cls-5{stroke:url(#linear-gradient-5);}.cls-6{stroke:#fff;stroke-width:15px;}.cls-7{stroke:url(#linear-gradient-6);}.cls-8{stroke:url(#linear-gradient-7);}.cls-9{stroke:url(#linear-gradient-8);}</style><linearGradient id="linear-gradient" x1="198.79" y1="231.28" x2="203.79" y2="231.28" gradientUnits="userSpaceOnUse"><stop offset="0" stop-color="#00abff"/><stop offset="0.27" stop-color="#00a9fc"/><stop offset="0.47" stop-color="#00a2f2"/><stop offset="0.66" stop-color="#0096e2"/><stop offset="0.83" stop-color="#0085cb"/><stop offset="0.99" stop-color="#006fad"/><stop offset="1" stop-color="#006eac"/></linearGradient><linearGradient id="linear-gradient-2" x1="198.79" y1="177.67" x2="431.21" y2="177.67" xlink:href="#linear-gradient"/><linearGradient id="linear-gradient-3" x1="198.81" y1="293.47" x2="431.19" y2="293.47" xlink:href="#linear-gradient"/><linearGradient id="linear-gradient-4" x1="426.21" y1="231.28" x2="431.21" y2="231.28" xlink:href="#linear-gradient"/><linearGradient id="linear-gradient-5" x1="258.05" y1="240.63" x2="413.4" y2="240.63" xlink:href="#linear-gradient"/><linearGradient id="linear-gradient-6" x1="334.61" y1="242.23" x2="429.15" y2="242.23" xlink:href="#linear-gradient"/><linearGradient id="linear-gradient-7" x1="328.57" y1="242.23" x2="493.49" y2="242.23" xlink:href="#linear-gradient"/><linearGradient id="linear-gradient-8" x1="104.82" y1="230" x2="525.18" y2="230" xlink:href="#linear-gradient"/></defs><title>Granular policies per stateful workload, reduces TCO of storage administration</title><line class="cls-1" x1="201.29" y1="180.24" x2="201.29" y2="282.31"/><ellipse class="cls-2" cx="315" cy="177.67" rx="113.71" ry="19.81"/><path class="cls-3" d="M201.31,282.31c0,10.95,50.92,19.83,113.69,19.83s113.69-8.88,113.69-19.83"/><line class="cls-4" x1="428.71" y1="180.24" x2="428.71" y2="282.31"/><polyline id="Path-Copy-50" class="cls-5" points="413.4 238.27 403.62 238.27 395.79 256.36 384.89 212.67 374.82 267.48 366.16 226.29 359.17 247.45 355.82 240.5 305.5 240.5 269.63 240.5 258.05 240.5"/><path class="cls-6" d="M426.64,243.25a44.78,44.78,0,1,0-5.37,20.23,41.08,41.08,0,0,0,1.88-4A44.54,44.54,0,0,0,426.64,243.25Z"/><path class="cls-6" d="M484.63,267.57l-52.09-21.85a50.83,50.83,0,1,0-5.7,20.09l49.78,20.87a10.36,10.36,0,0,0,8-19.11Zm-120,15.93a44.81,44.81,0,1,1,58.57-24,41.08,41.08,0,0,1-1.88,4A44.73,44.73,0,0,1,364.58,283.5Z"/><path class="cls-6" d="M426.64,243.25a44.78,44.78,0,1,0-5.37,20.23,41.08,41.08,0,0,0,1.88-4A44.54,44.54,0,0,0,426.64,243.25Z"/><path class="cls-6" d="M484.63,267.57l-52.09-21.85a50.83,50.83,0,1,0-5.7,20.09l49.78,20.87a10.36,10.36,0,0,0,8-19.11Zm-120,15.93a44.81,44.81,0,1,1,58.57-24,41.08,41.08,0,0,1-1.88,4A44.73,44.73,0,0,1,364.58,283.5Z"/><path class="cls-7" d="M426.64,243.25a44.78,44.78,0,1,0-5.37,20.23,41.08,41.08,0,0,0,1.88-4A44.54,44.54,0,0,0,426.64,243.25Z"/><path class="cls-8" d="M484.63,267.57l-52.09-21.85a50.83,50.83,0,1,0-5.7,20.09l49.78,20.87a10.36,10.36,0,0,0,8-19.11Zm-120,15.93a44.81,44.81,0,1,1,58.57-24,41.08,41.08,0,0,1-1.88,4A44.73,44.73,0,0,1,364.58,283.5Z"/><circle class="cls-9" cx="315" cy="230" r="207.68"/></svg>