<svg id="Layer_1" data-name="Layer 1" xmlns="http://www.w3.org/2000/svg" xmlns:xlink="http://www.w3.org/1999/xlink" viewBox="0 0 630 460"><defs><style>.cls-1,.cls-11,.cls-12,.cls-13,.cls-14,.cls-4,.cls-5{fill:none;}.cls-1,.cls-12,.cls-13,.cls-14,.cls-3,.cls-4,.cls-5{stroke-miterlimit:10;}.cls-1,.cls-12,.cls-13,.cls-14,.cls-4,.cls-5{stroke-width:5px;}.cls-1{stroke:url(#linear-gradient);}.cls-2{fill:url(#linear-gradient-2);}.cls-3{stroke:#fff;stroke-width:15px;fill:url(#linear-gradient-3);}.cls-4{stroke:url(#linear-gradient-4);}.cls-5{stroke:url(#linear-gradient-5);}.cls-6{font-size:37.14px;fill:#29abe2;font-family:Helvetica;}.cls-7{letter-spacing:-0.02em;}.cls-8{fill:url(#linear-gradient-6);}.cls-9{fill:url(#linear-gradient-7);}.cls-10{fill:url(#linear-gradient-8);}.cls-12{stroke:url(#linear-gradient-9);}.cls-13{stroke:url(#linear-gradient-10);}.cls-14{stroke:#39b54a;}</style><linearGradient id="linear-gradient" x1="104.82" y1="232.39" x2="525.18" y2="232.39" gradientTransform="matrix(1, 0, 0, -1, 0, 462.39)" gradientUnits="userSpaceOnUse"><stop offset="0" stop-color="#00abff"/><stop offset="0.27" stop-color="#00a9fc"/><stop offset="0.47" stop-color="#00a2f2"/><stop offset="0.66" stop-color="#0096e2"/><stop offset="0.83" stop-color="#0085cb"/><stop offset="0.99" stop-color="#006fad"/><stop offset="1" stop-color="#006eac"/></linearGradient><linearGradient id="linear-gradient-2" x1="279.52" y1="243.33" x2="363.98" y2="243.33" xlink:href="#linear-gradient"/><linearGradient id="linear-gradient-3" x1="106.21" y1="-7632.72" x2="184.24" y2="-7632.72" gradientTransform="matrix(-0.99, 0.11, 0.11, 0.99, 1393.18, 7866.99)" xlink:href="#linear-gradient"/><linearGradient id="linear-gradient-4" x1="245.11" y1="213.12" x2="390.65" y2="213.12" gradientTransform="matrix(1, 0, 0, 1, 0, 0)" xlink:href="#linear-gradient"/><linearGradient id="linear-gradient-5" x1="245.96" y1="104.9" x2="391.5" y2="104.9" gradientTransform="matrix(1, 0, 0, 1, 0, 0)" xlink:href="#linear-gradient"/><linearGradient id="linear-gradient-6" x1="162.95" y1="141.34" x2="247.41" y2="141.34" xlink:href="#linear-gradient"/><linearGradient id="linear-gradient-7" x1="279.23" y1="141.91" x2="363.69" y2="141.91" xlink:href="#linear-gradient"/><linearGradient id="linear-gradient-8" x1="389.23" y1="144.56" x2="473.69" y2="144.56" xlink:href="#linear-gradient"/><linearGradient id="linear-gradient-9" x1="284.19" y1="318.69" x2="358.25" y2="318.69" gradientTransform="matrix(1.01, -0.04, 0.02, 1.01, -9.33, 11.91)" xlink:href="#linear-gradient"/><linearGradient id="linear-gradient-10" x1="297.89" y1="252.37" x2="371.94" y2="252.37" gradientTransform="matrix(-0.08, 0.98, -0.98, -0.05, 599.44, 6.9)" xlink:href="#linear-gradient"/></defs><title>b-ha</title><circle class="cls-1" cx="315" cy="230" r="207.68"/><path class="cls-2" d="M364,200c0-5.93-18.1-7.88-30.71-8.52-5.64-.28-10.19-.31-11.52-.31h-3.89c-10.82.21-38.34,1.48-38.34,8.78a3.12,3.12,0,0,0,.16.92h-.16V240h.63c2,2.83,8.86,4.52,16.44,5.54h0A213.47,213.47,0,0,0,321.73,247c4,0,36.67-.22,41.6-7H364v-39.1h-.16A2.72,2.72,0,0,0,364,200Zm-44.3-5.26h2.07c4.15,0,8,.1,11.52.29,16.12.84,25.61,3.35,27.05,5-1.76,2-15.47,5.27-38.57,5.27S284.94,202,283.18,200C284.89,198.06,297.83,194.92,319.68,194.72Zm-36.59,43.5v0Zm77.32,0h0v0Zm0-.14c-1.13,1.85-13.85,5.41-38.66,5.41-7,0-13.13-.3-18.33-.77-12.4-1.14-19.49-3.26-20.33-4.64v-34c9.54,4.64,35.15,4.8,38.66,4.8s29.12-.16,38.66-4.8Z"/><path class="cls-3" d="M383.07,299.79a59.09,59.09,0,0,0,68.89,6L450.31,303a55.86,55.86,0,0,1-64.47-5.14l8.35-5.69-22.54-10.87,1.86,24.95Z"/><rect class="cls-4" x="247.61" y="165.62" width="140.54" height="95"/><rect class="cls-5" x="248.46" y="57.39" width="140.54" height="95"/><text class="cls-6" transform="translate(273 115.53) scale(1.4 1)">AP<tspan class="cls-7" x="49.54" y="0">P</tspan></text><path class="cls-8" d="M247.41,302c0-5.93-18.1-7.88-30.71-8.52-5.64-.28-10.19-.31-11.52-.31h-3.89c-10.82.21-38.34,1.48-38.34,8.78a3.23,3.23,0,0,0,.16.92H163v39.1h.63c2,2.83,8.86,4.52,16.44,5.54h0A215.64,215.64,0,0,0,205.16,349c4,0,36.67-.22,41.6-7h.63v-39.1h-.16A2.83,2.83,0,0,0,247.41,302Zm-44.3-5.26h2.07c4.15,0,8,.1,11.52.29,16.12.84,25.61,3.35,27.05,5-1.76,2-15.47,5.27-38.57,5.27S168.37,304,166.61,302C168.32,300.05,181.26,296.91,203.11,296.71Zm-36.59,43.5v0Zm77.32,0h0v0Zm0-.14c-1.13,1.85-13.85,5.41-38.66,5.41-7,0-13.13-.3-18.33-.77-12.4-1.14-19.49-3.26-20.33-4.64v-34c9.54,4.64,35.15,4.8,38.66,4.8s29.12-.16,38.66-4.8Z"/><path class="cls-9" d="M363.69,301.4c0-5.93-18.1-7.88-30.71-8.52-5.64-.28-10.19-.31-11.52-.31h-3.89c-10.82.21-38.34,1.48-38.34,8.78a2.66,2.66,0,0,0,.16.92h-.16v39.1h.63c2,2.83,8.86,4.52,16.44,5.54h0a215.51,215.51,0,0,0,25.14,1.49c4,0,36.67-.22,41.6-7h.63V302.3h-.16A2.83,2.83,0,0,0,363.69,301.4Zm-44.3-5.26h2.07c4.15,0,8,.1,11.52.29,16.12.84,25.61,3.35,27,5-1.76,2-15.47,5.27-38.57,5.27s-36.81-3.29-38.57-5.27C284.6,299.48,297.54,296.34,319.39,296.14Zm-36.59,43.5v0Zm77.32,0h0v0Zm0-.14c-1.13,1.85-13.85,5.41-38.66,5.41-7,0-13.13-.3-18.33-.77-12.4-1.14-19.49-3.26-20.33-4.64v-34c9.54,4.64,35.15,4.8,38.66,4.8s29.12-.16,38.66-4.8Z"/><path class="cls-10" d="M473.69,298.74c0-5.93-18.1-7.88-30.71-8.52-5.64-.28-10.19-.31-11.52-.31h-3.89c-10.82.21-38.34,1.48-38.34,8.78a3.12,3.12,0,0,0,.16.92h-.16v39.1h.63c2,2.83,8.86,4.52,16.44,5.54h0a213.47,213.47,0,0,0,25.14,1.49c4,0,36.67-.22,41.6-7h.63v-39.1h-.16A2.72,2.72,0,0,0,473.69,298.74Zm-44.3-5.26h2.07c4.15,0,8,.1,11.52.29,16.12.84,25.61,3.35,27,5-1.76,2-15.47,5.27-38.57,5.27s-36.81-3.29-38.57-5.27C394.6,296.82,407.54,293.68,429.39,293.48ZM392.8,337v0Zm77.32,0h0v0Zm0-.14c-1.13,1.85-13.85,5.41-38.66,5.41-7,0-13.13-.3-18.33-.77-12.4-1.14-19.49-3.26-20.33-4.64v-34c9.54,4.64,35.15,4.8,38.66,4.8s29.12-.16,38.66-4.8Z"/><line class="cls-11" x1="277.11" y1="283.43" x2="351.65" y2="354.87"/><line class="cls-12" x1="356.5" y1="284.18" x2="286.94" y2="356.57"/><line class="cls-13" x1="354.44" y1="358.74" x2="292.27" y2="285.67"/><line class="cls-14" x1="151.62" y1="241.48" x2="121.13" y2="204.76"/><line class="cls-14" x1="236.92" y1="165.44" x2="151.96" y2="238.71"/></svg>