<svg id="Layer_1" data-name="Layer 1" xmlns="http://www.w3.org/2000/svg" xmlns:xlink="http://www.w3.org/1999/xlink" viewBox="0 0 630 460"><defs><style>.cls-1,.cls-6,.cls-7{fill:none;}.cls-1,.cls-11,.cls-12,.cls-13,.cls-14,.cls-6,.cls-7{stroke-miterlimit:10;}.cls-1,.cls-11,.cls-6,.cls-7{stroke-width:5px;}.cls-1{stroke:url(#linear-gradient);}.cls-2{fill:url(#linear-gradient-2);}.cls-3{fill:url(#linear-gradient-3);}.cls-4{fill:url(#linear-gradient-4);}.cls-5{fill:url(#linear-gradient-5);}.cls-6{stroke:url(#linear-gradient-6);}.cls-7{stroke:url(#linear-gradient-7);}.cls-8{fill:url(#linear-gradient-8);}.cls-9{fill:url(#linear-gradient-9);}.cls-10{fill:url(#linear-gradient-10);}.cls-11,.cls-12,.cls-13,.cls-14{fill:#fff;}.cls-11,.cls-13{stroke:#fff;}.cls-12{stroke-width:2px;stroke:url(#linear-gradient-11);}.cls-13{stroke-width:15px;}.cls-14{stroke-linecap:round;stroke-width:3px;stroke:url(#linear-gradient-12);}</style><linearGradient id="linear-gradient" x1="104.82" y1="230" x2="525.18" y2="230" gradientUnits="userSpaceOnUse"><stop offset="0" stop-color="#00abff"/><stop offset="0.27" stop-color="#00a9fc"/><stop offset="0.47" stop-color="#00a2f2"/><stop offset="0.66" stop-color="#0096e2"/><stop offset="0.83" stop-color="#0085cb"/><stop offset="0.99" stop-color="#006fad"/><stop offset="1" stop-color="#006eac"/></linearGradient><linearGradient id="linear-gradient-2" x1="292.78" y1="217.14" x2="347.88" y2="217.14" xlink:href="#linear-gradient"/><linearGradient id="linear-gradient-3" x1="187.45" y1="301.16" x2="260.28" y2="301.16" xlink:href="#linear-gradient"/><linearGradient id="linear-gradient-4" x1="278.58" y1="301.16" x2="351.42" y2="301.16" xlink:href="#linear-gradient"/><linearGradient id="linear-gradient-5" x1="369.72" y1="301.16" x2="442.55" y2="301.16" xlink:href="#linear-gradient"/><linearGradient id="linear-gradient-6" x1="254.1" y1="45.67" x2="386.56" y2="45.67" gradientTransform="translate(0 171.47)" xlink:href="#linear-gradient"/><linearGradient id="linear-gradient-7" x1="254.1" y1="-43.26" x2="386.56" y2="-43.26" gradientTransform="translate(0 171.47)" xlink:href="#linear-gradient"/><linearGradient id="linear-gradient-8" x1="289.31" y1="128.21" x2="310.6" y2="128.21" xlink:href="#linear-gradient"/><linearGradient id="linear-gradient-9" x1="313.57" y1="128.21" x2="330.52" y2="128.21" xlink:href="#linear-gradient"/><linearGradient id="linear-gradient-10" x1="334.39" y1="128.21" x2="351.35" y2="128.21" xlink:href="#linear-gradient"/><linearGradient id="linear-gradient-11" x1="292.04" y1="300.84" x2="338.03" y2="300.84" xlink:href="#linear-gradient"/><linearGradient id="linear-gradient-12" x1="236.48" y1="217.19" x2="279.55" y2="217.19" xlink:href="#linear-gradient"/></defs><title>High availability</title><circle class="cls-1" cx="315" cy="230" r="207.68"/><path class="cls-2" d="M320.36,206.58c-2,0-3.93,0-5.74-.12v2.71c2.84.12,5,.13,5.74.13s2.45,0,4.85-.1v-2.71C323.67,206.58,322,206.58,320.36,206.58Zm27.52-4c0-5.07-14.68-6.34-22.7-6.65-2.39-.09-4.2-.1-4.86-.1-1.84,0-12.9.08-20.43,1.93-4.07,1-7.11,2.54-7.11,4.82a2.75,2.75,0,0,0,.1.7h-.1v29.91h.42c1,1.55,3.51,2.65,6.7,3.39a81.46,81.46,0,0,0,14.68,1.79c2.82.14,5,.15,5.72.15s2.45,0,4.86-.11a90.47,90.47,0,0,0,14.68-1.62c3.59-.8,6.53-1.95,7.55-3.64h.42V203.26h-.1a2.78,2.78,0,0,0,.12-.7Zm-48-2a87.23,87.23,0,0,1,20.44-2c1.69,0,3.3,0,4.85.09,12.14.46,19.3,2.59,20.33,3.94-.49.63-2.4,1.48-5.65,2.26a80.48,80.48,0,0,1-14.68,1.72c-1.52.06-3.15.09-4.85.09-2,0-3.93,0-5.73-.12a76.47,76.47,0,0,1-14.68-1.91c-2.7-.68-4.28-1.41-4.72-2,.46-.57,2.07-1.31,4.74-2Zm-4.78,31.24Zm50.43,0Zm0-.11c-.33.63-2.26,1.55-5.65,2.35a80.47,80.47,0,0,1-14.68,1.71c-1.53,0-3.15.09-4.85.09-2,0-3.93,0-5.73-.13A76.47,76.47,0,0,1,300,233.79c-2.83-.72-4.51-1.51-4.77-2.11V205.63a18.84,18.84,0,0,0,4.77,1.75,82.48,82.48,0,0,0,14.68,1.79c2.83.13,5,.14,5.73.14s2.45,0,4.85-.1a89.38,89.38,0,0,0,14.68-1.63,20.91,20.91,0,0,0,5.65-2Z"/><path class="cls-3" d="M223.9,287.19c-2.67,0-5.19,0-7.58-.16v3.58c3.75.16,6.61.18,7.58.18s3.24,0,6.42-.13v-3.59C228.28,287.19,226.13,287.19,223.9,287.19Zm36.38-5.33c0-6.7-19.4-8.37-30-8.79-3.17-.12-5.56-.13-6.42-.13-2.43,0-17.06.1-27,2.55-5.37,1.31-9.39,3.36-9.39,6.37a3.22,3.22,0,0,0,.13.93h-.13v39.54H188c1.27,2.05,4.64,3.51,8.85,4.48a107.48,107.48,0,0,0,19.41,2.37c3.73.18,6.61.2,7.57.2s3.24,0,6.42-.15a119.35,119.35,0,0,0,19.4-2.14c4.75-1.06,8.65-2.58,10-4.82h.55V282.8h-.13a3.62,3.62,0,0,0,.16-.92Zm-63.43-2.64a115.23,115.23,0,0,1,27-2.69c2.24,0,4.38,0,6.42.12,16.05.62,25.51,3.44,26.87,5.21-.64.84-3.16,2-7.46,3a106.48,106.48,0,0,1-19.41,2.28c-2,.08-4.16.12-6.42.12-2.67,0-5.19,0-7.56-.16a100.69,100.69,0,0,1-19.41-2.53c-3.57-.89-5.66-1.86-6.24-2.64.61-.76,2.73-1.73,6.27-2.64Zm-6.31,41.31Zm66.67,0Zm0-.15c-.44.83-3,2-7.47,3.1a105.48,105.48,0,0,1-19.4,2.26c-2,.07-4.17.12-6.42.12-2.67,0-5.2,0-7.57-.17a100.78,100.78,0,0,1-19.41-2.52c-3.74-1-6-2-6.31-2.79V285.94a24.89,24.89,0,0,0,6.31,2.31,108.37,108.37,0,0,0,19.41,2.36c3.73.18,6.61.19,7.57.19s3.24,0,6.42-.13a119.37,119.37,0,0,0,19.4-2.15,27.92,27.92,0,0,0,7.47-2.58Z"/><path class="cls-4" d="M315,287.19c-2.67,0-5.2,0-7.59-.16v3.58c3.75.16,6.62.18,7.59.18s3.24,0,6.42-.13v-3.59C319.41,287.19,317.26,287.19,315,287.19Zm36.38-5.33c0-6.7-19.41-8.37-30-8.79-3.16-.12-5.55-.13-6.42-.13-2.43,0-17.06.1-27,2.55-5.37,1.31-9.39,3.36-9.39,6.37a3.22,3.22,0,0,0,.14.93h-.14v39.54h.56c1.26,2.05,4.64,3.51,8.85,4.48a107.38,107.38,0,0,0,19.4,2.37c3.74.18,6.62.2,7.57.2s3.24,0,6.42-.15a119.35,119.35,0,0,0,19.41-2.14c4.74-1.06,8.64-2.58,10-4.82h.56V282.8h-.14a4.14,4.14,0,0,0,.17-.92ZM288,279.22a115.23,115.23,0,0,1,27-2.69c2.24,0,4.37,0,6.42.12,16,.62,25.51,3.44,26.87,5.21-.65.84-3.17,2-7.47,3a106.37,106.37,0,0,1-19.4,2.28c-2,.08-4.17.12-6.42.12-2.67,0-5.2,0-7.57-.16A100.69,100.69,0,0,1,288,284.56c-3.56-.89-5.65-1.86-6.24-2.64.62-.76,2.73-1.73,6.27-2.64Zm-6.32,41.31Zm66.67,0Zm0-.15c-.43.83-3,2-7.46,3.1a105.58,105.58,0,0,1-19.41,2.26c-2,.07-4.16.12-6.42.12-2.67,0-5.19,0-7.57-.17a100.68,100.68,0,0,1-19.4-2.52c-3.75-1-6-2-6.32-2.79V285.94a25,25,0,0,0,6.32,2.31,108.26,108.26,0,0,0,19.4,2.36c3.74.18,6.62.19,7.57.19s3.24,0,6.42-.13a119.37,119.37,0,0,0,19.41-2.15,27.73,27.73,0,0,0,7.46-2.58Z"/><path class="cls-5" d="M406.17,287.19c-2.67,0-5.19,0-7.58-.16v3.58c3.74.16,6.61.18,7.58.18s3.24,0,6.42-.13v-3.59C410.55,287.19,408.4,287.19,406.17,287.19Zm36.38-5.33c0-6.7-19.41-8.37-30-8.79-3.17-.12-5.56-.13-6.42-.13-2.44,0-17.07.1-27,2.55-5.38,1.31-9.39,3.36-9.39,6.37a3.22,3.22,0,0,0,.13.93h-.13v39.54h.55c1.27,2.05,4.64,3.51,8.85,4.48a107.48,107.48,0,0,0,19.41,2.37c3.73.18,6.61.2,7.57.2s3.24,0,6.42-.15a119.35,119.35,0,0,0,19.4-2.14c4.75-1.06,8.65-2.58,10-4.82h.55V282.8h-.13a4.13,4.13,0,0,0,.16-.92Zm-63.43-2.64a115.23,115.23,0,0,1,27-2.69c2.24,0,4.38,0,6.42.12,16.05.62,25.51,3.44,26.87,5.21-.64.84-3.16,2-7.46,3a106.48,106.48,0,0,1-19.41,2.28c-2,.08-4.16.12-6.42.12-2.67,0-5.19,0-7.57-.16a100.69,100.69,0,0,1-19.4-2.53c-3.57-.89-5.66-1.86-6.24-2.64.61-.76,2.73-1.73,6.27-2.64Zm-6.31,41.31Zm66.67,0Zm0-.15c-.44.83-3,2-7.47,3.1a105.48,105.48,0,0,1-19.4,2.26c-2,.07-4.17.12-6.42.12-2.68,0-5.2,0-7.57-.17a100.68,100.68,0,0,1-19.41-2.52c-3.75-1-6-2-6.31-2.79V285.94a24.89,24.89,0,0,0,6.31,2.31,108.37,108.37,0,0,0,19.41,2.36c3.73.18,6.61.19,7.57.19s3.24,0,6.42-.13a119.37,119.37,0,0,0,19.4-2.15,27.92,27.92,0,0,0,7.47-2.58Z"/><rect class="cls-6" x="256.6" y="183.87" width="127.47" height="66.54" rx="4.06"/><rect class="cls-7" x="256.6" y="94.94" width="127.47" height="66.54" rx="4.06"/><path class="cls-8" d="M297.34,117h5.31l8,22.47h-5.09L304,134.83h-8.27l-1.52,4.62h-4.92ZM297,131h5.75l-2.84-8.85Z"/><path class="cls-9" d="M328.54,129.72a8.53,8.53,0,0,1-5.63,1.65h-4.68v8.08h-4.66V117h9.64a7.81,7.81,0,0,1,5.32,1.73q2,1.74,2,5.39Q330.52,128.07,328.54,129.72ZM325,121.63a3.77,3.77,0,0,0-2.5-.75h-4.23v6.62h4.23a3.58,3.58,0,0,0,2.5-.81,3.29,3.29,0,0,0,.89-2.56A3.07,3.07,0,0,0,325,121.63Z"/><path class="cls-10" d="M349.37,129.72a8.55,8.55,0,0,1-5.64,1.65h-4.67v8.08h-4.67V117H344a7.81,7.81,0,0,1,5.32,1.73c1.32,1.16,2,3,2,5.39Q351.35,128.07,349.37,129.72Zm-3.58-8.09a3.79,3.79,0,0,0-2.5-.75h-4.23v6.62h4.23a3.6,3.6,0,0,0,2.5-.81,3.33,3.33,0,0,0,.89-2.56A3.1,3.1,0,0,0,345.79,121.63Z"/><polygon class="cls-11" points="326.65 279.25 315.03 290.88 303.41 279.26 293.45 289.22 305.07 300.84 293.45 312.46 303.41 322.42 315.03 310.8 326.65 322.42 336.62 312.46 324.99 300.84 336.62 289.22 326.65 279.25"/><polygon class="cls-12" points="326.65 279.25 315.03 290.88 303.41 279.26 293.45 289.22 305.07 300.84 293.45 312.46 303.41 322.42 315.03 310.8 326.65 322.42 336.62 312.46 324.99 300.84 336.62 289.22 326.65 279.25"/><polygon class="cls-13" points="253.2 217.61 246.26 210.07 238.6 217.74 238.6 217.74 253.04 232.18 277.44 207.78 271.86 202.11 253.2 217.61"/><path class="cls-14" d="M253.2,217.61l-6.94-7.54-7.65,7.67L253,232.18l24.4-24.4-5.58-5.67Z"/></svg>