<svg id="Layer_1" data-name="Layer 1" xmlns="http://www.w3.org/2000/svg" xmlns:xlink="http://www.w3.org/1999/xlink" viewBox="0 0 420.36 420.36"><defs><style>.cls-1,.cls-2,.cls-3,.cls-4,.cls-5,.cls-7,.cls-8{fill:none;}.cls-1,.cls-2,.cls-3,.cls-4,.cls-5,.cls-6,.cls-7,.cls-8{stroke-miterlimit:10;}.cls-1,.cls-2,.cls-3,.cls-4,.cls-7,.cls-8{stroke-width:5px;}.cls-1{stroke:url(#linear-gradient);}.cls-2{stroke:url(#linear-gradient-2);}.cls-3{stroke:url(#linear-gradient-3);}.cls-4{stroke:url(#linear-gradient-4);}.cls-5,.cls-6{stroke:#fff;stroke-width:15px;}.cls-5{stroke-linecap:round;}.cls-6{fill:url(#linear-gradient-5);}.cls-7{stroke:url(#linear-gradient-6);}.cls-8{stroke:url(#linear-gradient-7);}</style><linearGradient id="linear-gradient" x1="67.86" y1="212.26" x2="72.86" y2="212.26" gradientUnits="userSpaceOnUse"><stop offset="0" stop-color="#00abff"/><stop offset="0.23" stop-color="#00a9fc"/><stop offset="0.41" stop-color="#00a2f2"/><stop offset="0.56" stop-color="#0096e2"/><stop offset="0.71" stop-color="#0085cb"/><stop offset="0.85" stop-color="#0070ae"/><stop offset="0.98" stop-color="#00568a"/><stop offset="1" stop-color="#005183"/></linearGradient><linearGradient id="linear-gradient-2" x1="67.86" y1="158.66" x2="273.76" y2="158.66" gradientUnits="userSpaceOnUse"><stop offset="0" stop-color="#00abff"/><stop offset="0.27" stop-color="#00a9fc"/><stop offset="0.47" stop-color="#00a2f2"/><stop offset="0.66" stop-color="#0096e2"/><stop offset="0.83" stop-color="#0085cb"/><stop offset="0.99" stop-color="#006fad"/><stop offset="1" stop-color="#006eac"/></linearGradient><linearGradient id="linear-gradient-3" x1="67.88" y1="274.46" x2="300.26" y2="274.46" xlink:href="#linear-gradient"/><linearGradient id="linear-gradient-4" x1="0" y1="210.18" x2="420.36" y2="210.18" xlink:href="#linear-gradient-2"/><linearGradient id="linear-gradient-5" x1="292.99" y1="196.12" x2="321.9" y2="196.12" xlink:href="#linear-gradient"/><linearGradient id="linear-gradient-6" x1="237.82" y1="211.18" x2="377.07" y2="211.18" xlink:href="#linear-gradient-2"/><linearGradient id="linear-gradient-7" x1="290.36" y1="196.12" x2="324.4" y2="196.12" xlink:href="#linear-gradient-2"/></defs><title>Reduced storage TCO upto 50%</title><line class="cls-1" x1="70.36" y1="161.23" x2="70.36" y2="263.3"/><path class="cls-2" d="M273.23,171c-20.83,4.58-53,7.52-89.16,7.52-62.8,0-113.71-8.87-113.71-19.81s50.91-19.82,113.71-19.82c36.14,0,68.33,2.94,89.16,7.52"/><path class="cls-3" d="M70.38,263.3c0,10.94,50.91,19.83,113.69,19.83s113.69-8.89,113.69-19.83"/><circle class="cls-4" cx="210.18" cy="210.18" r="207.68"/><polygon class="cls-5" points="342.43 175.08 342.43 131.71 272.46 131.71 272.46 175.08 242.15 175.08 307.46 288.16 372.74 175.08 342.43 175.08"/><path class="cls-6" d="M321.89,210.48q.17,7.5-4.22,11.66a12.57,12.57,0,0,1-6.52,3.15v4.07h-7.41V225.1a12.68,12.68,0,0,1-8.05-6.2,21.8,21.8,0,0,1-2.7-9.73l8.36-.6q.54,5.15,2.64,7.31a4.43,4.43,0,0,0,3.6,1.62,5.41,5.41,0,0,0,4.57-2.83,6.79,6.79,0,0,0,.9-3.81c0-2.38-1.09-4.77-3.25-7.19q-2.64-2.44-7.82-7.34a32.94,32.94,0,0,1-5.82-7,17.26,17.26,0,0,1-2.26-8.65,16.2,16.2,0,0,1,2.13-8.2,11.65,11.65,0,0,1,7.7-5.82v-3.75h7.41v3.75a12.22,12.22,0,0,1,5.82,3,14.62,14.62,0,0,1,4.54,9.95l-8.42,1.53a10.35,10.35,0,0,0-2-5.6,4.08,4.08,0,0,0-3.4-1.4A4,4,0,0,0,304,176.2a8.19,8.19,0,0,0-1,4.26q0,4,3.4,8.14a33.6,33.6,0,0,0,3.84,3.66,53.7,53.7,0,0,1,4.07,3.56,31,31,0,0,1,5,6.39A18,18,0,0,1,321.89,210.48Z"/><polygon class="cls-7" points="342.43 175.08 342.43 131.71 272.46 131.71 272.46 175.08 242.15 175.08 307.46 288.16 372.74 175.08 342.43 175.08"/><path class="cls-8" d="M321.89,210.48q.17,7.5-4.22,11.66a12.57,12.57,0,0,1-6.52,3.15v4.07h-7.41V225.1a12.68,12.68,0,0,1-8.05-6.2,21.8,21.8,0,0,1-2.7-9.73l8.36-.6q.54,5.15,2.64,7.31a4.43,4.43,0,0,0,3.6,1.62,5.41,5.41,0,0,0,4.57-2.83,6.79,6.79,0,0,0,.9-3.81c0-2.38-1.09-4.77-3.25-7.19q-2.64-2.44-7.82-7.34a32.94,32.94,0,0,1-5.82-7,17.26,17.26,0,0,1-2.26-8.65,16.2,16.2,0,0,1,2.13-8.2,11.65,11.65,0,0,1,7.7-5.82v-3.75h7.41v3.75a12.22,12.22,0,0,1,5.82,3,14.62,14.62,0,0,1,4.54,9.95l-8.42,1.53a10.35,10.35,0,0,0-2-5.6,4.08,4.08,0,0,0-3.4-1.4A4,4,0,0,0,304,176.2a8.19,8.19,0,0,0-1,4.26q0,4,3.4,8.14a33.6,33.6,0,0,0,3.84,3.66,53.7,53.7,0,0,1,4.07,3.56,31,31,0,0,1,5,6.39A18,18,0,0,1,321.89,210.48Z"/></svg>