<svg id="Layer_1" data-name="Layer 1" xmlns="http://www.w3.org/2000/svg" xmlns:xlink="http://www.w3.org/1999/xlink" viewBox="0 0 630 460"><defs><style>.cls-1,.cls-2,.cls-3,.cls-4,.cls-5,.cls-7,.cls-8{fill:none;}.cls-1,.cls-2,.cls-3,.cls-4,.cls-5,.cls-6,.cls-7,.cls-8{stroke-miterlimit:10;}.cls-1,.cls-2,.cls-3,.cls-4,.cls-7,.cls-8{stroke-width:5px;}.cls-1{stroke:url(#linear-gradient);}.cls-2{stroke:url(#linear-gradient-2);}.cls-3{stroke:url(#linear-gradient-3);}.cls-4{stroke:url(#linear-gradient-4);}.cls-5,.cls-6{stroke:#fff;stroke-width:15px;}.cls-5{stroke-linecap:round;}.cls-6{fill:url(#linear-gradient-5);}.cls-7{stroke:url(#linear-gradient-6);}.cls-8{stroke:url(#linear-gradient-7);}</style><linearGradient id="linear-gradient" x1="104.82" y1="230" x2="525.18" y2="230" gradientUnits="userSpaceOnUse"><stop offset="0" stop-color="#00abff"/><stop offset="0.27" stop-color="#00a9fc"/><stop offset="0.47" stop-color="#00a2f2"/><stop offset="0.66" stop-color="#0096e2"/><stop offset="0.83" stop-color="#0085cb"/><stop offset="0.99" stop-color="#006fad"/><stop offset="1" stop-color="#006eac"/></linearGradient><linearGradient id="linear-gradient-2" x1="198.8" y1="231.28" x2="203.8" y2="231.28" gradientUnits="userSpaceOnUse"><stop offset="0" stop-color="#00abff"/><stop offset="0.23" stop-color="#00a9fc"/><stop offset="0.41" stop-color="#00a2f2"/><stop offset="0.56" stop-color="#0096e2"/><stop offset="0.71" stop-color="#0085cb"/><stop offset="0.85" stop-color="#0070ae"/><stop offset="0.98" stop-color="#00568a"/><stop offset="1" stop-color="#005183"/></linearGradient><linearGradient id="linear-gradient-3" x1="198.8" y1="177.67" x2="404.71" y2="177.67" xlink:href="#linear-gradient"/><linearGradient id="linear-gradient-4" x1="198.82" y1="293.48" x2="431.2" y2="293.48" xlink:href="#linear-gradient-2"/><linearGradient id="linear-gradient-5" x1="424.15" y1="214.57" x2="449.65" y2="214.57" xlink:href="#linear-gradient-2"/><linearGradient id="linear-gradient-6" x1="374.96" y1="228.01" x2="498.84" y2="228.01" xlink:href="#linear-gradient"/><linearGradient id="linear-gradient-7" x1="421.51" y1="214.57" x2="452.15" y2="214.57" xlink:href="#linear-gradient"/></defs><title>Reduced storage TCO upto 50%</title><circle class="cls-1" cx="315" cy="230" r="207.68"/><line class="cls-2" x1="201.3" y1="180.24" x2="201.3" y2="282.31"/><path class="cls-3" d="M404.17,190c-20.83,4.58-53,7.52-89.16,7.52-62.8,0-113.71-8.87-113.71-19.81S252.21,157.86,315,157.86c36.14,0,68.33,2.94,89.16,7.52"/><path class="cls-4" d="M201.32,282.31c0,10.95,50.92,19.83,113.69,19.83s113.69-8.88,113.69-19.83"/><polygon class="cls-5" points="467.77 196.01 467.77 157.74 406.04 157.74 406.04 196.01 379.29 196.01 436.91 295.78 494.51 196.01 467.77 196.01"/><path class="cls-6" d="M449.65,227.24q.14,6.63-3.73,10.3a11.14,11.14,0,0,1-5.75,2.77v3.6h-6.54v-3.76a11.2,11.2,0,0,1-7.1-5.47,19.35,19.35,0,0,1-2.38-8.59l7.38-.53q.47,4.55,2.33,6.45a3.88,3.88,0,0,0,3.17,1.43,4.79,4.79,0,0,0,4-2.5,6,6,0,0,0,.78-3.36,9.59,9.59,0,0,0-2.86-6.34q-2.33-2.16-6.9-6.48a29.12,29.12,0,0,1-5.14-6.2,15.27,15.27,0,0,1-2-7.63,14.34,14.34,0,0,1,1.88-7.24,10.27,10.27,0,0,1,6.79-5.13v-3.32h6.54v3.32a10.63,10.63,0,0,1,5.13,2.61,12.94,12.94,0,0,1,4,8.78l-7.43,1.34a9.14,9.14,0,0,0-1.8-4.94,3.59,3.59,0,0,0-3-1.23,3.5,3.5,0,0,0-3.22,1.88,7.24,7.24,0,0,0-.9,3.76,11.46,11.46,0,0,0,3,7.18,29.74,29.74,0,0,0,3.39,3.23,45.8,45.8,0,0,1,3.59,3.14,27.72,27.72,0,0,1,4.38,5.64A15.9,15.9,0,0,1,449.65,227.24Z"/><polygon class="cls-7" points="467.77 196.01 467.77 157.74 406.04 157.74 406.04 196.01 379.29 196.01 436.91 295.78 494.51 196.01 467.77 196.01"/><path class="cls-8" d="M449.65,227.24q.14,6.63-3.73,10.3a11.14,11.14,0,0,1-5.75,2.77v3.6h-6.54v-3.76a11.2,11.2,0,0,1-7.1-5.47,19.35,19.35,0,0,1-2.38-8.59l7.38-.53q.47,4.55,2.33,6.45a3.88,3.88,0,0,0,3.17,1.43,4.79,4.79,0,0,0,4-2.5,6,6,0,0,0,.78-3.36,9.59,9.59,0,0,0-2.86-6.34q-2.33-2.16-6.9-6.48a29.12,29.12,0,0,1-5.14-6.2,15.27,15.27,0,0,1-2-7.63,14.34,14.34,0,0,1,1.88-7.24,10.27,10.27,0,0,1,6.79-5.13v-3.32h6.54v3.32a10.63,10.63,0,0,1,5.13,2.61,12.94,12.94,0,0,1,4,8.78l-7.43,1.34a9.14,9.14,0,0,0-1.8-4.94,3.59,3.59,0,0,0-3-1.23,3.5,3.5,0,0,0-3.22,1.88,7.24,7.24,0,0,0-.9,3.76,11.46,11.46,0,0,0,3,7.18,29.74,29.74,0,0,0,3.39,3.23,45.8,45.8,0,0,1,3.59,3.14,27.72,27.72,0,0,1,4.38,5.64A15.9,15.9,0,0,1,449.65,227.24Z"/></svg>