<svg id="Layer_1" data-name="Layer 1" xmlns="http://www.w3.org/2000/svg" xmlns:xlink="http://www.w3.org/1999/xlink" viewBox="0 0 630 460"><defs><style>.cls-1,.cls-2,.cls-3,.cls-4,.cls-5{fill:none;stroke-miterlimit:10;stroke-width:5px;}.cls-1{stroke:url(#linear-gradient);}.cls-2{stroke:url(#linear-gradient-2);}.cls-3{stroke:url(#linear-gradient-3);}.cls-4{stroke:url(#linear-gradient-4);}.cls-5{stroke:url(#linear-gradient-5);}.cls-6{fill:url(#linear-gradient-6);}.cls-7{fill:url(#linear-gradient-7);}</style><linearGradient id="linear-gradient" x1="104.82" y1="58.53" x2="525.18" y2="58.53" gradientTransform="translate(0 171.47)" gradientUnits="userSpaceOnUse"><stop offset="0" stop-color="#008d8a"/><stop offset="0.24" stop-color="#038f8b"/><stop offset="0.43" stop-color="#0d938d"/><stop offset="0.59" stop-color="#1d9c92"/><stop offset="0.74" stop-color="#34a798"/><stop offset="0.88" stop-color="#51b6a0"/><stop offset="1" stop-color="#6fc5a8"/></linearGradient><linearGradient id="linear-gradient-2" x1="154.23" y1="188.12" x2="352.76" y2="188.12" gradientUnits="userSpaceOnUse"><stop offset="0" stop-color="#008d8a"/><stop offset="0.24" stop-color="#038f8b"/><stop offset="0.43" stop-color="#0d938d"/><stop offset="0.59" stop-color="#1d9c92"/><stop offset="0.74" stop-color="#34a798"/><stop offset="0.88" stop-color="#51b6a0"/><stop offset="1" stop-color="#6fc5a8"/></linearGradient><linearGradient id="linear-gradient-3" x1="271.26" y1="240.92" x2="475.77" y2="240.92" xlink:href="#linear-gradient-2"/><linearGradient id="linear-gradient-4" x1="305.53" y1="160.72" x2="449.78" y2="160.72" xlink:href="#linear-gradient-2"/><linearGradient id="linear-gradient-5" x1="175.5" y1="304.33" x2="324.43" y2="304.33" xlink:href="#linear-gradient-2"/><linearGradient id="linear-gradient-6" x1="219.83" y1="196.84" x2="293.14" y2="196.84" xlink:href="#linear-gradient-2"/><linearGradient id="linear-gradient-7" x1="338.52" y1="253.97" x2="411.83" y2="253.97" xlink:href="#linear-gradient-2"/></defs><title>Backup and Restore</title><circle class="cls-1" cx="315" cy="230" r="207.68"/><path class="cls-2" d="M350.6,186.61a41,41,0,0,0-47.27-18.45,47.39,47.39,0,0,0-93.69,0,41,41,0,1,0-11.94,80.16h77.8"/><path class="cls-3" d="M432.3,219.18A40.92,40.92,0,0,0,420.36,221a47.39,47.39,0,0,0-93.69,0,41,41,0,1,0-11.94,80.16H432.3a41,41,0,0,0,0-81.94Z"/><path class="cls-4" d="M436.51,178.11a115.67,115.67,0,0,0-120.87-68.58,8.72,8.72,0,1,0,2.23,17.3,98.14,98.14,0,0,1,101,54.66l-8.33,1.59,23.62,27.34L446,176.3Z"/><path class="cls-5" d="M321.71,338.05a8.73,8.73,0,0,0-10.45-6.55,98.12,98.12,0,0,1-105.8-44.61l8.13-2.4-26.15-24.9-8.5,35.1,9.27-2.73a115.64,115.64,0,0,0,127,56.54A8.72,8.72,0,0,0,321.71,338.05Z"/><path class="cls-6" d="M293.14,180.55c0-3-3.56-4.94-11.9-6.4a152.41,152.41,0,0,0-24.76-1.79,152.28,152.28,0,0,0-24.75,1.79c-8.34,1.46-11.9,3.37-11.9,6.4a4,4,0,0,0,.09.78h-.09v33.33h.37c1.09,2.17,4.71,3.67,11.54,4.86a151.11,151.11,0,0,0,24.74,1.79,151.2,151.2,0,0,0,24.76-1.79c6.82-1.19,10.44-2.69,11.53-4.86h.37V181.33h-.09A4,4,0,0,0,293.14,180.55Zm-36.66-3.83c18,0,28.73,2.29,31.7,3.83-3,1.54-13.72,3.83-31.7,3.83s-28.72-2.29-31.7-3.83C227.76,179,238.51,176.72,256.48,176.72Zm-32.29,36.4V213s0,.07,0,.1ZM256.48,217c-19.55,0-30.55-2.71-32.29-4.21V185a41.35,41.35,0,0,0,7.54,1.91,152.28,152.28,0,0,0,24.75,1.79A152.32,152.32,0,0,0,281.24,187a41.35,41.35,0,0,0,7.54-1.91v27.7C287,214.24,276,217,256.48,217Zm32.3-3.92v.09h0S288.78,213.06,288.78,213Z"/><path class="cls-7" d="M411.83,237.68c0-3-3.56-4.94-11.9-6.4a172.07,172.07,0,0,0-49.51,0c-8.34,1.46-11.9,3.37-11.9,6.4a3.33,3.33,0,0,0,.09.78h-.09v33.33h.37c1.09,2.17,4.71,3.67,11.54,4.86a172,172,0,0,0,49.5,0c6.82-1.19,10.44-2.69,11.53-4.86h.37V238.46h-.09A4,4,0,0,0,411.83,237.68Zm-36.66-3.83c18,0,28.73,2.29,31.7,3.83-3,1.54-13.73,3.83-31.7,3.83s-28.72-2.29-31.7-3.83C346.45,236.14,357.2,233.85,375.17,233.85Zm-32.29,36.4v0Zm32.29,3.83c-19.55,0-30.55-2.71-32.29-4.21V242.16a39.76,39.76,0,0,0,7.54,1.91,171.13,171.13,0,0,0,49.51,0,40.64,40.64,0,0,0,7.54-1.9v27.7C405.73,271.37,394.72,274.08,375.17,274.08Zm32.3-3.91v.08h0S407.47,270.2,407.47,270.17Z"/></svg>