<svg id="Layer_1" data-name="Layer 1" xmlns="http://www.w3.org/2000/svg" xmlns:xlink="http://www.w3.org/1999/xlink" viewBox="0 0 420.36 420.36"><defs><style>.cls-1,.cls-2,.cls-3,.cls-4,.cls-5{fill:none;stroke-miterlimit:10;stroke-width:5px;}.cls-1{stroke:url(#linear-gradient);}.cls-2{stroke:url(#linear-gradient-2);}.cls-3{stroke:url(#linear-gradient-3);}.cls-4{stroke:url(#linear-gradient-4);}.cls-5{stroke:url(#linear-gradient-5);}.cls-6{fill:url(#linear-gradient-6);}.cls-7{fill:url(#linear-gradient-7);}</style><linearGradient id="linear-gradient" y1="210.18" x2="420.36" y2="210.18" gradientUnits="userSpaceOnUse"><stop offset="0" stop-color="#008d8a"/><stop offset="0.24" stop-color="#038f8b"/><stop offset="0.43" stop-color="#0d938d"/><stop offset="0.59" stop-color="#1d9c92"/><stop offset="0.74" stop-color="#34a798"/><stop offset="0.88" stop-color="#51b6a0"/><stop offset="1" stop-color="#6fc5a8"/></linearGradient><linearGradient id="linear-gradient-2" x1="26.2" y1="163.62" x2="253.16" y2="163.62" xlink:href="#linear-gradient"/><linearGradient id="linear-gradient-3" x1="160.4" y1="224.17" x2="394.15" y2="224.17" xlink:href="#linear-gradient"/><linearGradient id="linear-gradient-4" x1="199.69" y1="132.03" x2="364.17" y2="132.03" xlink:href="#linear-gradient"/><linearGradient id="linear-gradient-5" x1="50.72" y1="297.05" x2="220.63" y2="297.05" xlink:href="#linear-gradient"/><linearGradient id="linear-gradient-6" x1="101.05" y1="173.62" x2="185.11" y2="173.62" xlink:href="#linear-gradient"/><linearGradient id="linear-gradient-7" x1="237.14" y1="239.13" x2="321.21" y2="239.13" xlink:href="#linear-gradient"/></defs><title>Backup and Restore</title><circle class="cls-1" cx="210.18" cy="210.18" r="207.68"/><path class="cls-2" d="M251,161.89a47,47,0,0,0-54.21-21.16,54.34,54.34,0,0,0-107.43,0,47,47,0,1,0-13.69,91.92h89.21"/><path class="cls-3" d="M344.68,199.25a46.89,46.89,0,0,0-13.69,2,54.34,54.34,0,0,0-107.43,0,47,47,0,1,0-13.69,91.92H344.68a47,47,0,0,0,0-93.95Z"/><path class="cls-4" d="M349.51,152.15a132.62,132.62,0,0,0-138.6-78.64,10,10,0,1,0,2.56,19.84A112.54,112.54,0,0,1,329.26,156l-9.55,1.83,27.08,31.34,13.6-39.12Z"/><path class="cls-5" d="M217.87,335.54a10,10,0,0,0-12-7.51A112.54,112.54,0,0,1,84.57,276.88l9.33-2.75-30-28.56-9.74,40.25,10.63-3.13a132.59,132.59,0,0,0,145.56,64.84A10,10,0,0,0,217.87,335.54Z"/><path class="cls-6" d="M185.11,155c0-3.48-4.08-5.67-13.64-7.34a174.67,174.67,0,0,0-28.39-2.05,174.45,174.45,0,0,0-28.38,2.05c-9.57,1.67-13.65,3.86-13.65,7.34a3.8,3.8,0,0,0,.11.89h-.11v38.22h.42c1.25,2.49,5.41,4.21,13.24,5.57a173.18,173.18,0,0,0,28.37,2.06,173.44,173.44,0,0,0,28.39-2.06c7.82-1.36,12-3.08,13.22-5.57h.42V155.84H185A3.8,3.8,0,0,0,185.11,155Zm-42-4.39c20.61,0,32.94,2.62,36.35,4.39-3.41,1.76-15.74,4.38-36.35,4.38s-32.93-2.62-36.35-4.38C110.15,153.18,122.48,150.56,143.08,150.56Zm-37,41.74v-.12s0,.07,0,.12Zm37,4.39c-22.42,0-35-3.11-37-4.84V160.09a46.83,46.83,0,0,0,8.65,2.19,173.33,173.33,0,0,0,28.38,2.05,173.55,173.55,0,0,0,28.39-2.05,45.91,45.91,0,0,0,8.64-2.19v31.76C178.12,193.58,165.5,196.69,143.08,196.69Zm37-4.5v.11h0Z"/><path class="cls-7" d="M321.21,220.45c0-3.47-4.08-5.66-13.65-7.33a173.23,173.23,0,0,0-28.38-2.06,173.44,173.44,0,0,0-28.39,2.06c-9.56,1.67-13.65,3.86-13.65,7.33a4.43,4.43,0,0,0,.11.9h-.11v38.22h.43c1.25,2.48,5.4,4.2,13.23,5.57a173.31,173.31,0,0,0,28.38,2.06,173.23,173.23,0,0,0,28.38-2.06c7.83-1.37,12-3.09,13.23-5.57h.42V221.35h-.11A3.82,3.82,0,0,0,321.21,220.45Zm-42-4.39c20.6,0,32.93,2.63,36.35,4.39-3.42,1.77-15.75,4.39-36.35,4.39s-32.94-2.62-36.35-4.39C246.24,218.69,258.57,216.06,279.18,216.06Zm-37,41.74v-.1a.38.38,0,0,1,0,.1Zm37,4.4c-22.42,0-35-3.11-37-4.84V225.6a47,47,0,0,0,8.65,2.19,174.67,174.67,0,0,0,28.39,2.05,174.45,174.45,0,0,0,28.38-2.05,46.83,46.83,0,0,0,8.65-2.19v31.76C314.21,259.09,301.59,262.2,279.18,262.2Zm37-4.49v.09h0S316.21,257.74,316.21,257.71Z"/></svg>