<svg id="Layer_1" data-name="Layer 1" xmlns="http://www.w3.org/2000/svg" xmlns:xlink="http://www.w3.org/1999/xlink" viewBox="0 0 420.36 420.36"><defs><style>.cls-1,.cls-15,.cls-16,.cls-17,.cls-19{fill:none;}.cls-2{clip-path:url(#clip-path);}.cls-3{clip-path:url(#clip-path-2);}.cls-4{clip-path:url(#clip-path-3);}.cls-5{clip-path:url(#clip-path-4);}.cls-6{clip-path:url(#clip-path-5);}.cls-7{clip-path:url(#clip-path-6);}.cls-8{clip-path:url(#clip-path-7);}.cls-9{clip-path:url(#clip-path-8);}.cls-10{clip-path:url(#clip-path-9);}.cls-11{clip-path:url(#clip-path-10);}.cls-12{fill:url(#linear-gradient);}.cls-13{fill:#ffeee6;}.cls-14{fill:#e6522c;}.cls-15,.cls-16,.cls-17,.cls-19{stroke-miterlimit:10;}.cls-15,.cls-16,.cls-19{stroke-width:5px;}.cls-15{stroke:url(#linear-gradient-2);}.cls-16{stroke:url(#linear-gradient-3);}.cls-17{stroke-width:4px;stroke:url(#linear-gradient-4);}.cls-18{fill:url(#linear-gradient-5);}.cls-19{stroke:url(#linear-gradient-6);}</style><clipPath id="clip-path"><rect class="cls-1" x="964.04" y="-90.48" width="132.93" height="55.39"/></clipPath><clipPath id="clip-path-2"><rect class="cls-1" x="964.04" y="-35.09" width="132.93" height="55.39"/></clipPath><clipPath id="clip-path-3"><rect class="cls-1" x="964.04" y="-145.86" width="132.93" height="55.39"/></clipPath><clipPath id="clip-path-4"><rect class="cls-1" x="964.04" y="-201.25" width="132.93" height="55.39"/></clipPath><clipPath id="clip-path-5"><rect class="cls-1" x="964.04" y="-294.3" width="132.93" height="93.05"/></clipPath><clipPath id="clip-path-6"><rect class="cls-1" x="964.04" y="-349.69" width="132.93" height="55.39"/></clipPath><clipPath id="clip-path-7"><rect class="cls-1" x="964.04" y="-405.08" width="132.93" height="55.39"/></clipPath><clipPath id="clip-path-8"><rect class="cls-1" x="964.04" y="-460.47" width="132.93" height="55.39"/></clipPath><clipPath id="clip-path-9"><rect class="cls-1" x="964.04" y="-515.85" width="132.93" height="55.39"/></clipPath><clipPath id="clip-path-10"><rect class="cls-1" x="964.04" y="-571.24" width="132.93" height="55.39"/></clipPath><linearGradient id="linear-gradient" x1="42.8" y1="213.28" x2="181.3" y2="213.28" gradientUnits="userSpaceOnUse"><stop offset="0" stop-color="#008d8a"/><stop offset="0.24" stop-color="#038f8b"/><stop offset="0.43" stop-color="#0d938d"/><stop offset="0.59" stop-color="#1d9c92"/><stop offset="0.74" stop-color="#34a798"/><stop offset="0.88" stop-color="#51b6a0"/><stop offset="1" stop-color="#6fc5a8"/></linearGradient><linearGradient id="linear-gradient-2" x1="0" y1="210.18" x2="420.36" y2="210.18" xlink:href="#linear-gradient"/><linearGradient id="linear-gradient-3" x1="207.68" y1="210.18" x2="212.68" y2="210.18" xlink:href="#linear-gradient"/><linearGradient id="linear-gradient-4" x1="320.99" y1="210.28" x2="344.73" y2="210.28" xlink:href="#linear-gradient"/><linearGradient id="linear-gradient-5" x1="245.99" y1="210.3" x2="306.44" y2="210.3" xlink:href="#linear-gradient"/><linearGradient id="linear-gradient-6" x1="228.51" y1="222.38" x2="374.79" y2="222.38" xlink:href="#linear-gradient"/></defs><title>Prometheus metrics for workload tuning</title><path class="cls-12" d="M181.3,181.94c0-14.07-62.16-14.48-69.25-14.48s-69.25.41-69.25,14.48a4.72,4.72,0,0,0,.25,1.5H42.8v64.13h1c8.07,11.18,61.66,11.53,68.21,11.53s60.14-.35,68.21-11.53h1V183.44H181A4.73,4.73,0,0,0,181.3,181.94Zm-69.25-8.63c37.89,0,60.37,5.39,63.25,8.63-2.88,3.25-25.36,8.64-63.25,8.64s-60.37-5.39-63.25-8.64C51.68,178.7,74.16,173.31,112.05,173.31Zm-63.4,71.3v-.14s0,.08,0,.14Zm126.8,0h0a.41.41,0,0,1,0-.12Zm0-.24c-1.85,3-22.72,8.88-63.4,8.88-38.83,0-61.46-5.66-63.4-8.88V188.53c15.64,7.63,57.65,7.89,63.4,7.89s47.76-.26,63.4-7.88Z"/><circle class="cls-13" cx="112.05" cy="224.72" r="19.23"/><path class="cls-14" d="M133.32,224a21.28,21.28,0,1,1-21.23-21.38A21.06,21.06,0,0,1,133.32,224Zm-18.79-7.35a19.06,19.06,0,0,0-1.37-6.27c-.7-1.7-1.72-3.37-1-5.43a2.24,2.24,0,0,0-1.07.64,9.88,9.88,0,0,0-1.31,2.67c-.34,1.44-.33,3-.6,4.41a24.22,24.22,0,0,1-.89,2.82c-.57-2.09-.61-4.25-2.5-5.59-.26,1.52-.41,2.92-.75,4.27s-.89,2.58-1.3,3.9a8.64,8.64,0,0,0,1.06,7.69,3.26,3.26,0,0,1,.2.48l-6.08-1.32a1.71,1.71,0,0,0,.05.53c1,1.6,1.9,3.21,2.92,4.78.14.22.63.3,1,.3q9.25,0,18.52,0a1.64,1.64,0,0,0,1.2-.57c.9-1.29,1.7-2.64,2.51-4a4.25,4.25,0,0,0,.29-1.07l-6.55,1.3c0-.12,0-.19,0-.22,2.34-3.56,2-7.18.11-10.75-1.15-2.12-2-4.24-1.55-6.75C115.09,210.73,115,213.73,114.53,216.6Zm-2.45,15.53c-3.07,0-6.14,0-9.21,0-.71,0-1.05.2-1,1a10.58,10.58,0,0,1,0,1.78c-.09.91.25,1.19,1.15,1.18,4.17,0,8.34,0,12.51,0,1.88,0,3.76,0,5.64,0,.79,0,1.16-.21,1.09-1a10.7,10.7,0,0,1,0-1.79c.06-.81-.24-1.1-1.07-1.09C118.16,232.15,115.12,232.13,112.08,232.13Zm.23,10.57a9.77,9.77,0,0,0,1.21-.16c2.23-.52,3.93-1.67,4.58-4,.27-.94.14-1.09-.86-1.1H107.07c-1.24,0-1.36.16-1,1.34C106.79,241.08,109.3,242.72,112.31,242.7Z"/><circle class="cls-15" cx="210.18" cy="210.18" r="207.68"/><line class="cls-16" x1="210.18" y1="56.75" x2="210.18" y2="363.61"/><line class="cls-17" x1="344.73" y1="210.28" x2="320.99" y2="210.28"/><polygon class="cls-18" points="272.32 243.71 261.67 201 256.04 214.01 245.99 214.01 245.99 210.64 253.83 210.64 262.53 190.55 271.82 227.8 281.17 176.9 289.57 216.83 295.32 199.45 299.74 208.6 306.44 208.6 306.44 211.96 297.63 211.96 295.9 208.4 288.85 229.74 281.39 194.3 272.32 243.71"/><path class="cls-19" d="M369.45,259.37l-48.31-33.73-.06,0a46.89,46.89,0,0,0-61.83-58.24,45.07,45.07,0,0,0-20.14,16c-14.44,20.67-9.05,49.44,12,64.14a46.64,46.64,0,0,0,44.2,5.18A45.35,45.35,0,0,0,307,245.79l.05,0,48.31,33.72a6.63,6.63,0,0,0,9.25-1.64l6.49-9.3A6.64,6.64,0,0,0,369.45,259.37Zm-66.73-31.52a30.05,30.05,0,0,1-13.42,10.67,31,31,0,0,1-29.44-3.45c-14-9.79-17.61-29-8-42.73a29.91,29.91,0,0,1,13.42-10.66,31,31,0,0,1,29.44,3.45C308.75,194.91,312.34,214.08,302.72,227.85Z"/></svg>