<svg id="Layer_1" data-name="Layer 1" xmlns="http://www.w3.org/2000/svg" xmlns:xlink="http://www.w3.org/1999/xlink" viewBox="0 0 420.36 420.36"><defs><style>.cls-1{fill:url(#linear-gradient);}.cls-2{fill:url(#linear-gradient-2);}.cls-3{fill:url(#linear-gradient-3);}.cls-10,.cls-11,.cls-12,.cls-13,.cls-14,.cls-15,.cls-16,.cls-17,.cls-18,.cls-19,.cls-20,.cls-21,.cls-4,.cls-5,.cls-6,.cls-7,.cls-8,.cls-9{fill:none;stroke-miterlimit:10;stroke-width:5px;}.cls-4{stroke:url(#linear-gradient-4);}.cls-5{stroke:url(#linear-gradient-5);}.cls-6{stroke:url(#linear-gradient-6);}.cls-7{stroke:url(#linear-gradient-7);}.cls-8{stroke:url(#linear-gradient-8);}.cls-9{stroke:url(#linear-gradient-9);}.cls-10{stroke:url(#linear-gradient-10);}.cls-11{stroke:url(#linear-gradient-11);}.cls-12{stroke:url(#linear-gradient-12);}.cls-13{stroke:url(#linear-gradient-13);}.cls-14{stroke:url(#linear-gradient-14);}.cls-15{stroke:url(#linear-gradient-15);}.cls-16{stroke:url(#linear-gradient-16);}.cls-17{stroke:url(#linear-gradient-17);}.cls-18{stroke:url(#linear-gradient-18);}.cls-19{stroke:url(#linear-gradient-19);}.cls-20{stroke:url(#linear-gradient-20);}.cls-21{stroke:url(#linear-gradient-21);}</style><linearGradient id="linear-gradient" x1="54.02" y1="283.03" x2="149.7" y2="283.03" gradientUnits="userSpaceOnUse"><stop offset="0" stop-color="#008d8a"/><stop offset="0.24" stop-color="#038f8b"/><stop offset="0.43" stop-color="#0d938d"/><stop offset="0.59" stop-color="#1d9c92"/><stop offset="0.74" stop-color="#34a798"/><stop offset="0.88" stop-color="#51b6a0"/><stop offset="1" stop-color="#6fc5a8"/></linearGradient><linearGradient id="linear-gradient-2" x1="170.28" y1="283.03" x2="265.97" y2="283.03" xlink:href="#linear-gradient"/><linearGradient id="linear-gradient-3" x1="286.24" y1="283.03" x2="381.93" y2="283.03" xlink:href="#linear-gradient"/><linearGradient id="linear-gradient-4" x1="0" y1="210.18" x2="420.36" y2="210.18" xlink:href="#linear-gradient"/><linearGradient id="linear-gradient-5" x1="215.62" y1="230.33" x2="220.62" y2="230.33" xlink:href="#linear-gradient"/><linearGradient id="linear-gradient-6" x1="215.62" y1="166.51" x2="220.62" y2="166.51" xlink:href="#linear-gradient"/><linearGradient id="linear-gradient-7" x1="144.02" y1="103.74" x2="292.23" y2="103.74" xlink:href="#linear-gradient"/><linearGradient id="linear-gradient-8" x1="205.53" y1="103.74" x2="221.15" y2="103.74" xlink:href="#linear-gradient"/><linearGradient id="linear-gradient-9" x1="202.79" y1="103.74" x2="223.9" y2="103.74" xlink:href="#linear-gradient"/><linearGradient id="linear-gradient-10" x1="183.37" y1="103.74" x2="199" y2="103.74" xlink:href="#linear-gradient"/><linearGradient id="linear-gradient-11" x1="180.63" y1="103.74" x2="201.74" y2="103.74" xlink:href="#linear-gradient"/><linearGradient id="linear-gradient-12" x1="161.22" y1="103.74" x2="176.85" y2="103.74" xlink:href="#linear-gradient"/><linearGradient id="linear-gradient-13" x1="158.48" y1="103.74" x2="179.59" y2="103.74" xlink:href="#linear-gradient"/><linearGradient id="linear-gradient-14" x1="235.2" y1="103.55" x2="275.28" y2="103.55" xlink:href="#linear-gradient"/><linearGradient id="linear-gradient-15" x1="331.58" y1="230.9" x2="336.58" y2="230.9" xlink:href="#linear-gradient"/><linearGradient id="linear-gradient-16" x1="226.44" y1="200.95" x2="325.76" y2="200.95" xlink:href="#linear-gradient"/><linearGradient id="linear-gradient-17" x1="110.49" y1="200.95" x2="209.81" y2="200.95" xlink:href="#linear-gradient"/><linearGradient id="linear-gradient-18" x1="99.67" y1="230.9" x2="104.67" y2="230.9" xlink:href="#linear-gradient"/><linearGradient id="linear-gradient-19" x1="207.31" y1="200.95" x2="228.94" y2="200.95" xlink:href="#linear-gradient"/><linearGradient id="linear-gradient-20" x1="91.36" y1="200.95" x2="112.99" y2="200.95" xlink:href="#linear-gradient"/><linearGradient id="linear-gradient-21" x1="323.26" y1="200.95" x2="344.9" y2="200.95" xlink:href="#linear-gradient"/></defs><title>Synchronus replication</title><path class="cls-1" d="M149.7,261.38c0-9.72-42.94-10-47.84-10s-47.84.28-47.84,10a3,3,0,0,0,.18,1H54v44.3h.72c5.58,7.72,42.6,8,47.12,8s41.55-.24,47.13-8h.71v-44.3h-.17A3.29,3.29,0,0,0,149.7,261.38Zm-47.84-6c26.18,0,41.71,3.72,43.7,6-2,2.25-17.52,6-43.7,6s-41.7-3.72-43.69-6C60.16,259.14,75.68,255.42,101.86,255.42Zm-43.8,49.25v-.09s0,.06,0,.09Zm87.6,0h0s0-.05,0-.08Zm0-.16c-1.28,2.1-15.69,6.13-43.8,6.13-26.82,0-42.46-3.91-43.8-6.13V265.94c10.8,5.26,39.83,5.45,43.8,5.45s33-.19,43.8-5.45Z"/><path class="cls-2" d="M266,261.38c0-9.72-43-10-47.85-10s-47.84.28-47.84,10a3.29,3.29,0,0,0,.18,1h-.18v44.3H171c5.58,7.72,42.6,8,47.12,8s41.55-.24,47.13-8H266v-44.3h-.17A3.29,3.29,0,0,0,266,261.38Zm-47.85-6c26.18,0,41.71,3.72,43.7,6-2,2.25-17.52,6-43.7,6s-41.7-3.72-43.69-6C176.42,259.14,192,255.42,218.12,255.42Zm-43.8,49.25v-.09a.28.28,0,0,1,0,.09Zm87.6,0h0v0Zm0-.16c-1.27,2.1-15.69,6.13-43.8,6.13-26.82,0-42.45-3.91-43.8-6.13V265.94c10.81,5.26,39.83,5.45,43.8,5.45s33-.19,43.8-5.45Z"/><path class="cls-3" d="M381.93,261.38c0-9.72-42.95-10-47.85-10s-47.84.28-47.84,10a3.29,3.29,0,0,0,.18,1h-.18v44.3H287c5.58,7.72,42.6,8,47.12,8s41.55-.24,47.13-8h.71v-44.3h-.17A3.29,3.29,0,0,0,381.93,261.38Zm-47.85-6c26.18,0,41.71,3.72,43.7,6-2,2.25-17.52,6-43.7,6s-41.7-3.72-43.69-6C292.38,259.14,307.91,255.42,334.08,255.42Zm-43.8,49.25v-.09a.28.28,0,0,1,0,.09Zm87.6,0h0v0Zm0-.16c-1.27,2.1-15.69,6.13-43.8,6.13-26.82,0-42.45-3.91-43.8-6.13V265.94c10.81,5.26,39.83,5.45,43.8,5.45s33-.19,43.8-5.45Z"/><circle class="cls-4" cx="210.18" cy="210.18" r="207.68"/><line class="cls-5" x1="218.12" y1="251.38" x2="218.12" y2="209.27"/><line class="cls-6" x1="218.12" y1="192.64" x2="218.12" y2="140.37"/><rect class="cls-7" x="146.52" y="66.35" width="143.21" height="74.77" rx="3.22"/><circle class="cls-8" cx="213.34" cy="103.74" r="5.31"/><circle class="cls-9" cx="213.34" cy="103.74" r="8.06"/><circle class="cls-10" cx="191.19" cy="103.74" r="5.31"/><circle class="cls-11" cx="191.19" cy="103.74" r="8.06"/><circle class="cls-12" cx="169.03" cy="103.74" r="5.31"/><circle class="cls-13" cx="169.03" cy="103.74" r="8.06"/><line class="cls-14" x1="235.2" y1="103.55" x2="275.28" y2="103.55"/><line class="cls-15" x1="334.08" y1="252.53" x2="334.08" y2="209.27"/><line class="cls-16" x1="325.76" y1="200.95" x2="226.44" y2="200.95"/><polyline class="cls-17" points="110.49 200.95 199.36 200.95 209.81 200.95"/><line class="cls-18" x1="102.17" y1="252.53" x2="102.17" y2="209.27"/><circle class="cls-19" cx="218.13" cy="200.95" r="8.32"/><circle class="cls-20" cx="102.17" cy="200.95" r="8.32"/><circle class="cls-21" cx="334.08" cy="200.95" r="8.32"/></svg>