<svg id="Layer_1" data-name="Layer 1" xmlns="http://www.w3.org/2000/svg" xmlns:xlink="http://www.w3.org/1999/xlink" viewBox="0 0 630 460"><defs><style>.cls-1,.cls-10,.cls-11,.cls-12,.cls-13,.cls-14,.cls-15,.cls-16,.cls-17,.cls-18,.cls-19,.cls-20,.cls-21,.cls-5,.cls-6,.cls-7,.cls-8,.cls-9{fill:none;stroke-miterlimit:10;stroke-width:5px;}.cls-1{stroke:url(#linear-gradient);}.cls-2{fill:url(#linear-gradient-2);}.cls-3{fill:url(#linear-gradient-3);}.cls-4{fill:url(#linear-gradient-4);}.cls-5{stroke:url(#linear-gradient-5);}.cls-6{stroke:url(#linear-gradient-6);}.cls-7{stroke:url(#linear-gradient-7);}.cls-8{stroke:url(#linear-gradient-8);}.cls-9{stroke:url(#linear-gradient-9);}.cls-10{stroke:url(#linear-gradient-10);}.cls-11{stroke:url(#linear-gradient-11);}.cls-12{stroke:url(#linear-gradient-12);}.cls-13{stroke:url(#linear-gradient-13);}.cls-14{stroke:url(#linear-gradient-14);}.cls-15{stroke:url(#linear-gradient-15);}.cls-16{stroke:url(#linear-gradient-16);}.cls-17{stroke:url(#linear-gradient-17);}.cls-18{stroke:url(#linear-gradient-18);}.cls-19{stroke:url(#linear-gradient-19);}.cls-20{stroke:url(#linear-gradient-20);}.cls-21{stroke:url(#linear-gradient-21);}</style><linearGradient id="linear-gradient" x1="104.82" y1="58.53" x2="525.18" y2="58.53" gradientTransform="translate(0 171.47)" gradientUnits="userSpaceOnUse"><stop offset="0" stop-color="#008d8a"/><stop offset="0.24" stop-color="#038f8b"/><stop offset="0.43" stop-color="#0d938d"/><stop offset="0.59" stop-color="#1d9c92"/><stop offset="0.74" stop-color="#34a798"/><stop offset="0.88" stop-color="#51b6a0"/><stop offset="1" stop-color="#6fc5a8"/></linearGradient><linearGradient id="linear-gradient-2" x1="164.48" y1="314.94" x2="252.32" y2="314.94" gradientUnits="userSpaceOnUse"><stop offset="0" stop-color="#008d8a"/><stop offset="0.24" stop-color="#038f8b"/><stop offset="0.43" stop-color="#0d938d"/><stop offset="0.59" stop-color="#1d9c92"/><stop offset="0.74" stop-color="#34a798"/><stop offset="0.88" stop-color="#51b6a0"/><stop offset="1" stop-color="#6fc5a8"/></linearGradient><linearGradient id="linear-gradient-3" x1="271.22" y1="314.94" x2="359.06" y2="314.94" xlink:href="#linear-gradient-2"/><linearGradient id="linear-gradient-4" x1="377.68" y1="314.94" x2="465.52" y2="314.94" xlink:href="#linear-gradient-2"/><linearGradient id="linear-gradient-5" x1="312.64" y1="266.55" x2="317.64" y2="266.55" xlink:href="#linear-gradient-2"/><linearGradient id="linear-gradient-6" x1="312.64" y1="207.95" x2="317.64" y2="207.95" xlink:href="#linear-gradient-2"/><linearGradient id="linear-gradient-7" x1="246.9" y1="150.33" x2="383.38" y2="150.33" xlink:href="#linear-gradient-2"/><linearGradient id="linear-gradient-8" x1="303.37" y1="150.33" x2="318.13" y2="150.33" xlink:href="#linear-gradient-2"/><linearGradient id="linear-gradient-9" x1="300.85" y1="150.33" x2="320.64" y2="150.33" xlink:href="#linear-gradient-2"/><linearGradient id="linear-gradient-10" x1="283.03" y1="150.33" x2="297.79" y2="150.33" xlink:href="#linear-gradient-2"/><linearGradient id="linear-gradient-11" x1="280.51" y1="150.33" x2="300.3" y2="150.33" xlink:href="#linear-gradient-2"/><linearGradient id="linear-gradient-12" x1="262.69" y1="150.33" x2="277.45" y2="150.33" xlink:href="#linear-gradient-2"/><linearGradient id="linear-gradient-13" x1="260.17" y1="150.33" x2="279.97" y2="150.33" xlink:href="#linear-gradient-2"/><linearGradient id="linear-gradient-14" x1="330.81" y1="150.15" x2="367.61" y2="150.15" xlink:href="#linear-gradient-2"/><linearGradient id="linear-gradient-15" x1="419.1" y1="267.07" x2="424.1" y2="267.07" xlink:href="#linear-gradient-2"/><linearGradient id="linear-gradient-16" x1="322.78" y1="239.58" x2="413.96" y2="239.58" xlink:href="#linear-gradient-2"/><linearGradient id="linear-gradient-17" x1="216.33" y1="239.58" x2="307.51" y2="239.58" xlink:href="#linear-gradient-2"/><linearGradient id="linear-gradient-18" x1="206.19" y1="267.07" x2="211.19" y2="267.07" xlink:href="#linear-gradient-2"/><linearGradient id="linear-gradient-19" x1="305.01" y1="239.58" x2="325.28" y2="239.58" xlink:href="#linear-gradient-2"/><linearGradient id="linear-gradient-20" x1="198.55" y1="239.58" x2="218.82" y2="239.58" xlink:href="#linear-gradient-2"/><linearGradient id="linear-gradient-21" x1="411.46" y1="239.58" x2="431.73" y2="239.58" xlink:href="#linear-gradient-2"/></defs><title>Synchronus replication</title><circle class="cls-1" cx="315" cy="230" r="207.68"/><path class="cls-2" d="M252.32,295.06c0-8.93-39.42-9.18-43.92-9.18s-43.92.25-43.92,9.18a3.05,3.05,0,0,0,.16.95h-.16v40.68h.65c5.13,7.08,39.12,7.31,43.27,7.31s38.14-.23,43.26-7.31h.66V296h-.16A3.05,3.05,0,0,0,252.32,295.06Zm-43.92-5.47c24,0,38.29,3.41,40.12,5.47-1.83,2.06-16.09,5.48-40.12,5.48s-38.29-3.42-40.12-5.48C170.11,293,184.37,289.59,208.4,289.59Zm-40.21,45.22v-.09s0,0,0,.09Zm80.42,0h0s0-.06,0-.08Zm0-.15c-1.17,1.92-14.41,5.63-40.21,5.63-24.63,0-39-3.59-40.21-5.63V299.24c9.92,4.84,36.56,5,40.21,5s30.29-.17,40.21-5Z"/><path class="cls-3" d="M359.06,295.06c0-8.93-39.43-9.18-43.92-9.18s-43.92.25-43.92,9.18a3.05,3.05,0,0,0,.16.95h-.16v40.68h.65C277,343.77,311,344,315.14,344s38.14-.23,43.26-7.31h.66V296h-.16A3.05,3.05,0,0,0,359.06,295.06Zm-43.92-5.47c24,0,38.29,3.41,40.12,5.47-1.83,2.06-16.09,5.48-40.12,5.48s-38.29-3.42-40.12-5.48C276.85,293,291.11,289.59,315.14,289.59Zm-40.22,45.22v-.09a.22.22,0,0,1,0,.09Zm80.43,0h0s0-.06,0-.08Zm0-.15c-1.17,1.92-14.41,5.63-40.21,5.63-24.63,0-39-3.59-40.22-5.63V299.24c9.92,4.84,36.57,5,40.22,5s30.29-.17,40.21-5Z"/><path class="cls-4" d="M465.52,295.06c0-8.93-39.42-9.18-43.92-9.18s-43.92.25-43.92,9.18a3.05,3.05,0,0,0,.16.95h-.16v40.68h.66c5.12,7.08,39.11,7.31,43.26,7.31s38.14-.23,43.27-7.31h.65V296h-.16A3.05,3.05,0,0,0,465.52,295.06Zm-43.92-5.47c24,0,38.29,3.41,40.12,5.47-1.83,2.06-16.09,5.48-40.12,5.48s-38.29-3.42-40.12-5.48C383.31,293,397.57,289.59,421.6,289.59Zm-40.21,45.22v-.09s0,0,0,.09Zm80.42,0h0v0Zm0-.15c-1.17,1.92-14.41,5.63-40.21,5.63-24.63,0-39-3.59-40.21-5.63V299.24c9.92,4.84,36.56,5,40.21,5s30.29-.17,40.21-5Z"/><line class="cls-5" x1="315.14" y1="285.88" x2="315.14" y2="247.22"/><line class="cls-6" x1="315.14" y1="231.95" x2="315.14" y2="183.96"/><rect class="cls-7" x="249.4" y="116" width="131.48" height="68.65" rx="3.22"/><circle class="cls-8" cx="310.75" cy="150.33" r="4.88"/><circle class="cls-9" cx="310.75" cy="150.33" r="7.4"/><circle class="cls-10" cx="290.41" cy="150.33" r="4.88"/><circle class="cls-11" cx="290.41" cy="150.33" r="7.4"/><circle class="cls-12" cx="270.07" cy="150.33" r="4.88"/><circle class="cls-13" cx="270.07" cy="150.33" r="7.4"/><line class="cls-14" x1="330.81" y1="150.15" x2="367.61" y2="150.15"/><line class="cls-15" x1="421.6" y1="286.93" x2="421.6" y2="247.22"/><line class="cls-16" x1="413.96" y1="239.58" x2="322.78" y2="239.58"/><polyline class="cls-17" points="216.32 239.58 297.92 239.58 307.51 239.58"/><line class="cls-18" x1="208.69" y1="286.93" x2="208.69" y2="247.22"/><circle class="cls-19" cx="315.14" cy="239.58" r="7.64"/><circle class="cls-20" cx="208.69" cy="239.58" r="7.64"/><circle class="cls-21" cx="421.6" cy="239.58" r="7.64"/></svg>