<svg id="Layer_1" data-name="Layer 1" xmlns="http://www.w3.org/2000/svg" xmlns:xlink="http://www.w3.org/1999/xlink" viewBox="0 0 420.36 420.36"><defs><style>.cls-1,.cls-2,.cls-3,.cls-4,.cls-8{fill:none;}.cls-2,.cls-3,.cls-4,.cls-8,.cls-9{stroke-miterlimit:10;}.cls-2,.cls-3,.cls-4,.cls-8{stroke-width:5px;}.cls-2{stroke:url(#linear-gradient);}.cls-3{stroke:url(#linear-gradient-2);}.cls-4{stroke:url(#linear-gradient-3);}.cls-5{fill:url(#linear-gradient-4);}.cls-6{fill:url(#linear-gradient-5);}.cls-7{fill:url(#linear-gradient-6);}.cls-8{stroke:url(#linear-gradient-7);}.cls-9{stroke:#fff;stroke-width:6px;}.cls-12,.cls-9{fill:url(#linear-gradient-8);}.cls-10{fill:url(#linear-gradient-9);}.cls-11{fill:url(#linear-gradient-10);}.cls-13{fill:url(#linear-gradient-12);}.cls-14{clip-path:url(#clip-path);}.cls-15{clip-path:url(#clip-path-2);}.cls-16{clip-path:url(#clip-path-3);}.cls-17{clip-path:url(#clip-path-4);}.cls-18{clip-path:url(#clip-path-5);}.cls-19{clip-path:url(#clip-path-6);}.cls-20{clip-path:url(#clip-path-7);}.cls-21{clip-path:url(#clip-path-8);}.cls-22{clip-path:url(#clip-path-9);}.cls-23{clip-path:url(#clip-path-10);}</style><linearGradient id="linear-gradient" x1="253.35" y1="214.06" x2="291.82" y2="214.06" gradientUnits="userSpaceOnUse"><stop offset="0" stop-color="#008d8a"/><stop offset="0.24" stop-color="#038f8b"/><stop offset="0.43" stop-color="#0d938d"/><stop offset="0.59" stop-color="#1d9c92"/><stop offset="0.74" stop-color="#34a798"/><stop offset="0.88" stop-color="#51b6a0"/><stop offset="1" stop-color="#6fc5a8"/></linearGradient><linearGradient id="linear-gradient-2" x1="76.09" y1="103.45" x2="345.72" y2="103.45" xlink:href="#linear-gradient"/><linearGradient id="linear-gradient-3" x1="129.99" y1="217.1" x2="172.3" y2="217.1" xlink:href="#linear-gradient"/><linearGradient id="linear-gradient-4" x1="37.9" y1="145.53" x2="178.46" y2="145.53" xlink:href="#linear-gradient"/><linearGradient id="linear-gradient-5" x1="243.9" y1="145.53" x2="384.46" y2="145.53" xlink:href="#linear-gradient"/><linearGradient id="linear-gradient-6" x1="140.62" y1="287.14" x2="281.17" y2="287.14" xlink:href="#linear-gradient"/><linearGradient id="linear-gradient-7" x1="0" y1="210.18" x2="420.36" y2="210.18" xlink:href="#linear-gradient"/><linearGradient id="linear-gradient-8" x1="232.15" y1="263.88" x2="330.12" y2="263.88" xlink:href="#linear-gradient"/><linearGradient id="linear-gradient-9" x1="260.63" y1="268.93" x2="301.64" y2="268.93" xlink:href="#linear-gradient"/><linearGradient id="linear-gradient-10" x1="286.21" y1="268.93" x2="292.36" y2="268.93" xlink:href="#linear-gradient"/><linearGradient id="linear-gradient-12" x1="308.83" y1="248.4" x2="318.96" y2="248.4" xlink:href="#linear-gradient"/><clipPath id="clip-path"><rect class="cls-1" x="976.24" y="393.8" width="132.93" height="55.39"/></clipPath><clipPath id="clip-path-2"><rect class="cls-1" x="976.24" y="449.19" width="132.93" height="55.39"/></clipPath><clipPath id="clip-path-3"><rect class="cls-1" x="976.24" y="338.42" width="132.93" height="55.39"/></clipPath><clipPath id="clip-path-4"><rect class="cls-1" x="976.24" y="283.03" width="132.93" height="55.39"/></clipPath><clipPath id="clip-path-5"><rect class="cls-1" x="976.24" y="189.98" width="132.93" height="93.05"/></clipPath><clipPath id="clip-path-6"><rect class="cls-1" x="976.24" y="134.59" width="132.93" height="55.39"/></clipPath><clipPath id="clip-path-7"><rect class="cls-1" x="976.24" y="79.2" width="132.93" height="55.39"/></clipPath><clipPath id="clip-path-8"><rect class="cls-1" x="976.24" y="23.81" width="132.93" height="55.39"/></clipPath><clipPath id="clip-path-9"><rect class="cls-1" x="976.24" y="-31.57" width="132.93" height="55.39"/></clipPath><clipPath id="clip-path-10"><rect class="cls-1" x="976.24" y="-86.96" width="132.93" height="55.39"/></clipPath></defs><title>Snapshots and clones</title><polyline class="cls-2" points="289.71 187.14 286.1 192.81 258.02 236.94 255.45 240.98"/><polyline class="cls-3" points="340.23 104.75 341.15 103.31 256.63 103.31 165.16 103.31 80.63 103.31 81.55 104.76"/><polyline class="cls-4" points="170.19 247.04 166.75 241.63 135.58 192.65 132.09 187.17"/><path class="cls-5" d="M178.46,113.73c0-14.28-63.09-14.7-70.28-14.7s-70.28.42-70.28,14.7a4.58,4.58,0,0,0,.26,1.52H37.9v65.08H39c8.2,11.34,62.58,11.7,69.23,11.7s61-.36,69.22-11.7h1.06V115.25h-.26A4.85,4.85,0,0,0,178.46,113.73ZM108.18,105c38.45,0,61.26,5.47,64.19,8.76-2.93,3.29-25.74,8.76-64.19,8.76S46.91,117,44,113.73C46.91,110.44,69.72,105,108.18,105ZM43.83,177.32v-.14a.68.68,0,0,1,0,.14Zm128.69,0h0a.45.45,0,0,1,0-.12Zm0-.23c-1.88,3.08-23.06,9-64.34,9-39.41,0-62.37-5.74-64.35-9V120.42c15.88,7.73,58.51,8,64.35,8s48.47-.28,64.34-8Z"/><path class="cls-6" d="M384.46,113.73c0-14.28-63.09-14.7-70.28-14.7s-70.28.42-70.28,14.7a4.85,4.85,0,0,0,.26,1.52h-.26v65.08h1c8.2,11.34,62.58,11.7,69.23,11.7s61-.36,69.23-11.7h1V115.25h-.26A4.85,4.85,0,0,0,384.46,113.73ZM314.18,105c38.45,0,61.26,5.47,64.19,8.76-2.93,3.29-25.74,8.76-64.19,8.76S252.92,117,250,113.73C252.92,110.44,275.73,105,314.18,105Zm-64.34,72.35v-.14s0,.09,0,.14Zm128.68,0h0s0-.08,0-.12Zm0-.23c-1.88,3.08-23,9-64.34,9-39.41,0-62.37-5.74-64.34-9V120.42c15.87,7.73,58.5,8,64.34,8s48.47-.28,64.34-8Z"/><path class="cls-7" d="M263.35,259.62l-.48.11a20.17,20.17,0,0,0-1.59,4.17,21.1,21.1,0,0,0-.46,2.37c1.48-.28,2.91-.58,4.28-.9a15.07,15.07,0,0,1,.84-2.67,15.41,15.41,0,0,1,1-2,15.21,15.21,0,0,1,1.74-2.41C267.17,258.71,265.39,259.17,263.35,259.62Zm0,0-.48.11a20.17,20.17,0,0,0-1.59,4.17,21.1,21.1,0,0,0-.46,2.37c1.48-.28,2.91-.58,4.28-.9a15.07,15.07,0,0,1,.84-2.67,15.41,15.41,0,0,1,1-2,15.21,15.21,0,0,1,1.74-2.41C267.17,258.71,265.39,259.17,263.35,259.62Zm12.8-10.5a20.3,20.3,0,0,0-7.16,3.39,26,26,0,0,1,4.71,1.83,16.19,16.19,0,0,1,6.6-1.77A11.3,11.3,0,0,0,276.15,249.12Zm-.91,69.57c-1.88,3.08-23.06,9-64.35,9-39.4,0-62.37-5.75-64.34-9V262c15.87,7.73,58.51,8,64.34,8,2.39,0,10.92,0,21.26-.63l4-.24v-5.93c-1.31.1-2.66.19-4,.27-6.43.38-13.53.6-21.26.6-38.45,0-61.26-5.47-64.18-8.76,2.92-3.3,25.73-8.76,64.18-8.76,8.18,0,15.64.25,22.36.66l4.3.3a12,12,0,0,1,5.8-5.46c-2.14-.19-4.26-.36-6.34-.51-12.44-.87-23.37-.93-26.12-.93-7.19,0-70.27.41-70.27,14.7a4.62,4.62,0,0,0,.26,1.52h-.26v65.08h1c8.19,11.34,62.58,11.7,69.22,11.7s61-.36,69.23-11.7h1.05V297h-5.93Zm-128.69.24v-.14a.59.59,0,0,1,0,.14Zm128.69,0h0a.43.43,0,0,1,0-.12Zm5.89-33.46a16.26,16.26,0,0,1-4.8-.72c-.37-.11-.73-.24-1.09-.38v4.27c.36.11.72.21,1.09.3a20,20,0,0,0,4.8.58h0v-4Zm-17.78-25.85-.48.11a20.17,20.17,0,0,0-1.59,4.17,21.1,21.1,0,0,0-.46,2.37c1.48-.28,2.91-.58,4.28-.9a15.07,15.07,0,0,1,.84-2.67,15.41,15.41,0,0,1,1-2,15.21,15.21,0,0,1,1.74-2.41C267.17,258.71,265.39,259.17,263.35,259.62Z"/><circle class="cls-8" cx="210.18" cy="210.18" r="207.68"/><path class="cls-9" d="M248.19,296.87a12,12,0,0,1-12-12V273.2c-1.34.08-2.68.13-4,.18v11.48a16.06,16.06,0,0,0,16,16.05h21.7v-4Zm-16-40.92v11l4-.17V256.13C234.88,256.06,233.53,256,232.15,256Zm81.92-19H296.84a4.93,4.93,0,0,0-.63-1.88l-3.33-5.78a4.89,4.89,0,0,0-4.21-2.42H273.61a4.88,4.88,0,0,0-4.21,2.43l-3.34,5.78a5,5,0,0,0-.62,1.87H248.19a16.06,16.06,0,0,0-14.94,10.22,15.71,15.71,0,0,0-.72,2.36,15.31,15.31,0,0,0-.38,3.47v31.87a16.06,16.06,0,0,0,16,16.05h65.88a16.07,16.07,0,0,0,16.05-16.05V253A16.07,16.07,0,0,0,314.07,236.94Zm12,47.92a12,12,0,0,1-12,12H248.19a12,12,0,0,1-12-12V253a11.89,11.89,0,0,1,.46-3.29,11.16,11.16,0,0,1,.9-2.24A12,12,0,0,1,248.19,241h19.65v-2l1.73-1.05a.8.8,0,0,1,0-.83l3.34-5.77a.79.79,0,0,1,.7-.41h15.06a.79.79,0,0,1,.7.4l3.34,5.77a.81.81,0,0,1,0,.84l1.72,1.05v2h19.64a12,12,0,0,1,12,12ZM232.15,256v11l4-.17V256.13C234.88,256.06,233.53,256,232.15,256Zm16,40.92a12,12,0,0,1-12-12V273.2c-1.34.08-2.68.13-4,.18v11.48a16.06,16.06,0,0,0,16,16.05h21.7v-4Zm-16-40.92v11l4-.17V256.13C234.88,256.06,233.53,256,232.15,256Zm16,40.92a12,12,0,0,1-12-12V273.2c-1.34.08-2.68.13-4,.18v11.48a16.06,16.06,0,0,0,16,16.05h21.7v-4Z"/><path class="cls-10" d="M263.35,259.54l-.38-.09c0,.07-.07.13-.1.2a20.17,20.17,0,0,0-1.59,4.17c1.84-.4,3.39-.8,4.66-1.2a15.41,15.41,0,0,1,1-2C266,260.25,264.77,259.89,263.35,259.54ZM292.73,252a20.41,20.41,0,0,0-23.74.4,19.29,19.29,0,0,0-1.78,1.47,20.32,20.32,0,0,0-4.24,5.55c0,.07-.07.13-.1.2a20.17,20.17,0,0,0-1.59,4.17,21.1,21.1,0,0,0-.46,2.37,19.11,19.11,0,0,0-.19,2.74c0,.55,0,1.08.07,1.6a20.27,20.27,0,0,0,5.18,12.07,20.45,20.45,0,0,0,9.36,6c.36.11.72.21,1.09.3a20,20,0,0,0,4.8.58h0A20.5,20.5,0,0,0,292.73,252Zm-11.56,33.36h0a16.26,16.26,0,0,1-4.8-.72c-.37-.11-.73-.24-1.09-.38a16.08,16.08,0,0,1-5.35-3.35,17.37,17.37,0,0,1-1.32-1.4,16.31,16.31,0,0,1-3.87-9.87c0-.24,0-.49,0-.74a15.63,15.63,0,0,1,.42-3.64,15.07,15.07,0,0,1,.84-2.67,15.41,15.41,0,0,1,1-2,15.21,15.21,0,0,1,1.74-2.41,16.34,16.34,0,0,1,2.88-2.63,15.77,15.77,0,0,1,2.12-1.29,16.19,16.19,0,0,1,6.6-1.77l.83,0a16.46,16.46,0,0,1,0,32.92Zm-17.82-25.85c1.42.35,2.63.71,3.61,1a15.21,15.21,0,0,1,1.74-2.41C267.17,258.63,265.39,259.09,263.35,259.54Z"/><path class="cls-11" d="M286.21,275.09v-4a2.12,2.12,0,0,0,0-4.23v-4.05a6.16,6.16,0,0,1,0,12.32Z"/><path class="cls-12" d="M248.19,296.87a12,12,0,0,1-12-12V273.2c-1.34.08-2.68.13-4,.18v11.48a16.06,16.06,0,0,0,16,16.05h21.7v-4Zm-16-40.92v11l4-.17V256.13C234.88,256.06,233.53,256,232.15,256Zm16,40.92a12,12,0,0,1-12-12V273.2c-1.34.08-2.68.13-4,.18v11.48a16.06,16.06,0,0,0,16,16.05h21.7v-4Zm-16-40.92v11l4-.17V256.13C234.88,256.06,233.53,256,232.15,256Zm81.92-19H296.84a4.93,4.93,0,0,0-.63-1.88l-3.33-5.78a4.89,4.89,0,0,0-4.21-2.42H273.61a4.88,4.88,0,0,0-4.21,2.43l-3.34,5.78a5,5,0,0,0-.62,1.87H248.19a16.06,16.06,0,0,0-14.94,10.22,15.71,15.71,0,0,0-.72,2.36,15.31,15.31,0,0,0-.38,3.47v31.87a16.06,16.06,0,0,0,16,16.05h65.88a16.07,16.07,0,0,0,16.05-16.05V253A16.07,16.07,0,0,0,314.07,236.94Zm12,47.92a12,12,0,0,1-12,12H248.19a12,12,0,0,1-12-12V253a11.89,11.89,0,0,1,.46-3.29,11.16,11.16,0,0,1,.9-2.24A12,12,0,0,1,248.19,241h19.65v-2l1.73-1.05a.8.8,0,0,1,0-.83l3.34-5.77a.79.79,0,0,1,.7-.41h15.06a.79.79,0,0,1,.7.4l3.34,5.77a.81.81,0,0,1,0,.84l1.72,1.05v2h19.64a12,12,0,0,1,12,12ZM232.15,256v11l4-.17V256.13C234.88,256.06,233.53,256,232.15,256Zm16,40.92a12,12,0,0,1-12-12V273.2c-1.34.08-2.68.13-4,.18v11.48a16.06,16.06,0,0,0,16,16.05h21.7v-4Z"/><path class="cls-13" d="M313.89,243.34A5.07,5.07,0,1,0,319,248.4,5.07,5.07,0,0,0,313.89,243.34Zm0,6.09a1,1,0,1,1,1-1A1,1,0,0,1,313.89,249.43Z"/></svg>