<svg id="Layer_1" data-name="Layer 1" xmlns="http://www.w3.org/2000/svg" xmlns:xlink="http://www.w3.org/1999/xlink" viewBox="0 0 630 460"><defs><style>.cls-1{fill:none;stroke-width:5px;stroke:url(#linear-gradient);}.cls-1,.cls-5{stroke-miterlimit:10;}.cls-2{fill:url(#linear-gradient-2);}.cls-3{fill:url(#linear-gradient-3);}.cls-4{fill:url(#linear-gradient-4);}.cls-5{stroke:#fff;stroke-width:6px;}.cls-5,.cls-8{fill:url(#linear-gradient-5);}.cls-6{fill:url(#linear-gradient-6);}.cls-7{fill:url(#linear-gradient-7);}.cls-9{fill:url(#linear-gradient-9);}</style><linearGradient id="linear-gradient" x1="104.82" y1="58.53" x2="525.18" y2="58.53" gradientTransform="translate(0 171.47)" gradientUnits="userSpaceOnUse"><stop offset="0" stop-color="#008d8a"/><stop offset="0.24" stop-color="#038f8b"/><stop offset="0.43" stop-color="#0d938d"/><stop offset="0.59" stop-color="#1d9c92"/><stop offset="0.74" stop-color="#34a798"/><stop offset="0.88" stop-color="#51b6a0"/><stop offset="1" stop-color="#6fc5a8"/></linearGradient><linearGradient id="linear-gradient-2" x1="181.23" y1="178.84" x2="307.68" y2="178.84" gradientUnits="userSpaceOnUse"><stop offset="0" stop-color="#008d8a"/><stop offset="0.24" stop-color="#038f8b"/><stop offset="0.43" stop-color="#0d938d"/><stop offset="0.59" stop-color="#1d9c92"/><stop offset="0.74" stop-color="#34a798"/><stop offset="0.88" stop-color="#51b6a0"/><stop offset="1" stop-color="#6fc5a8"/></linearGradient><linearGradient id="linear-gradient-3" x1="322.32" y1="178.76" x2="448.77" y2="178.76" xlink:href="#linear-gradient-2"/><linearGradient id="linear-gradient-4" x1="242.24" y1="275.9" x2="384.6" y2="275.9" xlink:href="#linear-gradient-2"/><linearGradient id="linear-gradient-5" x1="334.94" y1="252.34" x2="434.18" y2="252.34" xlink:href="#linear-gradient-2"/><linearGradient id="linear-gradient-6" x1="363.8" y1="257.45" x2="405.33" y2="257.45" xlink:href="#linear-gradient-2"/><linearGradient id="linear-gradient-7" x1="389.69" y1="257.45" x2="395.93" y2="257.45" xlink:href="#linear-gradient-2"/><linearGradient id="linear-gradient-9" x1="412.61" y1="236.66" x2="422.87" y2="236.66" xlink:href="#linear-gradient-2"/></defs><title>Snapshots and clones</title><circle class="cls-1" cx="315" cy="230" r="207.68"/><path class="cls-2" d="M307.68,150.23c0-12.85-56.76-13.22-63.23-13.22s-63.22.37-63.22,13.22a4.24,4.24,0,0,0,.23,1.37h-.23v58.55h.94c7.37,10.2,56.3,10.52,62.28,10.52s54.91-.32,62.28-10.52h.95V151.6h-.24A4.25,4.25,0,0,0,307.68,150.23Zm-63.23-7.88c34.6,0,55.12,4.92,57.75,7.88-2.63,3-23.15,7.88-57.75,7.88s-55.11-4.91-57.75-7.88C189.34,147.27,209.85,142.35,244.45,142.35Zm-57.89,65.09v-.12a.37.37,0,0,1,0,.12Zm115.78,0h0a.3.3,0,0,1,0-.1Zm0-.21c-1.69,2.77-20.75,8.1-57.89,8.1-35.45,0-56.11-5.16-57.89-8.1v-51c14.28,7,52.64,7.2,57.89,7.2s43.6-.24,57.89-7.2Z"/><path class="cls-3" d="M448.77,150.23c0-12.85-56.75-13.22-63.22-13.22s-63.23.37-63.23,13.22a4.25,4.25,0,0,0,.24,1.37h-.24v58.55h.95c5,6.89,28.9,9.27,45.76,10.09,1.6.08,3.13.15,4.57.2l2.63-4.53a.79.79,0,0,1,.71-.42h15.25a.79.79,0,0,1,.71.41l2.67,4.61,4.56-.18c16.89-.73,42.53-3,47.7-10.18h.94V151.6h-.23A4.24,4.24,0,0,0,448.77,150.23Zm-63.22-7.88c34.59,0,55.11,4.92,57.75,7.88-2.64,3-23.16,7.88-57.75,7.88s-55.12-4.91-57.75-7.88C330.43,147.27,351,142.35,385.55,142.35Zm-57.89,65.09v-.12a.37.37,0,0,1,0,.12Zm115.77,0h0s0-.07,0-.1Zm0-.21c-1.49,2.46-16.74,7-46.22,7.92-3.67.11-7.56.18-11.66.18-4.8,0-9.32-.1-13.57-.27-27.14-1.09-42.78-5.29-44.32-7.83v-51c14.28,7,52.63,7.2,57.89,7.2s43.6-.24,57.88-7.2Z"/><path class="cls-4" d="M371.88,246.67c-1.48.43-3.2.88-5.15,1.31l-.18.05a2.68,2.68,0,0,0-.49.11,20.77,20.77,0,0,0-1.59,4.13.29.29,0,0,1,0,.09,23.14,23.14,0,0,0-.47,2.4c1.49-.28,2.95-.59,4.32-.9h0a16.12,16.12,0,0,1,.85-2.71,16.49,16.49,0,0,1,1-2.06,16.13,16.13,0,0,1,1.77-2.44Zm12.67,27.53a16.34,16.34,0,0,1-4.86-.73,11,11,0,0,1-1.1-.38v4.32c.36.11.73.22,1.1.31a20.08,20.08,0,0,0,4.86.58h.05v-4.1Zm-6,11.63v22c-1.9,3.12-23.35,9.12-65.18,9.12-39.9,0-63.16-5.82-65.16-9.12V250.46c16.07,7.84,59.26,8.1,65.16,8.1,2.43,0,11.07-.05,21.53-.63l4.1-.24v-6c-1.33.1-2.69.19-4.1.27-6.51.39-13.7.61-21.53.61-38.94,0-62-5.54-65-8.87,3-3.35,26.05-8.88,65-8.88,8.27,0,15.82.26,22.62.67h0l4.32.3h0a12.2,12.2,0,0,1,5.88-5.53h-.15c-2.11-.19-4.21-.36-6.27-.51h-.07c-12.57-.87-23.61-.93-26.39-.93-7.27,0-71.17.41-71.17,14.89a4.54,4.54,0,0,0,.27,1.54h-.27v65.91h1.07c8.29,11.48,63.38,11.85,70.1,11.85s61.83-.37,70.13-11.85h1.06V285.83ZM248.25,308.09V308a.59.59,0,0,1,0,.14Zm130.34,0h0a.43.43,0,0,1,0-.12Zm5.07-67.28a11.54,11.54,0,0,0-4.15-3.43,20.73,20.73,0,0,0-7.25,3.44,26.88,26.88,0,0,1,4.69,1.81l.08.05a16.31,16.31,0,0,1,6.69-1.79Zm-11.78,5.86c-1.48.43-3.2.88-5.15,1.31l-.18.05a2.68,2.68,0,0,0-.49.11,20.77,20.77,0,0,0-1.59,4.13.29.29,0,0,1,0,.09,23.14,23.14,0,0,0-.47,2.4c1.49-.28,2.95-.59,4.32-.9h0a16.12,16.12,0,0,1,.85-2.71,16.49,16.49,0,0,1,1-2.06,16.13,16.13,0,0,1,1.77-2.44Zm0,0c-1.48.43-3.2.88-5.15,1.31l-.18.05a2.68,2.68,0,0,0-.49.11,20.77,20.77,0,0,0-1.59,4.13.29.29,0,0,1,0,.09,23.14,23.14,0,0,0-.47,2.4c1.49-.28,2.95-.59,4.32-.9h0a16.12,16.12,0,0,1,.85-2.71,16.49,16.49,0,0,1,1-2.06,16.13,16.13,0,0,1,1.77-2.44Z"/><path class="cls-5" d="M351.19,285.75A12.17,12.17,0,0,1,339,273.58V261.77c-1.36.09-2.71.14-4.1.18v11.63a16.27,16.27,0,0,0,16.25,16.26h22v-4.09ZM334.94,244.3v11.12l4.1-.17V244.48C337.71,244.41,336.35,244.36,334.94,244.3Zm16.25,41.45A12.17,12.17,0,0,1,339,273.58V261.77c-1.36.09-2.71.14-4.1.18v11.63a16.27,16.27,0,0,0,16.25,16.26h22v-4.09ZM334.94,244.3v11.12l4.1-.17V244.48C337.71,244.41,336.35,244.36,334.94,244.3Zm83-19.25H400.47a5.39,5.39,0,0,0-.34-1.28,3.93,3.93,0,0,0-.3-.62l-2.62-4.56-.75-1.3a5,5,0,0,0-4.27-2.45H376.94a5,5,0,0,0-4.27,2.46l-.69,1.2-2.69,4.66c-.09.17-.19.35-.26.52a5.16,5.16,0,0,0-.37,1.37H351.19a16.2,16.2,0,0,0-11.32,4.61l-.07.07a16.39,16.39,0,0,0-3.74,5.67l0,.08a15.38,15.38,0,0,0-.7,2.31,15.69,15.69,0,0,0-.39,3.52v32.27a16.27,16.27,0,0,0,16.25,16.26h66.73a16.28,16.28,0,0,0,16.26-16.26V241.31A16.28,16.28,0,0,0,417.92,225.05Zm12.15,48.53a12.17,12.17,0,0,1-12.15,12.17H351.19A12.17,12.17,0,0,1,339,273.58V241.31a12.25,12.25,0,0,1,.46-3.34,11,11,0,0,1,.88-2.19l0-.07a12.09,12.09,0,0,1,5.73-5.46l.15-.07a12,12,0,0,1,4.9-1H371.1v-2l1.74-1.07a.86.86,0,0,1,0-.84l.76-1.31,2.63-4.53a.79.79,0,0,1,.71-.42h15.25a.79.79,0,0,1,.71.41l2.67,4.61.72,1.23a.85.85,0,0,1,0,.85L398,227.1v2h19.9a12.17,12.17,0,0,1,12.15,12.17ZM334.94,244.3v11.12l4.1-.17V244.48C337.71,244.41,336.35,244.36,334.94,244.3Zm16.25,41.45A12.17,12.17,0,0,1,339,273.58V261.77c-1.36.09-2.71.14-4.1.18v11.63a16.27,16.27,0,0,0,16.25,16.26h22v-4.09Z"/><path class="cls-6" d="M366.55,247.94l.18,0c1.36.35,2.53.69,3.47,1a14.45,14.45,0,0,1,1.68-2.34l.09-.11Q369.65,247.25,366.55,247.94Zm29.75-7.6a20.68,20.68,0,0,0-24,.4,19.89,19.89,0,0,0-1.81,1.49,20.78,20.78,0,0,0-4.29,5.61,1.36,1.36,0,0,1-.1.21,20.52,20.52,0,0,0-1.61,4.23c-.2.79-.35,1.59-.47,2.39a21.36,21.36,0,0,0-.18,2.77c0,.56,0,1.11.06,1.63a20.92,20.92,0,0,0,9.31,15.73,19.89,19.89,0,0,0,5.42,2.53c.36.11.73.21,1.1.3a20.09,20.09,0,0,0,4.86.59h.05a20.75,20.75,0,0,0,11.7-37.88Zm-11.7,33.78h-.05a16.34,16.34,0,0,1-4.86-.73c-.37-.11-.74-.25-1.1-.38a16.38,16.38,0,0,1-5.42-3.39c-.47-.46-.92-.93-1.33-1.42a16.46,16.46,0,0,1-3.92-10c0-.25,0-.5,0-.76a15.72,15.72,0,0,1,.4-3.58.36.36,0,0,1,0-.1,16.31,16.31,0,0,1,.85-2.7,15.11,15.11,0,0,1,1-2.05,14.45,14.45,0,0,1,1.68-2.34l.09-.11a16.69,16.69,0,0,1,2.91-2.66,16.88,16.88,0,0,1,2.07-1.27s.06,0,.08,0a16.34,16.34,0,0,1,6.63-1.78h.06c.26,0,.55,0,.83,0a16.68,16.68,0,0,1,.05,33.35ZM366.73,248l-.18,0-.39-.1a1.36,1.36,0,0,1-.1.21,20.52,20.52,0,0,0-1.61,4.23h0c1.86-.4,3.42-.8,4.7-1.21a15.11,15.11,0,0,1,1-2.05C369.26,248.67,368.09,248.33,366.73,248Z"/><path class="cls-7" d="M389.69,263.69v-4.1a2.14,2.14,0,1,0,0-4.28v-4.1a6.24,6.24,0,1,1,0,12.48Z"/><path class="cls-8" d="M351.19,285.75A12.17,12.17,0,0,1,339,273.58V261.77c-1.36.09-2.71.14-4.1.18v11.63a16.27,16.27,0,0,0,16.25,16.26h22v-4.09ZM334.94,244.3v11.12l4.1-.17V244.48C337.71,244.41,336.35,244.36,334.94,244.3Zm83-19.25H400.47a5.39,5.39,0,0,0-.34-1.28,3.93,3.93,0,0,0-.3-.62l-2.62-4.56-.75-1.3a5,5,0,0,0-4.27-2.45H376.94a5,5,0,0,0-4.27,2.46l-.69,1.2-2.69,4.66c-.09.17-.19.35-.26.52a5.16,5.16,0,0,0-.37,1.37H351.19a16.2,16.2,0,0,0-11.32,4.61l-.07.07a16.39,16.39,0,0,0-3.74,5.67l0,.08a15.38,15.38,0,0,0-.7,2.31,15.69,15.69,0,0,0-.39,3.52v32.27a16.27,16.27,0,0,0,16.25,16.26h66.73a16.28,16.28,0,0,0,16.26-16.26V241.31A16.28,16.28,0,0,0,417.92,225.05Zm12.15,48.53a12.17,12.17,0,0,1-12.15,12.17H351.19A12.17,12.17,0,0,1,339,273.58V241.31a12.25,12.25,0,0,1,.46-3.34,11,11,0,0,1,.88-2.19l0-.07a12.09,12.09,0,0,1,5.73-5.46l.15-.07a12,12,0,0,1,4.9-1H371.1v-2l1.74-1.07a.86.86,0,0,1,0-.84l.76-1.31,2.63-4.53a.79.79,0,0,1,.71-.42h15.25a.79.79,0,0,1,.71.41l2.67,4.61.72,1.23a.85.85,0,0,1,0,.85L398,227.1v2h19.9a12.17,12.17,0,0,1,12.15,12.17ZM334.94,244.3v11.12l4.1-.17V244.48C337.71,244.41,336.35,244.36,334.94,244.3Zm16.25,41.45A12.17,12.17,0,0,1,339,273.58V261.77c-1.36.09-2.71.14-4.1.18v11.63a16.27,16.27,0,0,0,16.25,16.26h22v-4.09ZM334.94,244.3v11.12l4.1-.17V244.48C337.71,244.41,336.35,244.36,334.94,244.3Zm16.25,41.45A12.17,12.17,0,0,1,339,273.58V261.77c-1.36.09-2.71.14-4.1.18v11.63a16.27,16.27,0,0,0,16.25,16.26h22v-4.09Z"/><path class="cls-9" d="M417.74,231.53a5.13,5.13,0,1,0,5.13,5.12A5.13,5.13,0,0,0,417.74,231.53Zm0,6.17a1,1,0,1,1,1-1A1,1,0,0,1,417.74,237.7Z"/></svg>