<?xml version="1.0" encoding="utf-8"?>
<!-- Generator: Adobe Illustrator 23.0.1, SVG Export Plug-In . SVG Version: 6.00 Build 0)  -->
<svg version="1.1" id="Layer_1" xmlns="http://www.w3.org/2000/svg" xmlns:xlink="http://www.w3.org/1999/xlink" x="0px" y="0px"
	 viewBox="0 0 1771.6 921.1" style="enable-background:new 0 0 1771.6 921.1;" xml:space="preserve">
<style type="text/css">
	.st0{opacity:0.45;fill:#BFE3D6;enable-background:new    ;}
	.st1{fill:none;stroke:#F26522;stroke-width:2;stroke-miterlimit:10;stroke-dasharray:6.0019,6.0019;}
	.st2{fill:#6D6E71;}
	.st3{font-family:'Helvetica';}
	.st4{font-size:22px;}
	.st5{fill:none;stroke:#F26522;stroke-width:2;stroke-miterlimit:10;}
	.st6{fill:none;stroke:#7D7E8D;stroke-width:2;stroke-miterlimit:10;}
	.st7{fill:none;stroke:#6D6E71;stroke-width:2;stroke-linecap:round;stroke-miterlimit:10;}
	.st8{fill:none;stroke:#6D6E71;stroke-width:3;stroke-linecap:round;stroke-miterlimit:10;}
	.st9{fill:none;stroke:#DA502F;stroke-width:3;stroke-linecap:round;stroke-miterlimit:10;}
	.st10{fill:#DA502F;}
	.st11{fill:none;stroke:#1F6196;stroke-width:3;stroke-miterlimit:10;}
	.st12{fill:#1F6196;}
	.st13{fill:none;stroke:#7A1315;stroke-width:3;stroke-miterlimit:10;}
	.st14{fill:#7A1315;}
	.st15{font-family:'Helvetica-Bold';}
	.st16{font-size:24px;}
	.st17{letter-spacing:3.2;}
	.st18{fill:none;stroke:#A7A9AC;stroke-width:2;stroke-miterlimit:10;}
	.st19{fill:none;stroke:#A7A9AC;stroke-width:2;stroke-miterlimit:10;stroke-dasharray:9.0222,9.0222;}
	.st20{fill:none;stroke:#A7A9AC;stroke-width:2;stroke-miterlimit:10;stroke-dasharray:9.2167,9.2167;}
	.st21{fill:#8B929D;}
	.st22{clip-path:url(#SVGID_2_);}
	.st23{clip-path:url(#SVGID_4_);fill:#DA4F30;}
	.st24{fill:#DA4F30;}
	.st25{fill:#6B0F17;}
	.st26{fill:none;stroke:#7A1315;stroke-width:3;stroke-linecap:round;stroke-miterlimit:10;}
	.st27{fill:none;stroke:#F26522;stroke-width:2;stroke-miterlimit:10;stroke-dasharray:5.8227,5.8227;}
	.st28{fill:#FFFFFF;stroke:#BFE3D6;stroke-miterlimit:10;}
	.st29{font-size:36px;}
	.st30{fill:none;}
	.st31{clip-path:url(#SVGID_6_);}
	.st32{clip-path:url(#SVGID_8_);}
	.st33{clip-path:url(#SVGID_10_);}
	.st34{clip-path:url(#SVGID_12_);fill:#336892;}
	.st35{clip-path:url(#SVGID_14_);}
	.st36{clip-path:url(#SVGID_16_);fill:#FFFFFF;}
	.st37{clip-path:url(#SVGID_18_);}
	.st38{clip-path:url(#SVGID_20_);fill:#FFFFFF;}
	.st39{fill:#F15B2A;}
	.st40{fill:#020202;}
	.st41{clip-path:url(#SVGID_22_);}
	.st42{clip-path:url(#SVGID_24_);fill:#922726;}
	.st43{clip-path:url(#SVGID_26_);}
	.st44{clip-path:url(#SVGID_28_);fill:#C72F2B;}
	.st45{clip-path:url(#SVGID_30_);}
	.st46{clip-path:url(#SVGID_32_);fill:#922726;}
	.st47{clip-path:url(#SVGID_34_);}
	.st48{clip-path:url(#SVGID_36_);fill:#C72F2B;}
	.st49{clip-path:url(#SVGID_38_);}
	.st50{clip-path:url(#SVGID_40_);fill:#922726;}
	.st51{clip-path:url(#SVGID_42_);}
	.st52{clip-path:url(#SVGID_44_);fill:#C72F2B;}
	.st53{clip-path:url(#SVGID_46_);}
	.st54{clip-path:url(#SVGID_48_);fill:#FFFFFF;}
	.st55{clip-path:url(#SVGID_50_);}
	.st56{clip-path:url(#SVGID_52_);fill:#FFFFFF;}
	.st57{clip-path:url(#SVGID_54_);}
	.st58{clip-path:url(#SVGID_56_);fill:#FFFFFF;}
	.st59{clip-path:url(#SVGID_58_);}
	.st60{clip-path:url(#SVGID_60_);fill:#621B1C;}
	.st61{clip-path:url(#SVGID_62_);}
	.st62{clip-path:url(#SVGID_64_);fill:#9B2A29;}
</style>
<path class="st0" d="M1684.1,529H79c-11.1,0-20-9-20-20V131.5c0-11.1,9-20,20-20h1605.1c11.1,0,20,9,20,20V509
	C1704.2,520,1695.2,529,1684.1,529z"/>
<g>
	<path class="st1" d="M1727.7,897.4H45.1c-11.1,0-20-9-20-20V78.1c0-11.1,9-20,20-20h1682.6c11.1,0,20,9,20,20v799.3
		C1747.8,888.4,1738.8,897.4,1727.7,897.4z"/>
</g>
<g>
	<text transform="matrix(0.9445 0 0 1 131.5469 459.1564)" class="st2 st3 st4">cStor tgt</text>
	<path class="st5" d="M234.3,481.6H115.8c-3.2,0-5.7-2.6-5.7-5.7v-48c0-3.2,2.6-5.7,5.7-5.7h118.5c3.2,0,5.7,2.6,5.7,5.7v48
		C240,479,237.5,481.6,234.3,481.6z"/>
</g>
<path class="st6" d="M500.1,323.2H392c-3.6,0-6.5-2.9-6.5-6.5v-46.4c0-3.6,2.9-6.5,6.5-6.5h108.1c3.6,0,6.5,2.9,6.5,6.5v46.4
	C506.6,320.3,503.7,323.2,500.1,323.2z"/>
<text transform="matrix(0.9445 0 0 1 415.4629 299.6471)" class="st2 st3 st4">Minio</text>
<g>
	<path class="st6" d="M498.4,481.6H390.3c-3.6,0-6.5-2.9-6.5-6.5v-46.4c0-3.6,2.9-6.5,6.5-6.5h108.1c3.6,0,6.5,2.9,6.5,6.5v46.4
		C504.9,478.7,502,481.6,498.4,481.6z"/>
	<text transform="matrix(0.9445 0 0 1 405.6606 458.0334)" class="st2 st3 st4">cStor tgt</text>
</g>
<g>
	<g>
		<ellipse class="st7" cx="369.6" cy="718.6" rx="18.7" ry="5.2"/>
		<path class="st7" d="M388.3,733.2c0,2.9-8.4,5.2-18.7,5.2s-18.7-2.3-18.7-5.2"/>
		<line class="st7" x1="350.9" y1="718.6" x2="350.9" y2="733.2"/>
		<line class="st7" x1="388.3" y1="718.6" x2="388.3" y2="733.2"/>
	</g>
</g>
<g>
	<g>
		<ellipse class="st7" cx="417.6" cy="718.6" rx="18.7" ry="5.2"/>
		<path class="st7" d="M436.3,733.2c0,2.9-8.4,5.2-18.7,5.2s-18.7-2.3-18.7-5.2"/>
		<line class="st7" x1="398.9" y1="718.6" x2="398.9" y2="733.2"/>
		<line class="st7" x1="436.3" y1="718.6" x2="436.3" y2="733.2"/>
	</g>
</g>
<g>
	<g>
		<ellipse class="st7" cx="465.6" cy="718.6" rx="18.7" ry="5.2"/>
		<path class="st7" d="M484.3,733.2c0,2.9-8.4,5.2-18.7,5.2s-18.7-2.3-18.7-5.2"/>
		<line class="st7" x1="446.9" y1="718.6" x2="446.9" y2="733.2"/>
		<line class="st7" x1="484.3" y1="718.6" x2="484.3" y2="733.2"/>
	</g>
</g>
<g>
	<g>
		<ellipse class="st7" cx="513.5" cy="718.6" rx="18.7" ry="5.2"/>
		<path class="st7" d="M532.3,733.2c0,2.9-8.4,5.2-18.7,5.2s-18.7-2.3-18.7-5.2"/>
		<line class="st7" x1="494.8" y1="718.6" x2="494.8" y2="733.2"/>
		<line class="st7" x1="532.3" y1="718.6" x2="532.3" y2="733.2"/>
	</g>
</g>
<path class="st5" d="M540.9,776.6H347.8c-3.2,0-5.7-2.6-5.7-5.7V702c0-3.2,2.6-5.7,5.7-5.7h193.1c3.2,0,5.7,2.6,5.7,5.7v68.9
	C546.6,774,544.1,776.6,540.9,776.6z"/>
<text transform="matrix(0.9445 0 0 1 359.4624 804.3243)" class="st2 st3 st4">cStorPool instance1</text>
<g>
	<g>
		<ellipse class="st7" cx="719.6" cy="718.6" rx="18.7" ry="5.2"/>
		<path class="st7" d="M738.4,733.2c0,2.9-8.4,5.2-18.7,5.2s-18.7-2.3-18.7-5.2"/>
		<line class="st7" x1="700.9" y1="718.6" x2="700.9" y2="733.2"/>
		<line class="st7" x1="738.4" y1="718.6" x2="738.4" y2="733.2"/>
	</g>
</g>
<g>
	<g>
		<ellipse class="st7" cx="767.6" cy="718.6" rx="18.7" ry="5.2"/>
		<path class="st7" d="M786.3,733.2c0,2.9-8.4,5.2-18.7,5.2s-18.7-2.3-18.7-5.2"/>
		<line class="st7" x1="748.9" y1="718.6" x2="748.9" y2="733.2"/>
		<line class="st7" x1="786.3" y1="718.6" x2="786.3" y2="733.2"/>
	</g>
</g>
<g>
	<g>
		<ellipse class="st7" cx="815.6" cy="718.6" rx="18.7" ry="5.2"/>
		<path class="st7" d="M834.3,733.2c0,2.9-8.4,5.2-18.7,5.2s-18.7-2.3-18.7-5.2"/>
		<line class="st7" x1="796.9" y1="718.6" x2="796.9" y2="733.2"/>
		<line class="st7" x1="834.3" y1="718.6" x2="834.3" y2="733.2"/>
	</g>
</g>
<g>
	<g>
		<ellipse class="st7" cx="863.6" cy="718.6" rx="18.7" ry="5.2"/>
		<path class="st7" d="M882.3,733.2c0,2.9-8.4,5.2-18.7,5.2s-18.7-2.3-18.7-5.2"/>
		<line class="st7" x1="844.8" y1="718.6" x2="844.8" y2="733.2"/>
		<line class="st7" x1="882.3" y1="718.6" x2="882.3" y2="733.2"/>
	</g>
</g>
<path class="st5" d="M890.9,776.6H697.8c-3.2,0-5.7-2.6-5.7-5.7V702c0-3.2,2.6-5.7,5.7-5.7h193.1c3.2,0,5.7,2.6,5.7,5.7v68.9
	C896.7,774,894.1,776.6,890.9,776.6z"/>
<g>
	<g>
		<ellipse class="st7" cx="1059.7" cy="718.6" rx="18.7" ry="5.2"/>
		<path class="st7" d="M1078.4,733.2c0,2.9-8.4,5.2-18.7,5.2c-10.3,0-18.7-2.3-18.7-5.2"/>
		<line class="st7" x1="1041" y1="718.6" x2="1041" y2="733.2"/>
		<line class="st7" x1="1078.4" y1="718.6" x2="1078.4" y2="733.2"/>
	</g>
</g>
<g>
	<g>
		<ellipse class="st7" cx="1107.6" cy="718.6" rx="18.7" ry="5.2"/>
		<path class="st7" d="M1126.4,733.2c0,2.9-8.4,5.2-18.7,5.2c-10.3,0-18.7-2.3-18.7-5.2"/>
		<line class="st7" x1="1088.9" y1="718.6" x2="1088.9" y2="733.2"/>
		<line class="st7" x1="1126.4" y1="718.6" x2="1126.4" y2="733.2"/>
	</g>
</g>
<g>
	<g>
		<ellipse class="st7" cx="1155.6" cy="718.6" rx="18.7" ry="5.2"/>
		<path class="st7" d="M1174.3,733.2c0,2.9-8.4,5.2-18.7,5.2c-10.3,0-18.7-2.3-18.7-5.2"/>
		<line class="st7" x1="1136.9" y1="718.6" x2="1136.9" y2="733.2"/>
		<line class="st7" x1="1174.3" y1="718.6" x2="1174.3" y2="733.2"/>
	</g>
</g>
<g>
	<g>
		<ellipse class="st7" cx="1203.6" cy="718.6" rx="18.7" ry="5.2"/>
		<path class="st7" d="M1222.3,733.2c0,2.9-8.4,5.2-18.7,5.2c-10.3,0-18.7-2.3-18.7-5.2"/>
		<line class="st7" x1="1184.9" y1="718.6" x2="1184.9" y2="733.2"/>
		<line class="st7" x1="1222.3" y1="718.6" x2="1222.3" y2="733.2"/>
	</g>
</g>
<path class="st5" d="M1231,776.6h-193.1c-3.2,0-5.7-2.6-5.7-5.7V702c0-3.2,2.6-5.7,5.7-5.7H1231c3.2,0,5.7,2.6,5.7,5.7v68.9
	C1236.7,774,1234.1,776.6,1231,776.6z"/>
<g>
	<g>
		<ellipse class="st7" cx="1426.6" cy="718.6" rx="18.7" ry="5.2"/>
		<path class="st7" d="M1445.3,733.2c0,2.9-8.4,5.2-18.7,5.2c-10.3,0-18.7-2.3-18.7-5.2"/>
		<line class="st7" x1="1407.9" y1="718.6" x2="1407.9" y2="733.2"/>
		<line class="st7" x1="1445.3" y1="718.6" x2="1445.3" y2="733.2"/>
	</g>
</g>
<g>
	<g>
		<ellipse class="st7" cx="1474.6" cy="718.6" rx="18.7" ry="5.2"/>
		<path class="st7" d="M1493.3,733.2c0,2.9-8.4,5.2-18.7,5.2c-10.3,0-18.7-2.3-18.7-5.2"/>
		<line class="st7" x1="1455.8" y1="718.6" x2="1455.8" y2="733.2"/>
		<line class="st7" x1="1493.3" y1="718.6" x2="1493.3" y2="733.2"/>
	</g>
</g>
<g>
	<g>
		<ellipse class="st7" cx="1522.5" cy="718.6" rx="18.7" ry="5.2"/>
		<path class="st7" d="M1541.3,733.2c0,2.9-8.4,5.2-18.7,5.2c-10.3,0-18.7-2.3-18.7-5.2"/>
		<line class="st7" x1="1503.8" y1="718.6" x2="1503.8" y2="733.2"/>
		<line class="st7" x1="1541.3" y1="718.6" x2="1541.3" y2="733.2"/>
	</g>
</g>
<g>
	<g>
		<ellipse class="st7" cx="1570.5" cy="718.6" rx="18.7" ry="5.2"/>
		<path class="st7" d="M1589.2,733.2c0,2.9-8.4,5.2-18.7,5.2c-10.3,0-18.7-2.3-18.7-5.2"/>
		<line class="st7" x1="1551.8" y1="718.6" x2="1551.8" y2="733.2"/>
		<line class="st7" x1="1589.2" y1="718.6" x2="1589.2" y2="733.2"/>
	</g>
</g>
<path class="st5" d="M1597.9,776.6h-193.1c-3.2,0-5.7-2.6-5.7-5.7V702c0-3.2,2.6-5.7,5.7-5.7h193.1c3.2,0,5.7,2.6,5.7,5.7v68.9
	C1603.6,774,1601,776.6,1597.9,776.6z"/>
<g>
	<g>
		<line class="st8" x1="175" y1="277.5" x2="175" y2="380"/>
		<g>
			<path class="st2" d="M175,398.1c-3.2-8.5-8.6-19.1-14.3-25.6l14.3,5.2l14.3-5.2C183.6,379,178.2,389.6,175,398.1z"/>
		</g>
	</g>
</g>
<g>
	<g>
		<line class="st8" x1="446.1" y1="332.4" x2="446.1" y2="396.1"/>
		<g>
			<path class="st2" d="M446.1,414.2c-3.2-8.5-8.6-19.1-14.3-25.6l14.3,5.2l14.3-5.2C454.6,395.1,449.2,405.7,446.1,414.2z"/>
		</g>
	</g>
</g>
<path class="st6" d="M840,321.2H732c-3.6,0-6.5-2.9-6.5-6.5v-46.4c0-3.6,2.9-6.5,6.5-6.5h108c3.6,0,6.5,2.9,6.5,6.5v46.4
	C846.6,318.3,843.6,321.2,840,321.2z"/>
<text transform="matrix(0.9445 0 0 1 737.5664 297.6881)" class="st2 st3 st4">PostgreSql</text>
<g>
	<path class="st6" d="M840,481.6H732c-3.6,0-6.5-2.9-6.5-6.5v-46.4c0-3.6,2.9-6.5,6.5-6.5h108c3.6,0,6.5,2.9,6.5,6.5v46.4
		C846.6,478.7,843.6,481.6,840,481.6z"/>
	<text transform="matrix(0.9445 0 0 1 747.334 458.0334)" class="st2 st3 st4">cStor tgt</text>
</g>
<g>
	<g>
		<line class="st8" x1="787.7" y1="332.4" x2="787.7" y2="396.1"/>
		<g>
			<path class="st2" d="M787.7,414.2c-3.2-8.5-8.6-19.1-14.3-25.6l14.3,5.2l14.3-5.2C796.3,395.1,790.9,405.7,787.7,414.2z"/>
		</g>
	</g>
</g>
<g>
	<g>
		<line class="st8" x1="700.9" y1="572.2" x2="700.9" y2="650.9"/>
		<g>
			<path class="st2" d="M700.9,669c-3.2-8.5-8.6-19.1-14.3-25.6l14.3,5.2l14.3-5.2C709.5,649.9,704.1,660.5,700.9,669z"/>
		</g>
	</g>
</g>
<g>
	<g>
		<line class="st9" x1="525.4" y1="628.1" x2="525.4" y2="652.6"/>
		<g>
			<path class="st10" d="M525.4,670.7c-3.2-8.5-8.6-19.1-14.3-25.6l14.3,5.2l14.3-5.2C534,651.6,528.6,662.1,525.4,670.7z"/>
		</g>
	</g>
</g>
<g>
	<g>
		<line class="st9" x1="867.8" y1="629.6" x2="867.8" y2="652.6"/>
		<g>
			<path class="st10" d="M867.8,670.7c-3.2-8.5-8.6-19.1-14.3-25.6l14.3,5.2L882,645C876.3,651.6,870.9,662.1,867.8,670.7z"/>
		</g>
	</g>
</g>
<g>
	<g>
		<line class="st9" x1="1426.6" y1="628.1" x2="1426.6" y2="652.6"/>
		<g>
			<path class="st10" d="M1426.6,670.7c-3.2-8.5-8.6-19.1-14.3-25.6l14.3,5.2l14.3-5.2C1435.1,651.6,1429.8,662.1,1426.6,670.7z"/>
		</g>
	</g>
</g>
<g>
	<g>
		<line class="st11" x1="1185.1" y1="541.8" x2="1185.1" y2="650.9"/>
		<g>
			<path class="st12" d="M1185.1,669c-3.2-8.5-8.6-19.1-14.3-25.6l14.3,5.2l14.3-5.2C1193.7,649.9,1188.3,660.5,1185.1,669z"/>
		</g>
	</g>
</g>
<g>
	<g>
		<line class="st13" x1="1065.6" y1="585.3" x2="1065.6" y2="650.9"/>
		<g>
			<path class="st14" d="M1065.6,669c-3.2-8.5-8.6-19.1-14.3-25.6l14.3,5.2l14.3-5.2C1074.2,649.9,1068.8,660.5,1065.6,669z"/>
		</g>
	</g>
</g>
<g>
	<g>
		<line class="st13" x1="767.1" y1="585.3" x2="767.1" y2="650.9"/>
		<g>
			<path class="st14" d="M767.1,669c-3.2-8.5-8.6-19.1-14.3-25.6l14.3,5.2l14.3-5.2C775.7,649.9,770.3,660.5,767.1,669z"/>
		</g>
	</g>
</g>
<g>
	<g>
		<line class="st11" x1="1570.5" y1="540.4" x2="1570.5" y2="650.9"/>
		<g>
			<path class="st12" d="M1570.5,669c-3.2-8.5-8.6-19.1-14.3-25.6l14.3,5.2l14.3-5.2C1579.1,649.9,1573.7,660.5,1570.5,669z"/>
		</g>
	</g>
</g>
<g>
	<g>
		<line class="st11" x1="481.1" y1="542.7" x2="481.1" y2="650.9"/>
		<g>
			<path class="st12" d="M481.1,669c-3.2-8.5-8.6-19.1-14.3-25.6l14.3,5.2l14.3-5.2C489.6,649.9,484.2,660.5,481.1,669z"/>
		</g>
	</g>
</g>
<g>
	<g>
		<line class="st8" x1="446.1" y1="487.4" x2="446.1" y2="650.1"/>
		<g>
			<path class="st2" d="M446.1,668.2c-3.2-8.5-8.6-19.1-14.3-25.6l14.3,5.2l14.3-5.2C454.6,649.1,449.2,659.7,446.1,668.2z"/>
		</g>
	</g>
</g>
<g>
	<g>
		<line class="st8" x1="363.8" y1="592.7" x2="363.8" y2="650.1"/>
		<g>
			<path class="st2" d="M363.8,668.2c-3.2-8.5-8.6-19.1-14.3-25.6l14.3,5.2l14.3-5.2C372.4,649.1,367,659.7,363.8,668.2z"/>
		</g>
	</g>
</g>
<text transform="matrix(0.9445 0 0 1 405.6611 855.7394)" class="st2 st15 st16">NODE 1</text>
<text transform="matrix(0.9445 0 0 1 490.0996 855.7394)" class="st2 st15 st16 st17"> </text>
<text transform="matrix(0.9445 0 0 1 757.6758 855.7394)" class="st2 st15 st16">NODE 2</text>
<text transform="matrix(0.9445 0 0 1 842.1143 855.7394)" class="st2 st15 st16 st17"> </text>
<text transform="matrix(0.9445 0 0 1 1088.9277 855.7394)" class="st2 st15 st16">NODE 3</text>
<text transform="matrix(0.9445 0 0 1 1173.3662 855.7394)" class="st2 st15 st16 st17"> </text>
<text transform="matrix(0.9445 0 0 1 1480.2354 855.7394)" class="st2 st15 st16">NODE 4</text>
<text transform="matrix(0.9445 0 0 1 1564.6738 855.7394)" class="st2 st15 st16 st17"> </text>
<g>
	<g>
		<polyline class="st18" points="1685.2,819.2 1685.2,823.7 1680.7,823.7 		"/>
		<line class="st19" x1="1671.7" y1="823.7" x2="286.8" y2="823.7"/>
		<polyline class="st18" points="282.3,823.7 277.8,823.7 277.8,819.2 		"/>
		<line class="st20" x1="277.8" y1="810" x2="277.8" y2="685.6"/>
		<polyline class="st18" points="277.8,681 277.8,676.5 282.3,676.5 		"/>
		<line class="st19" x1="291.3" y1="676.5" x2="1676.2" y2="676.5"/>
		<polyline class="st18" points="1680.7,676.5 1685.2,676.5 1685.2,681 		"/>
		<line class="st20" x1="1685.2" y1="690.2" x2="1685.2" y2="814.6"/>
	</g>
</g>
<g>
	<path class="st21" d="M153.5,232.3c0.6,0,1-0.1,1.4-0.2c0.4-0.1,0.8-0.2,1.2-0.4v-2.4h-1.7c-0.2,0-0.3,0-0.4-0.1
		c-0.1-0.1-0.1-0.2-0.1-0.3v-1.4h4.4v5.3c-0.3,0.2-0.7,0.5-1,0.6c-0.4,0.2-0.7,0.3-1.2,0.4c-0.4,0.1-0.8,0.2-1.3,0.3s-1,0.1-1.5,0.1
		c-1,0-1.8-0.2-2.7-0.5c-0.8-0.3-1.5-0.8-2.1-1.4c-0.6-0.6-1-1.3-1.4-2.1c-0.3-0.8-0.5-1.7-0.5-2.7s0.2-1.9,0.5-2.7s0.8-1.5,1.4-2.1
		c0.6-0.6,1.3-1.1,2.2-1.4c0.8-0.3,1.8-0.5,2.8-0.5c1.1,0,2,0.2,2.8,0.5s1.5,0.7,2,1.2l-0.7,1.1c-0.1,0.2-0.3,0.3-0.6,0.3
		c-0.1,0-0.3,0-0.4-0.1c-0.2-0.1-0.4-0.2-0.6-0.3c-0.2-0.1-0.4-0.2-0.7-0.3c-0.2-0.1-0.5-0.2-0.8-0.2c-0.3-0.1-0.7-0.1-1.1-0.1
		c-0.7,0-1.2,0.1-1.8,0.3c-0.5,0.2-1,0.5-1.3,0.9c-0.4,0.4-0.7,0.9-0.9,1.5s-0.3,1.2-0.3,1.9c0,0.8,0.1,1.4,0.3,2s0.5,1.1,0.9,1.5
		s0.8,0.7,1.4,0.9S152.9,232.3,153.5,232.3z"/>
	<path class="st21" d="M163.4,234.1h-2.5v-13.2h2.5V234.1z"/>
	<path class="st21" d="M175.7,220.9v2h-4v11.2h-2.5v-11.2h-4v-2H175.7z"/>
	<path class="st21" d="M187.5,234.1h-1.9c-0.2,0-0.4-0.1-0.5-0.2s-0.2-0.2-0.3-0.4l-1-2.7h-5.5l-1,2.7c0,0.1-0.1,0.3-0.3,0.4
		c-0.1,0.1-0.3,0.2-0.5,0.2h-1.9l5.2-13.2h2.5L187.5,234.1z M178.9,229.1h4.2l-1.6-4.4c-0.1-0.2-0.2-0.4-0.2-0.7
		c-0.1-0.3-0.2-0.6-0.3-0.9c-0.1,0.3-0.2,0.6-0.3,0.9s-0.2,0.5-0.2,0.7L178.9,229.1z"/>
	<path class="st21" d="M191.3,232.1h5.3v2h-7.7v-13.2h2.5v11.2H191.3z"/>
	<path class="st21" d="M202.1,229v5.1h-2.5V229l-4.8-8.1h2.2c0.2,0,0.4,0.1,0.5,0.2c0.1,0.1,0.2,0.2,0.3,0.4l2.4,4.4
		c0.1,0.3,0.3,0.5,0.4,0.7c0.1,0.2,0.2,0.5,0.3,0.7c0.1-0.2,0.2-0.5,0.3-0.7s0.2-0.5,0.4-0.7l2.4-4.4c0.1-0.1,0.2-0.3,0.3-0.4
		s0.3-0.2,0.5-0.2h2.2L202.1,229z"/>
	<path class="st21" d="M156.1,250.3c0,1.3,0.2,2.5,0.5,3.7s0.7,2.3,1.3,3.4c0,0.1,0.1,0.2,0.1,0.2c0,0.1,0,0.1,0,0.2s0,0.2-0.1,0.3
		c-0.1,0.1-0.1,0.1-0.2,0.2l-1,0.6c-0.5-0.7-0.8-1.4-1.1-2.1s-0.6-1.4-0.8-2.1c-0.2-0.7-0.3-1.4-0.4-2.2c-0.1-0.7-0.1-1.5-0.1-2.2
		c0-0.8,0-1.5,0.1-2.2s0.2-1.5,0.4-2.2s0.5-1.4,0.8-2.1s0.7-1.4,1.1-2.1l1,0.6c0.1,0,0.2,0.1,0.2,0.2c0.1,0.1,0.1,0.2,0.1,0.3
		s0,0.3-0.1,0.4c-0.6,1.1-1,2.2-1.3,3.4S156.1,249,156.1,250.3z"/>
	<path class="st21" d="M167,245.2c-0.1,0.1-0.1,0.2-0.2,0.3c-0.1,0.1-0.2,0.1-0.3,0.1s-0.3,0-0.4-0.1s-0.3-0.2-0.5-0.3
		s-0.4-0.2-0.7-0.3s-0.6-0.1-1-0.1c-0.3,0-0.6,0-0.9,0.1c-0.3,0.1-0.5,0.2-0.6,0.3c-0.2,0.1-0.3,0.3-0.4,0.5
		c-0.1,0.2-0.1,0.4-0.1,0.7s0.1,0.6,0.3,0.8s0.4,0.4,0.7,0.5s0.6,0.3,1,0.4c0.4,0.1,0.7,0.2,1.1,0.4s0.8,0.3,1.1,0.5
		c0.4,0.2,0.7,0.4,1,0.7s0.5,0.6,0.7,1s0.3,0.8,0.3,1.4c0,0.6-0.1,1.2-0.3,1.7s-0.5,1-0.9,1.4s-0.9,0.7-1.4,0.9
		c-0.6,0.2-1.2,0.3-1.9,0.3c-0.4,0-0.8,0-1.2-0.1s-0.8-0.2-1.2-0.4c-0.4-0.2-0.7-0.3-1-0.5s-0.6-0.4-0.9-0.7l0.7-1.2
		c0.1-0.1,0.1-0.2,0.2-0.2c0.1-0.1,0.2-0.1,0.3-0.1c0.2,0,0.3,0.1,0.5,0.2s0.4,0.3,0.6,0.4s0.5,0.3,0.8,0.4c0.3,0.1,0.7,0.2,1.2,0.2
		c0.7,0,1.2-0.2,1.6-0.5c0.4-0.3,0.6-0.8,0.6-1.4c0-0.3-0.1-0.6-0.3-0.8s-0.4-0.4-0.7-0.6c-0.3-0.1-0.6-0.3-1-0.4s-0.7-0.2-1.1-0.3
		c-0.4-0.1-0.7-0.3-1.1-0.4c-0.4-0.2-0.7-0.4-1-0.7s-0.5-0.6-0.7-1s-0.3-0.9-0.3-1.5c0-0.5,0.1-0.9,0.3-1.4s0.5-0.9,0.8-1.2
		c0.4-0.4,0.8-0.6,1.4-0.8s1.1-0.3,1.8-0.3c0.8,0,1.5,0.1,2.2,0.4c0.7,0.2,1.2,0.6,1.7,1L167,245.2z"/>
	<path class="st21" d="M179,242.8v2h-4V256h-2.5v-11.2h-4v-2H179z"/>
	<path class="st21" d="M187.7,245.2c-0.1,0.1-0.1,0.2-0.2,0.3c-0.1,0.1-0.2,0.1-0.3,0.1s-0.3,0-0.4-0.1s-0.3-0.2-0.5-0.3
		s-0.4-0.2-0.7-0.3s-0.6-0.1-1-0.1c-0.3,0-0.6,0-0.9,0.1c-0.3,0.1-0.5,0.2-0.6,0.3c-0.2,0.1-0.3,0.3-0.4,0.5
		c-0.1,0.2-0.1,0.4-0.1,0.7s0.1,0.6,0.3,0.8s0.4,0.4,0.7,0.5s0.6,0.3,1,0.4c0.4,0.1,0.7,0.2,1.1,0.4s0.8,0.3,1.1,0.5
		c0.4,0.2,0.7,0.4,1,0.7s0.5,0.6,0.7,1s0.3,0.8,0.3,1.4c0,0.6-0.1,1.2-0.3,1.7s-0.5,1-0.9,1.4s-0.9,0.7-1.4,0.9
		c-0.6,0.2-1.2,0.3-1.9,0.3c-0.4,0-0.8,0-1.2-0.1s-0.8-0.2-1.2-0.4c-0.4-0.2-0.7-0.3-1-0.5s-0.6-0.4-0.9-0.7l0.7-1.2
		c0.1-0.1,0.1-0.2,0.2-0.2c0.1-0.1,0.2-0.1,0.3-0.1c0.2,0,0.3,0.1,0.5,0.2s0.4,0.3,0.6,0.4s0.5,0.3,0.8,0.4c0.3,0.1,0.7,0.2,1.2,0.2
		c0.7,0,1.2-0.2,1.6-0.5c0.4-0.3,0.6-0.8,0.6-1.4c0-0.3-0.1-0.6-0.3-0.8s-0.4-0.4-0.7-0.6c-0.3-0.1-0.6-0.3-1-0.4s-0.7-0.2-1.1-0.3
		c-0.4-0.1-0.7-0.3-1.1-0.4c-0.4-0.2-0.7-0.4-1-0.7s-0.5-0.6-0.7-1s-0.3-0.9-0.3-1.5c0-0.5,0.1-0.9,0.3-1.4s0.5-0.9,0.8-1.2
		c0.4-0.4,0.8-0.6,1.4-0.8s1.1-0.3,1.8-0.3c0.8,0,1.5,0.1,2.2,0.4c0.7,0.2,1.2,0.6,1.7,1L187.7,245.2z"/>
	<path class="st21" d="M191.6,250.3c0-1.3-0.2-2.5-0.5-3.7s-0.7-2.4-1.3-3.4c-0.1-0.2-0.1-0.3-0.1-0.4c0-0.1,0-0.2,0.1-0.3
		s0.1-0.1,0.2-0.2l1-0.6c0.4,0.7,0.8,1.4,1.1,2.1c0.3,0.7,0.6,1.4,0.8,2.1c0.2,0.7,0.3,1.4,0.4,2.2c0.1,0.7,0.1,1.5,0.1,2.2
		c0,0.8,0,1.5-0.1,2.2s-0.2,1.5-0.4,2.2s-0.5,1.4-0.8,2.1s-0.7,1.4-1.1,2.1l-1-0.6c-0.1,0-0.2-0.1-0.2-0.2s-0.1-0.2-0.1-0.3
		c0-0.1,0-0.1,0-0.2s0-0.1,0.1-0.2c0.6-1.1,1-2.2,1.3-3.4C191.5,252.8,191.6,251.5,191.6,250.3z"/>
</g>
<g>
	<g>
		<path class="st6" d="M1177.8,481.6h-108.1c-3.6,0-6.5-2.9-6.5-6.5v-46.4c0-3.6,2.9-6.5,6.5-6.5h108.1c3.6,0,6.5,2.9,6.5,6.5v46.4
			C1184.3,478.7,1181.4,481.6,1177.8,481.6z"/>
		<text transform="matrix(0.9445 0 0 1 1085.0449 458.0334)" class="st2 st3 st4">cStor tgt</text>
	</g>
	<g>
		<g>
			<line class="st8" x1="1125.5" y1="332.4" x2="1125.5" y2="396.1"/>
			<g>
				<path class="st2" d="M1125.5,414.2c-3.2-8.5-8.6-19.1-14.3-25.6l14.3,5.2l14.3-5.2C1134,395.1,1128.6,405.7,1125.5,414.2z"/>
			</g>
		</g>
	</g>
	<g>
		<path class="st6" d="M1178.6,321.2h-108.1c-3.6,0-6.5-2.9-6.5-6.5v-46.4c0-3.6,2.9-6.5,6.5-6.5h108.1c3.6,0,6.5,2.9,6.5,6.5v46.4
			C1185.1,318.3,1182.2,321.2,1178.6,321.2z"/>
		<text transform="matrix(0.9445 0 0 1 1069.7363 297.6881)" class="st2 st3 st4">Prometheus</text>
		<g>
			<g>
				<defs>
					<path id="SVGID_1_" d="M1135.2,225.8h-21.3c-0.1-0.1-0.1-0.2-0.2-0.2c-2.2-2.7-2.7-4.1-3.2-5.5c0,0,2.7,0.5,4.6,1
						c0,0,1,0.2,2.4,0.5c-1.4-1.6-2.2-3.6-2.2-5.7c0-4.6,3.5-8.6,2.2-11.8c1.2,0.1,2.5,2.6,2.6,6.5c1.3-1.8,1.9-5.1,1.9-7.1
						c0-2.1,1.4-4.5,2.8-4.6c-1.2,2,0.3,3.8,1.7,8.1c0.5,1.6,0.5,4.4,0.9,6.1c0.1-3.6,0.8-8.8,3-10.7c-1,2.3,0.1,5.1,0.9,6.5
						c1.3,2.2,2,3.9,2,7.1c0,2.1-0.8,4.1-2.1,5.7c1.5-0.3,2.5-0.5,2.5-0.5l4.9-1C1138.7,220,1138,223,1135.2,225.8z M1135.3,231.7
						h-21.4v-3.9h21.4V231.7L1135.3,231.7z M1124.6,238.8c-3.6,0-6.5-2.4-6.5-5.3h13C1131.1,236.4,1128.2,238.8,1124.6,238.8z
						 M1124.6,196.1c-12.6,0-22.8,10.2-22.8,22.8s10.2,22.8,22.8,22.8c12.6,0,22.8-10.2,22.8-22.8S1137.2,196.1,1124.6,196.1z"/>
				</defs>
				<clipPath id="SVGID_2_">
					<use xlink:href="#SVGID_1_"  style="overflow:visible;"/>
				</clipPath>
				<g class="st22">
					<g>
						<defs>
							<rect id="SVGID_3_" x="513.2" y="50.7" width="844.8" height="233.2"/>
						</defs>
						<clipPath id="SVGID_4_">
							<use xlink:href="#SVGID_3_"  style="overflow:visible;"/>
						</clipPath>
						<rect x="1100.8" y="195.1" class="st23" width="47.7" height="47.7"/>
					</g>
				</g>
			</g>
		</g>
	</g>
</g>
<rect x="444.6" y="570.8" class="st2" width="256.3" height="2.8"/>
<rect x="173.9" y="591" class="st2" width="190.9" height="2.8"/>
<rect x="173.4" y="486.8" class="st2" width="2.8" height="106.4"/>
<g>
	<rect x="479.6" y="540.4" class="st12" width="215.5" height="2.8"/>
</g>
<rect x="524.6" y="626.1" class="st24" width="902" height="2.8"/>
<rect x="692.2" y="540.4" class="st12" width="879.8" height="2.8"/>
<rect x="765.7" y="583.8" class="st25" width="734.2" height="2.8"/>
<rect x="781.5" y="488.8" class="st12" width="2.8" height="54.4"/>
<rect x="1119.8" y="489.6" class="st24" width="2.8" height="139.8"/>
<path class="st6" d="M1553.6,317.9h-108.1c-3.6,0-6.5-2.9-6.5-6.5V265c0-3.6,2.9-6.5,6.5-6.5h108.1c3.6,0,6.5,2.9,6.5,6.5v46.4
	C1560.1,315,1557.2,317.9,1553.6,317.9z"/>
<text transform="matrix(0.9445 0 0 1 1470.7725 294.3293)" class="st2 st3 st4">Redis</text>
<g>
	<path class="st6" d="M1552.2,481.6h-108.1c-3.6,0-6.5-2.9-6.5-6.5v-46.4c0-3.6,2.9-6.5,6.5-6.5h108.1c3.6,0,6.5,2.9,6.5,6.5v46.4
		C1558.7,478.7,1555.8,481.6,1552.2,481.6z"/>
	<text transform="matrix(0.9445 0 0 1 1459.4883 458.0334)" class="st2 st3 st4">cStor tgt</text>
</g>
<g>
	<g>
		<line class="st8" x1="1499.9" y1="332.4" x2="1499.9" y2="396.1"/>
		<g>
			<path class="st2" d="M1499.9,414.2c-3.2-8.5-8.6-19.1-14.3-25.6l14.3,5.2l14.3-5.2C1508.4,395.1,1503.1,405.7,1499.9,414.2z"/>
		</g>
	</g>
</g>
<g>
	<g>
		<line class="st26" x1="1499.9" y1="620.5" x2="1499.9" y2="652.6"/>
		<g>
			<path class="st14" d="M1499.9,670.7c-3.2-8.5-8.6-19.1-14.3-25.6l14.3,5.2l14.3-5.2C1508.4,651.6,1503.1,662.1,1499.9,670.7z"/>
		</g>
	</g>
</g>
<rect x="1498.5" y="491.1" class="st25" width="2.8" height="130.3"/>
<g>
	<g>
		<line class="st5" x1="276.7" y1="873.5" x2="276.7" y2="870.5"/>
		<line class="st27" x1="276.7" y1="864.7" x2="278.1" y2="681.3"/>
		<line class="st5" x1="278.1" y1="678.3" x2="278.2" y2="675.3"/>
	</g>
</g>
<g>
	<g>
		<line class="st5" x1="618.6" y1="873.5" x2="618.6" y2="870.5"/>
		<line class="st27" x1="618.7" y1="864.7" x2="620.1" y2="681.3"/>
		<line class="st5" x1="620.1" y1="678.3" x2="620.1" y2="675.3"/>
	</g>
</g>
<g>
	<g>
		<line class="st5" x1="965.4" y1="873.5" x2="965.5" y2="870.5"/>
		<line class="st27" x1="965.5" y1="864.7" x2="966.9" y2="681.3"/>
		<line class="st5" x1="966.9" y1="678.3" x2="966.9" y2="675.3"/>
	</g>
</g>
<g>
	<g>
		<line class="st5" x1="1312.2" y1="873.5" x2="1312.3" y2="870.5"/>
		<line class="st27" x1="1312.3" y1="864.7" x2="1313.7" y2="681.3"/>
		<line class="st5" x1="1313.7" y1="678.3" x2="1313.7" y2="675.3"/>
	</g>
</g>
<g>
	<g>
		<line class="st5" x1="1684.1" y1="873.5" x2="1684.1" y2="870.5"/>
		<line class="st27" x1="1684.2" y1="864.7" x2="1685.5" y2="681.3"/>
		<line class="st5" x1="1685.6" y1="678.3" x2="1685.6" y2="675.3"/>
	</g>
</g>
<g>
	<path class="st28" d="M1313.4,89.7H479.9c-6.3,0-11.5-5.1-11.5-11.5V37.8c0-6.3,5.1-11.5,11.5-11.5h833.4c6.3,0,11.5,5.1,11.5,11.5
		v40.4C1324.8,84.6,1319.7,89.7,1313.4,89.7z"/>
	<text transform="matrix(0.9445 0 0 1 518.0225 69.5397)" class="st2 st15 st29">Cloud native CI/CD using GitLab and OpenEBS</text>
</g>
<rect x="629.8" y="198.7" class="st30" width="20.8" height="20.8"/>
<g>
	<g>
		<g>
			<defs>
				<path id="SVGID_5_" d="M804.8,225c-0.3-0.8-0.9-1.3-1.8-1.4c-0.4-0.1-0.9,0-1.4,0.1c-0.9,0.2-1.6,0.3-2.2,0.3
					c1.9-3.3,3.5-7,4.4-10.5c1.5-5.7,0.7-8.3-0.2-9.4c-2.4-3.1-6-4.8-10.2-4.8c-2.3,0-4.3,0.4-5.3,0.7c-1-0.2-2-0.3-3.1-0.3
					c-2,0-3.9,0.4-5.4,1.3c-0.9-0.3-2.2-0.7-3.8-1c-3.7-0.6-6.7-0.1-8.9,1.4c-2.7,1.9-3.9,5.2-3.7,9.7c0.1,1.5,0.9,5.9,2.2,10
					c0.7,2.4,1.5,4.4,2.3,5.9c1.1,2.2,2.4,3.5,3.8,3.9c0.8,0.3,2.2,0.4,3.7-0.8c0.2,0.2,0.4,0.5,0.8,0.7c0.4,0.3,0.9,0.5,1.5,0.6
					c1.9,0.5,3.6,0.3,5.1-0.3c0,0.3,0,0.5,0,0.7c0,0.4,0,0.7,0,1c0.1,2.2,0.2,3.9,0.7,5.1c0,0.1,0.1,0.2,0.1,0.3
					c0.2,0.7,0.6,1.8,1.5,2.7c1,0.9,2.1,1.2,3.2,1.2c0.5,0,1.1-0.1,1.5-0.2c1.6-0.3,3.4-0.9,4.7-2.7c1.2-1.8,1.9-4.4,2-8.7
					c0-0.1,0-0.2,0-0.3V230h0.3h0.1c1.6,0.1,3.6-0.3,4.9-0.8C802.4,228.9,805.5,227.3,804.8,225"/>
			</defs>
			<clipPath id="SVGID_6_">
				<use xlink:href="#SVGID_5_"  style="overflow:visible;"/>
			</clipPath>
			<g class="st31">
				<g>
					<defs>
						<rect id="SVGID_7_" x="-2.1" y="46" width="862.9" height="238.1"/>
					</defs>
					<clipPath id="SVGID_8_">
						<use xlink:href="#SVGID_7_"  style="overflow:visible;"/>
					</clipPath>
					<rect x="762.1" y="198.2" class="st32" width="43.8" height="45.1"/>
				</g>
			</g>
		</g>
	</g>
	<g>
		<g>
			<defs>
				<path id="SVGID_9_" d="M802,225.5c-4.9,1-5.2-0.6-5.2-0.6c5.1-7.6,7.3-17.3,5.4-19.7c-5.1-6.5-13.8-3.4-13.9-3.3l0,0
					c-1-0.2-2-0.3-3.2-0.3c-2.2,0-3.9,0.6-5.1,1.5c0,0-15.6-6.4-14.9,8.1c0.2,3.1,4.4,23.4,9.5,17.2c1.9-2.2,3.7-4.1,3.7-4.1
					c0.9,0.6,2,0.9,3.1,0.8l0.1-0.1c0,0.3,0,0.5,0,0.9c-1.3,1.5-0.9,1.7-3.5,2.3c-2.7,0.5-1.1,1.5-0.1,1.8c1.2,0.3,4.1,0.7,6-2
					l-0.1,0.3c0.5,0.4,0.9,2.7,0.8,4.7c-0.1,2.1-0.1,3.5,0.3,4.6c0.4,1.1,0.8,3.6,4.3,2.8c2.9-0.6,4.4-2.2,4.6-4.9
					c0.1-1.9,0.5-1.6,0.5-3.3l0.3-0.8c0.3-2.6,0-3.4,1.8-3h0.4c1.3,0.1,3-0.2,4-0.7C802.9,226.7,804.1,225,802,225.5L802,225.5"/>
			</defs>
			<clipPath id="SVGID_10_">
				<use xlink:href="#SVGID_9_"  style="overflow:visible;"/>
			</clipPath>
			<g class="st33">
				<g>
					<defs>
						<rect id="SVGID_11_" x="-2.1" y="46" width="862.9" height="238.1"/>
					</defs>
					<clipPath id="SVGID_12_">
						<use xlink:href="#SVGID_11_"  style="overflow:visible;"/>
					</clipPath>
					<rect x="763.9" y="200" class="st34" width="40.2" height="41.5"/>
				</g>
			</g>
		</g>
	</g>
	<g>
		<g>
			<defs>
				<path id="SVGID_13_" d="M795.3,212.5c0-0.3-0.6-0.4-1.1-0.3c-0.5,0.1-1,0.3-1,0.6c0,0.2,0.5,0.6,1,0.6h0.1
					c0.3,0,0.6-0.3,0.7-0.4C795.2,212.9,795.3,212.7,795.3,212.5 M780.8,212.5c-0.4-0.1-0.8,0-1,0.1c-0.1,0.1-0.1,0.2-0.2,0.3
					c0,0.2,0.1,0.4,0.2,0.5c0.2,0.3,0.5,0.5,0.9,0.5h0.1c0.5,0,1-0.4,1.1-0.7C781.9,212.9,781.3,212.6,780.8,212.5"/>
			</defs>
			<clipPath id="SVGID_14_">
				<use xlink:href="#SVGID_13_"  style="overflow:visible;"/>
			</clipPath>
			<g class="st35">
				<g>
					<defs>
						<rect id="SVGID_15_" x="-2.1" y="46" width="862.9" height="238.1"/>
					</defs>
					<clipPath id="SVGID_16_">
						<use xlink:href="#SVGID_15_"  style="overflow:visible;"/>
					</clipPath>
					<rect x="778.5" y="211.2" class="st36" width="17.8" height="3.8"/>
				</g>
			</g>
		</g>
	</g>
	<g>
		<g>
			<defs>
				<path id="SVGID_17_" d="M800.4,227.1c-0.7,0.3-1.9,0.6-3,0.6c-1.2,0.1-1.8-0.1-2-0.3c-0.1-1.4,0.5-1.6,1-1.7
					c0.1,0,0.2,0,0.3-0.1c0.1,0,0.1,0.1,0.2,0.1c1,0.6,2.7,0.7,5.2,0.2l0,0C801.8,226.3,801.2,226.7,800.4,227.1z M789.3,239.8
					c-2.7,0.6-3.6-0.8-4.2-2.3c-0.4-1-0.6-5.5-0.5-10.5c0-0.1,0-0.1,0-0.2c0-0.1,0-0.2-0.1-0.4c-0.2-0.7-0.7-1.3-1.3-1.6
					c-0.2-0.1-0.7-0.3-1.2-0.1c0.1-0.5,0.3-1,0.5-1.6l0.1-0.2c0.1-0.3,0.2-0.6,0.4-0.9c0.7-1.6,1.7-3.8,0.6-8.8
					c-0.4-1.9-1.8-2.8-3.8-2.6c-1.2,0.1-2.3,0.6-2.9,0.9c-0.1,0.1-0.2,0.1-0.3,0.2c0.2-1.9,0.7-5.4,2.9-7.6c1.4-1.4,3.2-2.1,5.5-2.1
					c4.4,0.1,7.3,2.3,8.9,4.2c1.4,1.6,2.1,3.3,2.4,4.2c-2.2-0.2-3.8,0.2-4.6,1.3c-1.7,2.4,0.9,7.1,2.2,9.3c0.2,0.4,0.4,0.8,0.5,0.9
					c0.4,1,0.9,1.7,1.3,2.1c0.1,0.1,0.2,0.3,0.3,0.4c-0.7,0.2-1.9,0.6-1.8,2.9c-0.1,1.1-0.7,6.5-1.1,8.3
					C792.8,238.4,791.8,239.3,789.3,239.8L789.3,239.8z M777.9,229.2c-0.3-0.1-0.6-0.2-0.8-0.3c0.1-0.1,0.4-0.2,0.9-0.3
					c2.2-0.4,2.5-0.8,3.3-1.7c0.2-0.2,0.4-0.5,0.6-0.8l0,0c0.4-0.4,0.6-0.4,0.9-0.2c0.3,0.1,0.5,0.4,0.6,0.8c0,0.2,0.1,0.5-0.1,0.8
					C781.7,229.7,779.5,229.6,777.9,229.2z M777.7,223c-1.1-1.1-1.6-2.7-1.3-4.2c0.3-2.2,0.2-4.2,0.1-5.2c0-0.1,0-0.3,0-0.4
					c0.5-0.4,2.8-1.7,4.5-1.3c0.8,0.2,1.2,0.7,1.4,1.6c1,4.6,0.1,6.5-0.6,8c-0.1,0.3-0.3,0.6-0.4,0.9l-0.1,0.2
					c-0.2,0.6-0.4,1.2-0.6,1.7C779.6,224.4,778.5,223.9,777.7,223L777.7,223z M774,227.9c-1,1.2-1.6,0.9-1.8,0.9
					c-1.4-0.5-3.1-3.5-4.5-8.3c-1.3-4.1-2-8.3-2.1-9.5c-0.2-3.7,0.7-6.3,2.7-7.6c3.2-2.2,8.4-0.9,10.5-0.2l-0.1,0.1
					c-3.4,3.5-3.4,9.4-3.3,9.8c0,0.1,0,0.3,0,0.6c0.1,1,0.2,2.9-0.1,5c-0.3,2,0.3,3.9,1.7,5.2c0.1,0.1,0.3,0.3,0.4,0.4
					C776.7,224.9,775.4,226.3,774,227.9z M793.5,201.6c3.5,0.1,6.2,1.4,8.2,3.9c1.5,1.9-0.2,10.6-4.9,18.1c0-0.1-0.1-0.1-0.1-0.2
					l-0.1-0.1c1.2-2,1-4.1,0.8-5.8c-0.1-0.7-0.2-1.4-0.2-2.1c0-0.7,0.1-1.3,0.2-1.9c0.1-0.7,0.2-1.4,0.2-2.3c0-0.1,0-0.2,0-0.3
					c-0.1-0.8-1-3.3-2.9-5.5c-1-1.2-2.6-2.6-4.7-3.5C790.9,201.8,792.2,201.6,793.5,201.6z M796.4,211.7c0,0.6-0.1,1.1-0.2,1.7
					c-0.1,0.6-0.2,1.2-0.2,2c0,0.7,0.1,1.5,0.2,2.3c0.2,1.5,0.4,3.1-0.4,4.6c-0.1-0.2-0.2-0.4-0.3-0.7c-0.1-0.2-0.3-0.6-0.6-1
					c-1-1.9-3.5-6.3-2.2-8.1C793.1,212,794,211.4,796.4,211.7z M803.6,225.4c-0.2-0.6-0.8-0.7-1.8-0.5c-2.9,0.6-4,0.2-4.3-0.1
					c2.3-3.5,4.2-7.7,5.2-11.6c0.5-1.9,0.7-3.6,0.8-5c0-1.5-0.2-2.7-0.8-3.4c-2.2-2.8-5.4-4.3-9.3-4.3c-2.7,0-4.9,0.7-5.4,0.8
					c-0.9-0.2-1.9-0.4-3-0.4c-2,0-3.7,0.4-5.2,1.4c-0.6-0.2-2.2-0.8-4.2-1.1c-3.4-0.5-6.1-0.1-8.1,1.2c-2.3,1.6-3.4,4.6-3.2,8.7
					c0.1,1.4,0.9,5.7,2.1,9.8c1.6,5.4,3.4,8.4,5.3,9.1c0.2,0.1,0.5,0.1,0.8,0.1c0.7,0,1.5-0.3,2.4-1.4c1.1-1.3,2.2-2.5,3.3-3.7
					c0.7,0.4,1.6,0.6,2.4,0.6c0,0,0,0,0,0.1c-0.1,0.2-0.3,0.3-0.4,0.5c-0.6,0.7-0.7,0.9-2.5,1.3c-0.5,0.1-1.9,0.4-1.9,1.4
					c0,1.1,1.7,1.5,1.8,1.6c0.7,0.2,1.3,0.2,1.9,0.2c1.5,0,2.8-0.5,3.8-1.4c0,3.8,0.1,7.6,0.6,8.7c0.4,0.9,1.3,3.2,4.2,3.2
					c0.4,0,0.9,0,1.4-0.2c3-0.6,4.3-2,4.9-4.9c0.3-1.6,0.7-5.3,1-7.4c0.5,0.1,1.1,0.2,1.7,0.2c1.3,0,2.9-0.3,3.9-0.7
					C802,227.7,804,226.4,803.6,225.4z"/>
			</defs>
			<clipPath id="SVGID_18_">
				<use xlink:href="#SVGID_17_"  style="overflow:visible;"/>
			</clipPath>
			<g class="st37">
				<g>
					<defs>
						<rect id="SVGID_19_" x="-2.1" y="46" width="862.9" height="238.1"/>
					</defs>
					<clipPath id="SVGID_20_">
						<use xlink:href="#SVGID_19_"  style="overflow:visible;"/>
					</clipPath>
					<rect x="763.3" y="199.4" class="st38" width="41.4" height="42.9"/>
				</g>
			</g>
		</g>
	</g>
</g>
<g>
	<g id="g951" transform="matrix(0.92419023,0,0,0.92419023,-186.26192,-7.0233474)">
		<path id="path88" class="st39" d="M677.1,233.2l-6.7,7h-0.1v-0.1c1.3-2.2,5.2-8.5,5.2-8.5L677.1,233.2z"/>
		<path id="path90" class="st40" d="M680.1,250.9v-5c0.8,0.6,1.6,1.3,2.3,2c1.9,1.9,3.4,4.1,4.6,6.5L680.1,250.9z M691,259.1
			c-1.6-7.5-6.5-13.9-13.3-17.4v8l-0.8-0.4c-0.3-0.2-0.6-0.4-0.9-0.7c-2-1.9-2.1-5.1-0.2-7.1l5.6-5.9l0,0c1.3-1.4,1.3-3.7-0.2-5
			c-1.4-1.3-3.8-1.6-5.8,1l1.7,1.6l0.8-0.8c0.5-0.5,1.3-0.5,1.8-0.1c0.5,0.5,0.5,1.2,0.1,1.7l-5.6,5.8c-0.5,0.5-0.9,1.1-1.2,1.8
			c-1.8,3.6-0.4,8,3.3,9.9l1.5,0.8v17.1l2.4-3.2v-12.6L691,259.1"/>
	</g>
</g>
<g>
	<g>
		<g>
			<defs>
				<path id="SVGID_21_" d="M1520.3,233c-2.2,1.2-13.7,5.9-16.2,7.2c-2.4,1.3-3.8,1.3-5.7,0.3c-1.9-0.9-14.2-5.9-16.4-6.9
					c-1.1-0.5-1.7-1-1.7-1.4V228c0,0,15.9-3.5,18.5-4.4s3.5-1,5.6-0.2c2.2,0.8,15.3,3.2,17.4,4c0,0,0,3.8,0,4.1
					C1521.9,232,1521.4,232.4,1520.3,233"/>
			</defs>
			<clipPath id="SVGID_22_">
				<use xlink:href="#SVGID_21_"  style="overflow:visible;"/>
			</clipPath>
			<g class="st41">
				<g>
					<defs>
						<rect id="SVGID_23_" x="769" y="44" width="891.7" height="246.1"/>
					</defs>
					<clipPath id="SVGID_24_">
						<use xlink:href="#SVGID_23_"  style="overflow:visible;"/>
					</clipPath>
					<rect x="1479.3" y="221.8" class="st42" width="43.7" height="20.4"/>
				</g>
			</g>
		</g>
	</g>
	<g>
		<g>
			<defs>
				<path id="SVGID_25_" d="M1520.3,228.8c-2.2,1.2-13.7,5.9-16.2,7.2c-2.4,1.3-3.8,1.3-5.7,0.3c-1.9-0.9-14.2-5.9-16.4-6.9
					c-2.2-1.1-2.2-1.8-0.1-2.6c2.2-0.8,14.3-5.6,16.9-6.5s3.5-1,5.6-0.2c2.2,0.8,13.6,5.3,15.8,6.1
					C1522.4,227,1522.5,227.7,1520.3,228.8"/>
			</defs>
			<clipPath id="SVGID_26_">
				<use xlink:href="#SVGID_25_"  style="overflow:visible;"/>
			</clipPath>
			<g class="st43">
				<g>
					<defs>
						<rect id="SVGID_27_" x="769" y="44" width="891.7" height="246.1"/>
					</defs>
					<clipPath id="SVGID_28_">
						<use xlink:href="#SVGID_27_"  style="overflow:visible;"/>
					</clipPath>
					<rect x="1479.3" y="218.4" class="st44" width="43.7" height="19.6"/>
				</g>
			</g>
		</g>
	</g>
	<g>
		<g>
			<defs>
				<path id="SVGID_29_" d="M1520.3,226.2c-2.2,1.2-13.7,5.9-16.2,7.2c-2.4,1.3-3.8,1.3-5.7,0.3c-1.9-0.9-14.2-5.9-16.4-6.9
					c-1.1-0.5-1.7-1-1.7-1.4v-4.2c0,0,15.9-3.5,18.5-4.4s3.5-1,5.6-0.2c2.2,0.8,15.3,3.2,17.4,4c0,0,0,3.8,0,4.1
					C1521.9,225.2,1521.4,225.6,1520.3,226.2"/>
			</defs>
			<clipPath id="SVGID_30_">
				<use xlink:href="#SVGID_29_"  style="overflow:visible;"/>
			</clipPath>
			<g class="st45">
				<g>
					<defs>
						<rect id="SVGID_31_" x="769" y="44" width="891.7" height="246.1"/>
					</defs>
					<clipPath id="SVGID_32_">
						<use xlink:href="#SVGID_31_"  style="overflow:visible;"/>
					</clipPath>
					<rect x="1479.3" y="215" class="st46" width="43.7" height="20.4"/>
				</g>
			</g>
		</g>
	</g>
	<g>
		<g>
			<defs>
				<path id="SVGID_33_" d="M1520.3,222c-2.2,1.2-13.7,5.9-16.2,7.2c-2.4,1.3-3.8,1.3-5.7,0.3c-1.9-0.9-14.2-5.9-16.4-6.9
					c-2.2-1.1-2.2-1.8-0.1-2.6c2.2-0.8,14.3-5.6,16.9-6.5s3.5-1,5.6-0.2c2.2,0.8,13.6,5.3,15.8,6.1
					C1522.4,220.2,1522.5,220.9,1520.3,222"/>
			</defs>
			<clipPath id="SVGID_34_">
				<use xlink:href="#SVGID_33_"  style="overflow:visible;"/>
			</clipPath>
			<g class="st47">
				<g>
					<defs>
						<rect id="SVGID_35_" x="769" y="44" width="891.7" height="246.1"/>
					</defs>
					<clipPath id="SVGID_36_">
						<use xlink:href="#SVGID_35_"  style="overflow:visible;"/>
					</clipPath>
					<rect x="1479.3" y="211.6" class="st48" width="43.7" height="19.6"/>
				</g>
			</g>
		</g>
	</g>
	<g>
		<g>
			<defs>
				<path id="SVGID_37_" d="M1520.3,219.2c-2.2,1.2-13.7,5.9-16.2,7.2c-2.4,1.3-3.8,1.3-5.7,0.3c-1.9-0.9-14.2-5.9-16.4-6.9
					c-1.1-0.5-1.7-1-1.7-1.4v-4.2c0,0,15.9-3.5,18.5-4.4s3.5-1,5.6-0.2c2.2,0.8,15.3,3.2,17.4,4c0,0,0,3.8,0,4.1
					C1521.9,218.1,1521.4,218.6,1520.3,219.2"/>
			</defs>
			<clipPath id="SVGID_38_">
				<use xlink:href="#SVGID_37_"  style="overflow:visible;"/>
			</clipPath>
			<g class="st49">
				<g>
					<defs>
						<rect id="SVGID_39_" x="769" y="44" width="891.7" height="246.1"/>
					</defs>
					<clipPath id="SVGID_40_">
						<use xlink:href="#SVGID_39_"  style="overflow:visible;"/>
					</clipPath>
					<rect x="1479.3" y="208" class="st50" width="43.7" height="20.4"/>
				</g>
			</g>
		</g>
	</g>
	<g>
		<g>
			<defs>
				<path id="SVGID_41_" d="M1520.3,215c-2.2,1.2-13.7,5.9-16.2,7.2c-2.4,1.3-3.8,1.3-5.7,0.3c-1.9-0.9-14.2-5.9-16.4-6.9
					c-2.2-1.1-2.2-1.8-0.1-2.6c2.2-0.8,14.3-5.6,16.9-6.5s3.5-1,5.6-0.2c2.2,0.8,13.6,5.3,15.8,6.1S1522.5,213.8,1520.3,215"/>
			</defs>
			<clipPath id="SVGID_42_">
				<use xlink:href="#SVGID_41_"  style="overflow:visible;"/>
			</clipPath>
			<g class="st51">
				<g>
					<defs>
						<rect id="SVGID_43_" x="769" y="44" width="891.7" height="246.1"/>
					</defs>
					<clipPath id="SVGID_44_">
						<use xlink:href="#SVGID_43_"  style="overflow:visible;"/>
					</clipPath>
					<rect x="1479.3" y="204.6" class="st52" width="43.7" height="19.6"/>
				</g>
			</g>
		</g>
	</g>
	<g>
		<g>
			<defs>
				<polyline id="SVGID_45_" points="1506.2,210.9 1502.7,211.3 1501.9,213.2 1500.6,211 1496.5,210.7 1499.5,209.6 1498.6,207.9 
					1501.5,209 1504.2,208.1 1503.5,209.9 1506.2,210.9 				"/>
			</defs>
			<clipPath id="SVGID_46_">
				<use xlink:href="#SVGID_45_"  style="overflow:visible;"/>
			</clipPath>
			<g class="st53">
				<g>
					<defs>
						<rect id="SVGID_47_" x="769" y="44" width="891.7" height="246.1"/>
					</defs>
					<clipPath id="SVGID_48_">
						<use xlink:href="#SVGID_47_"  style="overflow:visible;"/>
					</clipPath>
					<rect x="1495.4" y="206.8" class="st54" width="11.9" height="7.5"/>
				</g>
			</g>
		</g>
	</g>
	<g>
		<g>
			<defs>
				<polyline id="SVGID_49_" points="1501.7,220.2 1495,217.5 1504.5,216 1501.7,220.2 				"/>
			</defs>
			<clipPath id="SVGID_50_">
				<use xlink:href="#SVGID_49_"  style="overflow:visible;"/>
			</clipPath>
			<g class="st55">
				<g>
					<defs>
						<rect id="SVGID_51_" x="769" y="44" width="891.7" height="246.1"/>
					</defs>
					<clipPath id="SVGID_52_">
						<use xlink:href="#SVGID_51_"  style="overflow:visible;"/>
					</clipPath>
					<rect x="1493.9" y="214.9" class="st56" width="11.7" height="6.4"/>
				</g>
			</g>
		</g>
	</g>
	<g>
		<g>
			<defs>
				<path id="SVGID_53_" d="M1492.4,212c2.8,0,5.1,0.9,5.1,2s-2.3,2-5.1,2s-5.1-0.9-5.1-2S1489.6,212,1492.4,212"/>
			</defs>
			<clipPath id="SVGID_54_">
				<use xlink:href="#SVGID_53_"  style="overflow:visible;"/>
			</clipPath>
			<g class="st57">
				<g>
					<defs>
						<rect id="SVGID_55_" x="769" y="44" width="891.7" height="246.1"/>
					</defs>
					<clipPath id="SVGID_56_">
						<use xlink:href="#SVGID_55_"  style="overflow:visible;"/>
					</clipPath>
					<rect x="1486.2" y="210.9" class="st58" width="12.4" height="6.1"/>
				</g>
			</g>
		</g>
	</g>
	<g>
		<g>
			<defs>
				<polyline id="SVGID_57_" points="1510.5,211.4 1516.1,213.7 1510.5,215.9 1510.5,211.4 				"/>
			</defs>
			<clipPath id="SVGID_58_">
				<use xlink:href="#SVGID_57_"  style="overflow:visible;"/>
			</clipPath>
			<g class="st59">
				<g>
					<defs>
						<rect id="SVGID_59_" x="769" y="44" width="891.7" height="246.1"/>
					</defs>
					<clipPath id="SVGID_60_">
						<use xlink:href="#SVGID_59_"  style="overflow:visible;"/>
					</clipPath>
					<rect x="1509.4" y="210.3" class="st60" width="7.8" height="6.6"/>
				</g>
			</g>
		</g>
	</g>
	<g>
		<g>
			<defs>
				<polyline id="SVGID_61_" points="1504.2,213.9 1510.5,211.4 1510.5,215.9 1509.9,216.1 1504.2,213.9 				"/>
			</defs>
			<clipPath id="SVGID_62_">
				<use xlink:href="#SVGID_61_"  style="overflow:visible;"/>
			</clipPath>
			<g class="st61">
				<g>
					<defs>
						<rect id="SVGID_63_" x="769" y="44" width="891.7" height="246.1"/>
					</defs>
					<clipPath id="SVGID_64_">
						<use xlink:href="#SVGID_63_"  style="overflow:visible;"/>
					</clipPath>
					<rect x="1503.1" y="210.3" class="st62" width="8.4" height="6.9"/>
				</g>
			</g>
		</g>
	</g>
</g>
<text transform="matrix(0.9445 0 0 1 701.5781 804.2472)" class="st2 st3 st4">cStorPool instance2</text>
<text transform="matrix(0.9445 0 0 1 1042.46 800.3741)" class="st2 st3 st4">cStorPool instance3</text>
<text transform="matrix(0.9445 0 0 1 1410.457 804.2472)" class="st2 st3 st4">cStorPool instance4</text>
<text transform="matrix(0.9445 0 0 1 371.5698 763.9425)" class="st2 st3 st4">volume replicas</text>
<text transform="matrix(0.9445 0 0 1 727.4961 768.3077)" class="st2 st3 st4">volume replicas</text>
<text transform="matrix(0.9445 0 0 1 1062.5674 771.1818)" class="st2 st3 st4">volume replicas</text>
<text transform="matrix(0.9445 0 0 1 1432.502 768.3077)" class="st2 st3 st4">volume replicas</text>
<g id="EDrpaG.tif">
	
		<image style="overflow:visible;enable-background:new    ;" width="2031" height="1890" id="Layer_0_1_" xlink:href="71D8A9A134D8F7A5.png"  transform="matrix(3.473405e-02 0 0 3.473405e-02 141.3698 144.0981)">
	</image>
</g>
</svg>
