<svg id="Layer_1" data-name="Layer 1" xmlns="http://www.w3.org/2000/svg" viewBox="0 0 1901.66 1249.26"><defs><style>.cls-1,.cls-14,.cls-15,.cls-17,.cls-2{fill:none;stroke-width:2px;}.cls-1,.cls-18,.cls-2{stroke:#f26724;}.cls-1,.cls-14,.cls-15,.cls-17,.cls-18,.cls-2,.cls-3,.cls-9{stroke-miterlimit:10;}.cls-1,.cls-14{stroke-dasharray:6 6;}.cls-12,.cls-13,.cls-3,.cls-9{fill:#fff;}.cls-3{stroke:#f15a24;}.cls-12,.cls-13,.cls-16,.cls-4,.cls-5,.cls-6,.cls-7,.cls-9{isolation:isolate;}.cls-12,.cls-4,.cls-5{font-size:36px;}.cls-16,.cls-4,.cls-5,.cls-6{fill:#6e6f72;}.cls-4{font-family:Helvetica-Bold, Helvetica;font-weight:700;}.cls-12,.cls-13,.cls-16,.cls-5,.cls-6{font-family:Helvetica;}.cls-13,.cls-6,.cls-9{font-size:24px;}.cls-18,.cls-7{fill:#f15a24;}.cls-7{opacity:0.1;}.cls-8{fill:#606060;}.cls-9{stroke:#fff;font-family:Helvetica-Light, Helvetica;font-weight:300;}.cls-10{fill:#777575;}.cls-11{fill:#2f8bd1;}.cls-14,.cls-15{stroke:#2f8bd1;}.cls-16{font-size:18px;}.cls-17{stroke:#bcb8b8;}</style></defs><title>ndm</title><path class="cls-1" d="M1805.48,1143.58H122.88c-11,0-20-11.21-20-25V118c0-13.82,9-25,20-25h1682.6c11,0,20,11.21,20,25v1000.5c0,13.78-8.85,25-19.86,25Z"/><line class="cls-2" x1="400.79" y1="1199.08" x2="400.79" y2="1196.08"/><line class="cls-2" x1="742.69" y1="1199.08" x2="742.69" y2="1196.08"/><line class="cls-2" x1="1089.49" y1="1199.08" x2="1089.59" y2="1196.08"/><line class="cls-2" x1="1436.29" y1="1199.08" x2="1436.39" y2="1196.08"/><line class="cls-2" x1="1808.19" y1="1199.08" x2="1808.19" y2="1196.08"/><path class="cls-3" d="M1392.31,126.16H499.43c-6.8,0-12.32-5.15-12.32-11.5h0V74.25c0-6.35,5.52-11.5,12.32-11.5h892.78c6.8,0,12.32,5.15,12.32,11.5v40.4c0,6.3-5.38,11.46-12.14,11.51Z"/><text class="cls-4" transform="translate(689.24 107.92) scale(0.94 1)">Node Device Manager or NDM</text><text class="cls-5" transform="translate(895.72 1127.76) scale(0.94 1)">Nodes</text><text class="cls-6" transform="translate(1508.81 417.12) scale(0.94 1)">Admin</text><text class="cls-6" transform="translate(714.65 713.42) scale(0.94 1)">Discover and add Block Device custom resources</text><path class="cls-7" d="M469.45,1058.73H207.74c-1.81,0-3.27-5.14-3.27-11.48V830.64c0-6.34,1.46-11.48,3.27-11.48h261.7c1.8,0,3.26,5.14,3.26,11.48v216.61c0,6.32-1.44,11.46-3.24,11.48Z"/><rect class="cls-8" x="256.85" y="984.48" width="163.47" height="53.67"/><text class="cls-9" transform="translate(281.55 1017.37) scale(0.94 1)">Local disks</text><rect class="cls-10" x="240.51" y="874.99" width="200.19" height="51.86"/><text class="cls-9" transform="translate(254.11 907.87) scale(0.94 1)">NDM Daemonset</text><path class="cls-7" d="M879.48,1058.73H617.77c-1.8,0-3.26-5.14-3.26-11.48V830.64c0-6.34,1.46-11.48,3.26-11.48h261.7c1.8,0,3.26,5.14,3.26,11.48v216.61c0,6.32-1.44,11.46-3.23,11.48Z"/><rect class="cls-8" x="666.89" y="984.48" width="163.47" height="53.67"/><text class="cls-9" transform="translate(691.58 1017.37) scale(0.94 1)">Local disks</text><rect class="cls-10" x="650.55" y="874.99" width="200.19" height="51.86"/><text class="cls-9" transform="translate(664.15 907.87) scale(0.94 1)">NDM Daemonset</text><path class="cls-7" d="M1289.51,1058.73H1027.8c-1.8,0-3.26-5.14-3.26-11.48V830.64c0-6.34,1.46-11.48,3.26-11.48h261.71c1.8,0,3.26,5.14,3.26,11.48v216.61c0,6.32-1.44,11.46-3.24,11.48Z"/><rect class="cls-8" x="1076.92" y="984.48" width="163.47" height="53.67"/><text class="cls-9" transform="translate(1101.61 1017.37) scale(0.94 1)">Local disks</text><rect class="cls-10" x="1060.58" y="874.99" width="200.19" height="51.86"/><text class="cls-9" transform="translate(1074.18 907.87) scale(0.94 1)">NDM Daemonset</text><path class="cls-7" d="M1699.55,1058.73H1437.84c-1.8,0-3.26-5.14-3.26-11.48V830.64c0-6.34,1.46-11.48,3.26-11.48h261.7c1.8,0,3.26,5.14,3.26,11.48v216.61c0,6.32-1.44,11.46-3.23,11.48Z"/><rect class="cls-8" x="1486.95" y="984.48" width="163.47" height="53.67"/><text class="cls-9" transform="translate(1511.65 1017.37) scale(0.94 1)">Local disks</text><rect class="cls-10" x="1470.62" y="874.99" width="200.19" height="51.86"/><text class="cls-9" transform="translate(1484.22 907.87) scale(0.94 1)">NDM Daemonset</text><rect class="cls-11" x="256.85" y="450.39" width="358.47" height="129.39" rx="12"/><text class="cls-12" transform="translate(281.56 481.89) scale(0.94 1)">etcd</text><text class="cls-13" transform="translate(355.02 536.28) scale(0.94 1)">Block Device (BD) CRs</text><line class="cls-14" x1="443.69" y1="604.51" x2="443.46" y2="722.45"/><path class="cls-11" d="M443.71,592.44c-2.12,5.67-5.73,12.71-9.54,17.07l9.51-3.42,9.51,3.46C449.39,605.18,445.8,598.12,443.71,592.44Z"/><line class="cls-14" x1="539.41" y1="288.85" x2="539.41" y2="346.36"/><path class="cls-11" d="M539.41,276.78c-2.11,5.68-5.71,12.73-9.51,17.1l9.51-3.44,9.51,3.44C545.11,289.51,541.51,282.46,539.41,276.78Z"/><line class="cls-14" x1="950.75" y1="288.85" x2="950.75" y2="346.36"/><path class="cls-11" d="M950.75,276.78c-2.11,5.68-5.71,12.73-9.51,17.1l9.51-3.44,9.51,3.44C956.45,289.51,952.85,282.46,950.75,276.78Z"/><line class="cls-15" x1="331.38" y1="739.35" x2="331.38" y2="814.87"/><path class="cls-11" d="M331.38,727.28c-2.11,5.68-5.7,12.73-9.51,17.1l9.51-3.45,9.51,3.45C337.08,740,333.48,733,331.38,727.28Z"/><line class="cls-15" x1="746.39" y1="739.35" x2="746.39" y2="814.87"/><path class="cls-11" d="M746.39,727.28c-2.11,5.68-5.7,12.73-9.51,17.1l9.51-3.45,9.51,3.45C752.09,740,748.5,733,746.39,727.28Z"/><line class="cls-15" x1="1155.11" y1="739.35" x2="1155.11" y2="814.87"/><path class="cls-11" d="M1155.11,727.28c-2.11,5.68-5.71,12.73-9.52,17.1l9.52-3.45,9.51,3.45C1160.81,740,1157.21,733,1155.11,727.28Z"/><line class="cls-15" x1="1559.04" y1="739.35" x2="1559.04" y2="814.87"/><path class="cls-11" d="M1559,727.28c-2.1,5.68-5.7,12.73-9.51,17.1l9.51-3.45,9.51,3.45C1564.75,740,1561.15,733,1559,727.28Z"/><line class="cls-15" x1="331.63" y1="727.75" x2="1563.87" y2="727.75"/><text class="cls-6" transform="translate(1286.03 528.87) scale(0.94 1)">NDM configmap</text><text class="cls-16" transform="translate(1295.87 568.24) scale(0.94 1)">exclude disk filters</text><text class="cls-16" transform="translate(1295.87 603.92) scale(0.94 1)">include disk filters</text><rect class="cls-17" x="1198.44" y="492.6" width="276.44" height="124.8"/><line class="cls-17" x1="1211.2" y1="528.19" x2="1253.89" y2="528.19"/><line class="cls-17" x1="1211.2" y1="540.5" x2="1253.89" y2="540.5"/><line class="cls-17" x1="1211.2" y1="517.35" x2="1253.89" y2="517.35"/><line class="cls-17" x1="1211.2" y1="506.05" x2="1253.89" y2="506.05"/><line class="cls-15" x1="1537.79" y1="428.97" x2="1537.79" y2="531.47"/><line class="cls-15" x1="1539.02" y1="531.62" x2="1485.74" y2="531.62"/><path class="cls-11" d="M1473.67,531.62c5.68-2.11,12.73-5.7,17.09-9.51l-3.44,9.51,3.44,9.51C1486.4,537.32,1479.35,533.73,1473.67,531.62Z"/><rect class="cls-10" x="392.93" y="188.57" width="301.66" height="79.64" rx="12"/><text class="cls-13" transform="translate(442.19 232.92) scale(0.94 1)">LocalPV Provisioner</text><rect class="cls-10" x="808.74" y="191.4" width="301.66" height="79.64" rx="12"/><text class="cls-13" transform="translate(858 235.75) scale(0.94 1)">cStor Pool Provisioner</text><rect class="cls-18" x="731.94" y="390.7" width="301.66" height="79.64" rx="12"/><text class="cls-13" transform="translate(809.43 435.05) scale(0.94 1)">NDM Operator</text><text class="cls-6" transform="translate(1278.66 245.66) scale(0.94 1)">cStor pool config</text><text class="cls-16" transform="translate(1265.51 296.95) scale(0.94 1)">Block Device CR entries</text><rect class="cls-17" x="1191.07" y="209.39" width="276.44" height="124.8"/><line class="cls-17" x1="1203.84" y1="244.98" x2="1246.53" y2="244.98"/><line class="cls-17" x1="1203.84" y1="257.29" x2="1246.53" y2="257.29"/><line class="cls-17" x1="1203.84" y1="234.14" x2="1246.53" y2="234.14"/><line class="cls-17" x1="1203.84" y1="222.84" x2="1246.53" y2="222.84"/><line class="cls-15" x1="1537.79" y1="282.76" x2="1537.79" y2="388.61"/><line class="cls-15" x1="881.18" y1="484.86" x2="881.18" y2="521.71"/><path class="cls-11" d="M881.18,472.79c-2.1,5.68-5.7,12.73-9.51,17.1l9.51-3.44,9.51,3.44C886.88,485.52,883.29,478.47,881.18,472.79Z"/><line class="cls-14" x1="826.72" y1="343.06" x2="826.72" y2="379.9"/><path class="cls-11" d="M826.72,392c-2.11-5.68-5.7-12.72-9.51-17.09l9.51,3.44,9.51-3.44C832.42,379.25,828.83,386.29,826.72,392Z"/><line class="cls-15" x1="1539.01" y1="282.66" x2="1485.74" y2="282.66"/><path class="cls-11" d="M1473.67,282.66c5.68-2.11,12.72-5.71,17.09-9.51l-3.44,9.51,3.44,9.51C1486.39,288.36,1479.35,284.76,1473.67,282.66Z"/><line class="cls-15" x1="880.81" y1="520.78" x2="633.77" y2="520.78"/><path class="cls-11" d="M621.7,520.78c5.68-2.11,12.72-5.7,17.09-9.51l-3.44,9.51,3.44,9.51C634.42,526.48,627.38,522.88,621.7,520.78Z"/><line class="cls-14" x1="953.67" y1="344.11" x2="536.97" y2="344.11"/></svg>